ISO-10303-21;
HEADER;
FILE_DESCRIPTION (( 'STEP AP203' ),
    '1' );
FILE_NAME ('base2.STEP',
    '2026-08-12T09:42:56',
    ( '' ),
    ( '' ),
    'SwSTEP 2.0',
    'SolidWorks 2025',
    '' );
FILE_SCHEMA (( 'CONFIG_CONTROL_DESIGN' ));
ENDSEC;

DATA;
#1 = CARTESIAN_POINT ( 'NONE',  ( -0.1004918046581095570, 0.01562318840579709177, 0.003000000000000000062 ) ) ;
#2 = DIRECTION ( 'NONE',  ( -0.000000000000000000, -0.000000000000000000, -1.000000000000000000 ) ) ;
#3 = EDGE_LOOP ( 'NONE', ( #595, #766 ) ) ;
#4 = EDGE_CURVE ( 'NONE', #276, #736, #692, .T. ) ;
#5 = CARTESIAN_POINT ( 'NONE',  ( -0.03040579710144924314, -0.02067895529696645723, 0.003000000000000000062 ) ) ;
#6 = AXIS2_PLACEMENT_3D ( 'NONE', #507, #710, #67 ) ;
#7 = FACE_BOUND ( 'NONE', #754, .T. ) ;
#8 = FACE_BOUND ( 'NONE', #56, .T. ) ;
#9 = EDGE_LOOP ( 'NONE', ( #688, #45 ) ) ;
#10 = EDGE_CURVE ( 'NONE', #783, #564, #701, .T. ) ;
#11 = AXIS2_PLACEMENT_3D ( 'NONE', #758, #574, #55 ) ;
#12 = CARTESIAN_POINT ( 'NONE',  ( 0.04768021045521106394, -0.02067895529696647111, 0.003000000000000000062 ) ) ;
#13 = DIRECTION ( 'NONE',  ( 0.000000000000000000, 0.000000000000000000, 1.000000000000000000 ) ) ;
#14 = ORIENTED_EDGE ( 'NONE', *, *, #277, .F. ) ;
#15 = APPROVAL_PERSON_ORGANIZATION ( #657, #413, #209 ) ;
#16 = EDGE_CURVE ( 'NONE', #307, #288, #817, .T. ) ;
#17 = DIRECTION ( 'NONE',  ( 0.000000000000000000, 0.000000000000000000, 1.000000000000000000 ) ) ;
#18 = CARTESIAN_POINT ( 'NONE',  ( -0.1004918046581095570, 0.05192533210856064424, 0.003000000000000000062 ) ) ;
#19 = CIRCLE ( 'NONE', #264, 0.004000000000000003553 ) ;
#20 = ORIENTED_EDGE ( 'NONE', *, *, #321, .T. ) ;
#21 = AXIS2_PLACEMENT_3D ( 'NONE', #203, #376, #458 ) ;
#22 = EDGE_CURVE ( 'NONE', #288, #449, #424, .T. ) ;
#23 = FACE_OUTER_BOUND ( 'NONE', #439, .T. ) ;
#24 = VERTEX_POINT ( 'NONE', #240 ) ;
#25 = CARTESIAN_POINT ( 'NONE',  ( 0.04768021045521106394, -0.02067895529696647111, 0.003000000000000000062 ) ) ;
#26 = VERTEX_POINT ( 'NONE', #501 ) ;
#27 = COORDINATED_UNIVERSAL_TIME_OFFSET ( 3, 0, .AHEAD. ) ;
#28 =( GEOMETRIC_REPRESENTATION_CONTEXT ( 3 ) GLOBAL_UNCERTAINTY_ASSIGNED_CONTEXT ( ( #556 ) ) GLOBAL_UNIT_ASSIGNED_CONTEXT ( ( #127, #690, #627 ) ) REPRESENTATION_CONTEXT ( 'NONE', 'WORKASPACE' ) );
#29 = DIRECTION ( 'NONE',  ( -0.000000000000000000, -0.000000000000000000, -1.000000000000000000 ) ) ;
#30 = ORIENTED_EDGE ( 'NONE', *, *, #663, .T. ) ;
#31 = EDGE_CURVE ( 'NONE', #709, #276, #414, .T. ) ;
#32 = DIRECTION ( 'NONE',  ( -0.000000000000000000, -0.000000000000000000, -1.000000000000000000 ) ) ;
#33 = DIRECTION ( 'NONE',  ( -0.000000000000000000, -0.000000000000000000, -1.000000000000000000 ) ) ;
#34 = ORIENTED_EDGE ( 'NONE', *, *, #624, .F. ) ;
#35 = CC_DESIGN_PERSON_AND_ORGANIZATION_ASSIGNMENT ( #591, #270, ( #785 ) ) ;
#36 = DIRECTION ( 'NONE',  ( -1.000000000000000000, 0.000000000000000000, 0.000000000000000000 ) ) ;
#37 = AXIS2_PLACEMENT_3D ( 'NONE', #601, #29, #338 ) ;
#38 = ORIENTED_EDGE ( 'NONE', *, *, #526, .F. ) ;
#39 = DIRECTION ( 'NONE',  ( 0.000000000000000000, 0.000000000000000000, 1.000000000000000000 ) ) ;
#40 = ORIENTED_EDGE ( 'NONE', *, *, #540, .T. ) ;
#41 = AXIS2_PLACEMENT_3D ( 'NONE', #675, #484, #294 ) ;
#42 = FACE_OUTER_BOUND ( 'NONE', #54, .T. ) ;
#43 = CC_DESIGN_PERSON_AND_ORGANIZATION_ASSIGNMENT ( #393, #653, ( #565 ) ) ;
#44 = DIRECTION ( 'NONE',  ( 1.000000000000000000, 0.000000000000000000, 0.000000000000000000 ) ) ;
#45 = ORIENTED_EDGE ( 'NONE', *, *, #438, .T. ) ;
#46 = AXIS2_PLACEMENT_3D ( 'NONE', #47, #222, #36 ) ;
#47 = CARTESIAN_POINT ( 'NONE',  ( 0.04768021045521106394, 0.01562318840579709177, 0.003000000000000000062 ) ) ;
#48 = ORIENTED_EDGE ( 'NONE', *, *, #326, .F. ) ;
#49 = ORIENTED_EDGE ( 'NONE', *, *, #674, .T. ) ;
#50 = EDGE_CURVE ( 'NONE', #71, #362, #299, .T. ) ;
#51 = CARTESIAN_POINT ( 'NONE',  ( -0.1004918046581095570, -0.02067895529696645723, 0.003000000000000000062 ) ) ;
#52 = CARTESIAN_POINT ( 'NONE',  ( 0.05168021045521106749, -0.02067895529696647111, 0.003000000000000000062 ) ) ;
#53 = AXIS2_PLACEMENT_3D ( 'NONE', #220, #283, #410 ) ;
#54 = EDGE_LOOP ( 'NONE', ( #304, #14, #83, #208 ) ) ;
#55 = DIRECTION ( 'NONE',  ( 1.000000000000000000, 0.000000000000000000, 0.000000000000000000 ) ) ;
#56 = EDGE_LOOP ( 'NONE', ( #112, #400 ) ) ;
#57 = VERTEX_POINT ( 'NONE', #505 ) ;
#58 = EDGE_CURVE ( 'NONE', #745, #728, #593, .T. ) ;
#59 = CYLINDRICAL_SURFACE ( 'NONE', #256, 0.004000000000000003553 ) ;
#60 = LINE ( 'NONE', #373, #483 ) ;
#61 = VERTEX_POINT ( 'NONE', #756 ) ;
#62 = CARTESIAN_POINT ( 'NONE',  ( -0.1004918046581095570, -0.02067895529696645723, 0.000000000000000000 ) ) ;
#63 = FACE_BOUND ( 'NONE', #525, .T. ) ;
#64 = ORIENTED_EDGE ( 'NONE', *, *, #79, .T. ) ;
#65 = APPROVAL_PERSON_ORGANIZATION ( #133, #397, #531 ) ;
#66 = VECTOR ( 'NONE', #470, 1.000000000000000000 ) ;
#67 = DIRECTION ( 'NONE',  ( -1.000000000000000000, 0.000000000000000000, 0.000000000000000000 ) ) ;
#68 = DIRECTION ( 'NONE',  ( -1.000000000000000000, 0.000000000000000000, 0.000000000000000000 ) ) ;
#69 = DIRECTION ( 'NONE',  ( 0.000000000000000000, 0.000000000000000000, 1.000000000000000000 ) ) ;
#70 = EDGE_CURVE ( 'NONE', #57, #814, #441, .T. ) ;
#71 = VERTEX_POINT ( 'NONE', #555 ) ;
#72 = CARTESIAN_POINT ( 'NONE',  ( 0.07359420289855075903, -0.03337681159420291532, 0.000000000000000000 ) ) ;
#73 = FACE_OUTER_BOUND ( 'NONE', #196, .T. ) ;
#74 = VERTEX_POINT ( 'NONE', #629 ) ;
#75 = VECTOR ( 'NONE', #660, 1.000000000000000000 ) ;
#76 = DIRECTION ( 'NONE',  ( -0.000000000000000000, -0.000000000000000000, -1.000000000000000000 ) ) ;
#77 = CARTESIAN_POINT ( 'NONE',  ( -0.02640579710144923958, -0.02067895529696645723, 0.000000000000000000 ) ) ;
#78 = ORIENTED_EDGE ( 'NONE', *, *, #421, .T. ) ;
#79 = EDGE_CURVE ( 'NONE', #709, #24, #821, .T. ) ;
#80 = APPROVAL_DATE_TIME ( #340, #413 ) ;
#81 = DIRECTION ( 'NONE',  ( -0.000000000000000000, -0.000000000000000000, -1.000000000000000000 ) ) ;
#82 = CIRCLE ( 'NONE', #775, 0.004000000000000003553 ) ;
#83 = ORIENTED_EDGE ( 'NONE', *, *, #351, .F. ) ;
#84 = CALENDAR_DATE ( 2026, 12, 8 ) ;
#85 = CARTESIAN_POINT ( 'NONE',  ( -0.02240579710144923603, -0.02067895529696645723, 0.003000000000000000062 ) ) ;
#86 = VECTOR ( 'NONE', #479, 1.000000000000000000 ) ;
#87 = APPLICATION_CONTEXT ( 'configuration controlled 3d designs of mechanical parts and assemblies' ) ;
#88 = ORIENTED_EDGE ( 'NONE', *, *, #347, .T. ) ;
#89 = PERSON_AND_ORGANIZATION ( #90, #365 ) ;
#90 = PERSON ( 'UNSPECIFIED', 'UNSPECIFIED', 'UNSPECIFIED', ('UNSPECIFIED'), ('UNSPECIFIED'), ('UNSPECIFIED') ) ;
#91 = FACE_OUTER_BOUND ( 'NONE', #795, .T. ) ;
#92 = EDGE_LOOP ( 'NONE', ( #263, #652 ) ) ;
#93 = DIRECTION ( 'NONE',  ( 1.000000000000000000, 0.000000000000000000, 0.000000000000000000 ) ) ;
#94 = CYLINDRICAL_SURFACE ( 'NONE', #722, 0.004000000000000000083 ) ;
#95 = VERTEX_POINT ( 'NONE', #698 ) ;
#96 = ADVANCED_FACE ( 'NONE', ( #120 ), #199, .F. ) ;
#97 = FACE_OUTER_BOUND ( 'NONE', #329, .T. ) ;
#98 = CARTESIAN_POINT ( 'NONE',  ( 0.05168021045521106749, 0.05192533210856064424, 0.003000000000000000062 ) ) ;
#99 = ORIENTED_EDGE ( 'NONE', *, *, #752, .T. ) ;
#100 = ADVANCED_FACE ( 'NONE', ( #765 ), #443, .F. ) ;
#101 = CARTESIAN_POINT ( 'NONE',  ( -0.1044918046581095605, -0.02067895529696645723, 0.000000000000000000 ) ) ;
#102 = VERTEX_POINT ( 'NONE', #529 ) ;
#103 = ADVANCED_FACE ( 'NONE', ( #650, #135, #8, #63, #259, #130, #267, #520, #510 ), #773, .T. ) ;
#104 = CARTESIAN_POINT ( 'NONE',  ( -0.02640579710144923958, 0.05192533210856064424, 0.003000000000000000062 ) ) ;
#105 = DIRECTION ( 'NONE',  ( -1.000000000000000000, -0.000000000000000000, -0.000000000000000000 ) ) ;
#106 = AXIS2_PLACEMENT_3D ( 'NONE', #225, #39, #609 ) ;
#107 = DIRECTION ( 'NONE',  ( 0.000000000000000000, 0.000000000000000000, 1.000000000000000000 ) ) ;
#108 = DIRECTION ( 'NONE',  ( 1.000000000000000000, 0.000000000000000000, 0.000000000000000000 ) ) ;
#109 = LINE ( 'NONE', #171, #123 ) ;
#110 = ORIENTED_EDGE ( 'NONE', *, *, #22, .F. ) ;
#111 = CIRCLE ( 'NONE', #325, 0.004000000000000003553 ) ;
#112 = ORIENTED_EDGE ( 'NONE', *, *, #760, .F. ) ;
#113 = DIRECTION ( 'NONE',  ( -1.000000000000000000, 0.000000000000000000, 0.000000000000000000 ) ) ;
#114 = CARTESIAN_POINT ( 'NONE',  ( -0.1004918046581095570, 0.01562318840579709177, 0.000000000000000000 ) ) ;
#115 = LOCAL_TIME ( 12, 42, 56.00000000000000000, #715 ) ;
#116 = CC_DESIGN_PERSON_AND_ORGANIZATION_ASSIGNMENT ( #213, #456, ( #343 ) ) ;
#117 = AXIS2_PLACEMENT_3D ( 'NONE', #697, #306, #134 ) ;
#118 = DIRECTION ( 'NONE',  ( -1.000000000000000000, 0.000000000000000000, 0.000000000000000000 ) ) ;
#119 = CARTESIAN_POINT ( 'NONE',  ( 0.05168021045521106749, 0.01562318840579709177, 0.003000000000000000062 ) ) ;
#120 = FACE_OUTER_BOUND ( 'NONE', #230, .T. ) ;
#121 = AXIS2_PLACEMENT_3D ( 'NONE', #357, #620, #44 ) ;
#122 = EDGE_LOOP ( 'NONE', ( #211, #391, #339, #546 ) ) ;
#123 = VECTOR ( 'NONE', #747, 1.000000000000000000 ) ;
#124 = CARTESIAN_POINT ( 'NONE',  ( 0.04368021045521106038, 0.01562318840579709177, 0.003000000000000000062 ) ) ;
#125 = CYLINDRICAL_SURFACE ( 'NONE', #117, 0.004000000000000003553 ) ;
#126 = DIRECTION ( 'NONE',  ( 1.000000000000000000, 0.000000000000000000, -0.000000000000000000 ) ) ;
#127 =( LENGTH_UNIT ( ) NAMED_UNIT ( * ) SI_UNIT ( $, .METRE. ) );
#128 = ADVANCED_FACE ( 'NONE', ( #73 ), #323, .F. ) ;
#129 = LINE ( 'NONE', #119, #228 ) ;
#130 = FACE_BOUND ( 'NONE', #167, .T. ) ;
#131 = ORIENTED_EDGE ( 'NONE', *, *, #337, .F. ) ;
#132 = SECURITY_CLASSIFICATION ( '', '', #662 ) ;
#133 = PERSON_AND_ORGANIZATION ( #90, #365 ) ;
#134 = DIRECTION ( 'NONE',  ( -1.000000000000000000, 0.000000000000000000, 0.000000000000000000 ) ) ;
#135 = FACE_BOUND ( 'NONE', #673, .T. ) ;
#136 = ORIENTED_EDGE ( 'NONE', *, *, #309, .F. ) ;
#137 = DATE_AND_TIME ( #84, #115 ) ;
#138 = CARTESIAN_POINT ( 'NONE',  ( 0.05168021045521106749, 0.01562318840579709177, 0.003000000000000000062 ) ) ;
#139 = DIRECTION ( 'NONE',  ( -1.000000000000000000, 0.000000000000000000, 0.000000000000000000 ) ) ;
#140 = VERTEX_POINT ( 'NONE', #793 ) ;
#141 = VECTOR ( 'NONE', #504, 1.000000000000000000 ) ;
#142 = APPROVAL_STATUS ( 'not_yet_approved' ) ;
#143 = DIRECTION ( 'NONE',  ( -1.000000000000000000, 0.000000000000000000, 0.000000000000000000 ) ) ;
#144 = ORIENTED_EDGE ( 'NONE', *, *, #22, .T. ) ;
#145 = ADVANCED_FACE ( 'NONE', ( #262 ), #524, .F. ) ;
#146 = EDGE_CURVE ( 'NONE', #759, #623, #372, .T. ) ;
#147 = AXIS2_PLACEMENT_3D ( 'NONE', #104, #679, #542 ) ;
#148 = CARTESIAN_POINT ( 'NONE',  ( -0.1264057971014492521, 0.06462318840579708845, 0.000000000000000000 ) ) ;
#149 = ORIENTED_EDGE ( 'NONE', *, *, #486, .F. ) ;
#150 = DATE_TIME_ROLE ( 'creation_date' ) ;
#151 = EDGE_CURVE ( 'NONE', #807, #557, #668, .T. ) ;
#152 = CARTESIAN_POINT ( 'NONE',  ( -0.02240579710144923603, -0.02067895529696645723, 0.003000000000000000062 ) ) ;
#153 = AXIS2_PLACEMENT_3D ( 'NONE', #356, #682, #290 ) ;
#154 = ORIENTED_EDGE ( 'NONE', *, *, #631, .F. ) ;
#155 = FACE_OUTER_BOUND ( 'NONE', #122, .T. ) ;
#156 = EDGE_CURVE ( 'NONE', #362, #307, #328, .T. ) ;
#157 = CARTESIAN_POINT ( 'NONE',  ( 0.04768021045521106394, 0.05192533210856064424, 0.003000000000000000062 ) ) ;
#158 = ORIENTED_EDGE ( 'NONE', *, *, #540, .F. ) ;
#159 = AXIS2_PLACEMENT_3D ( 'NONE', #514, #666, #93 ) ;
#160 = DIRECTION ( 'NONE',  ( -1.000000000000000000, 0.000000000000000000, 0.000000000000000000 ) ) ;
#161 = CIRCLE ( 'NONE', #409, 0.004000000000000003553 ) ;
#162 = CARTESIAN_POINT ( 'NONE',  ( 0.07359420289855075903, 0.06462318840579708845, 0.003000000000000000062 ) ) ;
#163 = ORIENTED_EDGE ( 'NONE', *, *, #746, .T. ) ;
#164 = ADVANCED_FACE ( 'NONE', ( #588 ), #638, .F. ) ;
#165 = AXIS2_PLACEMENT_3D ( 'NONE', #647, #13, #126 ) ;
#166 = DIRECTION ( 'NONE',  ( -1.000000000000000000, 0.000000000000000000, 0.000000000000000000 ) ) ;
#167 = EDGE_LOOP ( 'NONE', ( #455, #625 ) ) ;
#168 = EDGE_CURVE ( 'NONE', #102, #610, #380, .T. ) ;
#169 = CARTESIAN_POINT ( 'NONE',  ( -0.1264057971014492521, 0.06462318840579708845, 0.003000000000000000062 ) ) ;
#170 = DIRECTION ( 'NONE',  ( 0.000000000000000000, 0.000000000000000000, 1.000000000000000000 ) ) ;
#171 = CARTESIAN_POINT ( 'NONE',  ( -0.1264057971014492521, 0.06462318840579708845, 0.000000000000000000 ) ) ;
#172 = DIRECTION ( 'NONE',  ( -0.000000000000000000, -0.000000000000000000, -1.000000000000000000 ) ) ;
#173 = AXIS2_PLACEMENT_3D ( 'NONE', #266, #528, #462 ) ;
#174 = EDGE_LOOP ( 'NONE', ( #680, #110, #444, #606 ) ) ;
#175 = CARTESIAN_POINT ( 'NONE',  ( -0.09649180465810955343, -0.02067895529696645723, 0.003000000000000000062 ) ) ;
#176 = CARTESIAN_POINT ( 'NONE',  ( 0.04768021045521106394, -0.02067895529696647111, 0.003000000000000000062 ) ) ;
#177 = DIRECTION ( 'NONE',  ( -1.000000000000000000, 0.000000000000000000, 0.000000000000000000 ) ) ;
#178 = ADVANCED_FACE ( 'NONE', ( #155 ), #604, .F. ) ;
#179 = DIRECTION ( 'NONE',  ( 0.000000000000000000, 0.000000000000000000, 1.000000000000000000 ) ) ;
#180 = DIRECTION ( 'NONE',  ( 0.000000000000000000, 0.000000000000000000, 1.000000000000000000 ) ) ;
#181 = CIRCLE ( 'NONE', #363, 0.004000000000000003553 ) ;
#182 = DIRECTION ( 'NONE',  ( 0.000000000000000000, 0.000000000000000000, 1.000000000000000000 ) ) ;
#183 = DIRECTION ( 'NONE',  ( 0.000000000000000000, 0.000000000000000000, 1.000000000000000000 ) ) ;
#184 = DIRECTION ( 'NONE',  ( -0.000000000000000000, -0.000000000000000000, -1.000000000000000000 ) ) ;
#185 = ORIENTED_EDGE ( 'NONE', *, *, #351, .T. ) ;
#186 = AXIS2_PLACEMENT_3D ( 'NONE', #737, #670, #160 ) ;
#187 = CARTESIAN_POINT ( 'NONE',  ( 0.07359420289855075903, -0.03337681159420291532, 0.003000000000000000062 ) ) ;
#188 = FACE_BOUND ( 'NONE', #714, .T. ) ;
#189 = DIRECTION ( 'NONE',  ( -1.000000000000000000, 0.000000000000000000, 0.000000000000000000 ) ) ;
#190 = VECTOR ( 'NONE', #172, 1.000000000000000000 ) ;
#191 = ORIENTED_EDGE ( 'NONE', *, *, #277, .T. ) ;
#192 = APPROVAL ( #600, 'UNSPECIFIED' ) ;
#193 = DIRECTION ( 'NONE',  ( 1.000000000000000000, 0.000000000000000000, 0.000000000000000000 ) ) ;
#194 = FACE_OUTER_BOUND ( 'NONE', #787, .T. ) ;
#195 = CARTESIAN_POINT ( 'NONE',  ( -0.02640579710144923958, -0.02067895529696645723, 0.003000000000000000062 ) ) ;
#196 = EDGE_LOOP ( 'NONE', ( #810, #49, #665, #255 ) ) ;
#197 = DIRECTION ( 'NONE',  ( -0.000000000000000000, -0.000000000000000000, -1.000000000000000000 ) ) ;
#198 = DIRECTION ( 'NONE',  ( 0.000000000000000000, 0.000000000000000000, 1.000000000000000000 ) ) ;
#199 = PLANE ( 'NONE',  #305 ) ;
#200 = ORIENTED_EDGE ( 'NONE', *, *, #58, .F. ) ;
#201 = APPROVAL_STATUS ( 'not_yet_approved' ) ;
#202 = LINE ( 'NONE', #327, #66 ) ;
#203 = CARTESIAN_POINT ( 'NONE',  ( 0.04768021045521106394, 0.01562318840579709177, 0.003000000000000000062 ) ) ;
#204 = ORIENTED_EDGE ( 'NONE', *, *, #797, .F. ) ;
#205 = APPROVAL_DATE_TIME ( #279, #397 ) ;
#206 = DIRECTION ( 'NONE',  ( -1.000000000000000000, 0.000000000000000000, 0.000000000000000000 ) ) ;
#207 = CC_DESIGN_DATE_AND_TIME_ASSIGNMENT ( #137, #724, ( #132 ) ) ;
#208 = ORIENTED_EDGE ( 'NONE', *, *, #50, .T. ) ;
#209 = APPROVAL_ROLE ( '' ) ;
#210 = CARTESIAN_POINT ( 'NONE',  ( -0.02640579710144923958, 0.05192533210856064424, 0.003000000000000000062 ) ) ;
#211 = ORIENTED_EDGE ( 'NONE', *, *, #31, .T. ) ;
#212 = EDGE_CURVE ( 'NONE', #585, #288, #705, .T. ) ;
#213 = PERSON_AND_ORGANIZATION ( #90, #365 ) ;
#214 = DIRECTION ( 'NONE',  ( 0.000000000000000000, 0.000000000000000000, 1.000000000000000000 ) ) ;
#215 = EDGE_LOOP ( 'NONE', ( #539, #571, #131, #154 ) ) ;
#216 = EDGE_CURVE ( 'NONE', #564, #783, #292, .T. ) ;
#217 = DIRECTION ( 'NONE',  ( 0.000000000000000000, 0.000000000000000000, 1.000000000000000000 ) ) ;
#218 = DIRECTION ( 'NONE',  ( -0.000000000000000000, -0.000000000000000000, -1.000000000000000000 ) ) ;
#219 = ORIENTED_EDGE ( 'NONE', *, *, #624, .T. ) ;
#220 = CARTESIAN_POINT ( 'NONE',  ( -0.02640579710144923958, 0.05192533210856064424, 0.003000000000000000062 ) ) ;
#221 = CIRCLE ( 'NONE', #503, 0.004000000000000003553 ) ;
#222 = DIRECTION ( 'NONE',  ( 0.000000000000000000, 0.000000000000000000, 1.000000000000000000 ) ) ;
#223 = ORIENTED_EDGE ( 'NONE', *, *, #16, .T. ) ;
#224 = VECTOR ( 'NONE', #406, 1.000000000000000000 ) ;
#225 = CARTESIAN_POINT ( 'NONE',  ( -0.1004918046581095570, -0.02067895529696645723, 0.003000000000000000062 ) ) ;
#226 = EDGE_CURVE ( 'NONE', #342, #684, #19, .T. ) ;
#227 = ORIENTED_EDGE ( 'NONE', *, *, #735, .F. ) ;
#228 = VECTOR ( 'NONE', #642, 1.000000000000000000 ) ;
#229 = CARTESIAN_POINT ( 'NONE',  ( -0.02640579710144923958, -0.02067895529696645723, 0.003000000000000000062 ) ) ;
#230 = EDGE_LOOP ( 'NONE', ( #144, #536, #530, #676 ) ) ;
#231 = VECTOR ( 'NONE', #569, 1.000000000000000000 ) ;
#232 = CARTESIAN_POINT ( 'NONE',  ( 0.07359420289855075903, 0.06462318840579708845, 0.003000000000000000062 ) ) ;
#233 = ORIENTED_EDGE ( 'NONE', *, *, #226, .F. ) ;
#234 = CARTESIAN_POINT ( 'NONE',  ( -0.02240579710144923950, 0.05192533210856064424, 0.003000000000000000062 ) ) ;
#235 = CC_DESIGN_SECURITY_CLASSIFICATION ( #132, ( #343 ) ) ;
#236 = ORIENTED_EDGE ( 'NONE', *, *, #636, .T. ) ;
#237 = EDGE_CURVE ( 'NONE', #818, #26, #548, .T. ) ;
#238 = DIRECTION ( 'NONE',  ( -0.000000000000000000, -0.000000000000000000, -1.000000000000000000 ) ) ;
#239 = CARTESIAN_POINT ( 'NONE',  ( -0.09649180465810955343, 0.01562318840579709177, 0.003000000000000000062 ) ) ;
#240 = CARTESIAN_POINT ( 'NONE',  ( 0.04368021045521106038, -0.02067895529696647111, 0.000000000000000000 ) ) ;
#241 = LINE ( 'NONE', #378, #516 ) ;
#242 = EDGE_CURVE ( 'NONE', #412, #61, #366, .T. ) ;
#243 = CARTESIAN_POINT ( 'NONE',  ( 0.05168021045521106749, 0.01562318840579709177, 0.000000000000000000 ) ) ;
#244 = CARTESIAN_POINT ( 'NONE',  ( 0.04368021045521106038, -0.02067895529696647111, 0.003000000000000000062 ) ) ;
#245 = CIRCLE ( 'NONE', #823, 0.004000000000000003553 ) ;
#246 = ORIENTED_EDGE ( 'NONE', *, *, #700, .T. ) ;
#247 = CYLINDRICAL_SURFACE ( 'NONE', #703, 0.004000000000000003553 ) ;
#248 = FACE_BOUND ( 'NONE', #750, .T. ) ;
#249 = ORIENTED_EDGE ( 'NONE', *, *, #611, .T. ) ;
#250 = CC_DESIGN_PERSON_AND_ORGANIZATION_ASSIGNMENT ( #388, #274, ( #132 ) ) ;
#251 = CIRCLE ( 'NONE', #106, 0.004000000000000003553 ) ;
#252 = ORIENTED_EDGE ( 'NONE', *, *, #438, .F. ) ;
#253 = DIRECTION ( 'NONE',  ( -0.000000000000000000, -0.000000000000000000, -1.000000000000000000 ) ) ;
#254 = CARTESIAN_POINT ( 'NONE',  ( -0.1264057971014492521, -0.03337681159420290145, 0.000000000000000000 ) ) ;
#255 = ORIENTED_EDGE ( 'NONE', *, *, #550, .F. ) ;
#256 = AXIS2_PLACEMENT_3D ( 'NONE', #695, #446, #118 ) ;
#257 = LINE ( 'NONE', #819, #231 ) ;
#258 = CARTESIAN_POINT ( 'NONE',  ( -0.1264057971014492521, -0.03337681159420290145, 0.003000000000000000062 ) ) ;
#259 = FACE_OUTER_BOUND ( 'NONE', #291, .T. ) ;
#260 = ORIENTED_EDGE ( 'NONE', *, *, #658, .T. ) ;
#261 = DIRECTION ( 'NONE',  ( 0.000000000000000000, 0.000000000000000000, 1.000000000000000000 ) ) ;
#262 = FACE_OUTER_BOUND ( 'NONE', #496, .T. ) ;
#263 = ORIENTED_EDGE ( 'NONE', *, *, #337, .T. ) ;
#264 = AXIS2_PLACEMENT_3D ( 'NONE', #643, #69, #796 ) ;
#265 = CC_DESIGN_PERSON_AND_ORGANIZATION_ASSIGNMENT ( #780, #398, ( #343 ) ) ;
#266 = CARTESIAN_POINT ( 'NONE',  ( -0.1004918046581095570, -0.02067895529696645723, 0.000000000000000000 ) ) ;
#267 = FACE_BOUND ( 'NONE', #493, .T. ) ;
#268 = ORIENTED_EDGE ( 'NONE', *, *, #686, .T. ) ;
#269 = AXIS2_PLACEMENT_3D ( 'NONE', #583, #390, #717 ) ;
#270 = PERSON_AND_ORGANIZATION_ROLE ( 'design_owner' ) ;
#271 = CARTESIAN_POINT ( 'NONE',  ( -0.09649180465810955343, 0.01562318840579709177, 0.003000000000000000062 ) ) ;
#272 = ADVANCED_FACE ( 'NONE', ( #97 ), #348, .F. ) ;
#273 = ORIENTED_EDGE ( 'NONE', *, *, #168, .F. ) ;
#274 = PERSON_AND_ORGANIZATION_ROLE ( 'classification_officer' ) ;
#275 = CARTESIAN_POINT ( 'NONE',  ( 0.04768021045521106394, 0.05192533210856064424, 0.003000000000000000062 ) ) ;
#276 = VERTEX_POINT ( 'NONE', #322 ) ;
#277 = EDGE_CURVE ( 'NONE', #811, #307, #60, .T. ) ;
#278 = LOCAL_TIME ( 12, 42, 56.00000000000000000, #27 ) ;
#279 = DATE_AND_TIME ( #383, #739 ) ;
#280 = CIRCLE ( 'NONE', #147, 0.004000000000000000083 ) ;
#281 = CARTESIAN_POINT ( 'NONE',  ( -0.1004918046581095570, 0.01562318840579709177, 0.000000000000000000 ) ) ;
#282 = EDGE_LOOP ( 'NONE', ( #350, #377, #136, #621 ) ) ;
#283 = DIRECTION ( 'NONE',  ( 0.000000000000000000, 0.000000000000000000, 1.000000000000000000 ) ) ;
#284 = DIRECTION ( 'NONE',  ( -1.000000000000000000, -0.000000000000000000, -0.000000000000000000 ) ) ;
#285 = ORIENTED_EDGE ( 'NONE', *, *, #146, .F. ) ;
#286 = CIRCLE ( 'NONE', #11, 0.004000000000000003553 ) ;
#287 = CARTESIAN_POINT ( 'NONE',  ( 0.05168021045521106749, -0.02067895529696647111, 0.000000000000000000 ) ) ;
#288 = VERTEX_POINT ( 'NONE', #637 ) ;
#289 = EDGE_CURVE ( 'NONE', #74, #57, #379, .T. ) ;
#290 = DIRECTION ( 'NONE',  ( -1.000000000000000000, 6.938893903907227145E-17, 0.000000000000000000 ) ) ;
#291 = EDGE_LOOP ( 'NONE', ( #40, #185, #260, #268 ) ) ;
#292 = CIRCLE ( 'NONE', #626, 0.004000000000000003553 ) ;
#293 = CLOSED_SHELL ( 'NONE', ( #592, #561, #788, #100, #178, #392, #164, #296, #103, #331, #272, #678, #694, #96, #782, #792, #128, #478, #359, #145, #464, #417 ) ) ;
#294 = DIRECTION ( 'NONE',  ( -1.000000000000000000, 0.000000000000000000, 0.000000000000000000 ) ) ;
#295 = DIRECTION ( 'NONE',  ( 0.000000000000000000, 0.000000000000000000, 1.000000000000000000 ) ) ;
#296 = ADVANCED_FACE ( 'NONE', ( #755 ), #125, .F. ) ;
#297 = CIRCLE ( 'NONE', #554, 0.004000000000000003553 ) ;
#298 = CARTESIAN_POINT ( 'NONE',  ( -0.03040579710144923967, 0.05192533210856064424, 0.000000000000000000 ) ) ;
#299 = LINE ( 'NONE', #419, #487 ) ;
#300 = EDGE_CURVE ( 'NONE', #471, #342, #129, .T. ) ;
#301 = ORIENTED_EDGE ( 'NONE', *, *, #797, .T. ) ;
#302 = MANIFOLD_SOLID_BREP ( 'Boss-Extrude1', #293 ) ;
#303 = CARTESIAN_POINT ( 'NONE',  ( 0.04768021045521106394, 0.05192533210856064424, 0.003000000000000000062 ) ) ;
#304 = ORIENTED_EDGE ( 'NONE', *, *, #156, .T. ) ;
#305 = AXIS2_PLACEMENT_3D ( 'NONE', #580, #453, #713 ) ;
#306 = DIRECTION ( 'NONE',  ( -0.000000000000000000, -0.000000000000000000, -1.000000000000000000 ) ) ;
#307 = VERTEX_POINT ( 'NONE', #72 ) ;
#308 = CARTESIAN_POINT ( 'NONE',  ( -0.02240579710144923603, -0.02067895529696645723, 0.000000000000000000 ) ) ;
#309 = EDGE_CURVE ( 'NONE', #684, #342, #590, .T. ) ;
#310 = DIRECTION ( 'NONE',  ( -0.000000000000000000, -0.000000000000000000, -1.000000000000000000 ) ) ;
#311 = CARTESIAN_POINT ( 'NONE',  ( -0.02640579710144923958, -0.02067895529696645723, 0.003000000000000000062 ) ) ;
#312 = ORIENTED_EDGE ( 'NONE', *, *, #352, .F. ) ;
#313 = CYLINDRICAL_SURFACE ( 'NONE', #732, 0.004000000000000003553 ) ;
#314 = CARTESIAN_POINT ( 'NONE',  ( 0.04768021045521106394, -0.02067895529696647111, 0.000000000000000000 ) ) ;
#315 = DIRECTION ( 'NONE',  ( -0.000000000000000000, -0.000000000000000000, -1.000000000000000000 ) ) ;
#316 = CIRCLE ( 'NONE', #355, 0.004000000000000003553 ) ;
#317 = ORIENTED_EDGE ( 'NONE', *, *, #347, .F. ) ;
#318 = LINE ( 'NONE', #239, #740 ) ;
#319 = CARTESIAN_POINT ( 'NONE',  ( -0.1004918046581095570, 0.01562318840579709177, 0.003000000000000000062 ) ) ;
#320 = ORIENTED_EDGE ( 'NONE', *, *, #735, .T. ) ;
#321 = EDGE_CURVE ( 'NONE', #480, #814, #318, .T. ) ;
#322 = CARTESIAN_POINT ( 'NONE',  ( 0.05168021045521106749, -0.02067895529696647111, 0.003000000000000000062 ) ) ;
#323 = CYLINDRICAL_SURFACE ( 'NONE', #269, 0.004000000000000003553 ) ;
#324 = ORIENTED_EDGE ( 'NONE', *, *, #58, .T. ) ;
#325 = AXIS2_PLACEMENT_3D ( 'NONE', #157, #17, #789 ) ;
#326 = EDGE_CURVE ( 'NONE', #610, #360, #161, .T. ) ;
#327 = CARTESIAN_POINT ( 'NONE',  ( -0.1264057971014492521, 0.06462318840579708845, 0.003000000000000000062 ) ) ;
#328 = LINE ( 'NONE', #254, #586 ) ;
#329 = EDGE_LOOP ( 'NONE', ( #246, #648, #158, #644 ) ) ;
#330 = VECTOR ( 'NONE', #310, 1.000000000000000000 ) ;
#331 = ADVANCED_FACE ( 'NONE', ( #384, #500, #633, #579, #248, #509, #628, #188, #7 ), #691, .F. ) ;
#332 = DIRECTION ( 'NONE',  ( -1.000000000000000000, 0.000000000000000000, 0.000000000000000000 ) ) ;
#333 = EDGE_LOOP ( 'NONE', ( #78, #476, #369, #521 ) ) ;
#334 = VECTOR ( 'NONE', #105, 1.000000000000000000 ) ;
#335 = CALENDAR_DATE ( 2026, 12, 8 ) ;
#336 = VECTOR ( 'NONE', #816, 1.000000000000000000 ) ;
#337 = EDGE_CURVE ( 'NONE', #511, #382, #804, .T. ) ;
#338 = DIRECTION ( 'NONE',  ( -1.000000000000000000, 0.000000000000000000, 0.000000000000000000 ) ) ;
#339 = ORIENTED_EDGE ( 'NONE', *, *, #576, .F. ) ;
#340 = DATE_AND_TIME ( #401, #454 ) ;
#341 = CYLINDRICAL_SURFACE ( 'NONE', #651, 0.004000000000000003553 ) ;
#342 = VERTEX_POINT ( 'NONE', #243 ) ;
#343 = PRODUCT_DEFINITION_FORMATION_WITH_SPECIFIED_SOURCE ( 'ANY', '', #785, .NOT_KNOWN. ) ;
#344 = DIRECTION ( 'NONE',  ( 1.000000000000000000, -6.938893903907228378E-17, 0.000000000000000000 ) ) ;
#345 = CARTESIAN_POINT ( 'NONE',  ( -0.02640579710144923958, 0.05192533210856064424, 0.003000000000000000062 ) ) ;
#346 = EDGE_LOOP ( 'NONE', ( #506, #30, #48, #273 ) ) ;
#347 = EDGE_CURVE ( 'NONE', #736, #24, #82, .T. ) ;
#348 = PLANE ( 'NONE',  #522 ) ;
#349 = DIRECTION ( 'NONE',  ( -0.000000000000000000, -0.000000000000000000, -1.000000000000000000 ) ) ;
#350 = ORIENTED_EDGE ( 'NONE', *, *, #607, .T. ) ;
#351 = EDGE_CURVE ( 'NONE', #71, #811, #646, .T. ) ;
#352 = EDGE_CURVE ( 'NONE', #480, #74, #286, .T. ) ;
#353 = CARTESIAN_POINT ( 'NONE',  ( 0.04768021045521106394, 0.05192533210856064424, 0.000000000000000000 ) ) ;
#354 = VERTEX_POINT ( 'NONE', #820 ) ;
#355 = AXIS2_PLACEMENT_3D ( 'NONE', #403, #738, #166 ) ;
#356 = CARTESIAN_POINT ( 'NONE',  ( -0.1264057971014492521, -0.03337681159420290145, 0.003000000000000000062 ) ) ;
#357 = CARTESIAN_POINT ( 'NONE',  ( -0.02640579710144923958, 0.05192533210856064424, 0.000000000000000000 ) ) ;
#358 = LINE ( 'NONE', #98, #402 ) ;
#359 = ADVANCED_FACE ( 'NONE', ( #194 ), #435, .F. ) ;
#360 = VERTEX_POINT ( 'NONE', #447 ) ;
#361 = CIRCLE ( 'NONE', #6, 0.004000000000000003553 ) ;
#362 = VERTEX_POINT ( 'NONE', #707 ) ;
#363 = AXIS2_PLACEMENT_3D ( 'NONE', #25, #664, #667 ) ;
#364 = ORIENTED_EDGE ( 'NONE', *, *, #386, .T. ) ;
#365 = ORGANIZATION ( 'UNSPECIFIED', 'UNSPECIFIED', '' ) ;
#366 = CIRCLE ( 'NONE', #53, 0.004000000000000000083 ) ;
#367 = CARTESIAN_POINT ( 'NONE',  ( 0.04768021045521106394, 0.01562318840579709177, 0.000000000000000000 ) ) ;
#368 = ORIENTED_EDGE ( 'NONE', *, *, #216, .F. ) ;
#369 = ORIENTED_EDGE ( 'NONE', *, *, #151, .F. ) ;
#370 = EDGE_CURVE ( 'NONE', #623, #759, #584, .T. ) ;
#371 = DIRECTION ( 'NONE',  ( -0.000000000000000000, -0.000000000000000000, -1.000000000000000000 ) ) ;
#372 = CIRCLE ( 'NONE', #547, 0.004000000000000003553 ) ;
#373 = CARTESIAN_POINT ( 'NONE',  ( 0.07359420289855075903, -0.03337681159420291532, 0.003000000000000000062 ) ) ;
#374 = ORIENTED_EDGE ( 'NONE', *, *, #352, .T. ) ;
#375 = DIRECTION ( 'NONE',  ( 1.000000000000000000, 0.000000000000000000, -0.000000000000000000 ) ) ;
#376 = DIRECTION ( 'NONE',  ( -0.000000000000000000, -0.000000000000000000, -1.000000000000000000 ) ) ;
#377 = ORIENTED_EDGE ( 'NONE', *, *, #300, .T. ) ;
#378 = CARTESIAN_POINT ( 'NONE',  ( -0.03040579710144924314, -0.02067895529696645723, 0.003000000000000000062 ) ) ;
#379 = LINE ( 'NONE', #769, #330 ) ;
#380 = LINE ( 'NONE', #733, #224 ) ;
#381 = CIRCLE ( 'NONE', #41, 0.004000000000000003553 ) ;
#382 = VERTEX_POINT ( 'NONE', #712 ) ;
#383 = CALENDAR_DATE ( 2026, 12, 8 ) ;
#384 = FACE_OUTER_BOUND ( 'NONE', #174, .T. ) ;
#385 = DIRECTION ( 'NONE',  ( -0.000000000000000000, -0.000000000000000000, -1.000000000000000000 ) ) ;
#386 = EDGE_CURVE ( 'NONE', #564, #759, #654, .T. ) ;
#387 = ORIENTED_EDGE ( 'NONE', *, *, #421, .F. ) ;
#388 = PERSON_AND_ORGANIZATION ( #90, #365 ) ;
#389 = CYLINDRICAL_SURFACE ( 'NONE', #37, 0.004000000000000003553 ) ;
#390 = DIRECTION ( 'NONE',  ( -0.000000000000000000, -0.000000000000000000, -1.000000000000000000 ) ) ;
#391 = ORIENTED_EDGE ( 'NONE', *, *, #4, .T. ) ;
#392 = ADVANCED_FACE ( 'NONE', ( #407 ), #341, .F. ) ;
#393 = PERSON_AND_ORGANIZATION ( #90, #365 ) ;
#394 = FACE_OUTER_BOUND ( 'NONE', #603, .T. ) ;
#395 = EDGE_LOOP ( 'NONE', ( #404, #368 ) ) ;
#396 = VECTOR ( 'NONE', #76, 1.000000000000000000 ) ;
#397 = APPROVAL ( #142, 'UNSPECIFIED' ) ;
#398 = PERSON_AND_ORGANIZATION_ROLE ( 'creator' ) ;
#399 = CYLINDRICAL_SURFACE ( 'NONE', #429, 0.004000000000000003553 ) ;
#400 = ORIENTED_EDGE ( 'NONE', *, *, #674, .F. ) ;
#401 = CALENDAR_DATE ( 2026, 12, 8 ) ;
#402 = VECTOR ( 'NONE', #558, 1.000000000000000000 ) ;
#403 = CARTESIAN_POINT ( 'NONE',  ( 0.04768021045521106394, -0.02067895529696647111, 0.000000000000000000 ) ) ;
#404 = ORIENTED_EDGE ( 'NONE', *, *, #10, .F. ) ;
#405 = PRODUCT_DEFINITION_SHAPE ( 'NONE', 'NONE',  #565 ) ;
#406 = DIRECTION ( 'NONE',  ( -0.000000000000000000, -0.000000000000000000, -1.000000000000000000 ) ) ;
#407 = FACE_OUTER_BOUND ( 'NONE', #346, .T. ) ;
#408 = ORIENTED_EDGE ( 'NONE', *, *, #658, .F. ) ;
#409 = AXIS2_PLACEMENT_3D ( 'NONE', #62, #570, #826 ) ;
#410 = DIRECTION ( 'NONE',  ( 1.000000000000000000, 0.000000000000000000, 0.000000000000000000 ) ) ;
#411 = LINE ( 'NONE', #232, #615 ) ;
#412 = VERTEX_POINT ( 'NONE', #594 ) ;
#413 = APPROVAL ( #201, 'UNSPECIFIED' ) ;
#414 = CIRCLE ( 'NONE', #806, 0.004000000000000003553 ) ;
#415 = DIRECTION ( 'NONE',  ( 0.000000000000000000, 0.000000000000000000, 1.000000000000000000 ) ) ;
#416 = ORIENTED_EDGE ( 'NONE', *, *, #370, .F. ) ;
#417 = ADVANCED_FACE ( 'NONE', ( #91 ), #389, .F. ) ;
#418 = CARTESIAN_POINT ( 'NONE',  ( -0.1004918046581095570, 0.01562318840579709177, 0.003000000000000000062 ) ) ;
#419 = CARTESIAN_POINT ( 'NONE',  ( -0.1264057971014492521, -0.03337681159420290145, 0.003000000000000000062 ) ) ;
#420 = AXIS2_PLACEMENT_3D ( 'NONE', #512, #767, #193 ) ;
#421 = EDGE_CURVE ( 'NONE', #803, #463, #221, .T. ) ;
#422 = AXIS2_PLACEMENT_3D ( 'NONE', #210, #730, #466 ) ;
#423 = LINE ( 'NONE', #175, #829 ) ;
#424 = LINE ( 'NONE', #813, #334 ) ;
#425 = ORIENTED_EDGE ( 'NONE', *, *, #825, .T. ) ;
#426 = DIRECTION ( 'NONE',  ( 1.000000000000000000, 0.000000000000000000, 0.000000000000000000 ) ) ;
#427 = ORIENTED_EDGE ( 'NONE', *, *, #70, .F. ) ;
#428 = FACE_OUTER_BOUND ( 'NONE', #774, .T. ) ;
#429 = AXIS2_PLACEMENT_3D ( 'NONE', #12, #218, #734 ) ;
#430 = CARTESIAN_POINT ( 'NONE',  ( -0.1004918046581095570, 0.05192533210856064424, 0.000000000000000000 ) ) ;
#431 = DIRECTION ( 'NONE',  ( -1.000000000000000000, 0.000000000000000000, 0.000000000000000000 ) ) ;
#432 = ORIENTED_EDGE ( 'NONE', *, *, #289, .F. ) ;
#433 = AXIS2_PLACEMENT_3D ( 'NONE', #18, #32, #473 ) ;
#434 = FACE_OUTER_BOUND ( 'NONE', #282, .T. ) ;
#435 = CYLINDRICAL_SURFACE ( 'NONE', #799, 0.004000000000000003553 ) ;
#436 = DIRECTION ( 'NONE',  ( -0.000000000000000000, -0.000000000000000000, -1.000000000000000000 ) ) ;
#437 = AXIS2_PLACEMENT_3D ( 'NONE', #430, #183, #113 ) ;
#438 = EDGE_CURVE ( 'NONE', #814, #57, #245, .T. ) ;
#439 = EDGE_LOOP ( 'NONE', ( #551, #577, #64, #317 ) ) ;
#440 = CARTESIAN_POINT ( 'NONE',  ( -0.09649180465810955343, 0.01562318840579709177, 0.000000000000000000 ) ) ;
#441 = CIRCLE ( 'NONE', #552, 0.004000000000000003553 ) ;
#442 = CARTESIAN_POINT ( 'NONE',  ( 0.000000000000000000, 0.000000000000000000, 0.000000000000000000 ) ) ;
#443 = CYLINDRICAL_SURFACE ( 'NONE', #527, 0.004000000000000003553 ) ;
#444 = ORIENTED_EDGE ( 'NONE', *, *, #16, .F. ) ;
#445 = CIRCLE ( 'NONE', #489, 0.004000000000000000083 ) ;
#446 = DIRECTION ( 'NONE',  ( -0.000000000000000000, -0.000000000000000000, -1.000000000000000000 ) ) ;
#447 = CARTESIAN_POINT ( 'NONE',  ( -0.09649180465810955343, -0.02067895529696645723, 0.000000000000000000 ) ) ;
#448 = DIRECTION ( 'NONE',  ( 0.000000000000000000, 0.000000000000000000, 1.000000000000000000 ) ) ;
#449 = VERTEX_POINT ( 'NONE', #148 ) ;
#450 = DIRECTION ( 'NONE',  ( 1.000000000000000000, 0.000000000000000000, 0.000000000000000000 ) ) ;
#451 = EDGE_CURVE ( 'NONE', #276, #709, #181, .T. ) ;
#452 = DIRECTION ( 'NONE',  ( -1.000000000000000000, 0.000000000000000000, 0.000000000000000000 ) ) ;
#453 = DIRECTION ( 'NONE',  ( 0.000000000000000000, -1.000000000000000000, 0.000000000000000000 ) ) ;
#454 = LOCAL_TIME ( 12, 42, 56.00000000000000000, #465 ) ;
#455 = ORIENTED_EDGE ( 'NONE', *, *, #517, .F. ) ;
#456 = PERSON_AND_ORGANIZATION_ROLE ( 'design_supplier' ) ;
#457 = CARTESIAN_POINT ( 'NONE',  ( 0.05168021045521106749, 0.05192533210856064424, 0.003000000000000000062 ) ) ;
#458 = DIRECTION ( 'NONE',  ( -1.000000000000000000, 0.000000000000000000, 0.000000000000000000 ) ) ;
#459 = ORIENTED_EDGE ( 'NONE', *, *, #31, .F. ) ;
#460 = APPLICATION_CONTEXT ( 'configuration controlled 3d designs of mechanical parts and assemblies' ) ;
#461 = SHAPE_DEFINITION_REPRESENTATION ( #405, #815 ) ;
#462 = DIRECTION ( 'NONE',  ( 1.000000000000000000, 0.000000000000000000, 0.000000000000000000 ) ) ;
#463 = VERTEX_POINT ( 'NONE', #457 ) ;
#464 = ADVANCED_FACE ( 'NONE', ( #538 ), #94, .F. ) ;
#465 = COORDINATED_UNIVERSAL_TIME_OFFSET ( 3, 0, .AHEAD. ) ;
#466 = DIRECTION ( 'NONE',  ( -1.000000000000000000, 0.000000000000000000, 0.000000000000000000 ) ) ;
#467 = ORIENTED_EDGE ( 'NONE', *, *, #611, .F. ) ;
#468 = AXIS2_PLACEMENT_3D ( 'NONE', #353, #492, #426 ) ;
#469 = COORDINATED_UNIVERSAL_TIME_OFFSET ( 3, 0, .AHEAD. ) ;
#470 = DIRECTION ( 'NONE',  ( 0.000000000000000000, -1.000000000000000000, 0.000000000000000000 ) ) ;
#471 = VERTEX_POINT ( 'NONE', #138 ) ;
#472 = APPROVAL_ROLE ( '' ) ;
#473 = DIRECTION ( 'NONE',  ( -1.000000000000000000, 0.000000000000000000, 0.000000000000000000 ) ) ;
#474 = VECTOR ( 'NONE', #238, 1.000000000000000000 ) ;
#475 = LINE ( 'NONE', #523, #75 ) ;
#476 = ORIENTED_EDGE ( 'NONE', *, *, #711, .T. ) ;
#477 = DIRECTION ( 'NONE',  ( -0.000000000000000000, 0.000000000000000000, -1.000000000000000000 ) ) ;
#478 = ADVANCED_FACE ( 'NONE', ( #23 ), #399, .F. ) ;
#479 = DIRECTION ( 'NONE',  ( -0.000000000000000000, -0.000000000000000000, -1.000000000000000000 ) ) ;
#480 = VERTEX_POINT ( 'NONE', #271 ) ;
#481 = CC_DESIGN_APPROVAL ( #413, ( #343 ) ) ;
#482 = DESIGN_CONTEXT ( 'detailed design', #87, 'design' ) ;
#483 = VECTOR ( 'NONE', #704, 1.000000000000000000 ) ;
#484 = DIRECTION ( 'NONE',  ( 0.000000000000000000, 0.000000000000000000, 1.000000000000000000 ) ) ;
#485 = ORIENTED_EDGE ( 'NONE', *, *, #776, .F. ) ;
#486 = EDGE_CURVE ( 'NONE', #463, #803, #111, .T. ) ;
#487 = VECTOR ( 'NONE', #184, 1.000000000000000000 ) ;
#488 = FACE_OUTER_BOUND ( 'NONE', #693, .T. ) ;
#489 = AXIS2_PLACEMENT_3D ( 'NONE', #757, #182, #450 ) ;
#490 = EDGE_LOOP ( 'NONE', ( #227, #236, #301, #200 ) ) ;
#491 = CC_DESIGN_DATE_AND_TIME_ASSIGNMENT ( #729, #150, ( #565 ) ) ;
#492 = DIRECTION ( 'NONE',  ( 0.000000000000000000, 0.000000000000000000, 1.000000000000000000 ) ) ;
#493 = EDGE_LOOP ( 'NONE', ( #459, #572 ) ) ;
#494 = APPROVAL_PERSON_ORGANIZATION ( #89, #192, #472 ) ;
#495 = DIRECTION ( 'NONE',  ( -0.000000000000000000, 1.000000000000000000, -0.000000000000000000 ) ) ;
#496 = EDGE_LOOP ( 'NONE', ( #699, #560, #425, #233 ) ) ;
#497 = ORIENTED_EDGE ( 'NONE', *, *, #237, .T. ) ;
#498 = DIRECTION ( 'NONE',  ( -1.000000000000000000, 0.000000000000000000, 0.000000000000000000 ) ) ;
#499 = EDGE_CURVE ( 'NONE', #354, #449, #475, .T. ) ;
#500 = FACE_BOUND ( 'NONE', #828, .T. ) ;
#501 = CARTESIAN_POINT ( 'NONE',  ( -0.1044918046581095605, 0.05192533210856064424, 0.003000000000000000062 ) ) ;
#502 = DIRECTION ( 'NONE',  ( 1.000000000000000000, 0.000000000000000000, 0.000000000000000000 ) ) ;
#503 = AXIS2_PLACEMENT_3D ( 'NONE', #275, #716, #535 ) ;
#504 = DIRECTION ( 'NONE',  ( 1.000000000000000000, -6.938893903907228378E-17, 0.000000000000000000 ) ) ;
#505 = CARTESIAN_POINT ( 'NONE',  ( -0.1044918046581095605, 0.01562318840579709177, 0.000000000000000000 ) ) ;
#506 = ORIENTED_EDGE ( 'NONE', *, *, #760, .T. ) ;
#507 = CARTESIAN_POINT ( 'NONE',  ( -0.1004918046581095570, 0.05192533210856064424, 0.000000000000000000 ) ) ;
#508 = CIRCLE ( 'NONE', #468, 0.004000000000000003553 ) ;
#509 = FACE_BOUND ( 'NONE', #9, .T. ) ;
#510 = FACE_BOUND ( 'NONE', #395, .T. ) ;
#511 = VERTEX_POINT ( 'NONE', #532 ) ;
#512 = CARTESIAN_POINT ( 'NONE',  ( 0.000000000000000000, 0.000000000000000000, 0.000000000000000000 ) ) ;
#513 = DIRECTION ( 'NONE',  ( -1.000000000000000000, 0.000000000000000000, 0.000000000000000000 ) ) ;
#514 = CARTESIAN_POINT ( 'NONE',  ( 0.04768021045521106394, 0.05192533210856064424, 0.000000000000000000 ) ) ;
#515 = EDGE_LOOP ( 'NONE', ( #613, #630, #163, #467 ) ) ;
#516 = VECTOR ( 'NONE', #371, 1.000000000000000000 ) ;
#517 = EDGE_CURVE ( 'NONE', #26, #818, #761, .T. ) ;
#518 = CARTESIAN_POINT ( 'NONE',  ( 0.04368021045521106038, 0.05192533210856064424, 0.003000000000000000062 ) ) ;
#519 = CARTESIAN_POINT ( 'NONE',  ( -0.02640579710144923958, -0.02067895529696645723, 0.000000000000000000 ) ) ;
#520 = FACE_BOUND ( 'NONE', #661, .T. ) ;
#521 = ORIENTED_EDGE ( 'NONE', *, *, #746, .F. ) ;
#522 = AXIS2_PLACEMENT_3D ( 'NONE', #608, #541, #477 ) ;
#523 = CARTESIAN_POINT ( 'NONE',  ( -0.1264057971014492521, 0.06462318840579708845, 0.003000000000000000062 ) ) ;
#524 = CYLINDRICAL_SURFACE ( 'NONE', #21, 0.004000000000000003553 ) ;
#525 = EDGE_LOOP ( 'NONE', ( #387, #149 ) ) ;
#526 = EDGE_CURVE ( 'NONE', #818, #382, #726, .T. ) ;
#527 = AXIS2_PLACEMENT_3D ( 'NONE', #319, #385, #778 ) ;
#528 = DIRECTION ( 'NONE',  ( 0.000000000000000000, 0.000000000000000000, 1.000000000000000000 ) ) ;
#529 = CARTESIAN_POINT ( 'NONE',  ( -0.1044918046581095605, -0.02067895529696645723, 0.003000000000000000062 ) ) ;
#530 = ORIENTED_EDGE ( 'NONE', *, *, #686, .F. ) ;
#531 = APPROVAL_ROLE ( '' ) ;
#532 = CARTESIAN_POINT ( 'NONE',  ( -0.1044918046581095605, 0.05192533210856064424, 0.000000000000000000 ) ) ;
#533 = ORIENTED_EDGE ( 'NONE', *, *, #216, .T. ) ;
#534 = APPROVAL_DATE_TIME ( #597, #192 ) ;
#535 = DIRECTION ( 'NONE',  ( 1.000000000000000000, 0.000000000000000000, 0.000000000000000000 ) ) ;
#536 = ORIENTED_EDGE ( 'NONE', *, *, #499, .F. ) ;
#537 = VECTOR ( 'NONE', #33, 1.000000000000000000 ) ;
#538 = FACE_OUTER_BOUND ( 'NONE', #490, .T. ) ;
#539 = ORIENTED_EDGE ( 'NONE', *, *, #517, .T. ) ;
#540 = EDGE_CURVE ( 'NONE', #354, #71, #202, .T. ) ;
#541 = DIRECTION ( 'NONE',  ( 1.000000000000000000, 0.000000000000000000, -0.000000000000000000 ) ) ;
#542 = DIRECTION ( 'NONE',  ( 1.000000000000000000, 0.000000000000000000, 0.000000000000000000 ) ) ;
#543 = ORIENTED_EDGE ( 'NONE', *, *, #576, .T. ) ;
#544 = AXIS2_PLACEMENT_3D ( 'NONE', #519, #198, #452 ) ;
#545 = CARTESIAN_POINT ( 'NONE',  ( -0.02240579710144923950, 0.05192533210856064424, 0.000000000000000000 ) ) ;
#546 = ORIENTED_EDGE ( 'NONE', *, *, #79, .F. ) ;
#547 = AXIS2_PLACEMENT_3D ( 'NONE', #77, #217, #139 ) ;
#548 = CIRCLE ( 'NONE', #186, 0.004000000000000003553 ) ;
#549 = FACE_OUTER_BOUND ( 'NONE', #634, .T. ) ;
#550 = EDGE_CURVE ( 'NONE', #360, #610, #727, .T. ) ;
#551 = ORIENTED_EDGE ( 'NONE', *, *, #4, .F. ) ;
#552 = AXIS2_PLACEMENT_3D ( 'NONE', #114, #295, #108 ) ;
#553 = CYLINDRICAL_SURFACE ( 'NONE', #681, 0.004000000000000003553 ) ;
#554 = AXIS2_PLACEMENT_3D ( 'NONE', #51, #566, #502 ) ;
#555 = CARTESIAN_POINT ( 'NONE',  ( -0.1264057971014492521, -0.03337681159420290145, 0.003000000000000000062 ) ) ;
#556 = UNCERTAINTY_MEASURE_WITH_UNIT (LENGTH_MEASURE( 1.000000000000000082E-05 ), #127, 'distance_accuracy_value', 'NONE');
#557 = VERTEX_POINT ( 'NONE', #721 ) ;
#558 = DIRECTION ( 'NONE',  ( -0.000000000000000000, -0.000000000000000000, -1.000000000000000000 ) ) ;
#559 = ORIENTED_EDGE ( 'NONE', *, *, #212, .F. ) ;
#560 = ORIENTED_EDGE ( 'NONE', *, *, #718, .T. ) ;
#561 = ADVANCED_FACE ( 'NONE', ( #394 ), #786, .F. ) ;
#562 = FACE_OUTER_BOUND ( 'NONE', #515, .T. ) ;
#563 = DIRECTION ( 'NONE',  ( -1.000000000000000000, 0.000000000000000000, 0.000000000000000000 ) ) ;
#564 = VERTEX_POINT ( 'NONE', #152 ) ;
#565 = PRODUCT_DEFINITION ( 'UNKNOWN', '', #343, #482 ) ;
#566 = DIRECTION ( 'NONE',  ( 0.000000000000000000, 0.000000000000000000, 1.000000000000000000 ) ) ;
#567 = DIRECTION ( 'NONE',  ( -1.000000000000000000, 0.000000000000000000, 0.000000000000000000 ) ) ;
#568 = ORIENTED_EDGE ( 'NONE', *, *, #242, .T. ) ;
#569 = DIRECTION ( 'NONE',  ( -0.000000000000000000, -0.000000000000000000, -1.000000000000000000 ) ) ;
#570 = DIRECTION ( 'NONE',  ( 0.000000000000000000, 0.000000000000000000, 1.000000000000000000 ) ) ;
#571 = ORIENTED_EDGE ( 'NONE', *, *, #526, .T. ) ;
#572 = ORIENTED_EDGE ( 'NONE', *, *, #451, .F. ) ;
#573 = AXIS2_PLACEMENT_3D ( 'NONE', #418, #415, #612 ) ;
#574 = DIRECTION ( 'NONE',  ( 0.000000000000000000, 0.000000000000000000, 1.000000000000000000 ) ) ;
#575 = CARTESIAN_POINT ( 'NONE',  ( 0.07359420289855075903, 0.06462318840579708845, 0.003000000000000000062 ) ) ;
#576 = EDGE_CURVE ( 'NONE', #24, #736, #316, .T. ) ;
#577 = ORIENTED_EDGE ( 'NONE', *, *, #451, .T. ) ;
#578 = MECHANICAL_CONTEXT ( 'NONE', #460, 'mechanical' ) ;
#579 = FACE_BOUND ( 'NONE', #719, .T. ) ;
#580 = CARTESIAN_POINT ( 'NONE',  ( -0.1264057971014492521, 0.06462318840579708845, 0.003000000000000000062 ) ) ;
#581 = ORIENTED_EDGE ( 'NONE', *, *, #289, .T. ) ;
#582 = DIRECTION ( 'NONE',  ( 0.000000000000000000, 0.000000000000000000, 1.000000000000000000 ) ) ;
#583 = CARTESIAN_POINT ( 'NONE',  ( -0.1004918046581095570, -0.02067895529696645723, 0.003000000000000000062 ) ) ;
#584 = CIRCLE ( 'NONE', #544, 0.004000000000000003553 ) ;
#585 = VERTEX_POINT ( 'NONE', #162 ) ;
#586 = VECTOR ( 'NONE', #344, 1.000000000000000000 ) ;
#587 = DIRECTION ( 'NONE',  ( -0.000000000000000000, -0.000000000000000000, -1.000000000000000000 ) ) ;
#588 = FACE_OUTER_BOUND ( 'NONE', #215, .T. ) ;
#589 = ORIENTED_EDGE ( 'NONE', *, *, #10, .T. ) ;
#590 = CIRCLE ( 'NONE', #696, 0.004000000000000003553 ) ;
#591 = PERSON_AND_ORGANIZATION ( #90, #365 ) ;
#592 = ADVANCED_FACE ( 'NONE', ( #488 ), #553, .F. ) ;
#593 = CIRCLE ( 'NONE', #121, 0.004000000000000000083 ) ;
#594 = CARTESIAN_POINT ( 'NONE',  ( -0.03040579710144923967, 0.05192533210856064424, 0.003000000000000000062 ) ) ;
#595 = ORIENTED_EDGE ( 'NONE', *, *, #309, .T. ) ;
#596 = CIRCLE ( 'NONE', #46, 0.004000000000000003553 ) ;
#597 = DATE_AND_TIME ( #335, #602 ) ;
#598 = DIRECTION ( 'NONE',  ( 1.000000000000000000, 0.000000000000000000, 0.000000000000000000 ) ) ;
#599 = EDGE_LOOP ( 'NONE', ( #219, #20, #427, #432 ) ) ;
#600 = APPROVAL_STATUS ( 'not_yet_approved' ) ;
#601 = CARTESIAN_POINT ( 'NONE',  ( -0.02640579710144923958, -0.02067895529696645723, 0.003000000000000000062 ) ) ;
#602 = LOCAL_TIME ( 12, 42, 56.00000000000000000, #645 ) ;
#603 = EDGE_LOOP ( 'NONE', ( #568, #320, #485, #204 ) ) ;
#604 = CYLINDRICAL_SURFACE ( 'NONE', #656, 0.004000000000000003553 ) ;
#605 = PLANE ( 'NONE',  #768 ) ;
#606 = ORIENTED_EDGE ( 'NONE', *, *, #156, .F. ) ;
#607 = EDGE_CURVE ( 'NONE', #95, #471, #381, .T. ) ;
#608 = CARTESIAN_POINT ( 'NONE',  ( -0.1264057971014492521, 0.06462318840579708845, 0.003000000000000000062 ) ) ;
#609 = DIRECTION ( 'NONE',  ( 1.000000000000000000, 0.000000000000000000, 0.000000000000000000 ) ) ;
#610 = VERTEX_POINT ( 'NONE', #101 ) ;
#611 = EDGE_CURVE ( 'NONE', #557, #807, #508, .T. ) ;
#612 = DIRECTION ( 'NONE',  ( 1.000000000000000000, 0.000000000000000000, 0.000000000000000000 ) ) ;
#613 = ORIENTED_EDGE ( 'NONE', *, *, #711, .F. ) ;
#614 = CC_DESIGN_APPROVAL ( #192, ( #132 ) ) ;
#615 = VECTOR ( 'NONE', #495, 1.000000000000000000 ) ;
#616 = LINE ( 'NONE', #169, #808 ) ;
#617 = ORIENTED_EDGE ( 'NONE', *, *, #631, .T. ) ;
#618 = ORIENTED_EDGE ( 'NONE', *, *, #636, .F. ) ;
#619 = DIRECTION ( 'NONE',  ( -0.000000000000000000, -0.000000000000000000, -1.000000000000000000 ) ) ;
#620 = DIRECTION ( 'NONE',  ( 0.000000000000000000, 0.000000000000000000, 1.000000000000000000 ) ) ;
#621 = ORIENTED_EDGE ( 'NONE', *, *, #825, .F. ) ;
#622 = LINE ( 'NONE', #824, #336 ) ;
#623 = VERTEX_POINT ( 'NONE', #749 ) ;
#624 = EDGE_CURVE ( 'NONE', #74, #480, #790, .T. ) ;
#625 = ORIENTED_EDGE ( 'NONE', *, *, #237, .F. ) ;
#626 = AXIS2_PLACEMENT_3D ( 'NONE', #195, #448, #708 ) ;
#627 =( NAMED_UNIT ( * ) SI_UNIT ( $, .STERADIAN. ) SOLID_ANGLE_UNIT ( ) );
#628 = FACE_BOUND ( 'NONE', #3, .T. ) ;
#629 = CARTESIAN_POINT ( 'NONE',  ( -0.1044918046581095605, 0.01562318840579709177, 0.003000000000000000062 ) ) ;
#630 = ORIENTED_EDGE ( 'NONE', *, *, #486, .T. ) ;
#631 = EDGE_CURVE ( 'NONE', #26, #511, #802, .T. ) ;
#632 = CARTESIAN_POINT ( 'NONE',  ( -0.1004918046581095570, 0.05192533210856064424, 0.003000000000000000062 ) ) ;
#633 = FACE_BOUND ( 'NONE', #92, .T. ) ;
#634 = EDGE_LOOP ( 'NONE', ( #223, #559, #408, #191 ) ) ;
#635 = CARTESIAN_POINT ( 'NONE',  ( -0.09649180465810955343, 0.05192533210856064424, 0.003000000000000000062 ) ) ;
#636 = EDGE_CURVE ( 'NONE', #61, #412, #280, .T. ) ;
#637 = CARTESIAN_POINT ( 'NONE',  ( 0.07359420289855075903, 0.06462318840579708845, 0.000000000000000000 ) ) ;
#638 = CYLINDRICAL_SURFACE ( 'NONE', #433, 0.004000000000000003553 ) ;
#639 = ORIENTED_EDGE ( 'NONE', *, *, #386, .F. ) ;
#640 = DIRECTION ( 'NONE',  ( -0.000000000000000000, -0.000000000000000000, -1.000000000000000000 ) ) ;
#641 = AXIS2_PLACEMENT_3D ( 'NONE', #777, #214, #143 ) ;
#642 = DIRECTION ( 'NONE',  ( -0.000000000000000000, -0.000000000000000000, -1.000000000000000000 ) ) ;
#643 = CARTESIAN_POINT ( 'NONE',  ( 0.04768021045521106394, 0.01562318840579709177, 0.000000000000000000 ) ) ;
#644 = ORIENTED_EDGE ( 'NONE', *, *, #499, .T. ) ;
#645 = COORDINATED_UNIVERSAL_TIME_OFFSET ( 3, 0, .AHEAD. ) ;
#646 = LINE ( 'NONE', #258, #141 ) ;
#647 = CARTESIAN_POINT ( 'NONE',  ( 0.000000000000000000, 0.000000000000000000, 0.003000000000000000062 ) ) ;
#648 = ORIENTED_EDGE ( 'NONE', *, *, #50, .F. ) ;
#649 = CARTESIAN_POINT ( 'NONE',  ( -0.09649180465810955343, 0.05192533210856064424, 0.003000000000000000062 ) ) ;
#650 = FACE_BOUND ( 'NONE', #751, .T. ) ;
#651 = AXIS2_PLACEMENT_3D ( 'NONE', #781, #587, #332 ) ;
#652 = ORIENTED_EDGE ( 'NONE', *, *, #801, .T. ) ;
#653 = PERSON_AND_ORGANIZATION_ROLE ( 'creator' ) ;
#654 = LINE ( 'NONE', #85, #689 ) ;
#655 = ORIENTED_EDGE ( 'NONE', *, *, #607, .F. ) ;
#656 = AXIS2_PLACEMENT_3D ( 'NONE', #770, #315, #189 ) ;
#657 = PERSON_AND_ORGANIZATION ( #90, #365 ) ;
#658 = EDGE_CURVE ( 'NONE', #811, #585, #411, .T. ) ;
#659 = VECTOR ( 'NONE', #436, 1.000000000000000000 ) ;
#660 = DIRECTION ( 'NONE',  ( -0.000000000000000000, -0.000000000000000000, -1.000000000000000000 ) ) ;
#661 = EDGE_LOOP ( 'NONE', ( #655, #669 ) ) ;
#662 = SECURITY_CLASSIFICATION_LEVEL ( 'unclassified' ) ;
#663 = EDGE_CURVE ( 'NONE', #140, #360, #423, .T. ) ;
#664 = DIRECTION ( 'NONE',  ( 0.000000000000000000, 0.000000000000000000, 1.000000000000000000 ) ) ;
#665 = ORIENTED_EDGE ( 'NONE', *, *, #168, .T. ) ;
#666 = DIRECTION ( 'NONE',  ( 0.000000000000000000, 0.000000000000000000, 1.000000000000000000 ) ) ;
#667 = DIRECTION ( 'NONE',  ( -1.000000000000000000, 0.000000000000000000, 0.000000000000000000 ) ) ;
#668 = CIRCLE ( 'NONE', #159, 0.004000000000000003553 ) ;
#669 = ORIENTED_EDGE ( 'NONE', *, *, #718, .F. ) ;
#670 = DIRECTION ( 'NONE',  ( 0.000000000000000000, 0.000000000000000000, 1.000000000000000000 ) ) ;
#671 = PLANE ( 'NONE',  #153 ) ;
#672 = VECTOR ( 'NONE', #827, 1.000000000000000000 ) ;
#673 = EDGE_LOOP ( 'NONE', ( #34, #312 ) ) ;
#674 = EDGE_CURVE ( 'NONE', #140, #102, #251, .T. ) ;
#675 = CARTESIAN_POINT ( 'NONE',  ( 0.04768021045521106394, 0.01562318840579709177, 0.003000000000000000062 ) ) ;
#676 = ORIENTED_EDGE ( 'NONE', *, *, #212, .T. ) ;
#677 = PRODUCT_RELATED_PRODUCT_CATEGORY ( 'detail', '', ( #785 ) ) ;
#678 = ADVANCED_FACE ( 'NONE', ( #42 ), #671, .F. ) ;
#679 = DIRECTION ( 'NONE',  ( 0.000000000000000000, 0.000000000000000000, 1.000000000000000000 ) ) ;
#680 = ORIENTED_EDGE ( 'NONE', *, *, #700, .F. ) ;
#681 = AXIS2_PLACEMENT_3D ( 'NONE', #229, #349, #809 ) ;
#682 = DIRECTION ( 'NONE',  ( 6.938893903907227145E-17, 1.000000000000000000, -0.000000000000000000 ) ) ;
#683 = CARTESIAN_POINT ( 'NONE',  ( 0.07359420289855075903, 0.06462318840579708845, 0.000000000000000000 ) ) ;
#684 = VERTEX_POINT ( 'NONE', #743 ) ;
#685 = CARTESIAN_POINT ( 'NONE',  ( -0.1044918046581095605, 0.05192533210856064424, 0.003000000000000000062 ) ) ;
#686 = EDGE_CURVE ( 'NONE', #585, #354, #616, .T. ) ;
#687 = ORIENTED_EDGE ( 'NONE', *, *, #326, .T. ) ;
#688 = ORIENTED_EDGE ( 'NONE', *, *, #70, .T. ) ;
#689 = VECTOR ( 'NONE', #81, 1.000000000000000000 ) ;
#690 =( NAMED_UNIT ( * ) PLANE_ANGLE_UNIT ( ) SI_UNIT ( $, .RADIAN. ) );
#691 = PLANE ( 'NONE',  #763 ) ;
#692 = LINE ( 'NONE', #52, #190 ) ;
#693 = EDGE_LOOP ( 'NONE', ( #589, #364, #416, #800 ) ) ;
#694 = ADVANCED_FACE ( 'NONE', ( #549 ), #605, .F. ) ;
#695 = CARTESIAN_POINT ( 'NONE',  ( 0.04768021045521106394, 0.01562318840579709177, 0.003000000000000000062 ) ) ;
#696 = AXIS2_PLACEMENT_3D ( 'NONE', #367, #582, #68 ) ;
#697 = CARTESIAN_POINT ( 'NONE',  ( 0.04768021045521106394, 0.05192533210856064424, 0.003000000000000000062 ) ) ;
#698 = CARTESIAN_POINT ( 'NONE',  ( 0.04368021045521106038, 0.01562318840579709177, 0.003000000000000000062 ) ) ;
#699 = ORIENTED_EDGE ( 'NONE', *, *, #300, .F. ) ;
#700 = EDGE_CURVE ( 'NONE', #449, #362, #109, .T. ) ;
#701 = CIRCLE ( 'NONE', #744, 0.004000000000000003553 ) ;
#702 = LINE ( 'NONE', #124, #474 ) ;
#703 = AXIS2_PLACEMENT_3D ( 'NONE', #303, #640, #498 ) ;
#704 = DIRECTION ( 'NONE',  ( -0.000000000000000000, -0.000000000000000000, -1.000000000000000000 ) ) ;
#705 = LINE ( 'NONE', #575, #742 ) ;
#706 = APPLICATION_PROTOCOL_DEFINITION ( 'international standard', 'config_control_design', 1994, #460 ) ;
#707 = CARTESIAN_POINT ( 'NONE',  ( -0.1264057971014492521, -0.03337681159420290145, 0.000000000000000000 ) ) ;
#708 = DIRECTION ( 'NONE',  ( -1.000000000000000000, 0.000000000000000000, 0.000000000000000000 ) ) ;
#709 = VERTEX_POINT ( 'NONE', #798 ) ;
#710 = DIRECTION ( 'NONE',  ( 0.000000000000000000, 0.000000000000000000, 1.000000000000000000 ) ) ;
#711 = EDGE_CURVE ( 'NONE', #463, #557, #358, .T. ) ;
#712 = CARTESIAN_POINT ( 'NONE',  ( -0.09649180465810955343, 0.05192533210856064424, 0.000000000000000000 ) ) ;
#713 = DIRECTION ( 'NONE',  ( 0.000000000000000000, -0.000000000000000000, -1.000000000000000000 ) ) ;
#714 = EDGE_LOOP ( 'NONE', ( #791, #324 ) ) ;
#715 = COORDINATED_UNIVERSAL_TIME_OFFSET ( 3, 0, .AHEAD. ) ;
#716 = DIRECTION ( 'NONE',  ( 0.000000000000000000, 0.000000000000000000, 1.000000000000000000 ) ) ;
#717 = DIRECTION ( 'NONE',  ( -1.000000000000000000, 0.000000000000000000, 0.000000000000000000 ) ) ;
#718 = EDGE_CURVE ( 'NONE', #471, #95, #596, .T. ) ;
#719 = EDGE_LOOP ( 'NONE', ( #687, #771 ) ) ;
#720 = APPLICATION_PROTOCOL_DEFINITION ( 'international standard', 'config_control_design', 1994, #87 ) ;
#721 = CARTESIAN_POINT ( 'NONE',  ( 0.05168021045521106749, 0.05192533210856064424, 0.000000000000000000 ) ) ;
#722 = AXIS2_PLACEMENT_3D ( 'NONE', #345, #794, #206 ) ;
#723 = ORIENTED_EDGE ( 'NONE', *, *, #321, .F. ) ;
#724 = DATE_TIME_ROLE ( 'classification_date' ) ;
#725 = CC_DESIGN_APPROVAL ( #397, ( #565 ) ) ;
#726 = LINE ( 'NONE', #649, #396 ) ;
#727 = CIRCLE ( 'NONE', #173, 0.004000000000000003553 ) ;
#728 = VERTEX_POINT ( 'NONE', #298 ) ;
#729 = DATE_AND_TIME ( #784, #278 ) ;
#730 = DIRECTION ( 'NONE',  ( -0.000000000000000000, -0.000000000000000000, -1.000000000000000000 ) ) ;
#731 = ORIENTED_EDGE ( 'NONE', *, *, #151, .T. ) ;
#732 = AXIS2_PLACEMENT_3D ( 'NONE', #632, #197, #177 ) ;
#733 = CARTESIAN_POINT ( 'NONE',  ( -0.1044918046581095605, -0.02067895529696645723, 0.003000000000000000062 ) ) ;
#734 = DIRECTION ( 'NONE',  ( -1.000000000000000000, 0.000000000000000000, 0.000000000000000000 ) ) ;
#735 = EDGE_CURVE ( 'NONE', #61, #745, #812, .T. ) ;
#736 = VERTEX_POINT ( 'NONE', #287 ) ;
#737 = CARTESIAN_POINT ( 'NONE',  ( -0.1004918046581095570, 0.05192533210856064424, 0.003000000000000000062 ) ) ;
#738 = DIRECTION ( 'NONE',  ( 0.000000000000000000, 0.000000000000000000, 1.000000000000000000 ) ) ;
#739 = LOCAL_TIME ( 12, 42, 56.00000000000000000, #469 ) ;
#740 = VECTOR ( 'NONE', #764, 1.000000000000000000 ) ;
#741 = ORIENTED_EDGE ( 'NONE', *, *, #242, .F. ) ;
#742 = VECTOR ( 'NONE', #2, 1.000000000000000000 ) ;
#743 = CARTESIAN_POINT ( 'NONE',  ( 0.04368021045521106038, 0.01562318840579709177, 0.000000000000000000 ) ) ;
#744 = AXIS2_PLACEMENT_3D ( 'NONE', #311, #180, #563 ) ;
#745 = VERTEX_POINT ( 'NONE', #545 ) ;
#746 = EDGE_CURVE ( 'NONE', #803, #807, #257, .T. ) ;
#747 = DIRECTION ( 'NONE',  ( 0.000000000000000000, -1.000000000000000000, 0.000000000000000000 ) ) ;
#748 = ORIENTED_EDGE ( 'NONE', *, *, #146, .T. ) ;
#749 = CARTESIAN_POINT ( 'NONE',  ( -0.03040579710144924314, -0.02067895529696645723, 0.000000000000000000 ) ) ;
#750 = EDGE_LOOP ( 'NONE', ( #543, #88 ) ) ;
#751 = EDGE_LOOP ( 'NONE', ( #741, #618 ) ) ;
#752 = EDGE_CURVE ( 'NONE', #783, #623, #241, .T. ) ;
#753 = CARTESIAN_POINT ( 'NONE',  ( 0.07359420289855075903, 0.06462318840579708845, 0.003000000000000000062 ) ) ;
#754 = EDGE_LOOP ( 'NONE', ( #822, #748 ) ) ;
#755 = FACE_OUTER_BOUND ( 'NONE', #333, .T. ) ;
#756 = CARTESIAN_POINT ( 'NONE',  ( -0.02240579710144923950, 0.05192533210856064424, 0.003000000000000000062 ) ) ;
#757 = CARTESIAN_POINT ( 'NONE',  ( -0.02640579710144923958, 0.05192533210856064424, 0.000000000000000000 ) ) ;
#758 = CARTESIAN_POINT ( 'NONE',  ( -0.1004918046581095570, 0.01562318840579709177, 0.003000000000000000062 ) ) ;
#759 = VERTEX_POINT ( 'NONE', #308 ) ;
#760 = EDGE_CURVE ( 'NONE', #102, #140, #297, .T. ) ;
#761 = CIRCLE ( 'NONE', #641, 0.004000000000000003553 ) ;
#762 = CARTESIAN_POINT ( 'NONE',  ( 0.04368021045521106038, 0.05192533210856064424, 0.000000000000000000 ) ) ;
#763 = AXIS2_PLACEMENT_3D ( 'NONE', #442, #179, #375 ) ;
#764 = DIRECTION ( 'NONE',  ( -0.000000000000000000, -0.000000000000000000, -1.000000000000000000 ) ) ;
#765 = FACE_OUTER_BOUND ( 'NONE', #599, .T. ) ;
#766 = ORIENTED_EDGE ( 'NONE', *, *, #226, .T. ) ;
#767 = DIRECTION ( 'NONE',  ( 0.000000000000000000, 0.000000000000000000, 1.000000000000000000 ) ) ;
#768 = AXIS2_PLACEMENT_3D ( 'NONE', #753, #805, #107 ) ;
#769 = CARTESIAN_POINT ( 'NONE',  ( -0.1044918046581095605, 0.01562318840579709177, 0.003000000000000000062 ) ) ;
#770 = CARTESIAN_POINT ( 'NONE',  ( 0.04768021045521106394, -0.02067895529696647111, 0.003000000000000000062 ) ) ;
#771 = ORIENTED_EDGE ( 'NONE', *, *, #550, .T. ) ;
#772 = DIRECTION ( 'NONE',  ( 0.000000000000000000, 0.000000000000000000, 1.000000000000000000 ) ) ;
#773 = PLANE ( 'NONE',  #165 ) ;
#774 = EDGE_LOOP ( 'NONE', ( #38, #497, #617, #779 ) ) ;
#775 = AXIS2_PLACEMENT_3D ( 'NONE', #314, #772, #567 ) ;
#776 = EDGE_CURVE ( 'NONE', #728, #745, #445, .T. ) ;
#777 = CARTESIAN_POINT ( 'NONE',  ( -0.1004918046581095570, 0.05192533210856064424, 0.003000000000000000062 ) ) ;
#778 = DIRECTION ( 'NONE',  ( -1.000000000000000000, 0.000000000000000000, 0.000000000000000000 ) ) ;
#779 = ORIENTED_EDGE ( 'NONE', *, *, #801, .F. ) ;
#780 = PERSON_AND_ORGANIZATION ( #90, #365 ) ;
#781 = CARTESIAN_POINT ( 'NONE',  ( -0.1004918046581095570, -0.02067895529696645723, 0.003000000000000000062 ) ) ;
#782 = ADVANCED_FACE ( 'NONE', ( #562 ), #247, .F. ) ;
#783 = VERTEX_POINT ( 'NONE', #5 ) ;
#784 = CALENDAR_DATE ( 2026, 12, 8 ) ;
#785 = PRODUCT ( 'base2', 'base2', '', ( #578 ) ) ;
#786 = CYLINDRICAL_SURFACE ( 'NONE', #422, 0.004000000000000000083 ) ;
#787 = EDGE_LOOP ( 'NONE', ( #723, #374, #581, #252 ) ) ;
#788 = ADVANCED_FACE ( 'NONE', ( #434 ), #59, .F. ) ;
#789 = DIRECTION ( 'NONE',  ( 1.000000000000000000, 0.000000000000000000, 0.000000000000000000 ) ) ;
#790 = CIRCLE ( 'NONE', #573, 0.004000000000000003553 ) ;
#791 = ORIENTED_EDGE ( 'NONE', *, *, #776, .T. ) ;
#792 = ADVANCED_FACE ( 'NONE', ( #428 ), #313, .F. ) ;
#793 = CARTESIAN_POINT ( 'NONE',  ( -0.09649180465810955343, -0.02067895529696645723, 0.003000000000000000062 ) ) ;
#794 = DIRECTION ( 'NONE',  ( -0.000000000000000000, -0.000000000000000000, -1.000000000000000000 ) ) ;
#795 = EDGE_LOOP ( 'NONE', ( #639, #533, #99, #285 ) ) ;
#796 = DIRECTION ( 'NONE',  ( -1.000000000000000000, 0.000000000000000000, 0.000000000000000000 ) ) ;
#797 = EDGE_CURVE ( 'NONE', #412, #728, #622, .T. ) ;
#798 = CARTESIAN_POINT ( 'NONE',  ( 0.04368021045521106038, -0.02067895529696647111, 0.003000000000000000062 ) ) ;
#799 = AXIS2_PLACEMENT_3D ( 'NONE', #1, #253, #513 ) ;
#800 = ORIENTED_EDGE ( 'NONE', *, *, #752, .F. ) ;
#801 = EDGE_CURVE ( 'NONE', #382, #511, #361, .T. ) ;
#802 = LINE ( 'NONE', #685, #537 ) ;
#803 = VERTEX_POINT ( 'NONE', #518 ) ;
#804 = CIRCLE ( 'NONE', #437, 0.004000000000000003553 ) ;
#805 = DIRECTION ( 'NONE',  ( -1.000000000000000000, 0.000000000000000000, 0.000000000000000000 ) ) ;
#806 = AXIS2_PLACEMENT_3D ( 'NONE', #176, #170, #431 ) ;
#807 = VERTEX_POINT ( 'NONE', #762 ) ;
#808 = VECTOR ( 'NONE', #284, 1.000000000000000000 ) ;
#809 = DIRECTION ( 'NONE',  ( -1.000000000000000000, 0.000000000000000000, 0.000000000000000000 ) ) ;
#810 = ORIENTED_EDGE ( 'NONE', *, *, #663, .F. ) ;
#811 = VERTEX_POINT ( 'NONE', #187 ) ;
#812 = LINE ( 'NONE', #234, #86 ) ;
#813 = CARTESIAN_POINT ( 'NONE',  ( -0.1264057971014492521, 0.06462318840579708845, 0.000000000000000000 ) ) ;
#814 = VERTEX_POINT ( 'NONE', #440 ) ;
#815 = ADVANCED_BREP_SHAPE_REPRESENTATION ( 'base2', ( #302, #420 ), #28 ) ;
#816 = DIRECTION ( 'NONE',  ( -0.000000000000000000, -0.000000000000000000, -1.000000000000000000 ) ) ;
#817 = LINE ( 'NONE', #683, #672 ) ;
#818 = VERTEX_POINT ( 'NONE', #635 ) ;
#819 = CARTESIAN_POINT ( 'NONE',  ( 0.04368021045521106038, 0.05192533210856064424, 0.003000000000000000062 ) ) ;
#820 = CARTESIAN_POINT ( 'NONE',  ( -0.1264057971014492521, 0.06462318840579708845, 0.003000000000000000062 ) ) ;
#821 = LINE ( 'NONE', #244, #659 ) ;
#822 = ORIENTED_EDGE ( 'NONE', *, *, #370, .T. ) ;
#823 = AXIS2_PLACEMENT_3D ( 'NONE', #281, #261, #598 ) ;
#824 = CARTESIAN_POINT ( 'NONE',  ( -0.03040579710144923967, 0.05192533210856064424, 0.003000000000000000062 ) ) ;
#825 = EDGE_CURVE ( 'NONE', #95, #684, #702, .T. ) ;
#826 = DIRECTION ( 'NONE',  ( 1.000000000000000000, 0.000000000000000000, 0.000000000000000000 ) ) ;
#827 = DIRECTION ( 'NONE',  ( -0.000000000000000000, 1.000000000000000000, -0.000000000000000000 ) ) ;
#828 = EDGE_LOOP ( 'NONE', ( #731, #249 ) ) ;
#829 = VECTOR ( 'NONE', #619, 1.000000000000000000 ) ;
ENDSEC;
END-ISO-10303-21;
