ISO-10303-21;
HEADER;
FILE_DESCRIPTION (( 'STEP AP203' ),
    '1' );
FILE_NAME ('camera housing.STEP',
    '2026-08-12T09:43:10',
    ( '' ),
    ( '' ),
    'SwSTEP 2.0',
    'SolidWorks 2025',
    '' );
FILE_SCHEMA (( 'CONFIG_CONTROL_DESIGN' ));
ENDSEC;

DATA;
#1 = VERTEX_POINT ( 'NONE', #333 ) ;
#2 = DESIGN_CONTEXT ( 'detailed design', #400, 'design' ) ;
#3 = EDGE_CURVE ( 'NONE', #28, #635, #323, .T. ) ;
#4 = DIRECTION ( 'NONE',  ( 0.000000000000000000, 1.000000000000000000, 0.000000000000000000 ) ) ;
#5 = ORIENTED_EDGE ( 'NONE', *, *, #136, .T. ) ;
#6 = VECTOR ( 'NONE', #601, 1.000000000000000000 ) ;
#7 = EDGE_CURVE ( 'NONE', #786, #199, #639, .T. ) ;
#8 = CARTESIAN_POINT ( 'NONE',  ( 0.01325000000000000136, 0.01375000000000000354, 0.01200000000000000025 ) ) ;
#9 = VECTOR ( 'NONE', #399, 1.000000000000000000 ) ;
#10 = EDGE_LOOP ( 'NONE', ( #631, #560 ) ) ;
#11 = COORDINATED_UNIVERSAL_TIME_OFFSET ( 3, 0, .AHEAD. ) ;
#12 = DIRECTION ( 'NONE',  ( 0.000000000000000000, 1.000000000000000000, 0.000000000000000000 ) ) ;
#13 = CARTESIAN_POINT ( 'NONE',  ( -0.01024999999999999870, 0.01375000000000000354, 0.01700000000000000122 ) ) ;
#14 = CARTESIAN_POINT ( 'NONE',  ( -0.01024999999999999523, -0.009999999999999996739, 0.01450000000000000074 ) ) ;
#15 = ADVANCED_FACE ( 'NONE', ( #91 ), #392, .F. ) ;
#16 = VERTEX_POINT ( 'NONE', #20 ) ;
#17 = VECTOR ( 'NONE', #684, 1.000000000000000000 ) ;
#18 = CARTESIAN_POINT ( 'NONE',  ( -0.01524999999999999967, 0.009000000000000004524, 0.01450000000000003543 ) ) ;
#19 = LOCAL_TIME ( 12, 43, 10.00000000000000000, #144 ) ;
#20 = CARTESIAN_POINT ( 'NONE',  ( -0.0002499999999999967526, 0.004500000000000003129, 0.000000000000000000 ) ) ;
#21 = ORIENTED_EDGE ( 'NONE', *, *, #404, .T. ) ;
#22 = AXIS2_PLACEMENT_3D ( 'NONE', #268, #97, #206 ) ;
#23 = CARTESIAN_POINT ( 'NONE',  ( -0.01124999999999999958, -0.01274999999999999745, 0.01075000000000000261 ) ) ;
#24 = ORIENTED_EDGE ( 'NONE', *, *, #156, .T. ) ;
#25 = EDGE_LOOP ( 'NONE', ( #315, #213, #612, #745 ) ) ;
#26 = CARTESIAN_POINT ( 'NONE',  ( -0.01324999999999999789, -0.01099999999999999589, 0.01450000000000000074 ) ) ;
#27 = LINE ( 'NONE', #275, #177 ) ;
#28 = VERTEX_POINT ( 'NONE', #506 ) ;
#29 = EDGE_CURVE ( 'NONE', #636, #59, #386, .T. ) ;
#30 = PLANE ( 'NONE',  #575 ) ;
#31 = VECTOR ( 'NONE', #626, 1.000000000000000000 ) ;
#32 = FACE_OUTER_BOUND ( 'NONE', #25, .T. ) ;
#33 = CARTESIAN_POINT ( 'NONE',  ( 0.01325000000000000136, 0.01375000000000000354, 0.01200000000000000025 ) ) ;
#34 = CC_DESIGN_APPROVAL ( #682, ( #208 ) ) ;
#35 = ORIENTED_EDGE ( 'NONE', *, *, #593, .T. ) ;
#36 = DIRECTION ( 'NONE',  ( 1.000000000000000000, -1.927470528863119542E-16, 0.000000000000000000 ) ) ;
#37 = FACE_OUTER_BOUND ( 'NONE', #603, .T. ) ;
#38 = FACE_OUTER_BOUND ( 'NONE', #759, .T. ) ;
#39 = ORIENTED_EDGE ( 'NONE', *, *, #793, .T. ) ;
#40 = PERSON_AND_ORGANIZATION ( #648, #200 ) ;
#41 = LINE ( 'NONE', #528, #604 ) ;
#42 = EDGE_CURVE ( 'NONE', #16, #228, #220, .T. ) ;
#43 = LINE ( 'NONE', #524, #654 ) ;
#44 = DIRECTION ( 'NONE',  ( 0.000000000000000000, -0.000000000000000000, 1.000000000000000000 ) ) ;
#45 = ORIENTED_EDGE ( 'NONE', *, *, #374, .T. ) ;
#46 = APPROVAL_ROLE ( '' ) ;
#47 = DIRECTION ( 'NONE',  ( 1.000000000000000000, 0.000000000000000000, 0.000000000000000000 ) ) ;
#48 = VECTOR ( 'NONE', #571, 1.000000000000000000 ) ;
#49 = CARTESIAN_POINT ( 'NONE',  ( -0.01024999999999999870, 0.01000000000000000368, 0.01450000000000003543 ) ) ;
#50 = ORIENTED_EDGE ( 'NONE', *, *, #29, .T. ) ;
#51 = PERSON_AND_ORGANIZATION_ROLE ( 'design_supplier' ) ;
#52 = CARTESIAN_POINT ( 'NONE',  ( 0.01325000000000000136, -0.01274999999999999745, 0.01075000000000000261 ) ) ;
#53 = FACE_OUTER_BOUND ( 'NONE', #732, .T. ) ;
#54 = ORIENTED_EDGE ( 'NONE', *, *, #710, .F. ) ;
#55 = APPLICATION_PROTOCOL_DEFINITION ( 'international standard', 'config_control_design', 1994, #283 ) ;
#56 = EDGE_CURVE ( 'NONE', #763, #480, #86, .T. ) ;
#57 = DIRECTION ( 'NONE',  ( 0.000000000000000000, 0.000000000000000000, -1.000000000000000000 ) ) ;
#58 = DIRECTION ( 'NONE',  ( 1.000000000000000000, 0.000000000000000000, 0.000000000000000000 ) ) ;
#59 = VERTEX_POINT ( 'NONE', #261 ) ;
#60 = DATE_AND_TIME ( #298, #535 ) ;
#61 = DIRECTION ( 'NONE',  ( -1.927470528863119542E-16, -1.000000000000000000, 0.000000000000000000 ) ) ;
#62 = EDGE_CURVE ( 'NONE', #364, #334, #27, .T. ) ;
#63 = DIRECTION ( 'NONE',  ( 0.000000000000000000, 1.000000000000000000, 0.000000000000000000 ) ) ;
#64 = VECTOR ( 'NONE', #522, 1.000000000000000000 ) ;
#65 = ORIENTED_EDGE ( 'NONE', *, *, #702, .F. ) ;
#66 = VECTOR ( 'NONE', #683, 1.000000000000000000 ) ;
#67 = LINE ( 'NONE', #123, #738 ) ;
#68 = VECTOR ( 'NONE', #713, 1.000000000000000000 ) ;
#69 = ADVANCED_FACE ( 'NONE', ( #711, #163 ), #652, .F. ) ;
#70 = VERTEX_POINT ( 'NONE', #509 ) ;
#71 = LINE ( 'NONE', #492, #377 ) ;
#72 = CC_DESIGN_PERSON_AND_ORGANIZATION_ASSIGNMENT ( #543, #51, ( #208 ) ) ;
#73 = ORIENTED_EDGE ( 'NONE', *, *, #29, .F. ) ;
#74 = DIRECTION ( 'NONE',  ( 1.000000000000000000, 1.261617073437677999E-16, -0.000000000000000000 ) ) ;
#75 = EDGE_LOOP ( 'NONE', ( #708, #701, #287, #565 ) ) ;
#76 = VECTOR ( 'NONE', #641, 1.000000000000000000 ) ;
#77 = VECTOR ( 'NONE', #798, 1.000000000000000000 ) ;
#78 = DIRECTION ( 'NONE',  ( 1.000000000000000000, 0.000000000000000000, 0.000000000000000000 ) ) ;
#79 = CC_DESIGN_APPROVAL ( #545, ( #621 ) ) ;
#80 = ORIENTED_EDGE ( 'NONE', *, *, #410, .T. ) ;
#81 = EDGE_CURVE ( 'NONE', #334, #16, #699, .T. ) ;
#82 = CARTESIAN_POINT ( 'NONE',  ( -0.01024999999999999696, -0.01374999999999999660, 0.01200000000000000025 ) ) ;
#83 = ORIENTED_EDGE ( 'NONE', *, *, #404, .F. ) ;
#84 = ORIENTED_EDGE ( 'NONE', *, *, #42, .F. ) ;
#85 = DIRECTION ( 'NONE',  ( 1.000000000000000000, 0.000000000000000000, 0.000000000000000000 ) ) ;
#86 = LINE ( 'NONE', #395, #661 ) ;
#87 = EDGE_LOOP ( 'NONE', ( #468, #801, #153, #447 ) ) ;
#88 = AXIS2_PLACEMENT_3D ( 'NONE', #660, #110, #478 ) ;
#89 = FACE_OUTER_BOUND ( 'NONE', #242, .T. ) ;
#90 = ADVANCED_FACE ( 'NONE', ( #342, #357, #179, #116 ), #466, .F. ) ;
#91 = FACE_OUTER_BOUND ( 'NONE', #664, .T. ) ;
#92 = DIRECTION ( 'NONE',  ( 1.000000000000000000, 0.000000000000000000, -0.000000000000000000 ) ) ;
#93 = CARTESIAN_POINT ( 'NONE',  ( -0.0002499999999999967526, 0.004500000000000003129, 0.000000000000000000 ) ) ;
#94 = EDGE_CURVE ( 'NONE', #181, #318, #267, .T. ) ;
#95 = ORIENTED_EDGE ( 'NONE', *, *, #557, .T. ) ;
#96 = CARTESIAN_POINT ( 'NONE',  ( -0.01324999999999999789, 0.001000000000000003057, 0.01450000000000000074 ) ) ;
#97 = DIRECTION ( 'NONE',  ( -1.000000000000000000, 0.000000000000000000, 0.000000000000000000 ) ) ;
#98 = DIRECTION ( 'NONE',  ( -1.000000000000000000, -0.000000000000000000, -0.000000000000000000 ) ) ;
#99 = VECTOR ( 'NONE', #278, 1.000000000000000000 ) ;
#100 = DIRECTION ( 'NONE',  ( -1.000000000000000000, 0.000000000000000000, 0.000000000000000000 ) ) ;
#101 = PLANE ( 'NONE',  #677 ) ;
#102 = EDGE_LOOP ( 'NONE', ( #751, #715, #54, #263 ) ) ;
#103 =( LENGTH_UNIT ( ) NAMED_UNIT ( * ) SI_UNIT ( $, .METRE. ) );
#104 = LINE ( 'NONE', #293, #707 ) ;
#105 = EDGE_CURVE ( 'NONE', #487, #193, #779, .T. ) ;
#106 = FACE_BOUND ( 'NONE', #737, .T. ) ;
#107 = CARTESIAN_POINT ( 'NONE',  ( -0.01324999999999999789, -0.01374999999999999660, 0.01200000000000000025 ) ) ;
#108 = ORIENTED_EDGE ( 'NONE', *, *, #214, .T. ) ;
#109 = PERSON_AND_ORGANIZATION ( #648, #200 ) ;
#110 = DIRECTION ( 'NONE',  ( 0.000000000000000000, 0.000000000000000000, -1.000000000000000000 ) ) ;
#111 = CARTESIAN_POINT ( 'NONE',  ( -0.01024999999999999870, 0.01375000000000000354, 0.01200000000000000025 ) ) ;
#112 = ORIENTED_EDGE ( 'NONE', *, *, #410, .F. ) ;
#113 = UNCERTAINTY_MEASURE_WITH_UNIT (LENGTH_MEASURE( 1.000000000000000082E-05 ), #103, 'distance_accuracy_value', 'NONE');
#114 = LINE ( 'NONE', #355, #6 ) ;
#115 = AXIS2_PLACEMENT_3D ( 'NONE', #691, #308, #500 ) ;
#116 = FACE_OUTER_BOUND ( 'NONE', #245, .T. ) ;
#117 = ADVANCED_FACE ( 'NONE', ( #785, #236 ), #718, .F. ) ;
#118 = ORIENTED_EDGE ( 'NONE', *, *, #505, .T. ) ;
#119 = DIRECTION ( 'NONE',  ( -1.000000000000000000, 0.000000000000000000, -0.000000000000000000 ) ) ;
#120 = PLANE ( 'NONE',  #443 ) ;
#121 = EDGE_LOOP ( 'NONE', ( #423, #154, #296, #674, #249, #378 ) ) ;
#122 = ADVANCED_FACE ( 'NONE', ( #37 ), #479, .F. ) ;
#123 = CARTESIAN_POINT ( 'NONE',  ( 0.01325000000000000136, -0.01374999999999999660, 0.000000000000000000 ) ) ;
#124 = FACE_OUTER_BOUND ( 'NONE', #389, .T. ) ;
#125 = PRODUCT_DEFINITION_SHAPE ( 'NONE', 'NONE',  #750 ) ;
#126 = ORIENTED_EDGE ( 'NONE', *, *, #151, .F. ) ;
#127 = CARTESIAN_POINT ( 'NONE',  ( -0.0002499999999999967526, -0.004499999999999996191, 0.000000000000000000 ) ) ;
#128 = ADVANCED_FACE ( 'NONE', ( #53 ), #295, .F. ) ;
#129 = CARTESIAN_POINT ( 'NONE',  ( -0.01324999999999999789, 0.01375000000000000354, 0.01700000000000000122 ) ) ;
#130 = VECTOR ( 'NONE', #209, 1.000000000000000000 ) ;
#131 = ORIENTED_EDGE ( 'NONE', *, *, #297, .T. ) ;
#132 = DATE_AND_TIME ( #632, #645 ) ;
#133 = VECTOR ( 'NONE', #429, 1.000000000000000000 ) ;
#134 = CC_DESIGN_APPROVAL ( #659, ( #750 ) ) ;
#135 = CARTESIAN_POINT ( 'NONE',  ( -0.01124999999999999958, 0.01275000000000000092, 0.01075000000000000261 ) ) ;
#136 = EDGE_CURVE ( 'NONE', #228, #763, #789, .T. ) ;
#137 = AXIS2_PLACEMENT_3D ( 'NONE', #231, #474, #336 ) ;
#138 = ORIENTED_EDGE ( 'NONE', *, *, #384, .T. ) ;
#139 = CARTESIAN_POINT ( 'NONE',  ( -0.01324999999999999789, -0.01374999999999999660, 0.01200000000000000025 ) ) ;
#140 = EDGE_LOOP ( 'NONE', ( #542, #5, #65, #314 ) ) ;
#141 = DIRECTION ( 'NONE',  ( 0.000000000000000000, -0.000000000000000000, 1.000000000000000000 ) ) ;
#142 = ORIENTED_EDGE ( 'NONE', *, *, #722, .T. ) ;
#143 = AXIS2_PLACEMENT_3D ( 'NONE', #731, #420, #353 ) ;
#144 = COORDINATED_UNIVERSAL_TIME_OFFSET ( 3, 0, .AHEAD. ) ;
#145 = EDGE_CURVE ( 'NONE', #237, #531, #43, .T. ) ;
#146 = AXIS2_PLACEMENT_3D ( 'NONE', #192, #345, #413 ) ;
#147 = CARTESIAN_POINT ( 'NONE',  ( -0.01324999999999999789, 0.01375000000000000354, 0.01700000000000000122 ) ) ;
#148 = VECTOR ( 'NONE', #282, 1.000000000000000000 ) ;
#149 = CARTESIAN_POINT ( 'NONE',  ( -0.0002499999999999967526, 0.004500000000000003129, 0.003499999999999997037 ) ) ;
#150 = ORIENTED_EDGE ( 'NONE', *, *, #81, .T. ) ;
#151 = EDGE_CURVE ( 'NONE', #318, #181, #616, .T. ) ;
#152 = DIRECTION ( 'NONE',  ( 0.000000000000000000, 1.000000000000000000, 0.000000000000000000 ) ) ;
#153 = ORIENTED_EDGE ( 'NONE', *, *, #470, .T. ) ;
#154 = ORIENTED_EDGE ( 'NONE', *, *, #633, .F. ) ;
#155 = DIRECTION ( 'NONE',  ( -1.000000000000000000, 0.000000000000000000, 0.000000000000000000 ) ) ;
#156 = EDGE_CURVE ( 'NONE', #464, #310, #602, .T. ) ;
#157 = VERTEX_POINT ( 'NONE', #290 ) ;
#158 = ORIENTED_EDGE ( 'NONE', *, *, #552, .F. ) ;
#159 = VECTOR ( 'NONE', #385, 1.000000000000000000 ) ;
#160 = CARTESIAN_POINT ( 'NONE',  ( 0.01325000000000000136, -0.01274999999999999745, 0.001249999999999994171 ) ) ;
#161 = AXIS2_PLACEMENT_3D ( 'NONE', #544, #61, #306 ) ;
#162 = ADVANCED_FACE ( 'NONE', ( #594 ), #281, .F. ) ;
#163 = FACE_OUTER_BOUND ( 'NONE', #337, .T. ) ;
#164 = ORIENTED_EDGE ( 'NONE', *, *, #470, .F. ) ;
#165 = CARTESIAN_POINT ( 'NONE',  ( -0.01324999999999999789, 0.01375000000000000354, 0.000000000000000000 ) ) ;
#166 = MANIFOLD_SOLID_BREP ( 'Cut-Extrude3', #446 ) ;
#167 = DIRECTION ( 'NONE',  ( -0.000000000000000000, -0.000000000000000000, -1.000000000000000000 ) ) ;
#168 = PLANE ( 'NONE',  #161 ) ;
#169 = DIRECTION ( 'NONE',  ( 1.000000000000000000, -0.000000000000000000, -0.000000000000000000 ) ) ;
#170 = LINE ( 'NONE', #343, #9 ) ;
#171 = ORIENTED_EDGE ( 'NONE', *, *, #490, .T. ) ;
#172 = EDGE_CURVE ( 'NONE', #499, #199, #536, .T. ) ;
#173 = CARTESIAN_POINT ( 'NONE',  ( -0.01324999999999999789, 0.01375000000000000354, 0.01200000000000000025 ) ) ;
#174 = CARTESIAN_POINT ( 'NONE',  ( -0.01024999999999999870, 0.01000000000000000368, 0.01450000000000003543 ) ) ;
#175 = LINE ( 'NONE', #33, #406 ) ;
#176 = EDGE_LOOP ( 'NONE', ( #644, #444, #112, #704 ) ) ;
#177 = VECTOR ( 'NONE', #326, 1.000000000000000000 ) ;
#178 = PLANE ( 'NONE',  #88 ) ;
#179 = FACE_BOUND ( 'NONE', #570, .T. ) ;
#180 = DIRECTION ( 'NONE',  ( -0.000000000000000000, -0.000000000000000000, -1.000000000000000000 ) ) ;
#181 = VERTEX_POINT ( 'NONE', #184 ) ;
#182 = APPROVAL_DATE_TIME ( #234, #682 ) ;
#183 = DIRECTION ( 'NONE',  ( 0.000000000000000000, 0.000000000000000000, -1.000000000000000000 ) ) ;
#184 = CARTESIAN_POINT ( 'NONE',  ( -0.01024999999999999870, 0.01100000000000000283, 0.01450000000000003543 ) ) ;
#185 = VERTEX_POINT ( 'NONE', #590 ) ;
#186 =( NAMED_UNIT ( * ) SI_UNIT ( $, .STERADIAN. ) SOLID_ANGLE_UNIT ( ) );
#187 = LINE ( 'NONE', #405, #562 ) ;
#188 = AXIS2_PLACEMENT_3D ( 'NONE', #284, #671, #540 ) ;
#189 = CC_DESIGN_DATE_AND_TIME_ASSIGNMENT ( #376, #379, ( #621 ) ) ;
#190 = DIRECTION ( 'NONE',  ( 1.000000000000000000, 1.261617073437677999E-16, -0.000000000000000000 ) ) ;
#191 = ORIENTED_EDGE ( 'NONE', *, *, #782, .F. ) ;
#192 = CARTESIAN_POINT ( 'NONE',  ( 0.000000000000000000, 0.000000000000000000, 0.000000000000000000 ) ) ;
#193 = VERTEX_POINT ( 'NONE', #407 ) ;
#194 = LINE ( 'NONE', #365, #133 ) ;
#195 = FACE_OUTER_BOUND ( 'NONE', #202, .T. ) ;
#196 = ORIENTED_EDGE ( 'NONE', *, *, #501, .F. ) ;
#197 = CYLINDRICAL_SURFACE ( 'NONE', #642, 0.0009999999999999991535 ) ;
#198 = VECTOR ( 'NONE', #442, 1.000000000000000000 ) ;
#199 = VERTEX_POINT ( 'NONE', #111 ) ;
#200 = ORGANIZATION ( 'UNSPECIFIED', 'UNSPECIFIED', '' ) ;
#201 = DIRECTION ( 'NONE',  ( 1.000000000000000000, 0.000000000000000000, 0.000000000000000000 ) ) ;
#202 = EDGE_LOOP ( 'NONE', ( #657, #526, #625, #39 ) ) ;
#203 = EDGE_LOOP ( 'NONE', ( #83, #225 ) ) ;
#204 = PLANE ( 'NONE',  #484 ) ;
#205 = ADVANCED_FACE ( 'NONE', ( #32 ), #520, .F. ) ;
#206 = DIRECTION ( 'NONE',  ( 0.000000000000000000, 0.000000000000000000, 1.000000000000000000 ) ) ;
#207 = VECTOR ( 'NONE', #190, 1.000000000000000000 ) ;
#208 = PRODUCT_DEFINITION_FORMATION_WITH_SPECIFIED_SOURCE ( 'ANY', '', #246, .NOT_KNOWN. ) ;
#209 = DIRECTION ( 'NONE',  ( 0.000000000000000000, 1.000000000000000000, 0.000000000000000000 ) ) ;
#210 = DIRECTION ( 'NONE',  ( 1.000000000000000000, -1.927470528863119542E-16, 0.000000000000000000 ) ) ;
#211 = ADVANCED_FACE ( 'NONE', ( #106, #348, #598, #360 ), #120, .F. ) ;
#212 = CARTESIAN_POINT ( 'NONE',  ( -0.0002499999999999967526, -0.004499999999999996191, 0.003499999999999997037 ) ) ;
#213 = ORIENTED_EDGE ( 'NONE', *, *, #667, .F. ) ;
#214 = EDGE_CURVE ( 'NONE', #464, #157, #418, .T. ) ;
#215 = PLANE ( 'NONE',  #338 ) ;
#216 = DIRECTION ( 'NONE',  ( 1.000000000000000000, 1.261617073437677999E-16, -0.000000000000000000 ) ) ;
#217 = ORIENTED_EDGE ( 'NONE', *, *, #782, .T. ) ;
#218 = VECTOR ( 'NONE', #36, 1.000000000000000000 ) ;
#219 = CARTESIAN_POINT ( 'NONE',  ( -0.01324999999999999789, 0.01375000000000000354, 0.01700000000000000122 ) ) ;
#220 = LINE ( 'NONE', #93, #554 ) ;
#221 = LINE ( 'NONE', #409, #736 ) ;
#222 = EDGE_CURVE ( 'NONE', #579, #401, #693, .T. ) ;
#223 = CARTESIAN_POINT ( 'NONE',  ( -0.01524999999999999967, 0.01000000000000000368, 0.01450000000000003543 ) ) ;
#224 = CARTESIAN_POINT ( 'NONE',  ( -0.01024999999999999870, 0.01375000000000000354, 0.01700000000000000122 ) ) ;
#225 = ORIENTED_EDGE ( 'NONE', *, *, #297, .F. ) ;
#226 = DIRECTION ( 'NONE',  ( -1.000000000000000000, 1.927470528863119542E-16, 0.000000000000000000 ) ) ;
#227 = DIRECTION ( 'NONE',  ( 1.000000000000000000, 0.000000000000000000, 0.000000000000000000 ) ) ;
#228 = VERTEX_POINT ( 'NONE', #425 ) ;
#229 = CARTESIAN_POINT ( 'NONE',  ( -0.01024999999999999870, 0.01375000000000000354, 0.01700000000000000122 ) ) ;
#230 = CIRCLE ( 'NONE', #686, 0.0009999999999999991535 ) ;
#231 = CARTESIAN_POINT ( 'NONE',  ( -0.01124999999999999958, -0.01274999999999999745, 0.001249999999999994171 ) ) ;
#232 = CARTESIAN_POINT ( 'NONE',  ( -0.01524999999999999620, -0.008999999999999997585, 0.01450000000000000074 ) ) ;
#233 = ORIENTED_EDGE ( 'NONE', *, *, #463, .T. ) ;
#234 = DATE_AND_TIME ( #728, #329 ) ;
#235 = CARTESIAN_POINT ( 'NONE',  ( -0.0002499999999999967526, 0.004500000000000003129, 0.003499999999999997037 ) ) ;
#236 = FACE_OUTER_BOUND ( 'NONE', #176, .T. ) ;
#237 = VERTEX_POINT ( 'NONE', #559 ) ;
#238 = APPROVAL_STATUS ( 'not_yet_approved' ) ;
#239 = FACE_BOUND ( 'NONE', #349, .T. ) ;
#240 = ADVANCED_FACE ( 'NONE', ( #124 ), #197, .F. ) ;
#241 = DIRECTION ( 'NONE',  ( 0.000000000000000000, 1.000000000000000000, 0.000000000000000000 ) ) ;
#242 = EDGE_LOOP ( 'NONE', ( #753, #354, #748, #375 ) ) ;
#243 = AXIS2_PLACEMENT_3D ( 'NONE', #223, #286, #662 ) ;
#244 = EDGE_CURVE ( 'NONE', #426, #305, #504, .T. ) ;
#245 = EDGE_LOOP ( 'NONE', ( #646, #727, #372, #452 ) ) ;
#246 = PRODUCT ( 'camera housing', 'camera housing', '', ( #403 ) ) ;
#247 = COORDINATED_UNIVERSAL_TIME_OFFSET ( 3, 0, .AHEAD. ) ;
#248 = CYLINDRICAL_SURFACE ( 'NONE', #589, 0.0009999999999999991535 ) ;
#249 = ORIENTED_EDGE ( 'NONE', *, *, #347, .F. ) ;
#250 = SHAPE_DEFINITION_REPRESENTATION ( #125, #569 ) ;
#251 = CARTESIAN_POINT ( 'NONE',  ( -0.01024999999999999523, -0.008999999999999997585, 0.01450000000000000074 ) ) ;
#252 = ORIENTED_EDGE ( 'NONE', *, *, #3, .F. ) ;
#253 = LINE ( 'NONE', #496, #307 ) ;
#254 = ORIENTED_EDGE ( 'NONE', *, *, #620, .T. ) ;
#255 = PERSON_AND_ORGANIZATION_ROLE ( 'classification_officer' ) ;
#256 = AXIS2_PLACEMENT_3D ( 'NONE', #676, #57, #119 ) ;
#257 = LINE ( 'NONE', #440, #264 ) ;
#258 = ORIENTED_EDGE ( 'NONE', *, *, #56, .F. ) ;
#259 = DIRECTION ( 'NONE',  ( 0.000000000000000000, -1.000000000000000000, 0.000000000000000000 ) ) ;
#260 = ADVANCED_FACE ( 'NONE', ( #568 ), #248, .F. ) ;
#261 = CARTESIAN_POINT ( 'NONE',  ( -0.01024999999999999696, -0.0009999999999999956840, 0.01450000000000000074 ) ) ;
#262 = FACE_OUTER_BOUND ( 'NONE', #756, .T. ) ;
#263 = ORIENTED_EDGE ( 'NONE', *, *, #490, .F. ) ;
#264 = VECTOR ( 'NONE', #367, 1.000000000000000000 ) ;
#265 = VECTOR ( 'NONE', #726, 1.000000000000000000 ) ;
#266 = CARTESIAN_POINT ( 'NONE',  ( 0.01325000000000000136, -0.01374999999999999660, 0.01200000000000000025 ) ) ;
#267 = CIRCLE ( 'NONE', #724, 0.0009999999999999991535 ) ;
#268 = CARTESIAN_POINT ( 'NONE',  ( 0.01325000000000000136, -0.01374999999999999660, 0.01200000000000000025 ) ) ;
#269 = EDGE_CURVE ( 'NONE', #305, #181, #803, .T. ) ;
#270 = ORIENTED_EDGE ( 'NONE', *, *, #145, .F. ) ;
#271 = LINE ( 'NONE', #651, #159 ) ;
#272 = DIRECTION ( 'NONE',  ( 1.000000000000000000, 1.261617073437677999E-16, -0.000000000000000000 ) ) ;
#273 = ORIENTED_EDGE ( 'NONE', *, *, #81, .F. ) ;
#274 = DIRECTION ( 'NONE',  ( 0.000000000000000000, 0.000000000000000000, -1.000000000000000000 ) ) ;
#275 = CARTESIAN_POINT ( 'NONE',  ( -0.0002499999999999967526, -0.01274999999999999745, 0.001249999999999994171 ) ) ;
#276 = AXIS2_PLACEMENT_3D ( 'NONE', #637, #85, #507 ) ;
#277 = CIRCLE ( 'NONE', #115, 0.0009999999999999991535 ) ;
#278 = DIRECTION ( 'NONE',  ( 1.000000000000000000, 1.261617073437677999E-16, -0.000000000000000000 ) ) ;
#279 = EDGE_CURVE ( 'NONE', #489, #650, #373, .T. ) ;
#280 = APPROVAL_PERSON_ORGANIZATION ( #494, #545, #439 ) ;
#281 = PLANE ( 'NONE',  #143 ) ;
#282 = DIRECTION ( 'NONE',  ( 1.000000000000000000, 0.000000000000000000, 0.000000000000000000 ) ) ;
#283 = APPLICATION_CONTEXT ( 'configuration controlled 3d designs of mechanical parts and assemblies' ) ;
#284 = CARTESIAN_POINT ( 'NONE',  ( -0.01324999999999999789, 3.532527805625498489E-18, 0.01450000000000000074 ) ) ;
#285 = EDGE_CURVE ( 'NONE', #760, #401, #257, .T. ) ;
#286 = DIRECTION ( 'NONE',  ( 1.000000000000000000, 1.261617073437677999E-16, -0.000000000000000000 ) ) ;
#287 = ORIENTED_EDGE ( 'NONE', *, *, #384, .F. ) ;
#288 = PERSON_AND_ORGANIZATION_ROLE ( 'design_owner' ) ;
#289 = CARTESIAN_POINT ( 'NONE',  ( -0.01024999999999999696, 0.001000000000000003490, 0.01450000000000000074 ) ) ;
#290 = CARTESIAN_POINT ( 'NONE',  ( -0.01324999999999999789, -0.008999999999999997585, 0.01450000000000000074 ) ) ;
#291 = ORIENTED_EDGE ( 'NONE', *, *, #730, .T. ) ;
#292 = COORDINATED_UNIVERSAL_TIME_OFFSET ( 3, 0, .AHEAD. ) ;
#293 = CARTESIAN_POINT ( 'NONE',  ( 0.01325000000000000136, -0.01374999999999999660, 0.01200000000000000025 ) ) ;
#294 = VECTOR ( 'NONE', #226, 1.000000000000000000 ) ;
#295 = CYLINDRICAL_SURFACE ( 'NONE', #765, 0.0009999999999999995871 ) ;
#296 = ORIENTED_EDGE ( 'NONE', *, *, #775, .F. ) ;
#297 = EDGE_CURVE ( 'NONE', #310, #679, #277, .T. ) ;
#298 = CALENDAR_DATE ( 2026, 12, 8 ) ;
#299 = CARTESIAN_POINT ( 'NONE',  ( -0.01324999999999999789, 3.532527805625498489E-18, 0.01450000000000000074 ) ) ;
#300 = DIRECTION ( 'NONE',  ( -1.000000000000000000, -1.261617073437677999E-16, 0.000000000000000000 ) ) ;
#301 = VERTEX_POINT ( 'NONE', #316 ) ;
#302 = COORDINATED_UNIVERSAL_TIME_OFFSET ( 3, 0, .AHEAD. ) ;
#303 = LINE ( 'NONE', #792, #66 ) ;
#304 = DIRECTION ( 'NONE',  ( 0.000000000000000000, 0.000000000000000000, -1.000000000000000000 ) ) ;
#305 = VERTEX_POINT ( 'NONE', #749 ) ;
#306 = DIRECTION ( 'NONE',  ( 1.000000000000000000, -1.927470528863119542E-16, 0.000000000000000000 ) ) ;
#307 = VECTOR ( 'NONE', #201, 1.000000000000000000 ) ;
#308 = DIRECTION ( 'NONE',  ( 1.000000000000000000, 1.261617073437677999E-16, 0.000000000000000000 ) ) ;
#309 = EDGE_CURVE ( 'NONE', #28, #487, #624, .T. ) ;
#310 = VERTEX_POINT ( 'NONE', #430 ) ;
#311 = CARTESIAN_POINT ( 'NONE',  ( -0.01524999999999999620, 0.001000000000000002840, 0.01450000000000000074 ) ) ;
#312 = VECTOR ( 'NONE', #167, 1.000000000000000000 ) ;
#313 = CARTESIAN_POINT ( 'NONE',  ( -0.01024999999999999870, 0.009000000000000004524, 0.01450000000000003543 ) ) ;
#314 = ORIENTED_EDGE ( 'NONE', *, *, #714, .F. ) ;
#315 = ORIENTED_EDGE ( 'NONE', *, *, #445, .F. ) ;
#316 = CARTESIAN_POINT ( 'NONE',  ( -0.01324999999999999789, 0.01375000000000000354, 0.000000000000000000 ) ) ;
#317 = AXIS2_PLACEMENT_3D ( 'NONE', #135, #4, #141 ) ;
#318 = VERTEX_POINT ( 'NONE', #313 ) ;
#319 = CC_DESIGN_DATE_AND_TIME_ASSIGNMENT ( #791, #548, ( #750 ) ) ;
#320 = ORIENTED_EDGE ( 'NONE', *, *, #285, .T. ) ;
#321 = APPROVAL_DATE_TIME ( #132, #545 ) ;
#322 = DIRECTION ( 'NONE',  ( 1.000000000000000000, 1.261617073437677999E-16, 0.000000000000000000 ) ) ;
#323 = LINE ( 'NONE', #766, #449 ) ;
#324 = CARTESIAN_POINT ( 'NONE',  ( -0.0002499999999999967526, -0.004499999999999996191, 0.000000000000000000 ) ) ;
#325 = EDGE_CURVE ( 'NONE', #600, #499, #71, .T. ) ;
#326 = DIRECTION ( 'NONE',  ( 0.000000000000000000, 1.000000000000000000, 0.000000000000000000 ) ) ;
#327 = CIRCLE ( 'NONE', #778, 0.0009999999999999991535 ) ;
#328 = EDGE_LOOP ( 'NONE', ( #408, #441, #393, #553 ) ) ;
#329 = LOCAL_TIME ( 12, 43, 10.00000000000000000, #247 ) ;
#330 = CARTESIAN_POINT ( 'NONE',  ( 0.000000000000000000, 0.000000000000000000, 0.01700000000000000122 ) ) ;
#331 = ORIENTED_EDGE ( 'NONE', *, *, #672, .T. ) ;
#332 = LINE ( 'NONE', #18, #99 ) ;
#333 = CARTESIAN_POINT ( 'NONE',  ( 0.008750000000000000833, 0.004500000000000001395, 0.001249999999999994171 ) ) ;
#334 = VERTEX_POINT ( 'NONE', #744 ) ;
#335 = CARTESIAN_POINT ( 'NONE',  ( -0.01124999999999999958, -0.01274999999999999745, 0.001249999999999994171 ) ) ;
#336 = DIRECTION ( 'NONE',  ( -1.000000000000000000, 0.000000000000000000, -0.000000000000000000 ) ) ;
#337 = EDGE_LOOP ( 'NONE', ( #558, #689, #164, #457 ) ) ;
#338 = AXIS2_PLACEMENT_3D ( 'NONE', #703, #388, #92 ) ;
#339 = ADVANCED_FACE ( 'NONE', ( #195 ), #434, .F. ) ;
#340 = CARTESIAN_POINT ( 'NONE',  ( -0.01024999999999999523, -0.01374999999999999660, 0.01700000000000000122 ) ) ;
#341 = VECTOR ( 'NONE', #216, 1.000000000000000000 ) ;
#342 = FACE_BOUND ( 'NONE', #203, .T. ) ;
#343 = CARTESIAN_POINT ( 'NONE',  ( -0.01124999999999999958, 0.01275000000000000092, 0.001249999999999994171 ) ) ;
#344 = ORIENTED_EDGE ( 'NONE', *, *, #539, .T. ) ;
#345 = DIRECTION ( 'NONE',  ( 0.000000000000000000, 0.000000000000000000, 1.000000000000000000 ) ) ;
#346 = DIRECTION ( 'NONE',  ( -0.000000000000000000, -0.000000000000000000, -1.000000000000000000 ) ) ;
#347 = EDGE_CURVE ( 'NONE', #650, #600, #253, .T. ) ;
#348 = FACE_BOUND ( 'NONE', #720, .T. ) ;
#349 = EDGE_LOOP ( 'NONE', ( #669, #84, #649, #258 ) ) ;
#350 = PERSON_AND_ORGANIZATION ( #648, #200 ) ;
#351 = CARTESIAN_POINT ( 'NONE',  ( 0.008750000000000000833, -0.004499999999999997925, 0.001249999999999994171 ) ) ;
#352 = EDGE_CURVE ( 'NONE', #650, #237, #436, .T. ) ;
#353 = DIRECTION ( 'NONE',  ( 0.000000000000000000, -0.000000000000000000, -1.000000000000000000 ) ) ;
#354 = ORIENTED_EDGE ( 'NONE', *, *, #347, .T. ) ;
#355 = CARTESIAN_POINT ( 'NONE',  ( -0.01124999999999999958, 0.01275000000000000092, 0.01075000000000000261 ) ) ;
#356 = VECTOR ( 'NONE', #788, 1.000000000000000000 ) ;
#357 = FACE_BOUND ( 'NONE', #741, .T. ) ;
#358 = VERTEX_POINT ( 'NONE', #8 ) ;
#359 = FACE_OUTER_BOUND ( 'NONE', #75, .T. ) ;
#360 = FACE_OUTER_BOUND ( 'NONE', #768, .T. ) ;
#361 = EDGE_LOOP ( 'NONE', ( #138, #142, #273, #776 ) ) ;
#362 = DIRECTION ( 'NONE',  ( 0.000000000000000000, 1.000000000000000000, 0.000000000000000000 ) ) ;
#363 = DIRECTION ( 'NONE',  ( -0.000000000000000000, -0.000000000000000000, 1.000000000000000000 ) ) ;
#364 = VERTEX_POINT ( 'NONE', #585 ) ;
#365 = CARTESIAN_POINT ( 'NONE',  ( 0.01325000000000000136, -0.01274999999999999745, 0.01075000000000000261 ) ) ;
#366 = VECTOR ( 'NONE', #363, 1.000000000000000000 ) ;
#367 = DIRECTION ( 'NONE',  ( 1.000000000000000000, -0.000000000000000000, -0.000000000000000000 ) ) ;
#368 = AXIS2_PLACEMENT_3D ( 'NONE', #521, #462, #780 ) ;
#369 = ORIENTED_EDGE ( 'NONE', *, *, #523, .T. ) ;
#370 = DIRECTION ( 'NONE',  ( 0.000000000000000000, 0.000000000000000000, -1.000000000000000000 ) ) ;
#371 = ADVANCED_FACE ( 'NONE', ( #262 ), #215, .F. ) ;
#372 = ORIENTED_EDGE ( 'NONE', *, *, #510, .F. ) ;
#373 = LINE ( 'NONE', #129, #629 ) ;
#374 = EDGE_CURVE ( 'NONE', #301, #237, #758, .T. ) ;
#375 = ORIENTED_EDGE ( 'NONE', *, *, #422, .T. ) ;
#376 = DATE_AND_TIME ( #561, #19 ) ;
#377 = VECTOR ( 'NONE', #799, 1.000000000000000000 ) ;
#378 = ORIENTED_EDGE ( 'NONE', *, *, #352, .T. ) ;
#379 = DATE_TIME_ROLE ( 'classification_date' ) ;
#380 = ADVANCED_FACE ( 'NONE', ( #89 ), #204, .T. ) ;
#381 = FACE_OUTER_BOUND ( 'NONE', #361, .T. ) ;
#382 = ORIENTED_EDGE ( 'NONE', *, *, #672, .F. ) ;
#383 = ORIENTED_EDGE ( 'NONE', *, *, #714, .T. ) ;
#384 = EDGE_CURVE ( 'NONE', #364, #480, #580, .T. ) ;
#385 = DIRECTION ( 'NONE',  ( 0.000000000000000000, 1.000000000000000000, 0.000000000000000000 ) ) ;
#386 = LINE ( 'NONE', #762, #341 ) ;
#387 = ORIENTED_EDGE ( 'NONE', *, *, #680, .F. ) ;
#388 = DIRECTION ( 'NONE',  ( 0.000000000000000000, -0.000000000000000000, 1.000000000000000000 ) ) ;
#389 = EDGE_LOOP ( 'NONE', ( #450, #24, #131, #705 ) ) ;
#390 = AXIS2_PLACEMENT_3D ( 'NONE', #546, #563, #370 ) ;
#391 = FACE_OUTER_BOUND ( 'NONE', #328, .T. ) ;
#392 = CYLINDRICAL_SURFACE ( 'NONE', #508, 0.0009999999999999995871 ) ;
#393 = ORIENTED_EDGE ( 'NONE', *, *, #309, .F. ) ;
#394 = DIRECTION ( 'NONE',  ( 0.000000000000000000, -1.000000000000000000, -0.000000000000000000 ) ) ;
#395 = CARTESIAN_POINT ( 'NONE',  ( -0.0002499999999999967526, -0.004499999999999996191, 0.000000000000000000 ) ) ;
#396 = PRODUCT_RELATED_PRODUCT_CATEGORY ( 'detail', '', ( #246 ) ) ;
#397 = CARTESIAN_POINT ( 'NONE',  ( -0.01124999999999999785, -0.004499999999999995323, 0.001249999999999994171 ) ) ;
#398 = CARTESIAN_POINT ( 'NONE',  ( -0.01524999999999999620, 3.280204390937962828E-18, 0.01450000000000000074 ) ) ;
#399 = DIRECTION ( 'NONE',  ( 1.000000000000000000, -0.000000000000000000, -0.000000000000000000 ) ) ;
#400 = APPLICATION_CONTEXT ( 'configuration controlled 3d designs of mechanical parts and assemblies' ) ;
#401 = VERTEX_POINT ( 'NONE', #451 ) ;
#402 = VECTOR ( 'NONE', #752, 1.000000000000000000 ) ;
#403 = MECHANICAL_CONTEXT ( 'NONE', #283, 'mechanical' ) ;
#404 = EDGE_CURVE ( 'NONE', #679, #310, #696, .T. ) ;
#405 = CARTESIAN_POINT ( 'NONE',  ( -0.01324999999999999789, 0.01375000000000000354, 0.01200000000000000025 ) ) ;
#406 = VECTOR ( 'NONE', #180, 1.000000000000000000 ) ;
#407 = CARTESIAN_POINT ( 'NONE',  ( 0.01325000000000000136, -0.01274999999999999745, 0.001249999999999994171 ) ) ;
#408 = ORIENTED_EDGE ( 'NONE', *, *, #710, .T. ) ;
#409 = CARTESIAN_POINT ( 'NONE',  ( 0.008750000000000000833, 0.004500000000000001395, 0.003499999999999997037 ) ) ;
#410 = EDGE_CURVE ( 'NONE', #487, #185, #271, .T. ) ;
#411 = CARTESIAN_POINT ( 'NONE',  ( -0.01024999999999999870, 0.01375000000000000354, 0.01700000000000000122 ) ) ;
#412 = ORIENTED_EDGE ( 'NONE', *, *, #576, .T. ) ;
#413 = DIRECTION ( 'NONE',  ( 1.000000000000000000, 0.000000000000000000, 0.000000000000000000 ) ) ;
#414 = CARTESIAN_POINT ( 'NONE',  ( 0.01325000000000000136, -0.01374999999999999660, 0.000000000000000000 ) ) ;
#415 = DIRECTION ( 'NONE',  ( 1.000000000000000000, 1.261617073437677999E-16, -0.000000000000000000 ) ) ;
#416 = ORIENTED_EDGE ( 'NONE', *, *, #151, .T. ) ;
#417 = CARTESIAN_POINT ( 'NONE',  ( -0.01024999999999999696, 3.911012927656801981E-18, 0.01450000000000000074 ) ) ;
#418 = CIRCLE ( 'NONE', #390, 0.0009999999999999991535 ) ;
#419 = AXIS2_PLACEMENT_3D ( 'NONE', #555, #550, #802 ) ;
#420 = DIRECTION ( 'NONE',  ( 0.000000000000000000, -1.000000000000000000, 0.000000000000000000 ) ) ;
#421 = AXIS2_PLACEMENT_3D ( 'NONE', #733, #471, #721 ) ;
#422 = EDGE_CURVE ( 'NONE', #786, #489, #647, .T. ) ;
#423 = ORIENTED_EDGE ( 'NONE', *, *, #145, .T. ) ;
#424 = CARTESIAN_POINT ( 'NONE',  ( -0.01324999999999999789, -0.01374999999999999660, 0.01700000000000000122 ) ) ;
#425 = CARTESIAN_POINT ( 'NONE',  ( 0.008750000000000000833, 0.004500000000000001395, 0.000000000000000000 ) ) ;
#426 = VERTEX_POINT ( 'NONE', #454 ) ;
#427 = EDGE_CURVE ( 'NONE', #193, #579, #706, .T. ) ;
#428 = APPROVAL_STATUS ( 'not_yet_approved' ) ;
#429 = DIRECTION ( 'NONE',  ( 0.000000000000000000, 0.000000000000000000, -1.000000000000000000 ) ) ;
#430 = CARTESIAN_POINT ( 'NONE',  ( -0.01024999999999999523, -0.01099999999999999589, 0.01450000000000000074 ) ) ;
#431 = ORIENTED_EDGE ( 'NONE', *, *, #539, .F. ) ;
#432 = LINE ( 'NONE', #491, #698 ) ;
#433 = CIRCLE ( 'NONE', #188, 0.0009999999999999991535 ) ;
#434 = PLANE ( 'NONE',  #317 ) ;
#435 = ORIENTED_EDGE ( 'NONE', *, *, #62, .T. ) ;
#436 = LINE ( 'NONE', #139, #31 ) ;
#437 = ADVANCED_FACE ( 'NONE', ( #391 ), #709, .F. ) ;
#438 = VERTEX_POINT ( 'NONE', #96 ) ;
#439 = APPROVAL_ROLE ( '' ) ;
#440 = CARTESIAN_POINT ( 'NONE',  ( -0.01124999999999999958, 0.01275000000000000092, 0.01075000000000000261 ) ) ;
#441 = ORIENTED_EDGE ( 'NONE', *, *, #105, .F. ) ;
#442 = DIRECTION ( 'NONE',  ( -0.000000000000000000, -0.000000000000000000, -1.000000000000000000 ) ) ;
#443 = AXIS2_PLACEMENT_3D ( 'NONE', #611, #58, #304 ) ;
#444 = ORIENTED_EDGE ( 'NONE', *, *, #793, .F. ) ;
#445 = EDGE_CURVE ( 'NONE', #426, #318, #332, .T. ) ;
#446 = CLOSED_SHELL ( 'NONE', ( #240, #15, #800, #572, #69, #162, #211, #770, #638, #117, #437, #371, #339, #122, #486, #567, #495, #643, #90, #380, #205, #128, #260 ) ) ;
#447 = ORIENTED_EDGE ( 'NONE', *, *, #514, .T. ) ;
#448 = CARTESIAN_POINT ( 'NONE',  ( -0.01324999999999999789, -0.01374999999999999660, 0.000000000000000000 ) ) ;
#449 = VECTOR ( 'NONE', #586, 1.000000000000000000 ) ;
#450 = ORIENTED_EDGE ( 'NONE', *, *, #214, .F. ) ;
#451 = CARTESIAN_POINT ( 'NONE',  ( 0.01325000000000000136, 0.01275000000000000092, 0.01075000000000000261 ) ) ;
#452 = ORIENTED_EDGE ( 'NONE', *, *, #325, .T. ) ;
#453 = ORIENTED_EDGE ( 'NONE', *, *, #501, .T. ) ;
#454 = CARTESIAN_POINT ( 'NONE',  ( -0.01324999999999999789, 0.009000000000000004524, 0.01450000000000003543 ) ) ;
#455 = DIRECTION ( 'NONE',  ( -1.000000000000000000, 1.927470528863119542E-16, -0.000000000000000000 ) ) ;
#456 = AXIS2_PLACEMENT_3D ( 'NONE', #556, #78, #687 ) ;
#457 = ORIENTED_EDGE ( 'NONE', *, *, #633, .T. ) ;
#458 = LINE ( 'NONE', #574, #48 ) ;
#459 = CARTESIAN_POINT ( 'NONE',  ( -0.01524999999999999620, 3.280204390937962828E-18, 0.01450000000000000074 ) ) ;
#460 = CARTESIAN_POINT ( 'NONE',  ( -0.01324999999999999789, -0.0009999999999999961177, 0.01450000000000000074 ) ) ;
#461 = DIRECTION ( 'NONE',  ( 1.000000000000000000, 1.261617073437677999E-16, 0.000000000000000000 ) ) ;
#462 = DIRECTION ( 'NONE',  ( 1.000000000000000000, 1.261617073437677999E-16, 0.000000000000000000 ) ) ;
#463 = EDGE_CURVE ( 'NONE', #795, #301, #755, .T. ) ;
#464 = VERTEX_POINT ( 'NONE', #26 ) ;
#465 = DIRECTION ( 'NONE',  ( 1.927470528863119542E-16, 1.000000000000000000, -0.000000000000000000 ) ) ;
#466 = PLANE ( 'NONE',  #623 ) ;
#467 = FACE_OUTER_BOUND ( 'NONE', #121, .T. ) ;
#468 = ORIENTED_EDGE ( 'NONE', *, *, #172, .F. ) ;
#469 = VECTOR ( 'NONE', #678, 1.000000000000000000 ) ;
#470 = EDGE_CURVE ( 'NONE', #70, #358, #511, .T. ) ;
#471 = DIRECTION ( 'NONE',  ( 1.000000000000000000, 1.261617073437677999E-16, -0.000000000000000000 ) ) ;
#472 = DIRECTION ( 'NONE',  ( 1.000000000000000000, 1.261617073437677999E-16, 0.000000000000000000 ) ) ;
#473 = APPROVAL_PERSON_ORGANIZATION ( #658, #682, #796 ) ;
#474 = DIRECTION ( 'NONE',  ( 0.000000000000000000, 0.000000000000000000, -1.000000000000000000 ) ) ;
#475 = VECTOR ( 'NONE', #169, 1.000000000000000000 ) ;
#476 = ORIENTED_EDGE ( 'NONE', *, *, #422, .F. ) ;
#477 = PERSON_AND_ORGANIZATION ( #648, #200 ) ;
#478 = DIRECTION ( 'NONE',  ( -1.000000000000000000, 0.000000000000000000, -0.000000000000000000 ) ) ;
#479 = PLANE ( 'NONE',  #581 ) ;
#480 = VERTEX_POINT ( 'NONE', #324 ) ;
#481 = FACE_OUTER_BOUND ( 'NONE', #502, .T. ) ;
#482 = DIRECTION ( 'NONE',  ( 0.000000000000000000, 1.000000000000000000, 0.000000000000000000 ) ) ;
#483 = ORIENTED_EDGE ( 'NONE', *, *, #757, .T. ) ;
#484 = AXIS2_PLACEMENT_3D ( 'NONE', #330, #761, #503 ) ;
#485 = LINE ( 'NONE', #311, #77 ) ;
#486 = ADVANCED_FACE ( 'NONE', ( #700 ), #764, .F. ) ;
#487 = VERTEX_POINT ( 'NONE', #335 ) ;
#488 = DIRECTION ( 'NONE',  ( 1.000000000000000000, 1.261617073437677999E-16, -0.000000000000000000 ) ) ;
#489 = VERTEX_POINT ( 'NONE', #147 ) ;
#490 = EDGE_CURVE ( 'NONE', #401, #635, #458, .T. ) ;
#491 = CARTESIAN_POINT ( 'NONE',  ( 0.008750000000000000833, -0.004499999999999997925, 0.003499999999999997037 ) ) ;
#492 = CARTESIAN_POINT ( 'NONE',  ( -0.01024999999999999523, -0.01374999999999999660, 0.01700000000000000122 ) ) ;
#493 = ORIENTED_EDGE ( 'NONE', *, *, #463, .F. ) ;
#494 = PERSON_AND_ORGANIZATION ( #648, #200 ) ;
#495 = ADVANCED_FACE ( 'NONE', ( #381 ), #30, .F. ) ;
#496 = CARTESIAN_POINT ( 'NONE',  ( -0.01324999999999999789, -0.01374999999999999660, 0.01700000000000000122 ) ) ;
#497 = EDGE_LOOP ( 'NONE', ( #150, #681, #158, #607 ) ) ;
#498 = CARTESIAN_POINT ( 'NONE',  ( -0.01524999999999999967, 0.01100000000000000283, 0.01450000000000003543 ) ) ;
#499 = VERTEX_POINT ( 'NONE', #82 ) ;
#500 = DIRECTION ( 'NONE',  ( 0.000000000000000000, 1.000000000000000000, 0.000000000000000000 ) ) ;
#501 = EDGE_CURVE ( 'NONE', #489, #301, #653, .T. ) ;
#502 = EDGE_LOOP ( 'NONE', ( #387, #270, #582, #493 ) ) ;
#503 = DIRECTION ( 'NONE',  ( 1.000000000000000000, 0.000000000000000000, 0.000000000000000000 ) ) ;
#504 = CIRCLE ( 'NONE', #456, 0.0009999999999999991535 ) ;
#505 = EDGE_CURVE ( 'NONE', #157, #464, #230, .T. ) ;
#506 = CARTESIAN_POINT ( 'NONE',  ( -0.01124999999999999958, -0.01274999999999999745, 0.01075000000000000261 ) ) ;
#507 = DIRECTION ( 'NONE',  ( 0.000000000000000000, 0.000000000000000000, -1.000000000000000000 ) ) ;
#508 = AXIS2_PLACEMENT_3D ( 'NONE', #459, #272, #512 ) ;
#509 = CARTESIAN_POINT ( 'NONE',  ( 0.01325000000000000136, -0.01374999999999999660, 0.01200000000000000025 ) ) ;
#510 = EDGE_CURVE ( 'NONE', #600, #786, #729, .T. ) ;
#511 = LINE ( 'NONE', #266, #130 ) ;
#512 = DIRECTION ( 'NONE',  ( 0.000000000000000000, 1.000000000000000000, 0.000000000000000000 ) ) ;
#513 = ORIENTED_EDGE ( 'NONE', *, *, #445, .T. ) ;
#514 = EDGE_CURVE ( 'NONE', #358, #199, #187, .T. ) ;
#515 = DIRECTION ( 'NONE',  ( -1.000000000000000000, -0.000000000000000000, -0.000000000000000000 ) ) ;
#516 = ORIENTED_EDGE ( 'NONE', *, *, #309, .T. ) ;
#517 = VECTOR ( 'NONE', #515, 1.000000000000000000 ) ;
#518 = CARTESIAN_POINT ( 'NONE',  ( -0.01124999999999999611, 0.004500000000000007466, 0.001249999999999994171 ) ) ;
#519 = EDGE_CURVE ( 'NONE', #334, #1, #784, .T. ) ;
#520 = CYLINDRICAL_SURFACE ( 'NONE', #243, 0.0009999999999999991535 ) ;
#521 = CARTESIAN_POINT ( 'NONE',  ( -0.01024999999999999696, 3.911012927656801981E-18, 0.01450000000000000074 ) ) ;
#522 = DIRECTION ( 'NONE',  ( -0.000000000000000000, -0.000000000000000000, -1.000000000000000000 ) ) ;
#523 = EDGE_CURVE ( 'NONE', #636, #438, #327, .T. ) ;
#524 = CARTESIAN_POINT ( 'NONE',  ( -0.01324999999999999789, -0.01374999999999999660, 0.000000000000000000 ) ) ;
#525 = CYLINDRICAL_SURFACE ( 'NONE', #421, 0.0009999999999999991535 ) ;
#526 = ORIENTED_EDGE ( 'NONE', *, *, #285, .F. ) ;
#527 = CALENDAR_DATE ( 2026, 12, 8 ) ;
#528 = CARTESIAN_POINT ( 'NONE',  ( -0.01124999999999999958, -0.01274999999999999745, 0.01075000000000000261 ) ) ;
#529 = CARTESIAN_POINT ( 'NONE',  ( -0.01124999999999999958, 0.000000000000000000, 0.000000000000000000 ) ) ;
#530 = LINE ( 'NONE', #656, #148 ) ;
#531 = VERTEX_POINT ( 'NONE', #414 ) ;
#532 = CIRCLE ( 'NONE', #746, 0.0009999999999999995871 ) ;
#533 = PERSON_AND_ORGANIZATION_ROLE ( 'creator' ) ;
#534 = CARTESIAN_POINT ( 'NONE',  ( -0.01324999999999999789, -0.009999999999999996739, 0.01450000000000000074 ) ) ;
#535 = LOCAL_TIME ( 12, 43, 10.00000000000000000, #292 ) ;
#536 = LINE ( 'NONE', #771, #469 ) ;
#537 = ORIENTED_EDGE ( 'NONE', *, *, #156, .F. ) ;
#538 = APPROVAL_DATE_TIME ( #60, #659 ) ;
#539 = EDGE_CURVE ( 'NONE', #438, #636, #433, .T. ) ;
#540 = DIRECTION ( 'NONE',  ( 0.000000000000000000, 0.000000000000000000, -1.000000000000000000 ) ) ;
#541 = DIRECTION ( 'NONE',  ( 0.000000000000000000, 1.000000000000000000, 0.000000000000000000 ) ) ;
#542 = ORIENTED_EDGE ( 'NONE', *, *, #552, .T. ) ;
#543 = PERSON_AND_ORGANIZATION ( #648, #200 ) ;
#544 = CARTESIAN_POINT ( 'NONE',  ( -0.0002499999999999967526, -0.004499999999999996191, 0.003499999999999997037 ) ) ;
#545 = APPROVAL ( #428, 'UNSPECIFIED' ) ;
#546 = CARTESIAN_POINT ( 'NONE',  ( -0.01324999999999999789, -0.009999999999999996739, 0.01450000000000000074 ) ) ;
#547 = ORIENTED_EDGE ( 'NONE', *, *, #505, .F. ) ;
#548 = DATE_TIME_ROLE ( 'creation_date' ) ;
#549 = VECTOR ( 'NONE', #551, 1.000000000000000000 ) ;
#550 = DIRECTION ( 'NONE',  ( 1.000000000000000000, 0.000000000000000000, 0.000000000000000000 ) ) ;
#551 = DIRECTION ( 'NONE',  ( 0.000000000000000000, 0.000000000000000000, -1.000000000000000000 ) ) ;
#552 = EDGE_CURVE ( 'NONE', #1, #228, #221, .T. ) ;
#553 = ORIENTED_EDGE ( 'NONE', *, *, #3, .T. ) ;
#554 = VECTOR ( 'NONE', #210, 1.000000000000000000 ) ;
#555 = CARTESIAN_POINT ( 'NONE',  ( -0.01324999999999999789, 0.01000000000000000368, 0.01450000000000003543 ) ) ;
#556 = CARTESIAN_POINT ( 'NONE',  ( -0.01324999999999999789, 0.01000000000000000368, 0.01450000000000003543 ) ) ;
#557 = EDGE_CURVE ( 'NONE', #577, #364, #592, .T. ) ;
#558 = ORIENTED_EDGE ( 'NONE', *, *, #680, .T. ) ;
#559 = CARTESIAN_POINT ( 'NONE',  ( -0.01324999999999999789, -0.01374999999999999660, 0.000000000000000000 ) ) ;
#560 = ORIENTED_EDGE ( 'NONE', *, *, #244, .T. ) ;
#561 = CALENDAR_DATE ( 2026, 12, 8 ) ;
#562 = VECTOR ( 'NONE', #98, 1.000000000000000000 ) ;
#563 = DIRECTION ( 'NONE',  ( 1.000000000000000000, 0.000000000000000000, 0.000000000000000000 ) ) ;
#564 = CIRCLE ( 'NONE', #419, 0.0009999999999999991535 ) ;
#565 = ORIENTED_EDGE ( 'NONE', *, *, #557, .F. ) ;
#566 = PERSON_AND_ORGANIZATION ( #648, #200 ) ;
#567 = ADVANCED_FACE ( 'NONE', ( #712 ), #666, .F. ) ;
#568 = FACE_OUTER_BOUND ( 'NONE', #781, .T. ) ;
#569 = ADVANCED_BREP_SHAPE_REPRESENTATION ( 'camera housing', ( #166, #146 ), #767 ) ;
#570 = EDGE_LOOP ( 'NONE', ( #596, #126 ) ) ;
#571 = DIRECTION ( 'NONE',  ( -0.000000000000000000, -1.000000000000000000, -0.000000000000000000 ) ) ;
#572 = ADVANCED_FACE ( 'NONE', ( #597 ), #178, .F. ) ;
#573 = VERTEX_POINT ( 'NONE', #289 ) ;
#574 = CARTESIAN_POINT ( 'NONE',  ( 0.01325000000000000136, -0.01274999999999999745, 0.01075000000000000261 ) ) ;
#575 = AXIS2_PLACEMENT_3D ( 'NONE', #588, #155, #634 ) ;
#576 = EDGE_CURVE ( 'NONE', #59, #573, #532, .T. ) ;
#577 = VERTEX_POINT ( 'NONE', #351 ) ;
#578 = CC_DESIGN_SECURITY_CLASSIFICATION ( #621, ( #208 ) ) ;
#579 = VERTEX_POINT ( 'NONE', #610 ) ;
#580 = LINE ( 'NONE', #212, #198 ) ;
#581 = AXIS2_PLACEMENT_3D ( 'NONE', #529, #100, #606 ) ;
#582 = ORIENTED_EDGE ( 'NONE', *, *, #374, .F. ) ;
#583 = CC_DESIGN_PERSON_AND_ORGANIZATION_ASSIGNMENT ( #566, #255, ( #621 ) ) ;
#584 = EDGE_LOOP ( 'NONE', ( #622, #383, #95, #435 ) ) ;
#585 = CARTESIAN_POINT ( 'NONE',  ( -0.0002499999999999967526, -0.004499999999999997058, 0.001249999999999994171 ) ) ;
#586 = DIRECTION ( 'NONE',  ( 1.000000000000000000, -0.000000000000000000, -0.000000000000000000 ) ) ;
#587 = ORIENTED_EDGE ( 'NONE', *, *, #514, .F. ) ;
#588 = CARTESIAN_POINT ( 'NONE',  ( -0.0002499999999999967526, -0.004499999999999996191, 0.003499999999999997037 ) ) ;
#589 = AXIS2_PLACEMENT_3D ( 'NONE', #614, #488, #63 ) ;
#590 = CARTESIAN_POINT ( 'NONE',  ( -0.01124999999999999958, 0.01275000000000000092, 0.001249999999999994171 ) ) ;
#591 = ORIENTED_EDGE ( 'NONE', *, *, #352, .F. ) ;
#592 = LINE ( 'NONE', #397, #294 ) ;
#593 = EDGE_CURVE ( 'NONE', #185, #760, #114, .T. ) ;
#594 = FACE_OUTER_BOUND ( 'NONE', #695, .T. ) ;
#595 = CARTESIAN_POINT ( 'NONE',  ( 0.01325000000000000136, 0.01375000000000000354, 0.000000000000000000 ) ) ;
#596 = ORIENTED_EDGE ( 'NONE', *, *, #94, .F. ) ;
#597 = FACE_OUTER_BOUND ( 'NONE', #87, .T. ) ;
#598 = FACE_BOUND ( 'NONE', #10, .T. ) ;
#599 = CARTESIAN_POINT ( 'NONE',  ( 0.008750000000000000833, -0.004499999999999997925, -0.000000000000000000 ) ) ;
#600 = VERTEX_POINT ( 'NONE', #340 ) ;
#601 = DIRECTION ( 'NONE',  ( -0.000000000000000000, -0.000000000000000000, 1.000000000000000000 ) ) ;
#602 = LINE ( 'NONE', #673, #207 ) ;
#603 = EDGE_LOOP ( 'NONE', ( #80, #35, #254, #516 ) ) ;
#604 = VECTOR ( 'NONE', #723, 1.000000000000000000 ) ;
#605 = DIRECTION ( 'NONE',  ( 0.000000000000000000, 1.000000000000000000, 0.000000000000000000 ) ) ;
#606 = DIRECTION ( 'NONE',  ( 0.000000000000000000, 0.000000000000000000, 1.000000000000000000 ) ) ;
#607 = ORIENTED_EDGE ( 'NONE', *, *, #519, .F. ) ;
#608 = CC_DESIGN_PERSON_AND_ORGANIZATION_ASSIGNMENT ( #40, #288, ( #246 ) ) ;
#609 =( NAMED_UNIT ( * ) PLANE_ANGLE_UNIT ( ) SI_UNIT ( $, .RADIAN. ) );
#610 = CARTESIAN_POINT ( 'NONE',  ( 0.01325000000000000136, 0.01274999999999999918, 0.001249999999999994171 ) ) ;
#611 = CARTESIAN_POINT ( 'NONE',  ( -0.01324999999999999789, -0.01374999999999999660, 0.01200000000000000025 ) ) ;
#612 = ORIENTED_EDGE ( 'NONE', *, *, #269, .T. ) ;
#613 = APPROVAL_STATUS ( 'not_yet_approved' ) ;
#614 = CARTESIAN_POINT ( 'NONE',  ( -0.01524999999999999620, -0.009999999999999996739, 0.01450000000000000074 ) ) ;
#615 = ORIENTED_EDGE ( 'NONE', *, *, #523, .F. ) ;
#616 = CIRCLE ( 'NONE', #628, 0.0009999999999999991535 ) ;
#617 = DIRECTION ( 'NONE',  ( 0.000000000000000000, 1.000000000000000000, 0.000000000000000000 ) ) ;
#618 = VECTOR ( 'NONE', #617, 1.000000000000000000 ) ;
#619 = CARTESIAN_POINT ( 'NONE',  ( -0.01124999999999999958, -0.01274999999999999745, 0.01075000000000000261 ) ) ;
#620 = EDGE_CURVE ( 'NONE', #760, #28, #41, .T. ) ;
#621 = SECURITY_CLASSIFICATION ( '', '', #787 ) ;
#622 = ORIENTED_EDGE ( 'NONE', *, *, #519, .T. ) ;
#623 = AXIS2_PLACEMENT_3D ( 'NONE', #411, #300, #668 ) ;
#624 = LINE ( 'NONE', #619, #549 ) ;
#625 = ORIENTED_EDGE ( 'NONE', *, *, #593, .F. ) ;
#626 = DIRECTION ( 'NONE',  ( -0.000000000000000000, -0.000000000000000000, -1.000000000000000000 ) ) ;
#627 = ORIENTED_EDGE ( 'NONE', *, *, #7, .T. ) ;
#628 = AXIS2_PLACEMENT_3D ( 'NONE', #174, #735, #482 ) ;
#629 = VECTOR ( 'NONE', #259, 1.000000000000000000 ) ;
#630 = CARTESIAN_POINT ( 'NONE',  ( 0.01325000000000000136, 0.01275000000000000092, 0.01075000000000000261 ) ) ;
#631 = ORIENTED_EDGE ( 'NONE', *, *, #667, .T. ) ;
#632 = CALENDAR_DATE ( 2026, 12, 8 ) ;
#633 = EDGE_CURVE ( 'NONE', #70, #531, #104, .T. ) ;
#634 = DIRECTION ( 'NONE',  ( 0.000000000000000000, 0.000000000000000000, 1.000000000000000000 ) ) ;
#635 = VERTEX_POINT ( 'NONE', #52 ) ;
#636 = VERTEX_POINT ( 'NONE', #460 ) ;
#637 = CARTESIAN_POINT ( 'NONE',  ( 0.008750000000000000833, -0.004499999999999997925, 0.003499999999999997037 ) ) ;
#638 = ADVANCED_FACE ( 'NONE', ( #239, #481 ), #734, .T. ) ;
#639 = LINE ( 'NONE', #13, #312 ) ;
#640 = ORIENTED_EDGE ( 'NONE', *, *, #269, .F. ) ;
#641 = DIRECTION ( 'NONE',  ( -0.000000000000000000, -1.000000000000000000, -0.000000000000000000 ) ) ;
#642 = AXIS2_PLACEMENT_3D ( 'NONE', #747, #74, #12 ) ;
#643 = ADVANCED_FACE ( 'NONE', ( #359 ), #168, .F. ) ;
#644 = ORIENTED_EDGE ( 'NONE', *, *, #427, .T. ) ;
#645 = LOCAL_TIME ( 12, 43, 10.00000000000000000, #11 ) ;
#646 = ORIENTED_EDGE ( 'NONE', *, *, #172, .T. ) ;
#647 = LINE ( 'NONE', #219, #402 ) ;
#648 = PERSON ( 'UNSPECIFIED', 'UNSPECIFIED', 'UNSPECIFIED', ('UNSPECIFIED'), ('UNSPECIFIED'), ('UNSPECIFIED') ) ;
#649 = ORIENTED_EDGE ( 'NONE', *, *, #722, .F. ) ;
#650 = VERTEX_POINT ( 'NONE', #424 ) ;
#651 = CARTESIAN_POINT ( 'NONE',  ( -0.01124999999999999958, -0.01274999999999999745, 0.001249999999999994171 ) ) ;
#652 = PLANE ( 'NONE',  #22 ) ;
#653 = LINE ( 'NONE', #173, #64 ) ;
#654 = VECTOR ( 'NONE', #227, 1.000000000000000000 ) ;
#655 = DIRECTION ( 'NONE',  ( -0.000000000000000000, -1.000000000000000000, -0.000000000000000000 ) ) ;
#656 = CARTESIAN_POINT ( 'NONE',  ( -0.01324999999999999789, -0.01374999999999999660, 0.01200000000000000025 ) ) ;
#657 = ORIENTED_EDGE ( 'NONE', *, *, #222, .T. ) ;
#658 = PERSON_AND_ORGANIZATION ( #648, #200 ) ;
#659 = APPROVAL ( #613, 'UNSPECIFIED' ) ;
#660 = CARTESIAN_POINT ( 'NONE',  ( 0.000000000000000000, 0.000000000000000000, 0.01200000000000000025 ) ) ;
#661 = VECTOR ( 'NONE', #455, 1.000000000000000000 ) ;
#662 = DIRECTION ( 'NONE',  ( 0.000000000000000000, 1.000000000000000000, 0.000000000000000000 ) ) ;
#663 = LINE ( 'NONE', #232, #265 ) ;
#664 = EDGE_LOOP ( 'NONE', ( #615, #50, #412, #382 ) ) ;
#665 = APPLICATION_PROTOCOL_DEFINITION ( 'international standard', 'config_control_design', 1994, #400 ) ;
#666 = PLANE ( 'NONE',  #675 ) ;
#667 = EDGE_CURVE ( 'NONE', #305, #426, #564, .T. ) ;
#668 = DIRECTION ( 'NONE',  ( 1.261617073437677999E-16, -1.000000000000000000, 0.000000000000000000 ) ) ;
#669 = ORIENTED_EDGE ( 'NONE', *, *, #136, .F. ) ;
#670 = PERSON_AND_ORGANIZATION_ROLE ( 'creator' ) ;
#671 = DIRECTION ( 'NONE',  ( 1.000000000000000000, 0.000000000000000000, 0.000000000000000000 ) ) ;
#672 = EDGE_CURVE ( 'NONE', #438, #573, #485, .T. ) ;
#673 = CARTESIAN_POINT ( 'NONE',  ( -0.01524999999999999620, -0.01099999999999999589, 0.01450000000000000074 ) ) ;
#674 = ORIENTED_EDGE ( 'NONE', *, *, #325, .F. ) ;
#675 = AXIS2_PLACEMENT_3D ( 'NONE', #235, #465, #716 ) ;
#676 = CARTESIAN_POINT ( 'NONE',  ( 0.000000000000000000, 0.000000000000000000, 0.000000000000000000 ) ) ;
#677 = AXIS2_PLACEMENT_3D ( 'NONE', #107, #719, #44 ) ;
#678 = DIRECTION ( 'NONE',  ( -1.261617073437677999E-16, 1.000000000000000000, -0.000000000000000000 ) ) ;
#679 = VERTEX_POINT ( 'NONE', #251 ) ;
#680 = EDGE_CURVE ( 'NONE', #531, #795, #67, .T. ) ;
#681 = ORIENTED_EDGE ( 'NONE', *, *, #42, .T. ) ;
#682 = APPROVAL ( #238, 'UNSPECIFIED' ) ;
#683 = DIRECTION ( 'NONE',  ( 0.000000000000000000, -1.000000000000000000, 0.000000000000000000 ) ) ;
#684 = DIRECTION ( 'NONE',  ( 1.000000000000000000, 1.261617073437677999E-16, -0.000000000000000000 ) ) ;
#685 = ORIENTED_EDGE ( 'NONE', *, *, #244, .F. ) ;
#686 = AXIS2_PLACEMENT_3D ( 'NONE', #534, #769, #773 ) ;
#687 = DIRECTION ( 'NONE',  ( 0.000000000000000000, 0.000000000000000000, -1.000000000000000000 ) ) ;
#688 = CIRCLE ( 'NONE', #368, 0.0009999999999999995871 ) ;
#689 = ORIENTED_EDGE ( 'NONE', *, *, #757, .F. ) ;
#690 = VECTOR ( 'NONE', #655, 1.000000000000000000 ) ;
#691 = CARTESIAN_POINT ( 'NONE',  ( -0.01024999999999999523, -0.009999999999999996739, 0.01450000000000000074 ) ) ;
#692 = ORIENTED_EDGE ( 'NONE', *, *, #620, .F. ) ;
#693 = LINE ( 'NONE', #630, #366 ) ;
#694 = CC_DESIGN_PERSON_AND_ORGANIZATION_ASSIGNMENT ( #477, #670, ( #208 ) ) ;
#695 = EDGE_LOOP ( 'NONE', ( #233, #196, #476, #627, #587, #483 ) ) ;
#696 = CIRCLE ( 'NONE', #754, 0.0009999999999999991535 ) ;
#697 = DIRECTION ( 'NONE',  ( 0.000000000000000000, 1.000000000000000000, 0.000000000000000000 ) ) ;
#698 = VECTOR ( 'NONE', #742, 1.000000000000000000 ) ;
#699 = LINE ( 'NONE', #149, #68 ) ;
#700 = FACE_OUTER_BOUND ( 'NONE', #140, .T. ) ;
#701 = ORIENTED_EDGE ( 'NONE', *, *, #56, .T. ) ;
#702 = EDGE_CURVE ( 'NONE', #577, #763, #432, .T. ) ;
#703 = CARTESIAN_POINT ( 'NONE',  ( -0.01124999999999999958, -0.01274999999999999745, 0.01075000000000000261 ) ) ;
#704 = ORIENTED_EDGE ( 'NONE', *, *, #105, .T. ) ;
#705 = ORIENTED_EDGE ( 'NONE', *, *, #730, .F. ) ;
#706 = LINE ( 'NONE', #160, #794 ) ;
#707 = VECTOR ( 'NONE', #777, 1.000000000000000000 ) ;
#708 = ORIENTED_EDGE ( 'NONE', *, *, #702, .T. ) ;
#709 = PLANE ( 'NONE',  #717 ) ;
#710 = EDGE_CURVE ( 'NONE', #635, #193, #194, .T. ) ;
#711 = FACE_BOUND ( 'NONE', #102, .T. ) ;
#712 = FACE_OUTER_BOUND ( 'NONE', #497, .T. ) ;
#713 = DIRECTION ( 'NONE',  ( -0.000000000000000000, -0.000000000000000000, -1.000000000000000000 ) ) ;
#714 = EDGE_CURVE ( 'NONE', #1, #577, #303, .T. ) ;
#715 = ORIENTED_EDGE ( 'NONE', *, *, #427, .F. ) ;
#716 = DIRECTION ( 'NONE',  ( -1.000000000000000000, 1.927470528863119542E-16, 0.000000000000000000 ) ) ;
#717 = AXIS2_PLACEMENT_3D ( 'NONE', #23, #394, #274 ) ;
#718 = PLANE ( 'NONE',  #137 ) ;
#719 = DIRECTION ( 'NONE',  ( 0.000000000000000000, 1.000000000000000000, 0.000000000000000000 ) ) ;
#720 = EDGE_LOOP ( 'NONE', ( #344, #369 ) ) ;
#721 = DIRECTION ( 'NONE',  ( 0.000000000000000000, 1.000000000000000000, 0.000000000000000000 ) ) ;
#722 = EDGE_CURVE ( 'NONE', #480, #16, #739, .T. ) ;
#723 = DIRECTION ( 'NONE',  ( -0.000000000000000000, -1.000000000000000000, -0.000000000000000000 ) ) ;
#724 = AXIS2_PLACEMENT_3D ( 'NONE', #49, #461, #241 ) ;
#725 = CARTESIAN_POINT ( 'NONE',  ( 0.008750000000000000833, -0.004499999999999997925, 0.000000000000000000 ) ) ;
#726 = DIRECTION ( 'NONE',  ( 1.000000000000000000, 1.261617073437677999E-16, -0.000000000000000000 ) ) ;
#727 = ORIENTED_EDGE ( 'NONE', *, *, #7, .F. ) ;
#728 = CALENDAR_DATE ( 2026, 12, 8 ) ;
#729 = LINE ( 'NONE', #229, #356 ) ;
#730 = EDGE_CURVE ( 'NONE', #157, #679, #663, .T. ) ;
#731 = CARTESIAN_POINT ( 'NONE',  ( -0.01324999999999999789, 0.01375000000000000354, 0.01200000000000000025 ) ) ;
#732 = EDGE_LOOP ( 'NONE', ( #73, #431, #331, #217 ) ) ;
#733 = CARTESIAN_POINT ( 'NONE',  ( -0.01524999999999999967, 0.01000000000000000368, 0.01450000000000003543 ) ) ;
#734 = PLANE ( 'NONE',  #256 ) ;
#735 = DIRECTION ( 'NONE',  ( 1.000000000000000000, 1.261617073437677999E-16, 0.000000000000000000 ) ) ;
#736 = VECTOR ( 'NONE', #346, 1.000000000000000000 ) ;
#737 = EDGE_LOOP ( 'NONE', ( #118, #108 ) ) ;
#738 = VECTOR ( 'NONE', #362, 1.000000000000000000 ) ;
#739 = LINE ( 'NONE', #127, #618 ) ;
#740 = CC_DESIGN_PERSON_AND_ORGANIZATION_ASSIGNMENT ( #350, #533, ( #750 ) ) ;
#741 = EDGE_LOOP ( 'NONE', ( #191, #743 ) ) ;
#742 = DIRECTION ( 'NONE',  ( -0.000000000000000000, -0.000000000000000000, -1.000000000000000000 ) ) ;
#743 = ORIENTED_EDGE ( 'NONE', *, *, #576, .F. ) ;
#744 = CARTESIAN_POINT ( 'NONE',  ( -0.0002499999999999967526, 0.004500000000000003129, 0.001249999999999994171 ) ) ;
#745 = ORIENTED_EDGE ( 'NONE', *, *, #94, .T. ) ;
#746 = AXIS2_PLACEMENT_3D ( 'NONE', #417, #472, #605 ) ;
#747 = CARTESIAN_POINT ( 'NONE',  ( -0.01524999999999999620, -0.009999999999999996739, 0.01450000000000000074 ) ) ;
#748 = ORIENTED_EDGE ( 'NONE', *, *, #510, .T. ) ;
#749 = CARTESIAN_POINT ( 'NONE',  ( -0.01324999999999999789, 0.01100000000000000283, 0.01450000000000003543 ) ) ;
#750 = PRODUCT_DEFINITION ( 'UNKNOWN', '', #208, #2 ) ;
#751 = ORIENTED_EDGE ( 'NONE', *, *, #222, .F. ) ;
#752 = DIRECTION ( 'NONE',  ( -1.000000000000000000, -0.000000000000000000, -0.000000000000000000 ) ) ;
#753 = ORIENTED_EDGE ( 'NONE', *, *, #279, .T. ) ;
#754 = AXIS2_PLACEMENT_3D ( 'NONE', #14, #322, #152 ) ;
#755 = LINE ( 'NONE', #165, #517 ) ;
#756 = EDGE_LOOP ( 'NONE', ( #171, #252, #692, #320 ) ) ;
#757 = EDGE_CURVE ( 'NONE', #358, #795, #175, .T. ) ;
#758 = LINE ( 'NONE', #448, #76 ) ;
#759 = EDGE_LOOP ( 'NONE', ( #685, #513, #416, #640 ) ) ;
#760 = VERTEX_POINT ( 'NONE', #772 ) ;
#761 = DIRECTION ( 'NONE',  ( -0.000000000000000000, 0.000000000000000000, 1.000000000000000000 ) ) ;
#762 = CARTESIAN_POINT ( 'NONE',  ( -0.01524999999999999620, -0.0009999999999999963345, 0.01450000000000000074 ) ) ;
#763 = VERTEX_POINT ( 'NONE', #599 ) ;
#764 = PLANE ( 'NONE',  #276 ) ;
#765 = AXIS2_PLACEMENT_3D ( 'NONE', #398, #415, #541 ) ;
#766 = CARTESIAN_POINT ( 'NONE',  ( -0.01124999999999999958, -0.01274999999999999745, 0.01075000000000000261 ) ) ;
#767 =( GEOMETRIC_REPRESENTATION_CONTEXT ( 3 ) GLOBAL_UNCERTAINTY_ASSIGNED_CONTEXT ( ( #113 ) ) GLOBAL_UNIT_ASSIGNED_CONTEXT ( ( #103, #609, #186 ) ) REPRESENTATION_CONTEXT ( 'NONE', 'WORKASPACE' ) );
#768 = EDGE_LOOP ( 'NONE', ( #45, #591, #790, #453 ) ) ;
#769 = DIRECTION ( 'NONE',  ( 1.000000000000000000, 0.000000000000000000, 0.000000000000000000 ) ) ;
#770 = ADVANCED_FACE ( 'NONE', ( #467 ), #101, .F. ) ;
#771 = CARTESIAN_POINT ( 'NONE',  ( -0.01024999999999999870, 0.01375000000000000354, 0.01200000000000000025 ) ) ;
#772 = CARTESIAN_POINT ( 'NONE',  ( -0.01124999999999999958, 0.01275000000000000092, 0.01075000000000000261 ) ) ;
#773 = DIRECTION ( 'NONE',  ( 0.000000000000000000, 0.000000000000000000, -1.000000000000000000 ) ) ;
#774 = CARTESIAN_POINT ( 'NONE',  ( -0.01124999999999999958, -0.01274999999999999745, 0.001249999999999994171 ) ) ;
#775 = EDGE_CURVE ( 'NONE', #499, #70, #530, .T. ) ;
#776 = ORIENTED_EDGE ( 'NONE', *, *, #62, .F. ) ;
#777 = DIRECTION ( 'NONE',  ( -0.000000000000000000, -0.000000000000000000, -1.000000000000000000 ) ) ;
#778 = AXIS2_PLACEMENT_3D ( 'NONE', #299, #47, #183 ) ;
#779 = LINE ( 'NONE', #774, #475 ) ;
#780 = DIRECTION ( 'NONE',  ( 0.000000000000000000, 1.000000000000000000, 0.000000000000000000 ) ) ;
#781 = EDGE_LOOP ( 'NONE', ( #537, #547, #291, #21 ) ) ;
#782 = EDGE_CURVE ( 'NONE', #573, #59, #688, .T. ) ;
#783 = LOCAL_TIME ( 12, 43, 10.00000000000000000, #302 ) ;
#784 = LINE ( 'NONE', #518, #218 ) ;
#785 = FACE_BOUND ( 'NONE', #584, .T. ) ;
#786 = VERTEX_POINT ( 'NONE', #224 ) ;
#787 = SECURITY_CLASSIFICATION_LEVEL ( 'unclassified' ) ;
#788 = DIRECTION ( 'NONE',  ( -1.261617073437677999E-16, 1.000000000000000000, -0.000000000000000000 ) ) ;
#789 = LINE ( 'NONE', #725, #690 ) ;
#790 = ORIENTED_EDGE ( 'NONE', *, *, #279, .F. ) ;
#791 = DATE_AND_TIME ( #527, #783 ) ;
#792 = CARTESIAN_POINT ( 'NONE',  ( 0.008750000000000000833, -0.01274999999999999745, 0.001249999999999994171 ) ) ;
#793 = EDGE_CURVE ( 'NONE', #185, #579, #170, .T. ) ;
#794 = VECTOR ( 'NONE', #697, 1.000000000000000000 ) ;
#795 = VERTEX_POINT ( 'NONE', #595 ) ;
#796 = APPROVAL_ROLE ( '' ) ;
#797 = APPROVAL_PERSON_ORGANIZATION ( #109, #659, #46 ) ;
#798 = DIRECTION ( 'NONE',  ( 1.000000000000000000, 1.261617073437677999E-16, -0.000000000000000000 ) ) ;
#799 = DIRECTION ( 'NONE',  ( -0.000000000000000000, -0.000000000000000000, -1.000000000000000000 ) ) ;
#800 = ADVANCED_FACE ( 'NONE', ( #38 ), #525, .F. ) ;
#801 = ORIENTED_EDGE ( 'NONE', *, *, #775, .T. ) ;
#802 = DIRECTION ( 'NONE',  ( 0.000000000000000000, 0.000000000000000000, -1.000000000000000000 ) ) ;
#803 = LINE ( 'NONE', #498, #17 ) ;
ENDSEC;
END-ISO-10303-21;
