ISO-10303-21;
HEADER;
FILE_DESCRIPTION (( 'STEP AP203' ),
    '1' );
FILE_NAME ('fix part for wheel.STEP',
    '2026-08-12T09:43:26',
    ( '' ),
    ( '' ),
    'SwSTEP 2.0',
    'SolidWorks 2025',
    '' );
FILE_SCHEMA (( 'CONFIG_CONTROL_DESIGN' ));
ENDSEC;

DATA;
#1 = CARTESIAN_POINT ( 'NONE',  ( -0.009499999999999999764, 4.262883817166634309E-31, 0.02000000000000009756 ) ) ;
#2 = ORIENTED_EDGE ( 'NONE', *, *, #143, .F. ) ;
#3 = CC_DESIGN_PERSON_AND_ORGANIZATION_ASSIGNMENT ( #338, #501, ( #134 ) ) ;
#4 = PLANE ( 'NONE',  #139 ) ;
#5 = EDGE_LOOP ( 'NONE', ( #381, #218, #288, #120 ) ) ;
#6 = DIRECTION ( 'NONE',  ( -0.000000000000000000, -0.000000000000000000, -1.000000000000000000 ) ) ;
#7 = EDGE_LOOP ( 'NONE', ( #480, #492, #547, #67 ) ) ;
#8 = CARTESIAN_POINT ( 'NONE',  ( -0.01897242969048696520, -0.03302605683820204752, 0.006000000000000251660 ) ) ;
#9 = ORIENTED_EDGE ( 'NONE', *, *, #227, .T. ) ;
#10 = CARTESIAN_POINT ( 'NONE',  ( 0.000000000000000000, 0.000000000000000000, 0.006000000000000012268 ) ) ;
#11 = EDGE_LOOP ( 'NONE', ( #314, #161, #478, #256, #132 ) ) ;
#12 = FACE_OUTER_BOUND ( 'NONE', #11, .T. ) ;
#13 = VECTOR ( 'NONE', #532, 1.000000000000000000 ) ;
#14 = DIRECTION ( 'NONE',  ( 0.000000000000000000, -0.000000000000000000, 1.000000000000000000 ) ) ;
#15 = LINE ( 'NONE', #8, #276 ) ;
#16 = DIRECTION ( 'NONE',  ( 0.000000000000000000, 1.000000000000000000, 0.000000000000000000 ) ) ;
#17 = ORIENTED_EDGE ( 'NONE', *, *, #97, .F. ) ;
#18 = DIRECTION ( 'NONE',  ( -0.000000000000000000, 0.000000000000000000, -1.000000000000000000 ) ) ;
#19 = EDGE_LOOP ( 'NONE', ( #17, #262, #456, #225, #310 ) ) ;
#20 = AXIS2_PLACEMENT_3D ( 'NONE', #328, #499, #241 ) ;
#21 = DIRECTION ( 'NONE',  ( -1.000000000000000000, 0.000000000000000000, 0.000000000000000000 ) ) ;
#22 = EDGE_CURVE ( 'NONE', #397, #365, #284, .T. ) ;
#23 = VERTEX_POINT ( 'NONE', #489 ) ;
#24 = APPROVAL_DATE_TIME ( #31, #223 ) ;
#25 = DIRECTION ( 'NONE',  ( -0.000000000000000000, -0.000000000000000000, -1.000000000000000000 ) ) ;
#26 = DIRECTION ( 'NONE',  ( 1.000000000000000000, 0.000000000000000000, 0.000000000000000000 ) ) ;
#27 = DIRECTION ( 'NONE',  ( -1.000000000000000000, 0.000000000000000000, 0.000000000000000000 ) ) ;
#28 = PERSON_AND_ORGANIZATION ( #122, #394 ) ;
#29 = LINE ( 'NONE', #342, #66 ) ;
#30 = CC_DESIGN_APPROVAL ( #167, ( #549 ) ) ;
#31 = DATE_AND_TIME ( #422, #260 ) ;
#32 = LINE ( 'NONE', #72, #485 ) ;
#33 = CARTESIAN_POINT ( 'NONE',  ( 0.01499999999999999944, -0.002584636153591529650, 0.02000000000000028838 ) ) ;
#34 = VECTOR ( 'NONE', #137, 1.000000000000000000 ) ;
#35 = VECTOR ( 'NONE', #237, 1.000000000000000000 ) ;
#36 = EDGE_CURVE ( 'NONE', #45, #552, #371, .T. ) ;
#37 = DIRECTION ( 'NONE',  ( -5.581891561914691816E-15, -4.195742407367846646E-15, -1.000000000000000000 ) ) ;
#38 = ORIENTED_EDGE ( 'NONE', *, *, #44, .T. ) ;
#39 = EDGE_CURVE ( 'NONE', #220, #94, #271, .T. ) ;
#40 = AXIS2_PLACEMENT_3D ( 'NONE', #93, #270, #417 ) ;
#41 = CARTESIAN_POINT ( 'NONE',  ( -0.01499999999999999944, -0.03004009920577787110, 0.006000000000000216965 ) ) ;
#42 = VERTEX_POINT ( 'NONE', #528 ) ;
#43 = DIRECTION ( 'NONE',  ( -0.000000000000000000, -0.000000000000000000, -1.000000000000000000 ) ) ;
#44 = EDGE_CURVE ( 'NONE', #428, #107, #533, .T. ) ;
#45 = VERTEX_POINT ( 'NONE', #186 ) ;
#46 = APPROVAL_DATE_TIME ( #240, #279 ) ;
#47 = CIRCLE ( 'NONE', #372, 0.009499999999999999764 ) ;
#48 = CARTESIAN_POINT ( 'NONE',  ( 0.03500000000000000333, -0.03475378203227934976, 0.000000000000000000 ) ) ;
#49 = VERTEX_POINT ( 'NONE', #98 ) ;
#50 = FACE_OUTER_BOUND ( 'NONE', #537, .T. ) ;
#51 = ORIENTED_EDGE ( 'NONE', *, *, #353, .T. ) ;
#52 = CARTESIAN_POINT ( 'NONE',  ( 0.03500000000000000333, -0.02660740827231303923, 0.000000000000000000 ) ) ;
#53 = CARTESIAN_POINT ( 'NONE',  ( -0.01897242969048688888, -0.03302605683820199201, 0.02000000000000028838 ) ) ;
#54 = EDGE_CURVE ( 'NONE', #42, #428, #275, .T. ) ;
#55 = CARTESIAN_POINT ( 'NONE',  ( 0.01962178197042925565, -0.02462180008086303773, 1.387778780781445676E-17 ) ) ;
#56 = DIRECTION ( 'NONE',  ( -0.000000000000000000, -0.000000000000000000, -1.000000000000000000 ) ) ;
#57 = CARTESIAN_POINT ( 'NONE',  ( 0.03500000000000000333, -0.03475378203227934976, 0.02599999999999999881 ) ) ;
#58 = CARTESIAN_POINT ( 'NONE',  ( 0.009499999999999999764, 1.163414459189985282E-18, 0.000000000000000000 ) ) ;
#59 = PRODUCT_RELATED_PRODUCT_CATEGORY ( 'detail', '', ( #134 ) ) ;
#60 = CARTESIAN_POINT ( 'NONE',  ( 0.03500000000000000333, -0.02660740827231303923, 0.02599999999999999881 ) ) ;
#61 = EDGE_LOOP ( 'NONE', ( #540, #178, #400, #83 ) ) ;
#62 = EDGE_LOOP ( 'NONE', ( #38, #475, #2, #495 ) ) ;
#63 = CALENDAR_DATE ( 2026, 12, 8 ) ;
#64 = CIRCLE ( 'NONE', #243, 0.009499999999999999764 ) ;
#65 = LINE ( 'NONE', #156, #111 ) ;
#66 = VECTOR ( 'NONE', #542, 1.000000000000000000 ) ;
#67 = ORIENTED_EDGE ( 'NONE', *, *, #148, .F. ) ;
#68 = PERSON_AND_ORGANIZATION ( #122, #394 ) ;
#69 = CARTESIAN_POINT ( 'NONE',  ( 0.000000000000000000, 0.000000000000000000, 0.02599999999999999881 ) ) ;
#70 = DIRECTION ( 'NONE',  ( -1.000000000000000000, 0.000000000000000000, 0.000000000000000000 ) ) ;
#71 = COORDINATED_UNIVERSAL_TIME_OFFSET ( 3, 0, .AHEAD. ) ;
#72 = CARTESIAN_POINT ( 'NONE',  ( 0.03500000000000000333, -0.03475378203227934976, 0.02599999999999999881 ) ) ;
#73 = VECTOR ( 'NONE', #123, 1.000000000000000000 ) ;
#74 = APPROVAL_STATUS ( 'not_yet_approved' ) ;
#75 = DIRECTION ( 'NONE',  ( -0.000000000000000000, -0.000000000000000000, -1.000000000000000000 ) ) ;
#76 = CIRCLE ( 'NONE', #430, 0.009499999999999999764 ) ;
#77 = CARTESIAN_POINT ( 'NONE',  ( 0.01539635239435994431, -0.007192062235570897792, 0.02599999999999999881 ) ) ;
#78 = EDGE_CURVE ( 'NONE', #384, #428, #323, .T. ) ;
#79 = CARTESIAN_POINT ( 'NONE',  ( 0.01499999999999999944, -0.01582961628842736654, 0.02599999999999999881 ) ) ;
#80 = ADVANCED_FACE ( 'NONE', ( #147, #232 ), #375, .F. ) ;
#81 = ORIENTED_EDGE ( 'NONE', *, *, #562, .T. ) ;
#82 = CARTESIAN_POINT ( 'NONE',  ( 0.000000000000000000, 0.000000000000000000, 0.006000000000000012268 ) ) ;
#83 = ORIENTED_EDGE ( 'NONE', *, *, #389, .F. ) ;
#84 = CC_DESIGN_PERSON_AND_ORGANIZATION_ASSIGNMENT ( #28, #498, ( #366 ) ) ;
#85 = LOCAL_TIME ( 12, 43, 26.00000000000000000, #545 ) ;
#86 = FACE_OUTER_BOUND ( 'NONE', #508, .T. ) ;
#87 = VERTEX_POINT ( 'NONE', #368 ) ;
#88 = CARTESIAN_POINT ( 'NONE',  ( -0.009499999999999999764, 0.000000000000000000, 0.02599999999999999881 ) ) ;
#89 = ORIENTED_EDGE ( 'NONE', *, *, #560, .T. ) ;
#90 = VECTOR ( 'NONE', #452, 1.000000000000000000 ) ;
#91 = CARTESIAN_POINT ( 'NONE',  ( 0.03500000000000000333, -0.02660740827231303923, 1.387778780781445676E-17 ) ) ;
#92 = ORIENTED_EDGE ( 'NONE', *, *, #405, .F. ) ;
#93 = CARTESIAN_POINT ( 'NONE',  ( 0.000000000000000000, 0.000000000000000000, 0.000000000000000000 ) ) ;
#94 = VERTEX_POINT ( 'NONE', #58 ) ;
#95 = ADVANCED_FACE ( 'NONE', ( #410 ), #234, .F. ) ;
#96 = LINE ( 'NONE', #311, #13 ) ;
#97 = EDGE_CURVE ( 'NONE', #395, #42, #170, .T. ) ;
#98 = CARTESIAN_POINT ( 'NONE',  ( 0.01499999999999999944, 0.000000000000000000, 0.006000000000000258599 ) ) ;
#99 = CARTESIAN_POINT ( 'NONE',  ( 0.01539635239435994431, -0.007192062235570897792, 0.02000000000000008715 ) ) ;
#100 = VERTEX_POINT ( 'NONE', #159 ) ;
#101 = B_SPLINE_CURVE_WITH_KNOTS ( 'NONE', 3,
 ( #258, #426, #33, #217 ),
 .UNSPECIFIED., .F., .F.,
 ( 4, 4 ),
 ( 0.8367214904961978172, 1.000000000000000000 ),
 .UNSPECIFIED. ) ;
#102 = EDGE_CURVE ( 'NONE', #500, #100, #32, .T. ) ;
#103 = CARTESIAN_POINT ( 'NONE',  ( -0.01499999999999999944, 0.000000000000000000, 0.02599999999999999881 ) ) ;
#104 = ORIENTED_EDGE ( 'NONE', *, *, #184, .F. ) ;
#105 = PRODUCT_DEFINITION_SHAPE ( 'NONE', 'NONE',  #549 ) ;
#106 = CALENDAR_DATE ( 2026, 12, 8 ) ;
#107 = VERTEX_POINT ( 'NONE', #335 ) ;
#108 = DESIGN_CONTEXT ( 'detailed design', #306, 'design' ) ;
#109 = APPROVAL_ROLE ( '' ) ;
#110 = CARTESIAN_POINT ( 'NONE',  ( 0.01499999999999999944, 0.000000000000000000, 0.02599999999999999881 ) ) ;
#111 = VECTOR ( 'NONE', #287, 1.000000000000000000 ) ;
#112 = ORIENTED_EDGE ( 'NONE', *, *, #39, .F. ) ;
#113 = DATE_AND_TIME ( #471, #187 ) ;
#114 = DIRECTION ( 'NONE',  ( -0.000000000000000000, -0.000000000000000000, -1.000000000000000000 ) ) ;
#115 =( GEOMETRIC_REPRESENTATION_CONTEXT ( 3 ) GLOBAL_UNCERTAINTY_ASSIGNED_CONTEXT ( ( #252 ) ) GLOBAL_UNIT_ASSIGNED_CONTEXT ( ( #387, #118, #333 ) ) REPRESENTATION_CONTEXT ( 'NONE', 'WORKASPACE' ) );
#116 = VECTOR ( 'NONE', #129, 1.000000000000000000 ) ;
#117 = VERTEX_POINT ( 'NONE', #465 ) ;
#118 =( NAMED_UNIT ( * ) PLANE_ANGLE_UNIT ( ) SI_UNIT ( $, .RADIAN. ) );
#119 = CARTESIAN_POINT ( 'NONE',  ( -0.01499999999999999944, -8.391484814735652173E-17, 0.006000000000000095535 ) ) ;
#120 = ORIENTED_EDGE ( 'NONE', *, *, #263, .F. ) ;
#121 = APPROVAL_STATUS ( 'not_yet_approved' ) ;
#122 = PERSON ( 'UNSPECIFIED', 'UNSPECIFIED', 'UNSPECIFIED', ('UNSPECIFIED'), ('UNSPECIFIED'), ('UNSPECIFIED') ) ;
#123 = DIRECTION ( 'NONE',  ( -0.000000000000000000, -0.000000000000000000, -1.000000000000000000 ) ) ;
#124 = AXIS2_PLACEMENT_3D ( 'NONE', #412, #16, #14 ) ;
#125 = FACE_OUTER_BOUND ( 'NONE', #283, .T. ) ;
#126 = AXIS2_PLACEMENT_3D ( 'NONE', #179, #515, #358 ) ;
#127 = ADVANCED_FACE ( 'NONE', ( #462 ), #553, .T. ) ;
#128 = DIRECTION ( 'NONE',  ( 0.000000000000000000, 0.000000000000000000, 1.000000000000000000 ) ) ;
#129 = DIRECTION ( 'NONE',  ( 0.000000000000000000, 1.000000000000000000, 0.000000000000000000 ) ) ;
#130 = EDGE_LOOP ( 'NONE', ( #531, #81 ) ) ;
#131 = CARTESIAN_POINT ( 'NONE',  ( -0.01499999999999999944, 0.000000000000000000, 0.006000000000000096402 ) ) ;
#132 = ORIENTED_EDGE ( 'NONE', *, *, #345, .T. ) ;
#133 = CIRCLE ( 'NONE', #268, 0.01499999999999999944 ) ;
#134 = PRODUCT ( 'fix part for wheel', 'fix part for wheel', '', ( #509 ) ) ;
#135 = FACE_OUTER_BOUND ( 'NONE', #5, .T. ) ;
#136 = ORIENTED_EDGE ( 'NONE', *, *, #302, .F. ) ;
#137 = DIRECTION ( 'NONE',  ( -0.000000000000000000, -0.000000000000000000, -1.000000000000000000 ) ) ;
#138 = ORIENTED_EDGE ( 'NONE', *, *, #184, .T. ) ;
#139 = AXIS2_PLACEMENT_3D ( 'NONE', #517, #255, #427 ) ;
#140 = DIRECTION ( 'NONE',  ( -5.581891561914691816E-15, -4.195742407367846646E-15, -1.000000000000000000 ) ) ;
#141 = EDGE_CURVE ( 'NONE', #117, #145, #550, .T. ) ;
#142 = CARTESIAN_POINT ( 'NONE',  ( 0.000000000000000000, 0.000000000000000000, 0.000000000000000000 ) ) ;
#143 = EDGE_CURVE ( 'NONE', #384, #500, #65, .T. ) ;
#144 = DIRECTION ( 'NONE',  ( 0.7993586418199493115, 0.6008541934178091015, -6.982962677686265922E-15 ) ) ;
#145 = VERTEX_POINT ( 'NONE', #163 ) ;
#146 = CARTESIAN_POINT ( 'NONE',  ( 0.01499999999999999944, -0.01582961628842736654, 0.02599999999999999881 ) ) ;
#147 = FACE_OUTER_BOUND ( 'NONE', #19, .T. ) ;
#148 = EDGE_CURVE ( 'NONE', #337, #281, #169, .T. ) ;
#149 = ORIENTED_EDGE ( 'NONE', *, *, #345, .F. ) ;
#150 = VECTOR ( 'NONE', #43, 1.000000000000000000 ) ;
#151 = DIRECTION ( 'NONE',  ( -0.000000000000000000, -0.000000000000000000, -1.000000000000000000 ) ) ;
#152 = CARTESIAN_POINT ( 'NONE',  ( 0.009499999999999999764, 1.163414459189985282E-18, 0.02599999999999999881 ) ) ;
#153 = ORIENTED_EDGE ( 'NONE', *, *, #54, .T. ) ;
#154 = PERSON_AND_ORGANIZATION ( #122, #394 ) ;
#155 = ORIENTED_EDGE ( 'NONE', *, *, #209, .T. ) ;
#156 = CARTESIAN_POINT ( 'NONE',  ( -0.01499999999999999944, -0.03475378203227934976, 0.02599999999999999881 ) ) ;
#157 = ORIENTED_EDGE ( 'NONE', *, *, #392, .F. ) ;
#158 = DATE_AND_TIME ( #106, #85 ) ;
#159 = CARTESIAN_POINT ( 'NONE',  ( 0.03500000000000000333, -0.02660740827231303923, 0.02599999999999999881 ) ) ;
#160 = EDGE_CURVE ( 'NONE', #87, #365, #203, .T. ) ;
#161 = ORIENTED_EDGE ( 'NONE', *, *, #463, .T. ) ;
#162 = PERSON_AND_ORGANIZATION_ROLE ( 'classification_officer' ) ;
#163 = CARTESIAN_POINT ( 'NONE',  ( 0.009499999999999999764, 1.163414459189966600E-18, 0.01999999999999999348 ) ) ;
#164 = VECTOR ( 'NONE', #374, 1.000000000000000000 ) ;
#165 = EDGE_LOOP ( 'NONE', ( #215, #104 ) ) ;
#166 = DIRECTION ( 'NONE',  ( 0.000000000000000000, 0.000000000000000000, 1.000000000000000000 ) ) ;
#167 = APPROVAL ( #331, 'UNSPECIFIED' ) ;
#168 = CARTESIAN_POINT ( 'NONE',  ( 0.000000000000000000, 0.000000000000000000, 0.02599999999999999881 ) ) ;
#169 = LINE ( 'NONE', #119, #221 ) ;
#170 = CIRCLE ( 'NONE', #20, 0.01499999999999999944 ) ;
#171 = DIRECTION ( 'NONE',  ( 0.000000000000000000, 0.000000000000000000, 1.000000000000000000 ) ) ;
#172 = CIRCLE ( 'NONE', #40, 0.009499999999999999764 ) ;
#173 = CARTESIAN_POINT ( 'NONE',  ( -0.01499999999999999944, 0.000000000000000000, 0.02599999999999999881 ) ) ;
#174 = EDGE_LOOP ( 'NONE', ( #404, #92, #312, #434 ) ) ;
#175 = CYLINDRICAL_SURFACE ( 'NONE', #340, 0.01499999999999999944 ) ;
#176 = ORIENTED_EDGE ( 'NONE', *, *, #444, .T. ) ;
#177 = CARTESIAN_POINT ( 'NONE',  ( 0.000000000000000000, 0.000000000000000000, 0.000000000000000000 ) ) ;
#178 = ORIENTED_EDGE ( 'NONE', *, *, #39, .T. ) ;
#179 = CARTESIAN_POINT ( 'NONE',  ( 0.000000000000000000, 0.000000000000000000, 0.02599999999999999881 ) ) ;
#180 = ORIENTED_EDGE ( 'NONE', *, *, #562, .F. ) ;
#181 = ADVANCED_FACE ( 'NONE', ( #512 ), #330, .F. ) ;
#182 = DIRECTION ( 'NONE',  ( 0.000000000000000000, 0.000000000000000000, 1.000000000000000000 ) ) ;
#183 = EDGE_LOOP ( 'NONE', ( #534, #138, #305, #238 ) ) ;
#184 = EDGE_CURVE ( 'NONE', #117, #265, #239, .T. ) ;
#185 = CARTESIAN_POINT ( 'NONE',  ( 0.03500000000000000333, -0.02660740827231303923, 0.02599999999999999881 ) ) ;
#186 = CARTESIAN_POINT ( 'NONE',  ( -0.01499999999999999944, -0.03004009920577787110, 0.02000000000000025369 ) ) ;
#187 = LOCAL_TIME ( 12, 43, 26.00000000000000000, #71 ) ;
#188 = LINE ( 'NONE', #185, #164 ) ;
#189 = VECTOR ( 'NONE', #6, 1.000000000000000000 ) ;
#190 = DIRECTION ( 'NONE',  ( -0.000000000000000000, -0.000000000000000000, -1.000000000000000000 ) ) ;
#191 = DIRECTION ( 'NONE',  ( 1.000000000000000000, 0.000000000000000000, -0.000000000000000000 ) ) ;
#192 = ORIENTED_EDGE ( 'NONE', *, *, #97, .T. ) ;
#193 = ORIENTED_EDGE ( 'NONE', *, *, #451, .T. ) ;
#194 = VECTOR ( 'NONE', #290, 1.000000000000000000 ) ;
#195 = DIRECTION ( 'NONE',  ( 1.000000000000000000, 0.000000000000000000, -5.478074134663601641E-15 ) ) ;
#196 = CARTESIAN_POINT ( 'NONE',  ( -0.01499999999999999944, -0.03475378203227934976, 0.02599999999999999881 ) ) ;
#197 = ORIENTED_EDGE ( 'NONE', *, *, #503, .T. ) ;
#198 = VECTOR ( 'NONE', #151, 1.000000000000000000 ) ;
#199 = AXIS2_PLACEMENT_3D ( 'NONE', #538, #454, #403 ) ;
#200 = CARTESIAN_POINT ( 'NONE',  ( 0.03500000000000000333, -0.03475378203227934976, 0.02599999999999999881 ) ) ;
#201 = APPROVAL_DATE_TIME ( #113, #167 ) ;
#202 = ADVANCED_FACE ( 'NONE', ( #332 ), #383, .F. ) ;
#203 = LINE ( 'NONE', #380, #341 ) ;
#204 = EDGE_CURVE ( 'NONE', #49, #23, #347, .T. ) ;
#205 = CARTESIAN_POINT ( 'NONE',  ( 0.000000000000000000, 0.000000000000000000, 0.02599999999999999881 ) ) ;
#206 = DATE_TIME_ROLE ( 'classification_date' ) ;
#207 = DIRECTION ( 'NONE',  ( -1.000000000000000000, 0.000000000000000000, 0.000000000000000000 ) ) ;
#208 = SECURITY_CLASSIFICATION ( '', '', #379 ) ;
#209 = EDGE_CURVE ( 'NONE', #45, #337, #29, .T. ) ;
#210 = APPROVAL_ROLE ( '' ) ;
#211 = CARTESIAN_POINT ( 'NONE',  ( 0.01499999999999999944, 0.000000000000000000, 0.006000000000000258599 ) ) ;
#212 = CARTESIAN_POINT ( 'NONE',  ( 0.000000000000000000, 0.000000000000000000, 0.02599999999999999881 ) ) ;
#213 = AXIS2_PLACEMENT_3D ( 'NONE', #304, #37, #433 ) ;
#214 = CARTESIAN_POINT ( 'NONE',  ( 0.03500000000000000333, -0.02660740827231303923, 0.02599999999999999881 ) ) ;
#215 = ORIENTED_EDGE ( 'NONE', *, *, #282, .F. ) ;
#216 = AXIS2_PLACEMENT_3D ( 'NONE', #10, #409, #535 ) ;
#217 = CARTESIAN_POINT ( 'NONE',  ( 0.01499999999999999944, 0.000000000000000000, 0.02000000000000028838 ) ) ;
#218 = ORIENTED_EDGE ( 'NONE', *, *, #141, .T. ) ;
#219 = DIRECTION ( 'NONE',  ( 0.000000000000000000, 0.000000000000000000, 1.000000000000000000 ) ) ;
#220 = VERTEX_POINT ( 'NONE', #293 ) ;
#221 = VECTOR ( 'NONE', #507, 1.000000000000000000 ) ;
#222 = SHAPE_DEFINITION_REPRESENTATION ( #105, #355 ) ;
#223 = APPROVAL ( #121, 'UNSPECIFIED' ) ;
#224 = CARTESIAN_POINT ( 'NONE',  ( 0.01499999999999999944, 0.000000000000000000, 0.02599999999999999881 ) ) ;
#225 = ORIENTED_EDGE ( 'NONE', *, *, #44, .F. ) ;
#226 = LINE ( 'NONE', #406, #198 ) ;
#227 = EDGE_CURVE ( 'NONE', #500, #107, #249, .T. ) ;
#228 = CARTESIAN_POINT ( 'NONE',  ( 0.000000000000000000, 0.000000000000000000, 0.02000000000000004552 ) ) ;
#229 = CARTESIAN_POINT ( 'NONE',  ( 0.01499999999999999944, 0.000000000000000000, 0.02599999999999999881 ) ) ;
#230 = DIRECTION ( 'NONE',  ( 1.000000000000000000, 0.000000000000000000, -0.000000000000000000 ) ) ;
#231 = CARTESIAN_POINT ( 'NONE',  ( 0.000000000000000000, 0.000000000000000000, 0.006000000000000012268 ) ) ;
#232 = FACE_BOUND ( 'NONE', #130, .T. ) ;
#233 = PLANE ( 'NONE',  #513 ) ;
#234 = PLANE ( 'NONE',  #124 ) ;
#235 = ORIENTED_EDGE ( 'NONE', *, *, #389, .T. ) ;
#236 = CARTESIAN_POINT ( 'NONE',  ( -0.009499999999999999764, 0.000000000000000000, 0.006000000000000065177 ) ) ;
#237 = DIRECTION ( 'NONE',  ( 1.000000000000000000, 0.000000000000000000, 0.000000000000000000 ) ) ;
#238 = ORIENTED_EDGE ( 'NONE', *, *, #560, .F. ) ;
#239 = CIRCLE ( 'NONE', #527, 0.009499999999999999764 ) ;
#240 = DATE_AND_TIME ( #63, #357 ) ;
#241 = DIRECTION ( 'NONE',  ( 1.000000000000000000, 0.000000000000000000, 0.000000000000000000 ) ) ;
#242 = ADVANCED_FACE ( 'NONE', ( #125 ), #418, .F. ) ;
#243 = AXIS2_PLACEMENT_3D ( 'NONE', #82, #301, #401 ) ;
#244 = CARTESIAN_POINT ( 'NONE',  ( 0.01512321611419887094, -0.004981655259983230888, 0.006000000000000258599 ) ) ;
#245 = EDGE_CURVE ( 'NONE', #49, #395, #510, .T. ) ;
#246 = LINE ( 'NONE', #421, #150 ) ;
#247 = DATE_TIME_ROLE ( 'creation_date' ) ;
#248 = AXIS2_PLACEMENT_3D ( 'NONE', #69, #468, #207 ) ;
#249 = LINE ( 'NONE', #378, #320 ) ;
#250 = PERSON_AND_ORGANIZATION_ROLE ( 'creator' ) ;
#251 = DIRECTION ( 'NONE',  ( 0.000000000000000000, 1.000000000000000000, 0.000000000000000000 ) ) ;
#252 = UNCERTAINTY_MEASURE_WITH_UNIT (LENGTH_MEASURE( 1.000000000000000082E-05 ), #387, 'distance_accuracy_value', 'NONE');
#253 = B_SPLINE_CURVE_WITH_KNOTS ( 'NONE', 3,
 ( #52, #529, #491, #488 ),
 .UNSPECIFIED., .F., .F.,
 ( 4, 4 ),
 ( 0.000000000000000000, 1.000000000000000000 ),
 .UNSPECIFIED. ) ;
#254 = CARTESIAN_POINT ( 'NONE',  ( 0.01499999999999999944, 0.000000000000000000, 0.000000000000000000 ) ) ;
#255 = DIRECTION ( 'NONE',  ( 0.6008541934178091015, -0.7993586418199493115, -7.279560179511748959E-18 ) ) ;
#256 = ORIENTED_EDGE ( 'NONE', *, *, #102, .T. ) ;
#257 = ADVANCED_FACE ( 'NONE', ( #505 ), #296, .F. ) ;
#258 = CARTESIAN_POINT ( 'NONE',  ( 0.01539635239435994431, -0.007192062235570897792, 0.02000000000000008715 ) ) ;
#259 = ORIENTED_EDGE ( 'NONE', *, *, #405, .T. ) ;
#260 = LOCAL_TIME ( 12, 43, 26.00000000000000000, #327 ) ;
#261 = DIRECTION ( 'NONE',  ( -1.000000000000000000, 0.000000000000000000, 0.000000000000000000 ) ) ;
#262 = ORIENTED_EDGE ( 'NONE', *, *, #466, .F. ) ;
#263 = EDGE_CURVE ( 'NONE', #265, #376, #246, .T. ) ;
#264 = LINE ( 'NONE', #173, #34 ) ;
#265 = VERTEX_POINT ( 'NONE', #435 ) ;
#266 = CARTESIAN_POINT ( 'NONE',  ( 0.01962178197042925565, -0.02462180008086303773, 0.02599999999999999881 ) ) ;
#267 = VERTEX_POINT ( 'NONE', #559 ) ;
#268 = AXIS2_PLACEMENT_3D ( 'NONE', #231, #140, #493 ) ;
#269 = CIRCLE ( 'NONE', #431, 0.009499999999999999764 ) ;
#270 = DIRECTION ( 'NONE',  ( 0.000000000000000000, 0.000000000000000000, 1.000000000000000000 ) ) ;
#271 = LINE ( 'NONE', #152, #511 ) ;
#272 = FACE_BOUND ( 'NONE', #325, .T. ) ;
#273 = CARTESIAN_POINT ( 'NONE',  ( -0.01499999999999999944, 0.000000000000000000, 0.000000000000000000 ) ) ;
#274 = PLANE ( 'NONE',  #441 ) ;
#275 = LINE ( 'NONE', #273, #90 ) ;
#276 = VECTOR ( 'NONE', #144, 1.000000000000000000 ) ;
#277 = CARTESIAN_POINT ( 'NONE',  ( -0.01499999999999999944, -0.03475378203227934976, 0.000000000000000000 ) ) ;
#278 = ORIENTED_EDGE ( 'NONE', *, *, #551, .T. ) ;
#279 = APPROVAL ( #74, 'UNSPECIFIED' ) ;
#280 = CARTESIAN_POINT ( 'NONE',  ( 0.000000000000000000, 0.000000000000000000, 0.000000000000000000 ) ) ;
#281 = VERTEX_POINT ( 'NONE', #131 ) ;
#282 = EDGE_CURVE ( 'NONE', #265, #117, #47, .T. ) ;
#283 = EDGE_LOOP ( 'NONE', ( #51, #518, #460, #9 ) ) ;
#284 = CIRCLE ( 'NONE', #459, 0.01499999999999999944 ) ;
#285 = PERSON_AND_ORGANIZATION ( #122, #394 ) ;
#286 = ADVANCED_FACE ( 'NONE', ( #474 ), #4, .F. ) ;
#287 = DIRECTION ( 'NONE',  ( 1.000000000000000000, 0.000000000000000000, 0.000000000000000000 ) ) ;
#288 = ORIENTED_EDGE ( 'NONE', *, *, #451, .F. ) ;
#289 = LOCAL_TIME ( 12, 43, 26.00000000000000000, #382 ) ;
#290 = DIRECTION ( 'NONE',  ( -0.000000000000000000, -0.000000000000000000, -1.000000000000000000 ) ) ;
#291 = ORIENTED_EDGE ( 'NONE', *, *, #350, .T. ) ;
#292 = PERSON_AND_ORGANIZATION_ROLE ( 'creator' ) ;
#293 = CARTESIAN_POINT ( 'NONE',  ( 0.009499999999999999764, 1.163414459189540777E-18, 0.005999999999999959359 ) ) ;
#294 = PERSON_AND_ORGANIZATION ( #122, #394 ) ;
#295 = AXIS2_PLACEMENT_3D ( 'NONE', #168, #114, #27 ) ;
#296 = CYLINDRICAL_SURFACE ( 'NONE', #470, 0.009499999999999999764 ) ;
#297 = CARTESIAN_POINT ( 'NONE',  ( 0.01539635239435994257, -0.007192062235570898659, 0.005999999999999951553 ) ) ;
#298 = DIRECTION ( 'NONE',  ( -0.000000000000000000, -0.000000000000000000, -1.000000000000000000 ) ) ;
#299 = ORIENTED_EDGE ( 'NONE', *, *, #302, .T. ) ;
#300 = ADVANCED_FACE ( 'NONE', ( #523, #349 ), #354, .F. ) ;
#301 = DIRECTION ( 'NONE',  ( -5.581891561914691816E-15, -4.195742407367846646E-15, -1.000000000000000000 ) ) ;
#302 = EDGE_CURVE ( 'NONE', #281, #42, #264, .T. ) ;
#303 = ORIENTED_EDGE ( 'NONE', *, *, #344, .T. ) ;
#304 = CARTESIAN_POINT ( 'NONE',  ( -0.03699805549302124380, -0.009045297583603562064, 0.006000000000000251660 ) ) ;
#305 = ORIENTED_EDGE ( 'NONE', *, *, #263, .T. ) ;
#306 = APPLICATION_CONTEXT ( 'configuration controlled 3d designs of mechanical parts and assemblies' ) ;
#307 = AXIS2_PLACEMENT_3D ( 'NONE', #322, #367, #526 ) ;
#308 = ADVANCED_FACE ( 'NONE', ( #398 ), #175, .T. ) ;
#309 = DIRECTION ( 'NONE',  ( -1.000000000000000000, 0.000000000000000000, 0.000000000000000000 ) ) ;
#310 = ORIENTED_EDGE ( 'NONE', *, *, #54, .F. ) ;
#311 = CARTESIAN_POINT ( 'NONE',  ( -0.01499999999999999944, 0.000000000000000000, 0.02599999999999999881 ) ) ;
#312 = ORIENTED_EDGE ( 'NONE', *, *, #36, .F. ) ;
#313 = LINE ( 'NONE', #411, #326 ) ;
#314 = ORIENTED_EDGE ( 'NONE', *, *, #392, .T. ) ;
#315 = CIRCLE ( 'NONE', #126, 0.01499999999999999944 ) ;
#316 = CARTESIAN_POINT ( 'NONE',  ( 0.000000000000000000, 0.000000000000000000, 0.02599999999999999881 ) ) ;
#317 = EDGE_LOOP ( 'NONE', ( #348, #373, #539, #497 ) ) ;
#318 = DIRECTION ( 'NONE',  ( 4.403336030377550628E-45, -1.000000000000000000, 4.195742407367846646E-15 ) ) ;
#319 = DIRECTION ( 'NONE',  ( 0.000000000000000000, 0.000000000000000000, 1.000000000000000000 ) ) ;
#320 = VECTOR ( 'NONE', #554, 1.000000000000000000 ) ;
#321 = ORIENTED_EDGE ( 'NONE', *, *, #148, .T. ) ;
#322 = CARTESIAN_POINT ( 'NONE',  ( -0.03699805549302116747, -0.009045297583603506553, 0.02000000000000028838 ) ) ;
#323 = LINE ( 'NONE', #196, #399 ) ;
#324 = CC_DESIGN_PERSON_AND_ORGANIZATION_ASSIGNMENT ( #294, #162, ( #208 ) ) ;
#325 = EDGE_LOOP ( 'NONE', ( #193, #89 ) ) ;
#326 = VECTOR ( 'NONE', #318, 1.000000000000000000 ) ;
#327 = COORDINATED_UNIVERSAL_TIME_OFFSET ( 3, 0, .AHEAD. ) ;
#328 = CARTESIAN_POINT ( 'NONE',  ( 0.000000000000000000, 0.000000000000000000, 0.000000000000000000 ) ) ;
#329 = ADVANCED_FACE ( 'NONE', ( #135 ), #514, .F. ) ;
#330 = CYLINDRICAL_SURFACE ( 'NONE', #295, 0.009499999999999999764 ) ;
#331 = APPROVAL_STATUS ( 'not_yet_approved' ) ;
#332 = FACE_OUTER_BOUND ( 'NONE', #61, .T. ) ;
#333 =( NAMED_UNIT ( * ) SI_UNIT ( $, .STERADIAN. ) SOLID_ANGLE_UNIT ( ) );
#334 = CC_DESIGN_APPROVAL ( #223, ( #366 ) ) ;
#335 = CARTESIAN_POINT ( 'NONE',  ( 0.03500000000000000333, -0.03475378203227934976, 0.000000000000000000 ) ) ;
#336 = APPLICATION_CONTEXT ( 'configuration controlled 3d designs of mechanical parts and assemblies' ) ;
#337 = VERTEX_POINT ( 'NONE', #41 ) ;
#338 = PERSON_AND_ORGANIZATION ( #122, #394 ) ;
#339 = CARTESIAN_POINT ( 'NONE',  ( 0.000000000000000000, 0.000000000000000000, 0.02599999999999999881 ) ) ;
#340 = AXIS2_PLACEMENT_3D ( 'NONE', #343, #473, #261 ) ;
#341 = VECTOR ( 'NONE', #75, 1.000000000000000000 ) ;
#342 = CARTESIAN_POINT ( 'NONE',  ( -0.01499999999999999944, -0.03004009920577787110, 0.02599999999999999881 ) ) ;
#343 = CARTESIAN_POINT ( 'NONE',  ( 0.000000000000000000, 0.000000000000000000, 0.02599999999999999881 ) ) ;
#344 = EDGE_CURVE ( 'NONE', #23, #552, #396, .T. ) ;
#345 = EDGE_CURVE ( 'NONE', #100, #486, #476, .T. ) ;
#346 = CARTESIAN_POINT ( 'NONE',  ( -0.01499999999999999944, -0.03475378203227934976, 0.02599999999999999881 ) ) ;
#347 = B_SPLINE_CURVE_WITH_KNOTS ( 'NONE', 3,
 ( #211, #388, #244, #297 ),
 .UNSPECIFIED., .F., .F.,
 ( 4, 4 ),
 ( 0.000000000000000000, 0.1632785095037995460 ),
 .UNSPECIFIED. ) ;
#348 = ORIENTED_EDGE ( 'NONE', *, *, #36, .T. ) ;
#349 = FACE_OUTER_BOUND ( 'NONE', #7, .T. ) ;
#350 = EDGE_CURVE ( 'NONE', #525, #220, #64, .T. ) ;
#351 = VECTOR ( 'NONE', #219, 1.000000000000000000 ) ;
#352 = EDGE_LOOP ( 'NONE', ( #291, #482 ) ) ;
#353 = EDGE_CURVE ( 'NONE', #107, #413, #556, .T. ) ;
#354 = PLANE ( 'NONE',  #213 ) ;
#355 = ADVANCED_BREP_SHAPE_REPRESENTATION ( 'fix part for wheel', ( #557, #530 ), #115 ) ;
#356 = ORIENTED_EDGE ( 'NONE', *, *, #245, .F. ) ;
#357 = LOCAL_TIME ( 12, 43, 26.00000000000000000, #457 ) ;
#358 = DIRECTION ( 'NONE',  ( 1.000000000000000000, 0.000000000000000000, 0.000000000000000000 ) ) ;
#359 = ORIENTED_EDGE ( 'NONE', *, *, #78, .F. ) ;
#360 = FACE_OUTER_BOUND ( 'NONE', #174, .T. ) ;
#361 = DIRECTION ( 'NONE',  ( 5.581891561914691027E-15, 4.195742407367846646E-15, 1.000000000000000000 ) ) ;
#362 = AXIS2_PLACEMENT_3D ( 'NONE', #142, #319, #230 ) ;
#363 = CARTESIAN_POINT ( 'NONE',  ( 0.01499999999999999944, 0.000000000000000000, 1.387778780781445676E-17 ) ) ;
#364 = EDGE_CURVE ( 'NONE', #267, #94, #269, .T. ) ;
#365 = VERTEX_POINT ( 'NONE', #481 ) ;
#366 = PRODUCT_DEFINITION_FORMATION_WITH_SPECIFIED_SOURCE ( 'ANY', '', #134, .NOT_KNOWN. ) ;
#367 = DIRECTION ( 'NONE',  ( 5.581891561914691027E-15, 4.195742407367846646E-15, 1.000000000000000000 ) ) ;
#368 = CARTESIAN_POINT ( 'NONE',  ( -0.01499999999999999944, 0.000000000000000000, 0.02599999999999999881 ) ) ;
#369 = PLANE ( 'NONE',  #307 ) ;
#370 = CC_DESIGN_DATE_AND_TIME_ASSIGNMENT ( #158, #206, ( #208 ) ) ;
#371 = LINE ( 'NONE', #53, #416 ) ;
#372 = AXIS2_PLACEMENT_3D ( 'NONE', #212, #128, #519 ) ;
#373 = ORIENTED_EDGE ( 'NONE', *, *, #344, .F. ) ;
#374 = DIRECTION ( 'NONE',  ( -0.000000000000000000, -0.000000000000000000, -1.000000000000000000 ) ) ;
#375 = PLANE ( 'NONE',  #362 ) ;
#376 = VERTEX_POINT ( 'NONE', #1 ) ;
#377 = APPLICATION_PROTOCOL_DEFINITION ( 'international standard', 'config_control_design', 1994, #336 ) ;
#378 = CARTESIAN_POINT ( 'NONE',  ( 0.03500000000000000333, -0.03475378203227934976, 0.02599999999999999881 ) ) ;
#379 = SECURITY_CLASSIFICATION_LEVEL ( 'unclassified' ) ;
#380 = CARTESIAN_POINT ( 'NONE',  ( -0.01499999999999999944, 0.000000000000000000, 0.02599999999999999881 ) ) ;
#381 = ORIENTED_EDGE ( 'NONE', *, *, #282, .T. ) ;
#382 = COORDINATED_UNIVERSAL_TIME_OFFSET ( 3, 0, .AHEAD. ) ;
#383 = CYLINDRICAL_SURFACE ( 'NONE', #248, 0.009499999999999999764 ) ;
#384 = VERTEX_POINT ( 'NONE', #346 ) ;
#385 = PERSON_AND_ORGANIZATION ( #122, #394 ) ;
#386 = DIRECTION ( 'NONE',  ( 0.000000000000000000, 0.000000000000000000, 1.000000000000000000 ) ) ;
#387 =( LENGTH_UNIT ( ) NAMED_UNIT ( * ) SI_UNIT ( $, .METRE. ) );
#388 = CARTESIAN_POINT ( 'NONE',  ( 0.01499999999999999944, -0.002584636153591488017, 0.006000000000000258599 ) ) ;
#389 = EDGE_CURVE ( 'NONE', #525, #267, #479, .T. ) ;
#390 = AXIS2_PLACEMENT_3D ( 'NONE', #200, #502, #386 ) ;
#391 = CARTESIAN_POINT ( 'NONE',  ( 0.000000000000000000, 0.000000000000000000, 0.02599999999999999881 ) ) ;
#392 = EDGE_CURVE ( 'NONE', #486, #87, #315, .T. ) ;
#393 = DIRECTION ( 'NONE',  ( 1.000000000000000000, 0.000000000000000000, 0.000000000000000000 ) ) ;
#394 = ORGANIZATION ( 'UNSPECIFIED', 'UNSPECIFIED', '' ) ;
#395 = VERTEX_POINT ( 'NONE', #254 ) ;
#396 = LINE ( 'NONE', #77, #351 ) ;
#397 = VERTEX_POINT ( 'NONE', #477 ) ;
#398 = FACE_OUTER_BOUND ( 'NONE', #561, .T. ) ;
#399 = VECTOR ( 'NONE', #56, 1.000000000000000000 ) ;
#400 = ORIENTED_EDGE ( 'NONE', *, *, #364, .F. ) ;
#401 = DIRECTION ( 'NONE',  ( -1.000000000000000000, 0.000000000000000000, 5.569375370241328165E-15 ) ) ;
#402 = ORIENTED_EDGE ( 'NONE', *, *, #160, .F. ) ;
#403 = DIRECTION ( 'NONE',  ( 1.000000000000000000, 0.000000000000000000, -5.478074134663601641E-15 ) ) ;
#404 = ORIENTED_EDGE ( 'NONE', *, *, #22, .F. ) ;
#405 = EDGE_CURVE ( 'NONE', #552, #397, #101, .T. ) ;
#406 = CARTESIAN_POINT ( 'NONE',  ( 0.01499999999999999944, 0.000000000000000000, 0.02599999999999999881 ) ) ;
#407 = EDGE_LOOP ( 'NONE', ( #112, #415, #235, #180 ) ) ;
#408 = ADVANCED_FACE ( 'NONE', ( #86 ), #274, .F. ) ;
#409 = DIRECTION ( 'NONE',  ( -5.581891561914691816E-15, -4.195742407367846646E-15, -1.000000000000000000 ) ) ;
#410 = FACE_OUTER_BOUND ( 'NONE', #62, .T. ) ;
#411 = CARTESIAN_POINT ( 'NONE',  ( -0.01499999999999999944, -2.517445444420653620E-17, 0.02000000000000012879 ) ) ;
#412 = CARTESIAN_POINT ( 'NONE',  ( -0.01499999999999999944, -0.03475378203227934976, 0.02599999999999999881 ) ) ;
#413 = VERTEX_POINT ( 'NONE', #447 ) ;
#414 = CARTESIAN_POINT ( 'NONE',  ( 0.000000000000000000, 0.000000000000000000, 0.02000000000000004552 ) ) ;
#415 = ORIENTED_EDGE ( 'NONE', *, *, #350, .F. ) ;
#416 = VECTOR ( 'NONE', #455, 1.000000000000000000 ) ;
#417 = DIRECTION ( 'NONE',  ( 1.000000000000000000, 0.000000000000000000, 0.000000000000000000 ) ) ;
#418 = PLANE ( 'NONE',  #390 ) ;
#419 = ORIENTED_EDGE ( 'NONE', *, *, #245, .T. ) ;
#420 = CARTESIAN_POINT ( 'NONE',  ( 0.000000000000000000, 0.000000000000000000, 0.02599999999999999881 ) ) ;
#421 = CARTESIAN_POINT ( 'NONE',  ( -0.009499999999999999764, 0.000000000000000000, 0.02599999999999999881 ) ) ;
#422 = CALENDAR_DATE ( 2026, 12, 8 ) ;
#423 = CARTESIAN_POINT ( 'NONE',  ( 0.009499999999999999764, 1.163414459189985282E-18, 0.02599999999999999881 ) ) ;
#424 = PERSON_AND_ORGANIZATION ( #122, #394 ) ;
#425 = DIRECTION ( 'NONE',  ( -0.000000000000000000, -0.000000000000000000, -1.000000000000000000 ) ) ;
#426 = CARTESIAN_POINT ( 'NONE',  ( 0.01512321611419887440, -0.004981655259983308083, 0.02000000000000028838 ) ) ;
#427 = DIRECTION ( 'NONE',  ( 0.7993586418199493115, 0.6008541934178091015, 0.000000000000000000 ) ) ;
#428 = VERTEX_POINT ( 'NONE', #277 ) ;
#429 = CARTESIAN_POINT ( 'NONE',  ( 0.01962178197042925565, -0.02462180008086303773, 0.02599999999999999881 ) ) ;
#430 = AXIS2_PLACEMENT_3D ( 'NONE', #414, #496, #195 ) ;
#431 = AXIS2_PLACEMENT_3D ( 'NONE', #177, #171, #393 ) ;
#432 = ORIENTED_EDGE ( 'NONE', *, *, #204, .T. ) ;
#433 = DIRECTION ( 'NONE',  ( -1.000000000000000000, 0.000000000000000000, 5.581891561914691816E-15 ) ) ;
#434 = ORIENTED_EDGE ( 'NONE', *, *, #503, .F. ) ;
#435 = CARTESIAN_POINT ( 'NONE',  ( -0.009499999999999999764, 0.000000000000000000, 0.02599999999999999881 ) ) ;
#436 = CLOSED_SHELL ( 'NONE', ( #202, #329, #127, #257, #541, #80, #308, #408, #95, #242, #487, #181, #286, #543, #300 ) ) ;
#437 = ORIENTED_EDGE ( 'NONE', *, *, #466, .T. ) ;
#438 = FACE_BOUND ( 'NONE', #165, .T. ) ;
#439 = CIRCLE ( 'NONE', #216, 0.009499999999999999764 ) ;
#440 = ORIENTED_EDGE ( 'NONE', *, *, #160, .T. ) ;
#441 = AXIS2_PLACEMENT_3D ( 'NONE', #103, #443, #18 ) ;
#442 = EDGE_CURVE ( 'NONE', #220, #525, #439, .T. ) ;
#443 = DIRECTION ( 'NONE',  ( 1.000000000000000000, 0.000000000000000000, -0.000000000000000000 ) ) ;
#444 = EDGE_CURVE ( 'NONE', #100, #413, #188, .T. ) ;
#445 = DIRECTION ( 'NONE',  ( 1.000000000000000000, 0.000000000000000000, -5.551115123125782702E-15 ) ) ;
#446 = CC_DESIGN_SECURITY_CLASSIFICATION ( #208, ( #366 ) ) ;
#447 = CARTESIAN_POINT ( 'NONE',  ( 0.03500000000000000333, -0.02660740827231303923, 0.000000000000000000 ) ) ;
#448 = EDGE_LOOP ( 'NONE', ( #494, #522, #402, #157 ) ) ;
#449 = CC_DESIGN_PERSON_AND_ORGANIZATION_ASSIGNMENT ( #68, #250, ( #366 ) ) ;
#450 = CARTESIAN_POINT ( 'NONE',  ( 0.01499999999999999944, -0.01582961628842736654, 1.387778780781445676E-17 ) ) ;
#451 = EDGE_CURVE ( 'NONE', #376, #145, #558, .T. ) ;
#452 = DIRECTION ( 'NONE',  ( 0.000000000000000000, -1.000000000000000000, 0.000000000000000000 ) ) ;
#453 = APPROVAL_PERSON_ORGANIZATION ( #154, #223, #109 ) ;
#454 = DIRECTION ( 'NONE',  ( 5.581891561914691027E-15, 4.195742407367846646E-15, 1.000000000000000000 ) ) ;
#455 = DIRECTION ( 'NONE',  ( 0.7993586418199493115, 0.6008541934178091015, -6.982962677686265922E-15 ) ) ;
#456 = ORIENTED_EDGE ( 'NONE', *, *, #353, .F. ) ;
#457 = COORDINATED_UNIVERSAL_TIME_OFFSET ( 3, 0, .AHEAD. ) ;
#458 = ORIENTED_EDGE ( 'NONE', *, *, #463, .F. ) ;
#459 = AXIS2_PLACEMENT_3D ( 'NONE', #228, #361, #445 ) ;
#460 = ORIENTED_EDGE ( 'NONE', *, *, #102, .F. ) ;
#461 = APPROVAL_ROLE ( '' ) ;
#462 = FACE_OUTER_BOUND ( 'NONE', #448, .T. ) ;
#463 = EDGE_CURVE ( 'NONE', #87, #384, #96, .T. ) ;
#464 = APPROVAL_PERSON_ORGANIZATION ( #424, #167, #461 ) ;
#465 = CARTESIAN_POINT ( 'NONE',  ( 0.009499999999999999764, 1.163414459189985282E-18, 0.02599999999999999881 ) ) ;
#466 = EDGE_CURVE ( 'NONE', #413, #395, #253, .T. ) ;
#467 = CALENDAR_DATE ( 2026, 12, 8 ) ;
#468 = DIRECTION ( 'NONE',  ( -0.000000000000000000, -0.000000000000000000, -1.000000000000000000 ) ) ;
#469 = CC_DESIGN_PERSON_AND_ORGANIZATION_ASSIGNMENT ( #285, #292, ( #549 ) ) ;
#470 = AXIS2_PLACEMENT_3D ( 'NONE', #420, #25, #70 ) ;
#471 = CALENDAR_DATE ( 2026, 12, 8 ) ;
#472 = DIRECTION ( 'NONE',  ( 1.000000000000000000, 0.000000000000000000, 0.000000000000000000 ) ) ;
#473 = DIRECTION ( 'NONE',  ( -0.000000000000000000, -0.000000000000000000, -1.000000000000000000 ) ) ;
#474 = FACE_OUTER_BOUND ( 'NONE', #317, .T. ) ;
#475 = ORIENTED_EDGE ( 'NONE', *, *, #227, .F. ) ;
#476 = B_SPLINE_CURVE_WITH_KNOTS ( 'NONE', 3,
 ( #214, #429, #79, #224 ),
 .UNSPECIFIED., .F., .F.,
 ( 4, 4 ),
 ( 0.000000000000000000, 1.000000000000000000 ),
 .UNSPECIFIED. ) ;
#477 = CARTESIAN_POINT ( 'NONE',  ( 0.01499999999999999944, 0.000000000000000000, 0.02000000000000028838 ) ) ;
#478 = ORIENTED_EDGE ( 'NONE', *, *, #143, .T. ) ;
#479 = LINE ( 'NONE', #88, #189 ) ;
#480 = ORIENTED_EDGE ( 'NONE', *, *, #524, .T. ) ;
#481 = CARTESIAN_POINT ( 'NONE',  ( -0.01499999999999999944, 7.006684240490104451E-31, 0.02000000000000012879 ) ) ;
#482 = ORIENTED_EDGE ( 'NONE', *, *, #442, .T. ) ;
#483 = AXIS2_PLACEMENT_3D ( 'NONE', #391, #298, #309 ) ;
#484 = CARTESIAN_POINT ( 'NONE',  ( 0.01499999999999999944, 0.000000000000000000, 0.02599999999999999881 ) ) ;
#485 = VECTOR ( 'NONE', #251, 1.000000000000000000 ) ;
#486 = VERTEX_POINT ( 'NONE', #229 ) ;
#487 = ADVANCED_FACE ( 'NONE', ( #50 ), #490, .F. ) ;
#488 = CARTESIAN_POINT ( 'NONE',  ( 0.01499999999999999944, 0.000000000000000000, 0.000000000000000000 ) ) ;
#489 = CARTESIAN_POINT ( 'NONE',  ( 0.01539635239435994257, -0.007192062235570898659, 0.005999999999999951553 ) ) ;
#490 = B_SPLINE_SURFACE_WITH_KNOTS ( 'NONE', 3, 1, ( 
 ( #60, #91 ),
 ( #266, #55 ),
 ( #146, #450 ),
 ( #484, #363 ) ),
 .UNSPECIFIED., .F., .F., .F.,
 ( 4, 4 ),
 ( 2, 2 ),
 ( 0.000000000000000000, 1.000000000000000000 ),
 ( 0.000000000000000000, 1.000000000000000000 ),
 .UNSPECIFIED. ) ;
#491 = CARTESIAN_POINT ( 'NONE',  ( 0.01499999999999999944, -0.01582961628842736654, 0.000000000000000000 ) ) ;
#492 = ORIENTED_EDGE ( 'NONE', *, *, #204, .F. ) ;
#493 = DIRECTION ( 'NONE',  ( -1.000000000000000000, 0.000000000000000000, 5.608939238991676535E-15 ) ) ;
#494 = ORIENTED_EDGE ( 'NONE', *, *, #504, .T. ) ;
#495 = ORIENTED_EDGE ( 'NONE', *, *, #78, .T. ) ;
#496 = DIRECTION ( 'NONE',  ( 5.581891561914691027E-15, 4.195742407367846646E-15, 1.000000000000000000 ) ) ;
#497 = ORIENTED_EDGE ( 'NONE', *, *, #209, .F. ) ;
#498 = PERSON_AND_ORGANIZATION_ROLE ( 'design_supplier' ) ;
#499 = DIRECTION ( 'NONE',  ( 0.000000000000000000, 0.000000000000000000, 1.000000000000000000 ) ) ;
#500 = VERTEX_POINT ( 'NONE', #57 ) ;
#501 = PERSON_AND_ORGANIZATION_ROLE ( 'design_owner' ) ;
#502 = DIRECTION ( 'NONE',  ( -1.000000000000000000, 0.000000000000000000, 0.000000000000000000 ) ) ;
#503 = EDGE_CURVE ( 'NONE', #365, #45, #313, .T. ) ;
#504 = EDGE_CURVE ( 'NONE', #486, #397, #226, .T. ) ;
#505 = FACE_OUTER_BOUND ( 'NONE', #183, .T. ) ;
#506 = APPLICATION_PROTOCOL_DEFINITION ( 'international standard', 'config_control_design', 1994, #306 ) ;
#507 = DIRECTION ( 'NONE',  ( -4.403336030377551251E-45, 1.000000000000000000, -4.195742407367846646E-15 ) ) ;
#508 = EDGE_LOOP ( 'NONE', ( #440, #197, #155, #321, #299, #153, #359, #458 ) ) ;
#509 = MECHANICAL_CONTEXT ( 'NONE', #336, 'mechanical' ) ;
#510 = LINE ( 'NONE', #110, #73 ) ;
#511 = VECTOR ( 'NONE', #190, 1.000000000000000000 ) ;
#512 = FACE_OUTER_BOUND ( 'NONE', #407, .T. ) ;
#513 = AXIS2_PLACEMENT_3D ( 'NONE', #316, #182, #191 ) ;
#514 = CYLINDRICAL_SURFACE ( 'NONE', #483, 0.009499999999999999764 ) ;
#515 = DIRECTION ( 'NONE',  ( 0.000000000000000000, 0.000000000000000000, 1.000000000000000000 ) ) ;
#516 = ORIENTED_EDGE ( 'NONE', *, *, #504, .F. ) ;
#517 = CARTESIAN_POINT ( 'NONE',  ( -0.01897242969048688888, -0.03302605683820199201, 0.02000000000000028838 ) ) ;
#518 = ORIENTED_EDGE ( 'NONE', *, *, #444, .F. ) ;
#519 = DIRECTION ( 'NONE',  ( 1.000000000000000000, 0.000000000000000000, 0.000000000000000000 ) ) ;
#520 = APPROVAL_PERSON_ORGANIZATION ( #385, #279, #210 ) ;
#521 = CC_DESIGN_DATE_AND_TIME_ASSIGNMENT ( #548, #247, ( #549 ) ) ;
#522 = ORIENTED_EDGE ( 'NONE', *, *, #22, .T. ) ;
#523 = FACE_BOUND ( 'NONE', #352, .T. ) ;
#524 = EDGE_CURVE ( 'NONE', #337, #23, #15, .T. ) ;
#525 = VERTEX_POINT ( 'NONE', #236 ) ;
#526 = DIRECTION ( 'NONE',  ( 1.000000000000000000, 0.000000000000000000, -5.581891561914691027E-15 ) ) ;
#527 = AXIS2_PLACEMENT_3D ( 'NONE', #205, #546, #472 ) ;
#528 = CARTESIAN_POINT ( 'NONE',  ( -0.01499999999999999944, 0.000000000000000000, 0.000000000000000000 ) ) ;
#529 = CARTESIAN_POINT ( 'NONE',  ( 0.01962178197042925565, -0.02462180008086303773, 0.000000000000000000 ) ) ;
#530 = AXIS2_PLACEMENT_3D ( 'NONE', #280, #166, #26 ) ;
#531 = ORIENTED_EDGE ( 'NONE', *, *, #364, .T. ) ;
#532 = DIRECTION ( 'NONE',  ( 0.000000000000000000, -1.000000000000000000, 0.000000000000000000 ) ) ;
#533 = LINE ( 'NONE', #536, #35 ) ;
#534 = ORIENTED_EDGE ( 'NONE', *, *, #141, .F. ) ;
#535 = DIRECTION ( 'NONE',  ( -1.000000000000000000, 0.000000000000000000, 5.569375370241328165E-15 ) ) ;
#536 = CARTESIAN_POINT ( 'NONE',  ( -0.01499999999999999944, -0.03475378203227934976, 0.000000000000000000 ) ) ;
#537 = EDGE_LOOP ( 'NONE', ( #303, #259, #516, #149, #176, #437, #356, #432 ) ) ;
#538 = CARTESIAN_POINT ( 'NONE',  ( 0.000000000000000000, 0.000000000000000000, 0.02000000000000004552 ) ) ;
#539 = ORIENTED_EDGE ( 'NONE', *, *, #524, .F. ) ;
#540 = ORIENTED_EDGE ( 'NONE', *, *, #442, .F. ) ;
#541 = ADVANCED_FACE ( 'NONE', ( #12, #438 ), #233, .T. ) ;
#542 = DIRECTION ( 'NONE',  ( -0.000000000000000000, 9.106751086018065632E-18, -1.000000000000000000 ) ) ;
#543 = ADVANCED_FACE ( 'NONE', ( #272, #360 ), #369, .F. ) ;
#544 = CC_DESIGN_APPROVAL ( #279, ( #208 ) ) ;
#545 = COORDINATED_UNIVERSAL_TIME_OFFSET ( 3, 0, .AHEAD. ) ;
#546 = DIRECTION ( 'NONE',  ( 0.000000000000000000, 0.000000000000000000, 1.000000000000000000 ) ) ;
#547 = ORIENTED_EDGE ( 'NONE', *, *, #551, .F. ) ;
#548 = DATE_AND_TIME ( #467, #289 ) ;
#549 = PRODUCT_DEFINITION ( 'UNKNOWN', '', #366, #108 ) ;
#550 = LINE ( 'NONE', #423, #194 ) ;
#551 = EDGE_CURVE ( 'NONE', #281, #49, #133, .T. ) ;
#552 = VERTEX_POINT ( 'NONE', #99 ) ;
#553 = CYLINDRICAL_SURFACE ( 'NONE', #555, 0.01499999999999999944 ) ;
#554 = DIRECTION ( 'NONE',  ( -0.000000000000000000, -0.000000000000000000, -1.000000000000000000 ) ) ;
#555 = AXIS2_PLACEMENT_3D ( 'NONE', #339, #425, #21 ) ;
#556 = LINE ( 'NONE', #48, #116 ) ;
#557 = MANIFOLD_SOLID_BREP ( 'Cut-Extrude2', #436 ) ;
#558 = CIRCLE ( 'NONE', #199, 0.009499999999999999764 ) ;
#559 = CARTESIAN_POINT ( 'NONE',  ( -0.009499999999999999764, 0.000000000000000000, 0.000000000000000000 ) ) ;
#560 = EDGE_CURVE ( 'NONE', #145, #376, #76, .T. ) ;
#561 = EDGE_LOOP ( 'NONE', ( #278, #419, #192, #136 ) ) ;
#562 = EDGE_CURVE ( 'NONE', #94, #267, #172, .T. ) ;
ENDSEC;
END-ISO-10303-21;
