ISO-10303-21;
HEADER;
FILE_DESCRIPTION (( 'STEP AP203' ),
    '1' );
FILE_NAME ('Motor Holder .STEP',
    '2026-08-12T09:44:26',
    ( '' ),
    ( '' ),
    'SwSTEP 2.0',
    'SolidWorks 2025',
    '' );
FILE_SCHEMA (( 'CONFIG_CONTROL_DESIGN' ));
ENDSEC;

DATA;
#1 = PLANE ( 'NONE',  #2 ) ;
#2 = AXIS2_PLACEMENT_3D ( 'NONE', #218, #92, #447 ) ;
#3 = APPROVAL_STATUS ( 'not_yet_approved' ) ;
#4 = CIRCLE ( 'NONE', #412, 0.02000000000000000042 ) ;
#5 = CARTESIAN_POINT ( 'NONE',  ( -0.01918530197281676647, -0.005650149397302087206, 0.007000000000000000146 ) ) ;
#6 = ORIENTED_EDGE ( 'NONE', *, *, #553, .F. ) ;
#7 = CARTESIAN_POINT ( 'NONE',  ( -0.02451783709850477791, -0.009650149397302087290, 0.01099999999999999763 ) ) ;
#8 = ORIENTED_EDGE ( 'NONE', *, *, #85, .F. ) ;
#9 = EDGE_CURVE ( 'NONE', #601, #253, #473, .T. ) ;
#10 = CARTESIAN_POINT ( 'NONE',  ( 0.000000000000000000, 0.000000000000000000, 0.000000000000000000 ) ) ;
#11 = FACE_OUTER_BOUND ( 'NONE', #68, .T. ) ;
#12 = VERTEX_POINT ( 'NONE', #81 ) ;
#13 = ORIENTED_EDGE ( 'NONE', *, *, #698, .T. ) ;
#14 = CIRCLE ( 'NONE', #434, 0.02000000000000000042 ) ;
#15 = CALENDAR_DATE ( 2026, 12, 8 ) ;
#16 = AXIS2_PLACEMENT_3D ( 'NONE', #623, #340, #343 ) ;
#17 = CARTESIAN_POINT ( 'NONE',  ( -0.02451783709850477791, -0.005650149397302087206, 0.01099999999999999763 ) ) ;
#18 = ORIENTED_EDGE ( 'NONE', *, *, #290, .T. ) ;
#19 = CARTESIAN_POINT ( 'NONE',  ( 0.03951783709850477389, -0.005650149397302087206, 0.01099999999999999589 ) ) ;
#20 = ADVANCED_FACE ( 'NONE', ( #88 ), #310, .T. ) ;
#21 = ORIENTED_EDGE ( 'NONE', *, *, #503, .F. ) ;
#22 = DIRECTION ( 'NONE',  ( 0.000000000000000000, 0.000000000000000000, 1.000000000000000000 ) ) ;
#23 = VERTEX_POINT ( 'NONE', #77 ) ;
#24 = CYLINDRICAL_SURFACE ( 'NONE', #163, 0.02000000000000000042 ) ;
#25 = PLANE ( 'NONE',  #363 ) ;
#26 = PRODUCT_RELATED_PRODUCT_CATEGORY ( 'detail', '', ( #386 ) ) ;
#27 = LINE ( 'NONE', #474, #683 ) ;
#28 = DIRECTION ( 'NONE',  ( -1.000000000000000000, 0.000000000000000000, 0.000000000000000000 ) ) ;
#29 = FACE_OUTER_BOUND ( 'NONE', #86, .T. ) ;
#30 = ORIENTED_EDGE ( 'NONE', *, *, #485, .T. ) ;
#31 = ORIENTED_EDGE ( 'NONE', *, *, #681, .T. ) ;
#32 = EDGE_CURVE ( 'NONE', #265, #356, #250, .T. ) ;
#33 = DIRECTION ( 'NONE',  ( 0.000000000000000000, -1.000000000000000000, 0.000000000000000000 ) ) ;
#34 = EDGE_CURVE ( 'NONE', #133, #627, #193, .T. ) ;
#35 = DIRECTION ( 'NONE',  ( 0.000000000000000000, -1.000000000000000000, 0.000000000000000000 ) ) ;
#36 = CIRCLE ( 'NONE', #328, 0.02000000000000000042 ) ;
#37 = VECTOR ( 'NONE', #315, 1.000000000000000000 ) ;
#38 = VERTEX_POINT ( 'NONE', #639 ) ;
#39 = CARTESIAN_POINT ( 'NONE',  ( 0.02451783709850477444, -0.005650149397302087206, 0.006999999999999998411 ) ) ;
#40 = CARTESIAN_POINT ( 'NONE',  ( -0.02451783709850477791, -0.009650149397302087290, 0.01099999999999999763 ) ) ;
#41 = EDGE_CURVE ( 'NONE', #590, #526, #699, .T. ) ;
#42 = ORIENTED_EDGE ( 'NONE', *, *, #219, .T. ) ;
#43 = DIRECTION ( 'NONE',  ( 1.000000000000000000, 0.000000000000000000, -0.000000000000000000 ) ) ;
#44 = DIRECTION ( 'NONE',  ( -1.000000000000000000, 0.000000000000000000, -1.156482317317871725E-16 ) ) ;
#45 = ORIENTED_EDGE ( 'NONE', *, *, #219, .F. ) ;
#46 = DIRECTION ( 'NONE',  ( 8.673617379884037444E-16, 0.000000000000000000, 1.000000000000000000 ) ) ;
#47 = DIRECTION ( 'NONE',  ( 0.000000000000000000, 0.000000000000000000, 1.000000000000000000 ) ) ;
#48 = VECTOR ( 'NONE', #379, 1.000000000000000000 ) ;
#49 = AXIS2_PLACEMENT_3D ( 'NONE', #665, #280, #626 ) ;
#50 = ORIENTED_EDGE ( 'NONE', *, *, #339, .F. ) ;
#51 = PRODUCT_DEFINITION_FORMATION_WITH_SPECIFIED_SOURCE ( 'ANY', '', #386, .NOT_KNOWN. ) ;
#52 = DIRECTION ( 'NONE',  ( -0.000000000000000000, -0.000000000000000000, -1.000000000000000000 ) ) ;
#53 = FACE_BOUND ( 'NONE', #224, .T. ) ;
#54 = CARTESIAN_POINT ( 'NONE',  ( 0.03951783709850477389, -0.005650149397302087206, -0.004000000000000001818 ) ) ;
#55 = CARTESIAN_POINT ( 'NONE',  ( -0.02451783709850477444, -0.009650149397302087290, -0.004000000000000001818 ) ) ;
#56 = EDGE_CURVE ( 'NONE', #526, #512, #686, .T. ) ;
#57 = CARTESIAN_POINT ( 'NONE',  ( 0.000000000000000000, 0.000000000000000000, 0.007000000000000000146 ) ) ;
#58 = EDGE_CURVE ( 'NONE', #641, #341, #528, .T. ) ;
#59 = DIRECTION ( 'NONE',  ( 1.000000000000000000, 0.000000000000000000, 0.000000000000000000 ) ) ;
#60 = VERTEX_POINT ( 'NONE', #297 ) ;
#61 = APPLICATION_PROTOCOL_DEFINITION ( 'international standard', 'config_control_design', 1994, #65 ) ;
#62 = DIRECTION ( 'NONE',  ( -8.673617379884037444E-16, 0.000000000000000000, 1.000000000000000000 ) ) ;
#63 = ORIENTED_EDGE ( 'NONE', *, *, #451, .T. ) ;
#64 = APPROVAL_STATUS ( 'not_yet_approved' ) ;
#65 = APPLICATION_CONTEXT ( 'configuration controlled 3d designs of mechanical parts and assemblies' ) ;
#66 = DIRECTION ( 'NONE',  ( 0.000000000000000000, 0.000000000000000000, 1.000000000000000000 ) ) ;
#67 = ORIENTED_EDGE ( 'NONE', *, *, #633, .T. ) ;
#68 = EDGE_LOOP ( 'NONE', ( #418, #566, #358, #678 ) ) ;
#69 = FACE_OUTER_BOUND ( 'NONE', #708, .T. ) ;
#70 = VECTOR ( 'NONE', #413, 1.000000000000000000 ) ;
#71 = FACE_OUTER_BOUND ( 'NONE', #350, .T. ) ;
#72 = LOCAL_TIME ( 12, 44, 26.00000000000000000, #286 ) ;
#73 = ORIENTED_EDGE ( 'NONE', *, *, #90, .F. ) ;
#74 = LINE ( 'NONE', #524, #389 ) ;
#75 = DIRECTION ( 'NONE',  ( -0.000000000000000000, -0.000000000000000000, -1.000000000000000000 ) ) ;
#76 = LINE ( 'NONE', #368, #562 ) ;
#77 = CARTESIAN_POINT ( 'NONE',  ( 0.01918530197281676647, -0.005650149397302087206, 0.007000000000000000146 ) ) ;
#78 = APPROVAL_STATUS ( 'not_yet_approved' ) ;
#79 = DIRECTION ( 'NONE',  ( -0.000000000000000000, 1.000000000000000000, 0.000000000000000000 ) ) ;
#80 = VECTOR ( 'NONE', #181, 1.000000000000000000 ) ;
#81 = CARTESIAN_POINT ( 'NONE',  ( 0.03951783709850477389, -0.009650149397302087290, -0.004000000000000001818 ) ) ;
#82 = CARTESIAN_POINT ( 'NONE',  ( 0.02451783709850477791, -0.005650149397302087206, 0.01099999999999999763 ) ) ;
#83 = LINE ( 'NONE', #242, #573 ) ;
#84 = ADVANCED_FACE ( 'NONE', ( #484 ), #25, .T. ) ;
#85 = EDGE_CURVE ( 'NONE', #341, #201, #83, .T. ) ;
#86 = EDGE_LOOP ( 'NONE', ( #117, #471, #593, #31 ) ) ;
#87 = DIRECTION ( 'NONE',  ( -0.000000000000000000, -0.000000000000000000, -1.000000000000000000 ) ) ;
#88 = FACE_OUTER_BOUND ( 'NONE', #114, .T. ) ;
#89 = ORIENTED_EDGE ( 'NONE', *, *, #41, .T. ) ;
#90 = EDGE_CURVE ( 'NONE', #526, #23, #307, .T. ) ;
#91 = CARTESIAN_POINT ( 'NONE',  ( 0.03951783709850477389, -0.005650149397302087206, 0.01099999999999999589 ) ) ;
#92 = DIRECTION ( 'NONE',  ( -1.000000000000000000, 0.000000000000000000, -0.000000000000000000 ) ) ;
#93 = VECTOR ( 'NONE', #44, 1.000000000000000000 ) ;
#94 = VECTOR ( 'NONE', #654, 1.000000000000000000 ) ;
#95 = VECTOR ( 'NONE', #205, 1.000000000000000000 ) ;
#96 = VERTEX_POINT ( 'NONE', #606 ) ;
#97 = LINE ( 'NONE', #91, #618 ) ;
#98 = DIRECTION ( 'NONE',  ( 0.000000000000000000, 0.000000000000000000, 1.000000000000000000 ) ) ;
#99 = ORIENTED_EDGE ( 'NONE', *, *, #577, .F. ) ;
#100 = DIRECTION ( 'NONE',  ( 0.000000000000000000, 0.000000000000000000, 1.000000000000000000 ) ) ;
#101 = CARTESIAN_POINT ( 'NONE',  ( 0.01751783709850477516, -0.009650149397302087290, 0.007000000000000000146 ) ) ;
#102 = ORIENTED_EDGE ( 'NONE', *, *, #34, .F. ) ;
#103 = CARTESIAN_POINT ( 'NONE',  ( -0.02451783709850477444, -0.005650149397302087206, -0.004000000000000001818 ) ) ;
#104 = PLANE ( 'NONE',  #220 ) ;
#105 = VECTOR ( 'NONE', #349, 1.000000000000000000 ) ;
#106 = DIRECTION ( 'NONE',  ( 0.000000000000000000, -1.000000000000000000, 0.000000000000000000 ) ) ;
#107 = CARTESIAN_POINT ( 'NONE',  ( -0.02000000000000000042, 0.000000000000000000, 0.007000000000000000146 ) ) ;
#108 = EDGE_CURVE ( 'NONE', #133, #406, #491, .T. ) ;
#109 = EDGE_CURVE ( 'NONE', #564, #304, #260, .T. ) ;
#110 = CARTESIAN_POINT ( 'NONE',  ( -0.02451783709850477444, -0.009650149397302087290, 0.006999999999999998411 ) ) ;
#111 = CALENDAR_DATE ( 2026, 12, 8 ) ;
#112 = ADVANCED_FACE ( 'NONE', ( #660, #53 ), #104, .T. ) ;
#113 = LINE ( 'NONE', #118, #398 ) ;
#114 = EDGE_LOOP ( 'NONE', ( #50, #684, #13, #281 ) ) ;
#115 = PLANE ( 'NONE',  #551 ) ;
#116 = CARTESIAN_POINT ( 'NONE',  ( -0.02451783709850477444, -0.009650149397302087290, -0.004000000000000001818 ) ) ;
#117 = ORIENTED_EDGE ( 'NONE', *, *, #264, .F. ) ;
#118 = CARTESIAN_POINT ( 'NONE',  ( -0.03951783709850477389, -0.009650149397302087290, 0.01099999999999999589 ) ) ;
#119 = VERTEX_POINT ( 'NONE', #431 ) ;
#120 = ORIENTED_EDGE ( 'NONE', *, *, #558, .T. ) ;
#121 = DATE_TIME_ROLE ( 'creation_date' ) ;
#122 = CARTESIAN_POINT ( 'NONE',  ( 0.03951783709850477389, -0.009650149397302087290, 0.01099999999999999589 ) ) ;
#123 = ORIENTED_EDGE ( 'NONE', *, *, #292, .T. ) ;
#124 = VECTOR ( 'NONE', #692, 1.000000000000000000 ) ;
#125 = VECTOR ( 'NONE', #129, 1.000000000000000000 ) ;
#126 = CARTESIAN_POINT ( 'NONE',  ( 0.02451783709850477444, -0.005650149397302087206, -0.004000000000000001818 ) ) ;
#127 = APPROVAL_PERSON_ORGANIZATION ( #513, #621, #667 ) ;
#128 = ORIENTED_EDGE ( 'NONE', *, *, #661, .F. ) ;
#129 = DIRECTION ( 'NONE',  ( 1.000000000000000000, 0.000000000000000000, -2.813634081744315806E-16 ) ) ;
#130 = VERTEX_POINT ( 'NONE', #160 ) ;
#131 = CC_DESIGN_DATE_AND_TIME_ASSIGNMENT ( #510, #236, ( #247 ) ) ;
#132 = PLANE ( 'NONE',  #448 ) ;
#133 = VERTEX_POINT ( 'NONE', #153 ) ;
#134 = VECTOR ( 'NONE', #664, 1.000000000000000000 ) ;
#135 = CARTESIAN_POINT ( 'NONE',  ( 0.02451783709850477444, -0.005650149397302087206, -0.004000000000000001818 ) ) ;
#136 = CIRCLE ( 'NONE', #481, 0.006000000000000000125 ) ;
#137 = DIRECTION ( 'NONE',  ( 0.000000000000000000, -1.000000000000000000, 0.000000000000000000 ) ) ;
#138 = CC_DESIGN_APPROVAL ( #443, ( #51 ) ) ;
#139 = ORIENTED_EDGE ( 'NONE', *, *, #183, .F. ) ;
#140 = PERSON_AND_ORGANIZATION ( #432, #464 ) ;
#141 = DIRECTION ( 'NONE',  ( -8.673617379884037444E-16, 0.000000000000000000, 1.000000000000000000 ) ) ;
#142 = ORIENTED_EDGE ( 'NONE', *, *, #424, .F. ) ;
#143 = EDGE_CURVE ( 'NONE', #23, #210, #388, .T. ) ;
#144 = VERTEX_POINT ( 'NONE', #107 ) ;
#145 = DIRECTION ( 'NONE',  ( -0.000000000000000000, 0.000000000000000000, -1.000000000000000000 ) ) ;
#146 = CARTESIAN_POINT ( 'NONE',  ( 0.02451783709850477444, -0.005650149397302087206, 0.006999999999999998411 ) ) ;
#147 = VERTEX_POINT ( 'NONE', #556 ) ;
#148 = CARTESIAN_POINT ( 'NONE',  ( -0.02451783709850477791, -0.005650149397302087206, 0.01099999999999999763 ) ) ;
#149 = DIRECTION ( 'NONE',  ( 0.000000000000000000, 0.000000000000000000, 1.000000000000000000 ) ) ;
#150 = VECTOR ( 'NONE', #646, 1.000000000000000000 ) ;
#151 = ORIENTED_EDGE ( 'NONE', *, *, #535, .T. ) ;
#152 = DIRECTION ( 'NONE',  ( 1.000000000000000000, -0.000000000000000000, -0.000000000000000000 ) ) ;
#153 = CARTESIAN_POINT ( 'NONE',  ( -0.03951783709850477389, -0.005650149397302087206, 0.01099999999999999589 ) ) ;
#154 = CC_DESIGN_PERSON_AND_ORGANIZATION_ASSIGNMENT ( #404, #170, ( #600 ) ) ;
#155 = ORIENTED_EDGE ( 'NONE', *, *, #339, .T. ) ;
#156 = DIRECTION ( 'NONE',  ( -1.000000000000000000, 0.000000000000000000, 8.673617379884037444E-16 ) ) ;
#157 = EDGE_CURVE ( 'NONE', #119, #304, #215, .T. ) ;
#158 = DIRECTION ( 'NONE',  ( -1.000000000000000000, -0.000000000000000000, 1.156482317317871725E-16 ) ) ;
#159 = PLANE ( 'NONE',  #596 ) ;
#160 = CARTESIAN_POINT ( 'NONE',  ( -0.01918530197281676647, -0.005650149397302087206, -4.691636000475719226E-19 ) ) ;
#161 = ADVANCED_FACE ( 'NONE', ( #548 ), #488, .T. ) ;
#162 = EDGE_CURVE ( 'NONE', #23, #265, #36, .T. ) ;
#163 = AXIS2_PLACEMENT_3D ( 'NONE', #472, #685, #302 ) ;
#164 = PERSON_AND_ORGANIZATION ( #432, #464 ) ;
#165 = CARTESIAN_POINT ( 'NONE',  ( 0.01918530197281676647, -0.005650149397302087206, 0.000000000000000000 ) ) ;
#166 = EDGE_CURVE ( 'NONE', #631, #96, #500, .T. ) ;
#167 = PERSON_AND_ORGANIZATION_ROLE ( 'classification_officer' ) ;
#168 = DIRECTION ( 'NONE',  ( -1.000000000000000000, 0.000000000000000000, -1.156482317317871725E-16 ) ) ;
#169 = ORIENTED_EDGE ( 'NONE', *, *, #498, .T. ) ;
#170 = PERSON_AND_ORGANIZATION_ROLE ( 'creator' ) ;
#171 = CYLINDRICAL_SURFACE ( 'NONE', #49, 0.02000000000000000042 ) ;
#172 = EDGE_LOOP ( 'NONE', ( #45, #258, #89, #534 ) ) ;
#173 = VECTOR ( 'NONE', #585, 1.000000000000000000 ) ;
#174 =( NAMED_UNIT ( * ) PLANE_ANGLE_UNIT ( ) SI_UNIT ( $, .RADIAN. ) );
#175 = DIRECTION ( 'NONE',  ( 0.000000000000000000, 0.000000000000000000, 1.000000000000000000 ) ) ;
#176 = ORIENTED_EDGE ( 'NONE', *, *, #347, .T. ) ;
#177 = ORIENTED_EDGE ( 'NONE', *, *, #554, .F. ) ;
#178 = PERSON_AND_ORGANIZATION_ROLE ( 'design_owner' ) ;
#179 = LINE ( 'NONE', #405, #105 ) ;
#180 = ORIENTED_EDGE ( 'NONE', *, *, #109, .F. ) ;
#181 = DIRECTION ( 'NONE',  ( -0.000000000000000000, -0.000000000000000000, -1.000000000000000000 ) ) ;
#182 = ORIENTED_EDGE ( 'NONE', *, *, #610, .T. ) ;
#183 = EDGE_CURVE ( 'NONE', #210, #356, #14, .T. ) ;
#184 = ADVANCED_FACE ( 'NONE', ( #275 ), #1, .T. ) ;
#185 = VECTOR ( 'NONE', #158, 1.000000000000000000 ) ;
#186 = AXIS2_PLACEMENT_3D ( 'NONE', #710, #214, #271 ) ;
#187 = DIRECTION ( 'NONE',  ( 0.000000000000000000, 0.000000000000000000, 1.000000000000000000 ) ) ;
#188 = VECTOR ( 'NONE', #106, 1.000000000000000000 ) ;
#189 = CARTESIAN_POINT ( 'NONE',  ( 0.000000000000000000, 0.000000000000000000, 0.007000000000000000146 ) ) ;
#190 = CARTESIAN_POINT ( 'NONE',  ( -4.284434207737736056E-20, 0.008349850602697913085, 0.000000000000000000 ) ) ;
#191 = DIRECTION ( 'NONE',  ( 0.000000000000000000, -0.000000000000000000, 1.000000000000000000 ) ) ;
#192 = DIRECTION ( 'NONE',  ( 1.000000000000000000, 0.000000000000000000, 8.673617379884037444E-16 ) ) ;
#193 = LINE ( 'NONE', #300, #586 ) ;
#194 = ORIENTED_EDGE ( 'NONE', *, *, #503, .T. ) ;
#195 = CARTESIAN_POINT ( 'NONE',  ( 0.006000000000000000125, 0.008349850602697913085, 0.000000000000000000 ) ) ;
#196 = AXIS2_PLACEMENT_3D ( 'NONE', #10, #455, #458 ) ;
#197 = EDGE_LOOP ( 'NONE', ( #673, #420, #457, #308, #235, #155, #323, #653 ) ) ;
#198 = VERTEX_POINT ( 'NONE', #322 ) ;
#199 = CARTESIAN_POINT ( 'NONE',  ( -4.284434207737736056E-20, 0.008349850602697913085, 0.007000000000000000146 ) ) ;
#200 = CARTESIAN_POINT ( 'NONE',  ( -0.02451783709850477444, -0.005650149397302087206, -1.969543857221020534E-18 ) ) ;
#201 = VERTEX_POINT ( 'NONE', #651 ) ;
#202 = CARTESIAN_POINT ( 'NONE',  ( -0.01918530197281676647, -0.005650149397302087206, 0.007000000000000000146 ) ) ;
#203 = CARTESIAN_POINT ( 'NONE',  ( 0.000000000000000000, 0.000000000000000000, 0.007000000000000000146 ) ) ;
#204 = VERTEX_POINT ( 'NONE', #545 ) ;
#205 = DIRECTION ( 'NONE',  ( 0.000000000000000000, -1.000000000000000000, 0.000000000000000000 ) ) ;
#206 = CC_DESIGN_DATE_AND_TIME_ASSIGNMENT ( #504, #121, ( #600 ) ) ;
#207 = PLANE ( 'NONE',  #693 ) ;
#208 = VECTOR ( 'NONE', #226, 1.000000000000000000 ) ;
#209 = ADVANCED_FACE ( 'NONE', ( #497 ), #207, .F. ) ;
#210 = VERTEX_POINT ( 'NONE', #165 ) ;
#211 = DIRECTION ( 'NONE',  ( 1.000000000000000000, 0.000000000000000000, 0.000000000000000000 ) ) ;
#212 = DIRECTION ( 'NONE',  ( -8.673617379884037444E-16, -0.000000000000000000, -1.000000000000000000 ) ) ;
#213 = EDGE_CURVE ( 'NONE', #38, #12, #319, .T. ) ;
#214 = DIRECTION ( 'NONE',  ( 0.000000000000000000, 0.000000000000000000, 1.000000000000000000 ) ) ;
#215 = LINE ( 'NONE', #55, #134 ) ;
#216 = EDGE_CURVE ( 'NONE', #284, #627, #445, .T. ) ;
#217 = DIRECTION ( 'NONE',  ( 1.000000000000000000, 0.000000000000000000, 0.000000000000000000 ) ) ;
#218 = CARTESIAN_POINT ( 'NONE',  ( -0.03951783709850477389, -0.005650149397302087206, 0.01099999999999999589 ) ) ;
#219 = EDGE_CURVE ( 'NONE', #704, #512, #713, .T. ) ;
#220 = AXIS2_PLACEMENT_3D ( 'NONE', #203, #47, #595 ) ;
#221 = CIRCLE ( 'NONE', #630, 0.006000000000000000125 ) ;
#222 = PERSON_AND_ORGANIZATION ( #432, #464 ) ;
#223 = LINE ( 'NONE', #110, #269 ) ;
#224 = EDGE_LOOP ( 'NONE', ( #575, #701 ) ) ;
#225 = DIRECTION ( 'NONE',  ( 0.000000000000000000, 0.000000000000000000, -1.000000000000000000 ) ) ;
#226 = DIRECTION ( 'NONE',  ( 0.000000000000000000, -1.000000000000000000, 0.000000000000000000 ) ) ;
#227 = ORIENTED_EDGE ( 'NONE', *, *, #108, .T. ) ;
#228 = DATE_AND_TIME ( #282, #563 ) ;
#229 = PLANE ( 'NONE',  #436 ) ;
#230 = ORIENTED_EDGE ( 'NONE', *, *, #376, .T. ) ;
#231 = ORIENTED_EDGE ( 'NONE', *, *, #143, .T. ) ;
#232 = CARTESIAN_POINT ( 'NONE',  ( 0.02451783709850477791, -0.009650149397302087290, 0.01099999999999999763 ) ) ;
#233 = APPROVAL_PERSON_ORGANIZATION ( #140, #496, #583 ) ;
#234 = LINE ( 'NONE', #122, #671 ) ;
#235 = ORIENTED_EDGE ( 'NONE', *, *, #689, .T. ) ;
#236 = DATE_TIME_ROLE ( 'classification_date' ) ;
#237 = EDGE_CURVE ( 'NONE', #204, #590, #442, .T. ) ;
#238 = CARTESIAN_POINT ( 'NONE',  ( 0.000000000000000000, 0.000000000000000000, 0.000000000000000000 ) ) ;
#239 = ADVANCED_FACE ( 'NONE', ( #335 ), #565, .T. ) ;
#240 = ORIENTED_EDGE ( 'NONE', *, *, #576, .F. ) ;
#241 = DIRECTION ( 'NONE',  ( 1.000000000000000000, 0.000000000000000000, 0.000000000000000000 ) ) ;
#242 = CARTESIAN_POINT ( 'NONE',  ( 0.01751783709850477516, -0.009650149397302087290, 0.000000000000000000 ) ) ;
#243 = ADVANCED_FACE ( 'NONE', ( #521 ), #668, .F. ) ;
#244 = VECTOR ( 'NONE', #382, 1.000000000000000000 ) ;
#245 = VECTOR ( 'NONE', #682, 1.000000000000000000 ) ;
#246 = LINE ( 'NONE', #364, #245 ) ;
#247 = SECURITY_CLASSIFICATION ( '', '', #557 ) ;
#248 = ORIENTED_EDGE ( 'NONE', *, *, #108, .F. ) ;
#249 = FACE_OUTER_BOUND ( 'NONE', #644, .T. ) ;
#250 = LINE ( 'NONE', #688, #124 ) ;
#251 = DIRECTION ( 'NONE',  ( 0.000000000000000000, -1.000000000000000000, 0.000000000000000000 ) ) ;
#252 = ORIENTED_EDGE ( 'NONE', *, *, #371, .F. ) ;
#253 = VERTEX_POINT ( 'NONE', #459 ) ;
#254 = CARTESIAN_POINT ( 'NONE',  ( 0.02451783709850477444, -0.005650149397302087206, -0.004000000000000001818 ) ) ;
#255 = VECTOR ( 'NONE', #87, 1.000000000000000000 ) ;
#256 = CC_DESIGN_SECURITY_CLASSIFICATION ( #247, ( #51 ) ) ;
#257 = CARTESIAN_POINT ( 'NONE',  ( 0.02451783709850477444, -0.005650149397302087206, 0.006999999999999998411 ) ) ;
#258 = ORIENTED_EDGE ( 'NONE', *, *, #451, .F. ) ;
#259 = CARTESIAN_POINT ( 'NONE',  ( 0.02451783709850477791, -0.005650149397302087206, 0.01099999999999999763 ) ) ;
#260 = LINE ( 'NONE', #552, #48 ) ;
#261 = ORIENTED_EDGE ( 'NONE', *, *, #371, .T. ) ;
#262 = FACE_OUTER_BOUND ( 'NONE', #172, .T. ) ;
#263 = DIRECTION ( 'NONE',  ( -0.000000000000000000, 0.000000000000000000, -1.000000000000000000 ) ) ;
#264 = EDGE_CURVE ( 'NONE', #96, #284, #223, .T. ) ;
#265 = VERTEX_POINT ( 'NONE', #333 ) ;
#266 = CARTESIAN_POINT ( 'NONE',  ( -0.02451783709850477444, -0.005650149397302087206, 0.006999999999999998411 ) ) ;
#267 = CARTESIAN_POINT ( 'NONE',  ( -0.02451783709850477444, -0.005650149397302087206, -0.004000000000000001818 ) ) ;
#268 = VECTOR ( 'NONE', #137, 1.000000000000000000 ) ;
#269 = VECTOR ( 'NONE', #62, 1.000000000000000000 ) ;
#270 = VERTEX_POINT ( 'NONE', #5 ) ;
#271 = DIRECTION ( 'NONE',  ( 1.000000000000000000, 0.000000000000000000, 0.000000000000000000 ) ) ;
#272 = DIRECTION ( 'NONE',  ( 1.000000000000000000, 0.000000000000000000, 0.000000000000000000 ) ) ;
#273 = CARTESIAN_POINT ( 'NONE',  ( 0.006000000000000000125, 0.008349850602697913085, 0.007000000000000000146 ) ) ;
#274 = ADVANCED_FACE ( 'NONE', ( #11 ), #171, .T. ) ;
#275 = FACE_OUTER_BOUND ( 'NONE', #480, .T. ) ;
#276 = CARTESIAN_POINT ( 'NONE',  ( -4.284434207737736056E-20, 0.008349850602697913085, 0.007000000000000000146 ) ) ;
#277 = AXIS2_PLACEMENT_3D ( 'NONE', #511, #456, #393 ) ;
#278 = VECTOR ( 'NONE', #52, 1.000000000000000000 ) ;
#279 = CALENDAR_DATE ( 2026, 12, 8 ) ;
#280 = DIRECTION ( 'NONE',  ( -0.000000000000000000, -0.000000000000000000, -1.000000000000000000 ) ) ;
#281 = ORIENTED_EDGE ( 'NONE', *, *, #677, .T. ) ;
#282 = CALENDAR_DATE ( 2026, 12, 8 ) ;
#283 = CARTESIAN_POINT ( 'NONE',  ( 0.02451783709850477444, -0.005650149397302087206, -0.004000000000000001818 ) ) ;
#284 = VERTEX_POINT ( 'NONE', #7 ) ;
#285 = ADVANCED_FACE ( 'NONE', ( #396 ), #670, .T. ) ;
#286 = COORDINATED_UNIVERSAL_TIME_OFFSET ( 3, 0, .AHEAD. ) ;
#287 = DIRECTION ( 'NONE',  ( 1.000000000000000000, 0.000000000000000000, 0.000000000000000000 ) ) ;
#288 = ORIENTED_EDGE ( 'NONE', *, *, #508, .F. ) ;
#289 = VECTOR ( 'NONE', #168, 1.000000000000000000 ) ;
#290 = EDGE_CURVE ( 'NONE', #403, #198, #453, .T. ) ;
#291 = VECTOR ( 'NONE', #598, 1.000000000000000000 ) ;
#292 = EDGE_CURVE ( 'NONE', #204, #570, #617, .T. ) ;
#293 = CARTESIAN_POINT ( 'NONE',  ( -0.02451783709850477444, -0.009650149397302087290, -1.969543857221020534E-18 ) ) ;
#294 = ORIENTED_EDGE ( 'NONE', *, *, #58, .T. ) ;
#295 = CARTESIAN_POINT ( 'NONE',  ( 0.02451783709850477791, -0.009650149397302087290, 0.01099999999999999763 ) ) ;
#296 = EDGE_CURVE ( 'NONE', #60, #133, #401, .T. ) ;
#297 = CARTESIAN_POINT ( 'NONE',  ( -0.02451783709850477791, -0.005650149397302087206, 0.01099999999999999763 ) ) ;
#298 = DATE_AND_TIME ( #529, #437 ) ;
#299 = CARTESIAN_POINT ( 'NONE',  ( -4.284434207737736056E-20, 0.008349850602697913085, 0.007000000000000000146 ) ) ;
#300 = CARTESIAN_POINT ( 'NONE',  ( -0.03951783709850477389, -0.005650149397302087206, 0.01099999999999999589 ) ) ;
#301 = CIRCLE ( 'NONE', #186, 0.006000000000000000125 ) ;
#302 = DIRECTION ( 'NONE',  ( -1.000000000000000000, 0.000000000000000000, 0.000000000000000000 ) ) ;
#303 = APPROVAL_PERSON_ORGANIZATION ( #517, #443, #400 ) ;
#304 = VERTEX_POINT ( 'NONE', #116 ) ;
#305 = CC_DESIGN_PERSON_AND_ORGANIZATION_ASSIGNMENT ( #611, #332, ( #51 ) ) ;
#306 = CARTESIAN_POINT ( 'NONE',  ( 0.01751783709850477516, -0.005650149397302087206, 0.000000000000000000 ) ) ;
#307 = LINE ( 'NONE', #533, #362 ) ;
#308 = ORIENTED_EDGE ( 'NONE', *, *, #162, .T. ) ;
#309 = LINE ( 'NONE', #355, #694 ) ;
#310 = CYLINDRICAL_SURFACE ( 'NONE', #351, 0.02000000000000000042 ) ;
#311 = DESIGN_CONTEXT ( 'detailed design', #65, 'design' ) ;
#312 = ORIENTED_EDGE ( 'NONE', *, *, #216, .T. ) ;
#313 = EDGE_CURVE ( 'NONE', #627, #119, #113, .T. ) ;
#314 = VECTOR ( 'NONE', #331, 1.000000000000000000 ) ;
#315 = DIRECTION ( 'NONE',  ( 1.000000000000000000, -0.000000000000000000, 2.813634081744315806E-16 ) ) ;
#316 = ADVANCED_FACE ( 'NONE', ( #561, #679 ), #229, .F. ) ;
#317 = AXIS2_PLACEMENT_3D ( 'NONE', #591, #192, #421 ) ;
#318 = VECTOR ( 'NONE', #100, 1.000000000000000000 ) ;
#319 = LINE ( 'NONE', #542, #411 ) ;
#320 = ORIENTED_EDGE ( 'NONE', *, *, #162, .F. ) ;
#321 = CARTESIAN_POINT ( 'NONE',  ( 0.02451783709850477791, -0.005650149397302087206, 0.01099999999999999763 ) ) ;
#322 = CARTESIAN_POINT ( 'NONE',  ( 0.03951783709850477389, -0.005650149397302087206, -0.004000000000000001818 ) ) ;
#323 = ORIENTED_EDGE ( 'NONE', *, *, #345, .T. ) ;
#324 = CARTESIAN_POINT ( 'NONE',  ( 0.000000000000000000, 0.000000000000000000, 0.007000000000000000146 ) ) ;
#325 = DIRECTION ( 'NONE',  ( 0.000000000000000000, 0.000000000000000000, 1.000000000000000000 ) ) ;
#326 = ORIENTED_EDGE ( 'NONE', *, *, #677, .F. ) ;
#327 = CARTESIAN_POINT ( 'NONE',  ( -0.03951783709850477389, -0.009650149397302087290, 0.01099999999999999589 ) ) ;
#328 = AXIS2_PLACEMENT_3D ( 'NONE', #609, #98, #272 ) ;
#329 = DIRECTION ( 'NONE',  ( -0.000000000000000000, -0.000000000000000000, -1.000000000000000000 ) ) ;
#330 = LINE ( 'NONE', #202, #318 ) ;
#331 = DIRECTION ( 'NONE',  ( 0.000000000000000000, -1.000000000000000000, 0.000000000000000000 ) ) ;
#332 = PERSON_AND_ORGANIZATION_ROLE ( 'design_supplier' ) ;
#333 = CARTESIAN_POINT ( 'NONE',  ( 0.02000000000000000042, 2.449293598294706384E-18, 0.007000000000000000146 ) ) ;
#334 = COORDINATED_UNIVERSAL_TIME_OFFSET ( 3, 0, .AHEAD. ) ;
#335 = FACE_OUTER_BOUND ( 'NONE', #367, .T. ) ;
#336 = ORIENTED_EDGE ( 'NONE', *, *, #296, .T. ) ;
#337 = CC_DESIGN_PERSON_AND_ORGANIZATION_ASSIGNMENT ( #164, #616, ( #51 ) ) ;
#338 = LOCAL_TIME ( 12, 44, 26.00000000000000000, #395 ) ;
#339 = EDGE_CURVE ( 'NONE', #144, #270, #574, .T. ) ;
#340 = DIRECTION ( 'NONE',  ( -0.000000000000000000, -0.000000000000000000, -1.000000000000000000 ) ) ;
#341 = VERTEX_POINT ( 'NONE', #293 ) ;
#342 = DIRECTION ( 'NONE',  ( 1.000000000000000000, 0.000000000000000000, 0.000000000000000000 ) ) ;
#343 = DIRECTION ( 'NONE',  ( -1.000000000000000000, 0.000000000000000000, 0.000000000000000000 ) ) ;
#344 = EDGE_LOOP ( 'NONE', ( #402, #475, #336, #569 ) ) ;
#345 = EDGE_CURVE ( 'NONE', #270, #631, #391, .T. ) ;
#346 = ORIENTED_EDGE ( 'NONE', *, *, #661, .T. ) ;
#347 = EDGE_CURVE ( 'NONE', #12, #570, #234, .T. ) ;
#348 = DATE_AND_TIME ( #15, #338 ) ;
#349 = DIRECTION ( 'NONE',  ( 1.000000000000000000, -0.000000000000000000, -0.000000000000000000 ) ) ;
#350 = EDGE_LOOP ( 'NONE', ( #120, #30, #643, #372 ) ) ;
#351 = AXIS2_PLACEMENT_3D ( 'NONE', #189, #75, #28 ) ;
#352 = AXIS2_PLACEMENT_3D ( 'NONE', #547, #705, #650 ) ;
#353 =( GEOMETRIC_REPRESENTATION_CONTEXT ( 3 ) GLOBAL_UNCERTAINTY_ASSIGNED_CONTEXT ( ( #366 ) ) GLOBAL_UNIT_ASSIGNED_CONTEXT ( ( #674, #174, #465 ) ) REPRESENTATION_CONTEXT ( 'NONE', 'WORKASPACE' ) );
#354 = EDGE_CURVE ( 'NONE', #96, #512, #179, .T. ) ;
#355 = CARTESIAN_POINT ( 'NONE',  ( -0.02451783709850477444, -0.005650149397302087206, 0.006999999999999998411 ) ) ;
#356 = VERTEX_POINT ( 'NONE', #572 ) ;
#357 = PLANE ( 'NONE',  #652 ) ;
#358 = ORIENTED_EDGE ( 'NONE', *, *, #553, .T. ) ;
#359 = LINE ( 'NONE', #588, #80 ) ;
#360 = ORIENTED_EDGE ( 'NONE', *, *, #58, .F. ) ;
#361 = ADVANCED_BREP_SHAPE_REPRESENTATION ( 'Motor Holder ', ( #479, #196 ), #353 ) ;
#362 = VECTOR ( 'NONE', #374, 1.000000000000000000 ) ;
#363 = AXIS2_PLACEMENT_3D ( 'NONE', #423, #365, #191 ) ;
#364 = CARTESIAN_POINT ( 'NONE',  ( -0.02451783709850477444, -0.009650149397302087290, -0.004000000000000001818 ) ) ;
#365 = DIRECTION ( 'NONE',  ( 0.000000000000000000, 1.000000000000000000, 0.000000000000000000 ) ) ;
#366 = UNCERTAINTY_MEASURE_WITH_UNIT (LENGTH_MEASURE( 1.000000000000000082E-05 ), #674, 'distance_accuracy_value', 'NONE');
#367 = EDGE_LOOP ( 'NONE', ( #656, #380, #261, #462 ) ) ;
#368 = CARTESIAN_POINT ( 'NONE',  ( 0.02451783709850477444, -0.005650149397302087206, -0.004000000000000001818 ) ) ;
#369 = CARTESIAN_POINT ( 'NONE',  ( -0.006000000000000000125, 0.008349850602697913085, 0.007000000000000000146 ) ) ;
#370 = ADVANCED_FACE ( 'NONE', ( #71 ), #559, .F. ) ;
#371 = EDGE_CURVE ( 'NONE', #467, #403, #532, .T. ) ;
#372 = ORIENTED_EDGE ( 'NONE', *, *, #9, .F. ) ;
#373 = FACE_OUTER_BOUND ( 'NONE', #579, .T. ) ;
#374 = DIRECTION ( 'NONE',  ( -1.000000000000000000, -0.000000000000000000, 2.478176394252582127E-16 ) ) ;
#375 = EDGE_LOOP ( 'NONE', ( #666, #8, #360, #469, #531, #6, #139, #649 ) ) ;
#376 = EDGE_CURVE ( 'NONE', #414, #253, #221, .T. ) ;
#377 = LINE ( 'NONE', #697, #378 ) ;
#378 = VECTOR ( 'NONE', #657, 1.000000000000000000 ) ;
#379 = DIRECTION ( 'NONE',  ( 0.000000000000000000, -1.000000000000000000, 0.000000000000000000 ) ) ;
#380 = ORIENTED_EDGE ( 'NONE', *, *, #648, .F. ) ;
#381 = CARTESIAN_POINT ( 'NONE',  ( -0.01751783709850477516, -0.005650149397302087206, 0.000000000000000000 ) ) ;
#382 = DIRECTION ( 'NONE',  ( 0.000000000000000000, 0.000000000000000000, -1.000000000000000000 ) ) ;
#383 = ORIENTED_EDGE ( 'NONE', *, *, #313, .F. ) ;
#384 = CARTESIAN_POINT ( 'NONE',  ( 0.02451783709850477444, -0.005650149397302087206, -1.969543857221020534E-18 ) ) ;
#385 = CARTESIAN_POINT ( 'NONE',  ( -0.02451783709850477444, -0.005650149397302087206, 0.006999999999999998411 ) ) ;
#386 = PRODUCT ( 'Motor Holder ', 'Motor Holder ', '', ( #622 ) ) ;
#387 = CARTESIAN_POINT ( 'NONE',  ( -0.03951783709850477389, -0.005650149397302087206, -0.004000000000000001818 ) ) ;
#388 = LINE ( 'NONE', #706, #460 ) ;
#389 = VECTOR ( 'NONE', #638, 1.000000000000000000 ) ;
#390 = CARTESIAN_POINT ( 'NONE',  ( 0.03951783709850477389, -0.005650149397302087206, 0.01099999999999999589 ) ) ;
#391 = LINE ( 'NONE', #612, #419 ) ;
#392 = PERSON_AND_ORGANIZATION ( #432, #464 ) ;
#393 = DIRECTION ( 'NONE',  ( 0.000000000000000000, 0.000000000000000000, 1.000000000000000000 ) ) ;
#394 = ORIENTED_EDGE ( 'NONE', *, *, #41, .F. ) ;
#395 = COORDINATED_UNIVERSAL_TIME_OFFSET ( 3, 0, .AHEAD. ) ;
#396 = FACE_OUTER_BOUND ( 'NONE', #344, .T. ) ;
#397 = ORIENTED_EDGE ( 'NONE', *, *, #85, .T. ) ;
#398 = VECTOR ( 'NONE', #514, 1.000000000000000000 ) ;
#399 = CC_DESIGN_APPROVAL ( #621, ( #600 ) ) ;
#400 = APPROVAL_ROLE ( '' ) ;
#401 = LINE ( 'NONE', #676, #289 ) ;
#402 = ORIENTED_EDGE ( 'NONE', *, *, #216, .F. ) ;
#403 = VERTEX_POINT ( 'NONE', #254 ) ;
#404 = PERSON_AND_ORGANIZATION ( #432, #464 ) ;
#405 = CARTESIAN_POINT ( 'NONE',  ( 0.01751783709850477516, -0.009650149397302087290, 0.007000000000000000146 ) ) ;
#406 = VERTEX_POINT ( 'NONE', #478 ) ;
#407 = ADVANCED_FACE ( 'NONE', ( #691 ), #132, .T. ) ;
#408 = APPROVAL_DATE_TIME ( #298, #496 ) ;
#409 = DIRECTION ( 'NONE',  ( 1.000000000000000000, 0.000000000000000000, 0.000000000000000000 ) ) ;
#410 = ORIENTED_EDGE ( 'NONE', *, *, #535, .F. ) ;
#411 = VECTOR ( 'NONE', #711, 1.000000000000000000 ) ;
#412 = AXIS2_PLACEMENT_3D ( 'NONE', #555, #571, #217 ) ;
#413 = DIRECTION ( 'NONE',  ( -1.000000000000000000, -0.000000000000000000, 1.156482317317871725E-16 ) ) ;
#414 = VERTEX_POINT ( 'NONE', #195 ) ;
#415 = ORIENTED_EDGE ( 'NONE', *, *, #264, .T. ) ;
#416 = CC_DESIGN_PERSON_AND_ORGANIZATION_ASSIGNMENT ( #222, #167, ( #247 ) ) ;
#417 = DIRECTION ( 'NONE',  ( -1.000000000000000000, 0.000000000000000000, -0.000000000000000000 ) ) ;
#418 = ORIENTED_EDGE ( 'NONE', *, *, #689, .F. ) ;
#419 = VECTOR ( 'NONE', #518, 1.000000000000000000 ) ;
#420 = ORIENTED_EDGE ( 'NONE', *, *, #56, .F. ) ;
#421 = DIRECTION ( 'NONE',  ( 8.673617379884037444E-16, 0.000000000000000000, -1.000000000000000000 ) ) ;
#422 = EDGE_CURVE ( 'NONE', #631, #60, #309, .T. ) ;
#423 = CARTESIAN_POINT ( 'NONE',  ( 0.000000000000000000, -0.005650149397302087206, 0.000000000000000000 ) ) ;
#424 = EDGE_CURVE ( 'NONE', #403, #38, #76, .T. ) ;
#425 = ORIENTED_EDGE ( 'NONE', *, *, #9, .T. ) ;
#426 = LINE ( 'NONE', #387, #188 ) ;
#427 = ORIENTED_EDGE ( 'NONE', *, *, #290, .F. ) ;
#428 = ADVANCED_FACE ( 'NONE', ( #29 ), #536, .T. ) ;
#429 = ORIENTED_EDGE ( 'NONE', *, *, #485, .F. ) ;
#430 = LINE ( 'NONE', #148, #291 ) ;
#431 = CARTESIAN_POINT ( 'NONE',  ( -0.03951783709850477389, -0.009650149397302087290, -0.004000000000000001818 ) ) ;
#432 = PERSON ( 'UNSPECIFIED', 'UNSPECIFIED', 'UNSPECIFIED', ('UNSPECIFIED'), ('UNSPECIFIED'), ('UNSPECIFIED') ) ;
#433 = ORIENTED_EDGE ( 'NONE', *, *, #292, .F. ) ;
#434 = AXIS2_PLACEMENT_3D ( 'NONE', #603, #325, #655 ) ;
#435 = DIRECTION ( 'NONE',  ( 1.000000000000000000, 0.000000000000000000, -1.156482317317871971E-16 ) ) ;
#436 = AXIS2_PLACEMENT_3D ( 'NONE', #238, #175, #568 ) ;
#437 = LOCAL_TIME ( 12, 44, 26.00000000000000000, #580 ) ;
#438 = CARTESIAN_POINT ( 'NONE',  ( 0.02451783709850477444, -0.009650149397302087290, 0.006999999999999998411 ) ) ;
#439 = EDGE_LOOP ( 'NONE', ( #522, #142, #18, #669 ) ) ;
#440 = PRODUCT_DEFINITION_SHAPE ( 'NONE', 'NONE',  #600 ) ;
#441 = CARTESIAN_POINT ( 'NONE',  ( -0.02451783709850477444, -0.005650149397302087206, -0.004000000000000001818 ) ) ;
#442 = LINE ( 'NONE', #658, #185 ) ;
#443 = APPROVAL ( #3, 'UNSPECIFIED' ) ;
#444 = DIRECTION ( 'NONE',  ( 0.000000000000000000, 0.000000000000000000, 1.000000000000000000 ) ) ;
#445 = LINE ( 'NONE', #40, #93 ) ;
#446 = APPROVAL_DATE_TIME ( #348, #443 ) ;
#447 = DIRECTION ( 'NONE',  ( -0.000000000000000000, 0.000000000000000000, 1.000000000000000000 ) ) ;
#448 = AXIS2_PLACEMENT_3D ( 'NONE', #135, #687, #417 ) ;
#449 = EDGE_CURVE ( 'NONE', #304, #341, #246, .T. ) ;
#450 = AXIS2_PLACEMENT_3D ( 'NONE', #39, #156, #46 ) ;
#451 = EDGE_CURVE ( 'NONE', #590, #704, #483, .T. ) ;
#452 = APPLICATION_PROTOCOL_DEFINITION ( 'international standard', 'config_control_design', 1994, #541 ) ;
#453 = LINE ( 'NONE', #283, #607 ) ;
#454 = ORIENTED_EDGE ( 'NONE', *, *, #237, .F. ) ;
#455 = DIRECTION ( 'NONE',  ( 0.000000000000000000, 0.000000000000000000, 1.000000000000000000 ) ) ;
#456 = DIRECTION ( 'NONE',  ( -1.000000000000000000, 0.000000000000000000, 0.000000000000000000 ) ) ;
#457 = ORIENTED_EDGE ( 'NONE', *, *, #90, .T. ) ;
#458 = DIRECTION ( 'NONE',  ( 1.000000000000000000, 0.000000000000000000, 0.000000000000000000 ) ) ;
#459 = CARTESIAN_POINT ( 'NONE',  ( -0.006000000000000000125, 0.008349850602697913085, 0.000000000000000000 ) ) ;
#460 = VECTOR ( 'NONE', #329, 1.000000000000000000 ) ;
#461 = EDGE_LOOP ( 'NONE', ( #520, #73, #394, #454, #177, #427, #252, #288 ) ) ;
#462 = ORIENTED_EDGE ( 'NONE', *, *, #424, .T. ) ;
#463 = CIRCLE ( 'NONE', #587, 0.006000000000000000125 ) ;
#464 = ORGANIZATION ( 'UNSPECIFIED', 'UNSPECIFIED', '' ) ;
#465 =( NAMED_UNIT ( * ) SI_UNIT ( $, .STERADIAN. ) SOLID_ANGLE_UNIT ( ) );
#466 = DIRECTION ( 'NONE',  ( -0.000000000000000000, -0.000000000000000000, 1.000000000000000000 ) ) ;
#467 = VERTEX_POINT ( 'NONE', #578 ) ;
#468 = DIRECTION ( 'NONE',  ( 1.000000000000000000, 0.000000000000000000, 1.156482317317871971E-16 ) ) ;
#469 = ORIENTED_EDGE ( 'NONE', *, *, #576, .T. ) ;
#470 = LINE ( 'NONE', #295, #70 ) ;
#471 = ORIENTED_EDGE ( 'NONE', *, *, #166, .F. ) ;
#472 = CARTESIAN_POINT ( 'NONE',  ( 0.000000000000000000, 0.000000000000000000, 0.007000000000000000146 ) ) ;
#473 = LINE ( 'NONE', #369, #173 ) ;
#474 = CARTESIAN_POINT ( 'NONE',  ( -0.02451783709850477444, -0.005650149397302087206, -0.004000000000000001818 ) ) ;
#475 = ORIENTED_EDGE ( 'NONE', *, *, #681, .F. ) ;
#476 = ORIENTED_EDGE ( 'NONE', *, *, #347, .F. ) ;
#477 = SHAPE_DEFINITION_REPRESENTATION ( #440, #361 ) ;
#478 = CARTESIAN_POINT ( 'NONE',  ( -0.03951783709850477389, -0.005650149397302087206, -0.004000000000000001818 ) ) ;
#479 = MANIFOLD_SOLID_BREP ( 'Boss-Extrude2', #493 ) ;
#480 = EDGE_LOOP ( 'NONE', ( #383, #102, #227, #346 ) ) ;
#481 = AXIS2_PLACEMENT_3D ( 'NONE', #199, #444, #211 ) ;
#482 = ORIENTED_EDGE ( 'NONE', *, *, #237, .T. ) ;
#483 = LINE ( 'NONE', #82, #507 ) ;
#484 = FACE_OUTER_BOUND ( 'NONE', #515, .T. ) ;
#485 = EDGE_CURVE ( 'NONE', #582, #414, #359, .T. ) ;
#486 = ORIENTED_EDGE ( 'NONE', *, *, #157, .F. ) ;
#487 = CARTESIAN_POINT ( 'NONE',  ( -0.02000000000000000042, 0.000000000000000000, 0.007000000000000000146 ) ) ;
#488 = PLANE ( 'NONE',  #640 ) ;
#489 = ORIENTED_EDGE ( 'NONE', *, *, #296, .F. ) ;
#490 = CARTESIAN_POINT ( 'NONE',  ( 0.03951783709850477389, -0.009650149397302087290, 0.01099999999999999589 ) ) ;
#491 = LINE ( 'NONE', #502, #244 ) ;
#492 = EDGE_LOOP ( 'NONE', ( #182, #230 ) ) ;
#493 = CLOSED_SHELL ( 'NONE', ( #370, #274, #20, #112, #316, #525, #209, #243, #523, #239, #647, #675, #700, #407, #84, #628, #161, #184, #285, #428 ) ) ;
#494 = DIRECTION ( 'NONE',  ( 0.000000000000000000, 0.000000000000000000, 1.000000000000000000 ) ) ;
#495 = AXIS2_PLACEMENT_3D ( 'NONE', #17, #614, #468 ) ;
#496 = APPROVAL ( #78, 'UNSPECIFIED' ) ;
#497 = FACE_OUTER_BOUND ( 'NONE', #696, .T. ) ;
#498 = EDGE_CURVE ( 'NONE', #582, #601, #463, .T. ) ;
#499 = CARTESIAN_POINT ( 'NONE',  ( -0.02451783709850477444, -0.005650149397302087206, -1.969543857221020534E-18 ) ) ;
#500 = LINE ( 'NONE', #385, #314 ) ;
#501 = EDGE_CURVE ( 'NONE', #201, #38, #74, .T. ) ;
#502 = CARTESIAN_POINT ( 'NONE',  ( -0.03951783709850477389, -0.005650149397302087206, 0.01099999999999999589 ) ) ;
#503 = EDGE_CURVE ( 'NONE', #570, #704, #470, .T. ) ;
#504 = DATE_AND_TIME ( #279, #72 ) ;
#505 = VECTOR ( 'NONE', #212, 1.000000000000000000 ) ;
#506 = DIRECTION ( 'NONE',  ( -0.000000000000000000, -0.000000000000000000, -1.000000000000000000 ) ) ;
#507 = VECTOR ( 'NONE', #251, 1.000000000000000000 ) ;
#508 = EDGE_CURVE ( 'NONE', #210, #467, #634, .T. ) ;
#509 = ORIENTED_EDGE ( 'NONE', *, *, #501, .T. ) ;
#510 = DATE_AND_TIME ( #111, #619 ) ;
#511 = CARTESIAN_POINT ( 'NONE',  ( 0.02451783709850477444, -0.005650149397302087206, -0.004000000000000001818 ) ) ;
#512 = VERTEX_POINT ( 'NONE', #636 ) ;
#513 = PERSON_AND_ORGANIZATION ( #432, #464 ) ;
#514 = DIRECTION ( 'NONE',  ( 0.000000000000000000, 0.000000000000000000, -1.000000000000000000 ) ) ;
#515 = EDGE_LOOP ( 'NONE', ( #326, #240, #625, #410, #248, #489, #604, #672 ) ) ;
#516 = ORIENTED_EDGE ( 'NONE', *, *, #157, .T. ) ;
#517 = PERSON_AND_ORGANIZATION ( #432, #464 ) ;
#518 = DIRECTION ( 'NONE',  ( -1.000000000000000000, 0.000000000000000000, -2.478176394252582127E-16 ) ) ;
#519 = AXIS2_PLACEMENT_3D ( 'NONE', #276, #506, #642 ) ;
#520 = ORIENTED_EDGE ( 'NONE', *, *, #143, .F. ) ;
#521 = FACE_OUTER_BOUND ( 'NONE', #680, .T. ) ;
#522 = ORIENTED_EDGE ( 'NONE', *, *, #213, .F. ) ;
#523 = ADVANCED_FACE ( 'NONE', ( #584 ), #357, .T. ) ;
#524 = CARTESIAN_POINT ( 'NONE',  ( 0.02451783709850477444, -0.009650149397302087290, -0.004000000000000001818 ) ) ;
#525 = ADVANCED_FACE ( 'NONE', ( #249 ), #24, .T. ) ;
#526 = VERTEX_POINT ( 'NONE', #530 ) ;
#527 = DIRECTION ( 'NONE',  ( 0.000000000000000000, -0.000000000000000000, 1.000000000000000000 ) ) ;
#528 = LINE ( 'NONE', #200, #268 ) ;
#529 = CALENDAR_DATE ( 2026, 12, 8 ) ;
#530 = CARTESIAN_POINT ( 'NONE',  ( 0.02451783709850477444, -0.005650149397302087206, 0.006999999999999998411 ) ) ;
#531 = ORIENTED_EDGE ( 'NONE', *, *, #698, .F. ) ;
#532 = LINE ( 'NONE', #126, #255 ) ;
#533 = CARTESIAN_POINT ( 'NONE',  ( 0.01751783709850477516, -0.005650149397302087206, 0.007000000000000000146 ) ) ;
#534 = ORIENTED_EDGE ( 'NONE', *, *, #56, .T. ) ;
#535 = EDGE_CURVE ( 'NONE', #406, #564, #27, .T. ) ;
#536 = PLANE ( 'NONE',  #317 ) ;
#537 = DIRECTION ( 'NONE',  ( -8.673617379884037444E-16, -0.000000000000000000, -1.000000000000000000 ) ) ;
#538 = VECTOR ( 'NONE', #537, 1.000000000000000000 ) ;
#539 = EDGE_LOOP ( 'NONE', ( #637, #180, #67, #294 ) ) ;
#540 = CARTESIAN_POINT ( 'NONE',  ( -0.006000000000000000125, 0.008349850602697913085, 0.007000000000000000146 ) ) ;
#541 = APPLICATION_CONTEXT ( 'configuration controlled 3d designs of mechanical parts and assemblies' ) ;
#542 = CARTESIAN_POINT ( 'NONE',  ( 0.02451783709850477444, -0.009650149397302087290, -0.004000000000000001818 ) ) ;
#543 = ORIENTED_EDGE ( 'NONE', *, *, #32, .F. ) ;
#544 = FACE_OUTER_BOUND ( 'NONE', #539, .T. ) ;
#545 = CARTESIAN_POINT ( 'NONE',  ( 0.03951783709850477389, -0.005650149397302087206, 0.01099999999999999589 ) ) ;
#546 = EDGE_LOOP ( 'NONE', ( #486, #128, #151, #597 ) ) ;
#547 = CARTESIAN_POINT ( 'NONE',  ( 0.000000000000000000, 0.000000000000000000, 0.000000000000000000 ) ) ;
#548 = FACE_OUTER_BOUND ( 'NONE', #546, .T. ) ;
#549 = ORIENTED_EDGE ( 'NONE', *, *, #213, .T. ) ;
#550 = LINE ( 'NONE', #487, #278 ) ;
#551 = AXIS2_PLACEMENT_3D ( 'NONE', #390, #342, #225 ) ;
#552 = CARTESIAN_POINT ( 'NONE',  ( -0.02451783709850477444, -0.005650149397302087206, -0.004000000000000001818 ) ) ;
#553 = EDGE_CURVE ( 'NONE', #356, #147, #662, .T. ) ;
#554 = EDGE_CURVE ( 'NONE', #198, #204, #97, .T. ) ;
#555 = CARTESIAN_POINT ( 'NONE',  ( 0.000000000000000000, 0.000000000000000000, 0.000000000000000000 ) ) ;
#556 = CARTESIAN_POINT ( 'NONE',  ( -0.02000000000000000042, 0.000000000000000000, 0.000000000000000000 ) ) ;
#557 = SECURITY_CLASSIFICATION_LEVEL ( 'unclassified' ) ;
#558 = EDGE_CURVE ( 'NONE', #601, #582, #136, .T. ) ;
#559 = CYLINDRICAL_SURFACE ( 'NONE', #519, 0.006000000000000000125 ) ;
#560 = APPROVAL_DATE_TIME ( #228, #621 ) ;
#561 = FACE_OUTER_BOUND ( 'NONE', #375, .T. ) ;
#562 = VECTOR ( 'NONE', #33, 1.000000000000000000 ) ;
#563 = LOCAL_TIME ( 12, 44, 26.00000000000000000, #334 ) ;
#564 = VERTEX_POINT ( 'NONE', #103 ) ;
#565 = PLANE ( 'NONE',  #277 ) ;
#566 = ORIENTED_EDGE ( 'NONE', *, *, #32, .T. ) ;
#567 = CC_DESIGN_PERSON_AND_ORGANIZATION_ASSIGNMENT ( #392, #178, ( #386 ) ) ;
#568 = DIRECTION ( 'NONE',  ( 1.000000000000000000, 0.000000000000000000, -0.000000000000000000 ) ) ;
#569 = ORIENTED_EDGE ( 'NONE', *, *, #34, .T. ) ;
#570 = VERTEX_POINT ( 'NONE', #490 ) ;
#571 = DIRECTION ( 'NONE',  ( 0.000000000000000000, 0.000000000000000000, 1.000000000000000000 ) ) ;
#572 = CARTESIAN_POINT ( 'NONE',  ( 0.02000000000000000042, 2.449293598294706384E-18, 0.000000000000000000 ) ) ;
#573 = VECTOR ( 'NONE', #592, 1.000000000000000000 ) ;
#574 = CIRCLE ( 'NONE', #707, 0.02000000000000000042 ) ;
#575 = ORIENTED_EDGE ( 'NONE', *, *, #558, .F. ) ;
#576 = EDGE_CURVE ( 'NONE', #641, #130, #659, .T. ) ;
#577 = EDGE_CURVE ( 'NONE', #198, #12, #645, .T. ) ;
#578 = CARTESIAN_POINT ( 'NONE',  ( 0.02451783709850477444, -0.005650149397302087206, -1.969543857221020534E-18 ) ) ;
#579 = EDGE_LOOP ( 'NONE', ( #21, #433, #482, #63 ) ) ;
#580 = COORDINATED_UNIVERSAL_TIME_OFFSET ( 3, 0, .AHEAD. ) ;
#581 = CARTESIAN_POINT ( 'NONE',  ( 0.000000000000000000, -0.005650149397302087206, 0.000000000000000000 ) ) ;
#582 = VERTEX_POINT ( 'NONE', #273 ) ;
#583 = APPROVAL_ROLE ( '' ) ;
#584 = FACE_OUTER_BOUND ( 'NONE', #461, .T. ) ;
#585 = DIRECTION ( 'NONE',  ( -0.000000000000000000, -0.000000000000000000, -1.000000000000000000 ) ) ;
#586 = VECTOR ( 'NONE', #35, 1.000000000000000000 ) ;
#587 = AXIS2_PLACEMENT_3D ( 'NONE', #299, #187, #409 ) ;
#588 = CARTESIAN_POINT ( 'NONE',  ( 0.006000000000000000125, 0.008349850602697913085, 0.007000000000000000146 ) ) ;
#589 = ORIENTED_EDGE ( 'NONE', *, *, #376, .F. ) ;
#590 = VERTEX_POINT ( 'NONE', #321 ) ;
#591 = CARTESIAN_POINT ( 'NONE',  ( -0.02451783709850477444, -0.005650149397302087206, 0.006999999999999998411 ) ) ;
#592 = DIRECTION ( 'NONE',  ( 1.000000000000000000, -0.000000000000000000, -0.000000000000000000 ) ) ;
#593 = ORIENTED_EDGE ( 'NONE', *, *, #422, .T. ) ;
#594 = LINE ( 'NONE', #384, #95 ) ;
#595 = DIRECTION ( 'NONE',  ( 1.000000000000000000, 0.000000000000000000, -0.000000000000000000 ) ) ;
#596 = AXIS2_PLACEMENT_3D ( 'NONE', #441, #43, #145 ) ;
#597 = ORIENTED_EDGE ( 'NONE', *, *, #109, .T. ) ;
#598 = DIRECTION ( 'NONE',  ( 0.000000000000000000, -1.000000000000000000, 0.000000000000000000 ) ) ;
#599 = DIRECTION ( 'NONE',  ( 0.000000000000000000, 1.000000000000000000, -0.000000000000000000 ) ) ;
#600 = PRODUCT_DEFINITION ( 'UNKNOWN', '', #51, #311 ) ;
#601 = VERTEX_POINT ( 'NONE', #540 ) ;
#602 = PLANE ( 'NONE',  #663 ) ;
#603 = CARTESIAN_POINT ( 'NONE',  ( 0.000000000000000000, 0.000000000000000000, 0.000000000000000000 ) ) ;
#604 = ORIENTED_EDGE ( 'NONE', *, *, #422, .F. ) ;
#605 = DIRECTION ( 'NONE',  ( 1.000000000000000000, 0.000000000000000000, 0.000000000000000000 ) ) ;
#606 = CARTESIAN_POINT ( 'NONE',  ( -0.02451783709850477444, -0.009650149397302087290, 0.006999999999999998411 ) ) ;
#607 = VECTOR ( 'NONE', #59, 1.000000000000000000 ) ;
#608 = DIRECTION ( 'NONE',  ( 1.156482317317871971E-16, 0.000000000000000000, 1.000000000000000000 ) ) ;
#609 = CARTESIAN_POINT ( 'NONE',  ( 0.000000000000000000, 0.000000000000000000, 0.007000000000000000146 ) ) ;
#610 = EDGE_CURVE ( 'NONE', #253, #414, #301, .T. ) ;
#611 = PERSON_AND_ORGANIZATION ( #432, #464 ) ;
#612 = CARTESIAN_POINT ( 'NONE',  ( -0.01751783709850477516, -0.005650149397302087206, 0.007000000000000000146 ) ) ;
#613 = COORDINATED_UNIVERSAL_TIME_OFFSET ( 3, 0, .AHEAD. ) ;
#614 = DIRECTION ( 'NONE',  ( -1.156482317317871971E-16, 0.000000000000000000, 1.000000000000000000 ) ) ;
#615 = ORIENTED_EDGE ( 'NONE', *, *, #313, .T. ) ;
#616 = PERSON_AND_ORGANIZATION_ROLE ( 'creator' ) ;
#617 = LINE ( 'NONE', #19, #208 ) ;
#618 = VECTOR ( 'NONE', #702, 1.000000000000000000 ) ;
#619 = LOCAL_TIME ( 12, 44, 26.00000000000000000, #613 ) ;
#620 = ORIENTED_EDGE ( 'NONE', *, *, #449, .T. ) ;
#621 = APPROVAL ( #64, 'UNSPECIFIED' ) ;
#622 = MECHANICAL_CONTEXT ( 'NONE', #541, 'mechanical' ) ;
#623 = CARTESIAN_POINT ( 'NONE',  ( -4.284434207737736056E-20, 0.008349850602697913085, 0.007000000000000000146 ) ) ;
#624 = ORIENTED_EDGE ( 'NONE', *, *, #183, .T. ) ;
#625 = ORIENTED_EDGE ( 'NONE', *, *, #633, .F. ) ;
#626 = DIRECTION ( 'NONE',  ( -1.000000000000000000, 0.000000000000000000, 0.000000000000000000 ) ) ;
#627 = VERTEX_POINT ( 'NONE', #327 ) ;
#628 = ADVANCED_FACE ( 'NONE', ( #544 ), #159, .T. ) ;
#629 = EDGE_CURVE ( 'NONE', #144, #147, #550, .T. ) ;
#630 = AXIS2_PLACEMENT_3D ( 'NONE', #190, #22, #241 ) ;
#631 = VERTEX_POINT ( 'NONE', #266 ) ;
#632 = CIRCLE ( 'NONE', #695, 0.02000000000000000042 ) ;
#633 = EDGE_CURVE ( 'NONE', #564, #641, #377, .T. ) ;
#634 = LINE ( 'NONE', #306, #125 ) ;
#635 = ORIENTED_EDGE ( 'NONE', *, *, #554, .T. ) ;
#636 = CARTESIAN_POINT ( 'NONE',  ( 0.02451783709850477444, -0.009650149397302087290, 0.006999999999999998411 ) ) ;
#637 = ORIENTED_EDGE ( 'NONE', *, *, #449, .F. ) ;
#638 = DIRECTION ( 'NONE',  ( -0.000000000000000000, -0.000000000000000000, -1.000000000000000000 ) ) ;
#639 = CARTESIAN_POINT ( 'NONE',  ( 0.02451783709850477444, -0.009650149397302087290, -0.004000000000000001818 ) ) ;
#640 = AXIS2_PLACEMENT_3D ( 'NONE', #267, #263, #703 ) ;
#641 = VERTEX_POINT ( 'NONE', #499 ) ;
#642 = DIRECTION ( 'NONE',  ( -1.000000000000000000, 0.000000000000000000, 0.000000000000000000 ) ) ;
#643 = ORIENTED_EDGE ( 'NONE', *, *, #610, .F. ) ;
#644 = EDGE_LOOP ( 'NONE', ( #543, #320, #231, #624 ) ) ;
#645 = LINE ( 'NONE', #54, #94 ) ;
#646 = DIRECTION ( 'NONE',  ( 0.000000000000000000, -1.000000000000000000, 0.000000000000000000 ) ) ;
#647 = ADVANCED_FACE ( 'NONE', ( #262 ), #712, .T. ) ;
#648 = EDGE_CURVE ( 'NONE', #467, #201, #594, .T. ) ;
#649 = ORIENTED_EDGE ( 'NONE', *, *, #508, .T. ) ;
#650 = DIRECTION ( 'NONE',  ( 1.000000000000000000, 0.000000000000000000, 0.000000000000000000 ) ) ;
#651 = CARTESIAN_POINT ( 'NONE',  ( 0.02451783709850477444, -0.009650149397302087290, -1.969543857221020534E-18 ) ) ;
#652 = AXIS2_PLACEMENT_3D ( 'NONE', #581, #79, #527 ) ;
#653 = ORIENTED_EDGE ( 'NONE', *, *, #166, .T. ) ;
#654 = DIRECTION ( 'NONE',  ( 0.000000000000000000, -1.000000000000000000, 0.000000000000000000 ) ) ;
#655 = DIRECTION ( 'NONE',  ( 1.000000000000000000, 0.000000000000000000, 0.000000000000000000 ) ) ;
#656 = ORIENTED_EDGE ( 'NONE', *, *, #501, .F. ) ;
#657 = DIRECTION ( 'NONE',  ( 0.000000000000000000, 0.000000000000000000, 1.000000000000000000 ) ) ;
#658 = CARTESIAN_POINT ( 'NONE',  ( 0.02451783709850477791, -0.005650149397302087206, 0.01099999999999999763 ) ) ;
#659 = LINE ( 'NONE', #381, #37 ) ;
#660 = FACE_OUTER_BOUND ( 'NONE', #197, .T. ) ;
#661 = EDGE_CURVE ( 'NONE', #406, #119, #426, .T. ) ;
#662 = CIRCLE ( 'NONE', #352, 0.02000000000000000042 ) ;
#663 = AXIS2_PLACEMENT_3D ( 'NONE', #259, #608, #435 ) ;
#664 = DIRECTION ( 'NONE',  ( 1.000000000000000000, -0.000000000000000000, -0.000000000000000000 ) ) ;
#665 = CARTESIAN_POINT ( 'NONE',  ( 0.000000000000000000, 0.000000000000000000, 0.007000000000000000146 ) ) ;
#666 = ORIENTED_EDGE ( 'NONE', *, *, #648, .T. ) ;
#667 = APPROVAL_ROLE ( '' ) ;
#668 = CYLINDRICAL_SURFACE ( 'NONE', #16, 0.006000000000000000125 ) ;
#669 = ORIENTED_EDGE ( 'NONE', *, *, #577, .T. ) ;
#670 = PLANE ( 'NONE',  #495 ) ;
#671 = VECTOR ( 'NONE', #466, 1.000000000000000000 ) ;
#672 = ORIENTED_EDGE ( 'NONE', *, *, #345, .F. ) ;
#673 = ORIENTED_EDGE ( 'NONE', *, *, #354, .T. ) ;
#674 =( LENGTH_UNIT ( ) NAMED_UNIT ( * ) SI_UNIT ( $, .METRE. ) );
#675 = ADVANCED_FACE ( 'NONE', ( #373 ), #602, .T. ) ;
#676 = CARTESIAN_POINT ( 'NONE',  ( -0.02451783709850477791, -0.005650149397302087206, 0.01099999999999999763 ) ) ;
#677 = EDGE_CURVE ( 'NONE', #130, #270, #330, .T. ) ;
#678 = ORIENTED_EDGE ( 'NONE', *, *, #629, .F. ) ;
#679 = FACE_BOUND ( 'NONE', #492, .T. ) ;
#680 = EDGE_LOOP ( 'NONE', ( #429, #169, #425, #589 ) ) ;
#681 = EDGE_CURVE ( 'NONE', #60, #284, #430, .T. ) ;
#682 = DIRECTION ( 'NONE',  ( 0.000000000000000000, 0.000000000000000000, 1.000000000000000000 ) ) ;
#683 = VECTOR ( 'NONE', #152, 1.000000000000000000 ) ;
#684 = ORIENTED_EDGE ( 'NONE', *, *, #629, .T. ) ;
#685 = DIRECTION ( 'NONE',  ( -0.000000000000000000, -0.000000000000000000, -1.000000000000000000 ) ) ;
#686 = LINE ( 'NONE', #257, #150 ) ;
#687 = DIRECTION ( 'NONE',  ( 0.000000000000000000, 0.000000000000000000, -1.000000000000000000 ) ) ;
#688 = CARTESIAN_POINT ( 'NONE',  ( 0.02000000000000000042, 2.449293598294706384E-18, 0.007000000000000000146 ) ) ;
#689 = EDGE_CURVE ( 'NONE', #265, #144, #632, .T. ) ;
#690 = ORIENTED_EDGE ( 'NONE', *, *, #354, .F. ) ;
#691 = FACE_OUTER_BOUND ( 'NONE', #439, .T. ) ;
#692 = DIRECTION ( 'NONE',  ( -0.000000000000000000, -0.000000000000000000, -1.000000000000000000 ) ) ;
#693 = AXIS2_PLACEMENT_3D ( 'NONE', #101, #599, #149 ) ;
#694 = VECTOR ( 'NONE', #141, 1.000000000000000000 ) ;
#695 = AXIS2_PLACEMENT_3D ( 'NONE', #324, #494, #605 ) ;
#696 = EDGE_LOOP ( 'NONE', ( #397, #509, #549, #176, #194, #42, #690, #415, #312, #615, #516, #620 ) ) ;
#697 = CARTESIAN_POINT ( 'NONE',  ( -0.02451783709850477444, -0.005650149397302087206, -0.004000000000000001818 ) ) ;
#698 = EDGE_CURVE ( 'NONE', #147, #130, #4, .T. ) ;
#699 = LINE ( 'NONE', #146, #538 ) ;
#700 = ADVANCED_FACE ( 'NONE', ( #69 ), #115, .T. ) ;
#701 = ORIENTED_EDGE ( 'NONE', *, *, #498, .F. ) ;
#702 = DIRECTION ( 'NONE',  ( -0.000000000000000000, -0.000000000000000000, 1.000000000000000000 ) ) ;
#703 = DIRECTION ( 'NONE',  ( -1.000000000000000000, 0.000000000000000000, 0.000000000000000000 ) ) ;
#704 = VERTEX_POINT ( 'NONE', #232 ) ;
#705 = DIRECTION ( 'NONE',  ( 0.000000000000000000, 0.000000000000000000, 1.000000000000000000 ) ) ;
#706 = CARTESIAN_POINT ( 'NONE',  ( 0.01918530197281676647, -0.005650149397302087206, 0.007000000000000000146 ) ) ;
#707 = AXIS2_PLACEMENT_3D ( 'NONE', #57, #66, #287 ) ;
#708 = EDGE_LOOP ( 'NONE', ( #476, #99, #635, #123 ) ) ;
#709 = CC_DESIGN_APPROVAL ( #496, ( #247 ) ) ;
#710 = CARTESIAN_POINT ( 'NONE',  ( -4.284434207737736056E-20, 0.008349850602697913085, 0.000000000000000000 ) ) ;
#711 = DIRECTION ( 'NONE',  ( 1.000000000000000000, 0.000000000000000000, 0.000000000000000000 ) ) ;
#712 = PLANE ( 'NONE',  #450 ) ;
#713 = LINE ( 'NONE', #438, #505 ) ;
ENDSEC;
END-ISO-10303-21;
