ISO-10303-21;
HEADER;
FILE_DESCRIPTION (( 'STEP AP203' ),
    '1' );
FILE_NAME ('new steering arm.STEP',
    '2026-08-12T09:44:41',
    ( '' ),
    ( '' ),
    'SwSTEP 2.0',
    'SolidWorks 2025',
    '' );
FILE_SCHEMA (( 'CONFIG_CONTROL_DESIGN' ));
ENDSEC;

DATA;
#1 = CYLINDRICAL_SURFACE ( 'NONE', #115, 0.008000000000000000167 ) ;
#2 = DIRECTION ( 'NONE',  ( 0.000000000000000000, 0.000000000000000000, 1.000000000000000000 ) ) ;
#3 = AXIS2_PLACEMENT_3D ( 'NONE', #69, #153, #564 ) ;
#4 = CARTESIAN_POINT ( 'NONE',  ( 0.02864102794602202406, 0.004051886928935787002, 0.007734543648561530843 ) ) ;
#5 = CARTESIAN_POINT ( 'NONE',  ( 0.05886785791970867293, -0.009564916836756174462, 0.0002368783387781155775 ) ) ;
#6 = LINE ( 'NONE', #157, #776 ) ;
#7 = CARTESIAN_POINT ( 'NONE',  ( 0.007942252811818033276, -4.898587196589412767E-18, 0.01349999999999999985 ) ) ;
#8 = ORIENTED_EDGE ( 'NONE', *, *, #827, .F. ) ;
#9 = CARTESIAN_POINT ( 'NONE',  ( 0.02802658696586095288, 0.004175050918637512008, 0.008759436022343898218 ) ) ;
#10 = CARTESIAN_POINT ( 'NONE',  ( 0.03478727743314447007, 0.003514185636336783145, 0.000000000000000000 ) ) ;
#11 = CARTESIAN_POINT ( 'NONE',  ( 0.05594225281181802734, 0.000000000000000000, 0.01349999999999999985 ) ) ;
#12 = CARTESIAN_POINT ( 'NONE',  ( 0.04994801961728843193, -0.008004321858196321304, 0.01349999999999999985 ) ) ;
#13 = ORIENTED_EDGE ( 'NONE', *, *, #179, .T. ) ;
#14 = CARTESIAN_POINT ( 'NONE',  ( 0.06571471156328080598, -0.02083095939440205574, 0.006749999999999999924 ) ) ;
#15 = DATE_AND_TIME ( #22, #100 ) ;
#16 = ADVANCED_FACE ( 'NONE', ( #614 ), #231, .T. ) ;
#17 = CARTESIAN_POINT ( 'NONE',  ( 0.01594225281181803344, -4.898587196589412767E-18, 0.01349999999999999985 ) ) ;
#18 = ORIENTED_EDGE ( 'NONE', *, *, #206, .F. ) ;
#19 = CARTESIAN_POINT ( 'NONE',  ( 0.06539029388777657659, -0.003279105398525765814, 0.005821971303861210936 ) ) ;
#20 = AXIS2_PLACEMENT_3D ( 'NONE', #821, #34, #265 ) ;
#21 = AXIS2_PLACEMENT_3D ( 'NONE', #413, #173, #32 ) ;
#22 = CALENDAR_DATE ( 2026, 12, 8 ) ;
#23 = LINE ( 'NONE', #339, #268 ) ;
#24 = EDGE_CURVE ( 'NONE', #887, #709, #748, .T. ) ;
#25 = CARTESIAN_POINT ( 'NONE',  ( 0.06133063563400199120, -0.008427311762070540183, 0.01344027780819984086 ) ) ;
#26 = ORIENTED_EDGE ( 'NONE', *, *, #754, .T. ) ;
#27 = CARTESIAN_POINT ( 'NONE',  ( 0.07518484498989808085, -0.03634116806102116737, 0.006749999999999999924 ) ) ;
#28 = MECHANICAL_CONTEXT ( 'NONE', #588, 'mechanical' ) ;
#29 = LINE ( 'NONE', #590, #858 ) ;
#30 = CARTESIAN_POINT ( 'NONE',  ( 0.06538405483582757083, -0.003294486403900143915, 0.007681537847377422137 ) ) ;
#31 = EDGE_LOOP ( 'NONE', ( #947, #617, #275, #844 ) ) ;
#32 = DIRECTION ( 'NONE',  ( -1.000000000000000000, 0.000000000000000000, 0.000000000000000000 ) ) ;
#33 = CARTESIAN_POINT ( 'NONE',  ( 0.05351474032948810161, -0.009700885688849874081, 0.006750000000000000791 ) ) ;
#34 = DIRECTION ( 'NONE',  ( 0.000000000000000000, -0.000000000000000000, -1.000000000000000000 ) ) ;
#35 = CARTESIAN_POINT ( 'NONE',  ( 0.06504312563238862088, -0.004150817369642499123, 0.009803908961504542718 ) ) ;
#36 = EDGE_LOOP ( 'NONE', ( #757, #697, #257, #454, #383 ) ) ;
#37 = AXIS2_PLACEMENT_3D ( 'NONE', #95, #193, #503 ) ;
#38 = DATE_TIME_ROLE ( 'creation_date' ) ;
#39 = CARTESIAN_POINT ( 'NONE',  ( 0.05244225281181802423, 0.000000000000000000, 0.000000000000000000 ) ) ;
#40 = AXIS2_PLACEMENT_3D ( 'NONE', #71, #74, #555 ) ;
#41 = LINE ( 'NONE', #256, #481 ) ;
#42 = ORIENTED_EDGE ( 'NONE', *, *, #200, .F. ) ;
#43 = CARTESIAN_POINT ( 'NONE',  ( 0.02658334148860893101, -0.004513186922418192804, 0.009750000000000003456 ) ) ;
#44 = DIRECTION ( 'NONE',  ( -0.3987490689252470855, 0.9170600743851238246, -0.000000000000000000 ) ) ;
#45 = ORIENTED_EDGE ( 'NONE', *, *, #48, .T. ) ;
#46 = CARTESIAN_POINT ( 'NONE',  ( 0.01444225281181803211, -4.898587196589412767E-18, 0.009749999999999999986 ) ) ;
#47 = CARTESIAN_POINT ( 'NONE',  ( 0.02639066820830416812, -0.004564077117463519531, 0.009749999999999999986 ) ) ;
#48 = EDGE_CURVE ( 'NONE', #293, #304, #298, .T. ) ;
#49 = VERTEX_POINT ( 'NONE', #332 ) ;
#50 = DIRECTION ( 'NONE',  ( 0.9170600743851237135, 0.3987490689252468079, 0.000000000000000000 ) ) ;
#51 = AXIS2_PLACEMENT_3D ( 'NONE', #1013, #715, #311 ) ;
#52 = CARTESIAN_POINT ( 'NONE',  ( 0.05952455606118121911, -0.02352251560964747565, 0.006750000000000000791 ) ) ;
#53 = VERTEX_POINT ( 'NONE', #181 ) ;
#54 = DIRECTION ( 'NONE',  ( 0.3987490689252470299, -0.9170600743851237135, 0.000000000000000000 ) ) ;
#55 = EDGE_LOOP ( 'NONE', ( #42, #374, #493, #346 ) ) ;
#56 = CARTESIAN_POINT ( 'NONE',  ( 0.05351474032948810161, -0.009700885688849874081, 0.006750000000000000791 ) ) ;
#57 = ORIENTED_EDGE ( 'NONE', *, *, #310, .T. ) ;
#58 = EDGE_CURVE ( 'NONE', #917, #341, #556, .T. ) ;
#59 = CARTESIAN_POINT ( 'NONE',  ( 0.05394554862415884555, -0.009800766673987946001, 0.004544839895949857878 ) ) ;
#60 = ORIENTED_EDGE ( 'NONE', *, *, #279, .T. ) ;
#61 = CIRCLE ( 'NONE', #20, 0.001500000000000001332 ) ;
#62 = CARTESIAN_POINT ( 'NONE',  ( 0.01444225281181803211, -4.898587196589412767E-18, 0.01349999999999999985 ) ) ;
#63 = AXIS2_PLACEMENT_3D ( 'NONE', #384, #389, #394 ) ;
#64 = SECURITY_CLASSIFICATION ( '', '', #670 ) ;
#65 = CARTESIAN_POINT ( 'NONE',  ( 0.02724910914388433206, 0.004348815818196661263, 0.009370771732910494409 ) ) ;
#66 = CARTESIAN_POINT ( 'NONE',  ( 0.05845147579078587702, -0.009682489317484279170, 0.0003699557576830420037 ) ) ;
#67 = EDGE_CURVE ( 'NONE', #1012, #49, #6, .T. ) ;
#68 = ORIENTED_EDGE ( 'NONE', *, *, #489, .F. ) ;
#69 = CARTESIAN_POINT ( 'NONE',  ( 0.06571471156328081986, -0.02083095939440205921, 0.006749999999999999924 ) ) ;
#70 = CARTESIAN_POINT ( 'NONE',  ( 0.02847938222178090020, 0.004083148436251786417, 0.005390713810573028071 ) ) ;
#71 = CARTESIAN_POINT ( 'NONE',  ( 0.01594225281181803344, -4.898587196589412767E-18, 0.01349999999999999985 ) ) ;
#72 = VERTEX_POINT ( 'NONE', #415 ) ;
#73 = LINE ( 'NONE', #932, #563 ) ;
#74 = DIRECTION ( 'NONE',  ( -0.000000000000000000, -0.000000000000000000, -1.000000000000000000 ) ) ;
#75 = CARTESIAN_POINT ( 'NONE',  ( 0.04994801961728843193, 0.008004321858196324774, 0.01349999999999999985 ) ) ;
#76 = DIRECTION ( 'NONE',  ( 0.000000000000000000, -0.000000000000000000, -1.000000000000000000 ) ) ;
#77 = VERTEX_POINT ( 'NONE', #651 ) ;
#78 = CIRCLE ( 'NONE', #166, 0.009999999999999995004 ) ;
#79 = CARTESIAN_POINT ( 'NONE',  ( 0.02815110824957926111, 0.004149169441490215340, 0.004885857391896953651 ) ) ;
#80 = CARTESIAN_POINT ( 'NONE',  ( 0.05647378780869105608, -0.009993095300642081125, 0.001410869825745961984 ) ) ;
#81 = APPLICATION_CONTEXT ( 'configuration controlled 3d designs of mechanical parts and assemblies' ) ;
#82 = CARTESIAN_POINT ( 'NONE',  ( 0.01885115397969692325, -0.007452401894390351701, 0.01349999999999999985 ) ) ;
#83 = DIRECTION ( 'NONE',  ( 0.000000000000000000, 0.000000000000000000, 1.000000000000000000 ) ) ;
#84 = ORIENTED_EDGE ( 'NONE', *, *, #455, .T. ) ;
#85 = CARTESIAN_POINT ( 'NONE',  ( 0.06529280898624374718, -0.003546296050429506488, 0.004935256431850675723 ) ) ;
#86 = EDGE_CURVE ( 'NONE', #304, #293, #397, .T. ) ;
#87 = DIRECTION ( 'NONE',  ( 0.000000000000000000, 0.000000000000000000, 1.000000000000000000 ) ) ;
#88 = DIRECTION ( 'NONE',  ( -0.000000000000000000, -0.000000000000000000, -1.000000000000000000 ) ) ;
#89 = CARTESIAN_POINT ( 'NONE',  ( 0.03517496806779626950, -0.0006999906036197655517, 0.000000000000000000 ) ) ;
#90 = ORIENTED_EDGE ( 'NONE', *, *, #779, .T. ) ;
#91 = UNCERTAINTY_MEASURE_WITH_UNIT (LENGTH_MEASURE( 1.000000000000000082E-05 ), #431, 'distance_accuracy_value', 'NONE');
#92 = CARTESIAN_POINT ( 'NONE',  ( 0.04994801961728843193, -0.008004321858196321304, 0.01349999999999999985 ) ) ;
#93 = ADVANCED_FACE ( 'NONE', ( #720 ), #1, .T. ) ;
#94 = CARTESIAN_POINT ( 'NONE',  ( 0.01885115397969692325, -0.007452401894390351701, 0.01349999999999999985 ) ) ;
#95 = CARTESIAN_POINT ( 'NONE',  ( 0.02695496179450733096, -0.01270307099367674365, 0.003749999999999999861 ) ) ;
#96 = ORIENTED_EDGE ( 'NONE', *, *, #379, .F. ) ;
#97 = AXIS2_PLACEMENT_3D ( 'NONE', #236, #562, #797 ) ;
#98 = CARTESIAN_POINT ( 'NONE',  ( 0.07289219480393527295, -0.03733804073333428508, 0.006749999999999999924 ) ) ;
#99 = CIRCLE ( 'NONE', #1003, 0.001500000000000001332 ) ;
#100 = LOCAL_TIME ( 12, 44, 41.00000000000000000, #343 ) ;
#101 = CARTESIAN_POINT ( 'NONE',  ( 0.04994801961728843193, -0.008004321858196321304, 0.000000000000000000 ) ) ;
#102 = DIRECTION ( 'NONE',  ( -0.000000000000000000, -0.000000000000000000, -1.000000000000000000 ) ) ;
#103 = CARTESIAN_POINT ( 'NONE',  ( 0.06529784721737530440, -0.003534269801621155779, 0.008573867383257926036 ) ) ;
#104 = VERTEX_POINT ( 'NONE', #497 ) ;
#105 = DIRECTION ( 'NONE',  ( -0.000000000000000000, -0.000000000000000000, -1.000000000000000000 ) ) ;
#106 = APPLICATION_PROTOCOL_DEFINITION ( 'international standard', 'config_control_design', 1994, #81 ) ;
#107 = CARTESIAN_POINT ( 'NONE',  ( 0.02925767205964017667, -0.003940627065874175404, 0.005968967438939935116 ) ) ;
#108 = CARTESIAN_POINT ( 'NONE',  ( 0.06334517016131692435, -0.006734619729535180378, 0.01256896687717546507 ) ) ;
#109 = ORIENTED_EDGE ( 'NONE', *, *, #310, .F. ) ;
#110 = B_SPLINE_CURVE_WITH_KNOTS ( 'NONE', 3,
 ( #123, #43, #759, #744, #983, #661, #365, #361, #675, #281, #273, #601, #987, #593, #903, #582, #277, #508, #898, #107, #671, #596, #196, #502, #976, #910, #202, #287, #518, #739, #512, #915, #207, #840 ),
 .UNSPECIFIED., .F., .F.,
 ( 4, 2, 2, 2, 2, 2, 2, 2, 2, 2, 2, 2, 2, 2, 2, 2, 4 ),
 ( 0.000000000000000000, 0.0005894833216216492557, 0.001178966643243298511, 0.001768449964864947984, 0.002357933286486597023, 0.002947416608108246062, 0.003536899929729895968, 0.004126383251351545441, 0.004715866572973194046, 0.005305349894594843518, 0.005894833216216492124, 0.006484316537838141596, 0.007073799859459791936, 0.007663283181081441409, 0.008252766502703090881, 0.008842249824324738619, 0.009431733145946386357 ),
 .UNSPECIFIED. ) ;
#111 = CARTESIAN_POINT ( 'NONE',  ( 0.01594225281181803344, -4.898587196589412767E-18, 0.000000000000000000 ) ) ;
#112 = CYLINDRICAL_SURFACE ( 'NONE', #285, 0.006749999999999995587 ) ;
#113 = DIRECTION ( 'NONE',  ( 1.000000000000000000, 0.000000000000000000, -0.000000000000000000 ) ) ;
#114 = ORIENTED_EDGE ( 'NONE', *, *, #227, .F. ) ;
#115 = AXIS2_PLACEMENT_3D ( 'NONE', #17, #949, #732 ) ;
#116 = CIRCLE ( 'NONE', #812, 0.006750000000000001658 ) ;
#117 = DIRECTION ( 'NONE',  ( 0.000000000000000000, 0.000000000000000000, 1.000000000000000000 ) ) ;
#118 = LOCAL_TIME ( 12, 44, 41.00000000000000000, #656 ) ;
#119 = DIRECTION ( 'NONE',  ( 0.000000000000000000, 0.000000000000000000, 1.000000000000000000 ) ) ;
#120 = VERTEX_POINT ( 'NONE', #399 ) ;
#121 = PRODUCT_DEFINITION ( 'UNKNOWN', '', #516, #336 ) ;
#122 = EDGE_CURVE ( 'NONE', #923, #304, #790, .T. ) ;
#123 = CARTESIAN_POINT ( 'NONE',  ( 0.02639066820830416812, -0.004564077117463519531, 0.009749999999999999986 ) ) ;
#124 = DIRECTION ( 'NONE',  ( 0.000000000000000000, 0.000000000000000000, 1.000000000000000000 ) ) ;
#125 = ORIENTED_EDGE ( 'NONE', *, *, #673, .F. ) ;
#126 = EDGE_CURVE ( 'NONE', #120, #958, #23, .T. ) ;
#127 = PERSON_AND_ORGANIZATION ( #440, #586 ) ;
#128 = LINE ( 'NONE', #344, #314 ) ;
#129 = CARTESIAN_POINT ( 'NONE',  ( 0.01594225281181803344, -4.898587196589412767E-18, 0.000000000000000000 ) ) ;
#130 = ORIENTED_EDGE ( 'NONE', *, *, #827, .T. ) ;
#131 = SHAPE_DEFINITION_REPRESENTATION ( #828, #753 ) ;
#132 = CIRCLE ( 'NONE', #63, 0.003500000000000003109 ) ;
#133 = CARTESIAN_POINT ( 'NONE',  ( 0.01744225281181803477, -4.714890176717309422E-18, 0.01349999999999999985 ) ) ;
#134 = VERTEX_POINT ( 'NONE', #880 ) ;
#135 = EDGE_CURVE ( 'NONE', #979, #709, #633, .T. ) ;
#136 = DATE_TIME_ROLE ( 'classification_date' ) ;
#137 = DIRECTION ( 'NONE',  ( -0.000000000000000000, -0.000000000000000000, -1.000000000000000000 ) ) ;
#138 = EDGE_LOOP ( 'NONE', ( #635, #541, #424, #109, #833, #312 ) ) ;
#139 = PRODUCT_RELATED_PRODUCT_CATEGORY ( 'detail', '', ( #918 ) ) ;
#140 = CARTESIAN_POINT ( 'NONE',  ( 0.01594225281181803344, -4.898587196589412767E-18, 0.009749999999999999986 ) ) ;
#141 = EDGE_LOOP ( 'NONE', ( #525, #142 ) ) ;
#142 = ORIENTED_EDGE ( 'NONE', *, *, #227, .T. ) ;
#143 = CARTESIAN_POINT ( 'NONE',  ( 0.02594071015300992641, 0.004685574510264523852, 0.009749999999999999986 ) ) ;
#144 = DIRECTION ( 'NONE',  ( 1.000000000000000000, 0.000000000000000000, -0.000000000000000000 ) ) ;
#145 = ORIENTED_EDGE ( 'NONE', *, *, #135, .F. ) ;
#146 = AXIS2_PLACEMENT_3D ( 'NONE', #866, #154, #883 ) ;
#147 = EDGE_LOOP ( 'NONE', ( #921, #26, #403, #457 ) ) ;
#148 = CIRCLE ( 'NONE', #712, 0.008000000000000000167 ) ;
#149 = CARTESIAN_POINT ( 'NONE',  ( 0.02613336326765426307, 0.004632522188232128697, 0.003768045336940909883 ) ) ;
#150 = ADVANCED_FACE ( 'NONE', ( #316, #169 ), #808, .T. ) ;
#151 = DIRECTION ( 'NONE',  ( 0.000000000000000000, 0.000000000000000000, 1.000000000000000000 ) ) ;
#152 = ORIENTED_EDGE ( 'NONE', *, *, #779, .F. ) ;
#153 = DIRECTION ( 'NONE',  ( 0.3987490689252470299, -0.9170600743851237135, 0.000000000000000000 ) ) ;
#154 = DIRECTION ( 'NONE',  ( -0.000000000000000000, -0.000000000000000000, -1.000000000000000000 ) ) ;
#155 = B_SPLINE_CURVE_WITH_KNOTS ( 'NONE', 3,
 ( #794, #860, #149, #444, #919, #684, #554, #239, #210, #228, #79, #542, #70, #467, #777, #994, #538, #717, #783, #763, #4, #606, #472, #391, #9, #319, #324, #65, #246, #385, #559, #853, #143, #699 ),
 .UNSPECIFIED., .F., .F.,
 ( 4, 2, 2, 2, 2, 2, 2, 2, 2, 2, 2, 2, 2, 2, 2, 2, 4 ),
 ( 1.077827274828156060E-13, 0.0006003857166494601990, 0.001200771433191137692, 0.001801157149732815184, 0.002401542866274492677, 0.003001928582816170386, 0.003602314299357847662, 0.004202700015899524938, 0.004803085732441202647, 0.005403471448982880357, 0.006003857165524558066, 0.006604242882066234908, 0.007204628598607912618, 0.007805014315149590327, 0.008405400031691268037, 0.009005785748232946614, 0.009606171464774623456 ),
 .UNSPECIFIED. ) ;
#156 = CARTESIAN_POINT ( 'NONE',  ( 0.05545237975748126824, -0.009993558590753239337, 0.01120445705469695803 ) ) ;
#157 = CARTESIAN_POINT ( 'NONE',  ( 0.02695496179450733096, -0.01270307099367674365, 0.003749999999999999861 ) ) ;
#158 = CARTESIAN_POINT ( 'NONE',  ( 0.01594225281181803344, -4.898587196589412767E-18, 0.003749999999999999861 ) ) ;
#159 = EDGE_LOOP ( 'NONE', ( #309, #810, #704, #913 ) ) ;
#160 = DIRECTION ( 'NONE',  ( -1.000000000000000000, 0.000000000000000000, 0.000000000000000000 ) ) ;
#161 = CARTESIAN_POINT ( 'NONE',  ( 0.01885115397969692325, -0.007452401894390351701, 0.01349999999999999985 ) ) ;
#162 = PLANE ( 'NONE',  #97 ) ;
#163 = CARTESIAN_POINT ( 'NONE',  ( 0.04994801961728843193, -0.008004321858196321304, 0.000000000000000000 ) ) ;
#164 = ORIENTED_EDGE ( 'NONE', *, *, #67, .F. ) ;
#165 = ADVANCED_FACE ( 'NONE', ( #941 ), #162, .T. ) ;
#166 = AXIS2_PLACEMENT_3D ( 'NONE', #278, #957, #416 ) ;
#167 = CARTESIAN_POINT ( 'NONE',  ( 0.06464177213993234361, -0.004940806513091327949, 0.002615135011937246966 ) ) ;
#168 = PERSON_AND_ORGANIZATION ( #440, #586 ) ;
#169 = FACE_OUTER_BOUND ( 'NONE', #659, .T. ) ;
#170 = DIRECTION ( 'NONE',  ( -0.06916606670323111050, 0.9976051599790390911, -0.000000000000000000 ) ) ;
#171 = EDGE_LOOP ( 'NONE', ( #125, #707 ) ) ;
#172 = ADVANCED_FACE ( 'NONE', ( #255 ), #242, .F. ) ;
#173 = DIRECTION ( 'NONE',  ( -0.000000000000000000, -0.000000000000000000, -1.000000000000000000 ) ) ;
#174 = CARTESIAN_POINT ( 'NONE',  ( 0.03517496806779626950, 0.0006999906036197586128, 0.000000000000000000 ) ) ;
#175 = DIRECTION ( 'NONE',  ( 1.000000000000000000, 0.000000000000000000, 0.000000000000000000 ) ) ;
#176 = CARTESIAN_POINT ( 'NONE',  ( 0.06052239493597733055, -0.008889448696207283979, 0.01349999999999999985 ) ) ;
#177 = ORIENTED_EDGE ( 'NONE', *, *, #290, .F. ) ;
#178 = CARTESIAN_POINT ( 'NONE',  ( 0.06492697096982852356, -0.004400914127900801623, 0.003319901390739571877 ) ) ;
#179 = EDGE_CURVE ( 'NONE', #665, #850, #250, .T. ) ;
#180 = DATE_AND_TIME ( #891, #185 ) ;
#181 = CARTESIAN_POINT ( 'NONE',  ( 0.01444225281181803211, -4.898587196589412767E-18, 0.000000000000000000 ) ) ;
#182 = CARTESIAN_POINT ( 'NONE',  ( 0.06447392359944231766, -0.005228389923075350484, 0.01121058289185738327 ) ) ;
#183 = ORIENTED_EDGE ( 'NONE', *, *, #126, .T. ) ;
#184 = CARTESIAN_POINT ( 'NONE',  ( 0.06189644587079019128, -0.008037367123235272803, 0.0001883943280737705283 ) ) ;
#185 = LOCAL_TIME ( 12, 44, 41.00000000000000000, #644 ) ;
#186 = DIRECTION ( 'NONE',  ( 0.9170600743851236025, 0.3987490689252473075, 0.000000000000000000 ) ) ;
#187 = FACE_OUTER_BOUND ( 'NONE', #36, .T. ) ;
#188 = DIRECTION ( 'NONE',  ( 0.000000000000000000, 0.000000000000000000, 1.000000000000000000 ) ) ;
#189 = EDGE_LOOP ( 'NONE', ( #985, #818, #251, #990, #535, #806 ) ) ;
#190 = CARTESIAN_POINT ( 'NONE',  ( 0.06522339030133822435, -0.003724191636987160027, 0.004508042799810160241 ) ) ;
#191 = APPROVAL_STATUS ( 'not_yet_approved' ) ;
#192 = CARTESIAN_POINT ( 'NONE',  ( 0.05944225281181803044, 4.286263797015732512E-19, 0.000000000000000000 ) ) ;
#193 = DIRECTION ( 'NONE',  ( 0.000000000000000000, 0.000000000000000000, -1.000000000000000000 ) ) ;
#194 = ORIENTED_EDGE ( 'NONE', *, *, #430, .F. ) ;
#195 = B_SPLINE_CURVE_WITH_KNOTS ( 'NONE', 3,
 ( #176, #509, #356, #25, #745, #734, #817, #571, #340, #594, #108, #577, #428, #652, #963, #182, #886, #805, #35, #498, #103, #423, #30, #969, #274, #349 ),
 .UNSPECIFIED., .F., .F.,
 ( 4, 2, 2, 2, 2, 2, 2, 2, 2, 2, 2, 2, 4 ),
 ( 0.03261740420239474941, 0.03330783901954870868, 0.03399827383670266795, 0.03468870865385662722, 0.03537914347101059342, 0.03676001310531853972, 0.03745044792247251286, 0.03814088273962648601, 0.03952175237393443230, 0.04090262200824237859, 0.04228349164255031795, 0.04297392645970429109, 0.04366436127685826424 ),
 .UNSPECIFIED. ) ;
#196 = CARTESIAN_POINT ( 'NONE',  ( 0.02895702363158624004, -0.003993171776673051614, 0.005240004899048879977 ) ) ;
#197 = DIRECTION ( 'NONE',  ( 1.000000000000000000, 0.000000000000000000, 0.000000000000000000 ) ) ;
#198 = ORIENTED_EDGE ( 'NONE', *, *, #905, .F. ) ;
#199 = CC_DESIGN_PERSON_AND_ORGANIZATION_ASSIGNMENT ( #743, #272, ( #516 ) ) ;
#200 = EDGE_CURVE ( 'NONE', #761, #917, #448, .T. ) ;
#201 = AXIS2_PLACEMENT_3D ( 'NONE', #376, #204, #984 ) ;
#202 = CARTESIAN_POINT ( 'NONE',  ( 0.02818805504647586488, -0.004141340827022522812, 0.004358915179594229777 ) ) ;
#203 = AXIS2_PLACEMENT_3D ( 'NONE', #295, #124, #912 ) ;
#204 = DIRECTION ( 'NONE',  ( 0.000000000000000000, 0.000000000000000000, 1.000000000000000000 ) ) ;
#205 = VERTEX_POINT ( 'NONE', #75 ) ;
#206 = EDGE_CURVE ( 'NONE', #917, #572, #297, .T. ) ;
#207 = CARTESIAN_POINT ( 'NONE',  ( 0.02658335328901168318, -0.004513183805614581594, 0.003749999999999995091 ) ) ;
#208 = CARTESIAN_POINT ( 'NONE',  ( 0.05378781041622698877, -0.009765796605923809590, 0.008534019363868609181 ) ) ;
#209 = EDGE_LOOP ( 'NONE', ( #390, #221 ) ) ;
#210 = CARTESIAN_POINT ( 'NONE',  ( 0.02773437504540056386, 0.004238089347099917824, 0.004461108987410226587 ) ) ;
#211 = ADVANCED_FACE ( 'NONE', ( #327 ), #639, .F. ) ;
#212 = CARTESIAN_POINT ( 'NONE',  ( 0.02233362403664015602, 0.005713196668605117698, 0.003749999999999999861 ) ) ;
#213 = VERTEX_POINT ( 'NONE', #804 ) ;
#214 = AXIS2_PLACEMENT_3D ( 'NONE', #788, #551, #636 ) ;
#215 = CIRCLE ( 'NONE', #897, 0.009999999999999995004 ) ;
#216 = DIRECTION ( 'NONE',  ( 0.3987490689252469744, -0.9170600743851237135, 0.000000000000000000 ) ) ;
#217 = AXIS2_PLACEMENT_3D ( 'NONE', #452, #216, #756 ) ;
#218 = CARTESIAN_POINT ( 'NONE',  ( 0.01594225281181803344, -4.898587196589412767E-18, 0.01349999999999999985 ) ) ;
#219 = CARTESIAN_POINT ( 'NONE',  ( 0.05763424614915307193, -0.009864628537741827047, 0.01279426802434728734 ) ) ;
#220 = EDGE_LOOP ( 'NONE', ( #781, #1002, #737, #8, #771 ) ) ;
#221 = ORIENTED_EDGE ( 'NONE', *, *, #793, .T. ) ;
#222 = CARTESIAN_POINT ( 'NONE',  ( 0.05514153545528944350, -0.009971715687760345989, 0.01086737705847888071 ) ) ;
#223 = ORIENTED_EDGE ( 'NONE', *, *, #504, .T. ) ;
#224 = CARTESIAN_POINT ( 'NONE',  ( 0.06342206137731801197, -0.02182783206671517345, 0.006749999999999999924 ) ) ;
#225 = EDGE_LOOP ( 'NONE', ( #13, #350, #690, #722 ) ) ;
#226 = CC_DESIGN_PERSON_AND_ORGANIZATION_ASSIGNMENT ( #507, #360, ( #516 ) ) ;
#227 = EDGE_CURVE ( 'NONE', #514, #104, #61, .T. ) ;
#228 = CARTESIAN_POINT ( 'NONE',  ( 0.02802187817548644141, 0.004176050018776388158, 0.004735612757876848239 ) ) ;
#229 = CIRCLE ( 'NONE', #766, 0.006750000000000001658 ) ;
#230 = CARTESIAN_POINT ( 'NONE',  ( 0.05824536833738582636, -0.009733405201316318311, 0.0004466162013659768387 ) ) ;
#231 = CYLINDRICAL_SURFACE ( 'NONE', #461, 0.008000000000000000167 ) ;
#232 = FACE_OUTER_BOUND ( 'NONE', #147, .T. ) ;
#233 = AXIS2_PLACEMENT_3D ( 'NONE', #719, #933, #632 ) ;
#234 = CYLINDRICAL_SURFACE ( 'NONE', #146, 0.009999999999999995004 ) ;
#235 = CARTESIAN_POINT ( 'NONE',  ( 0.05886720448155512153, -0.009573114589461983320, 0.01327408401649301205 ) ) ;
#236 = CARTESIAN_POINT ( 'NONE',  ( 0.07289219480393527295, -0.03733804073333428508, 0.006749999999999999924 ) ) ;
#237 = CYLINDRICAL_SURFACE ( 'NONE', #369, 0.001500000000000001332 ) ;
#238 = VERTEX_POINT ( 'NONE', #906 ) ;
#239 = CARTESIAN_POINT ( 'NONE',  ( 0.02757566269734938388, 0.004273384749242011178, 0.004337268651536747323 ) ) ;
#240 = CARTESIAN_POINT ( 'NONE',  ( 0.03517496806779626950, -0.0006999906036197655517, 0.01349999999999999985 ) ) ;
#241 = ADVANCED_FACE ( 'NONE', ( #187 ), #112, .T. ) ;
#242 = CYLINDRICAL_SURFACE ( 'NONE', #986, 0.003500000000000003109 ) ;
#243 = DIRECTION ( 'NONE',  ( -1.000000000000000000, 0.000000000000000000, 0.000000000000000000 ) ) ;
#244 = EDGE_LOOP ( 'NONE', ( #177, #302, #183, #728 ) ) ;
#245 = B_SPLINE_CURVE_WITH_KNOTS ( 'NONE', 2,
 ( #698, #1009, #306 ),
 .UNSPECIFIED., .F., .F.,
 ( 3, 3 ),
 ( 0.7664735581950108401, 1.000000000000000000 ),
 .UNSPECIFIED. ) ;
#246 = CARTESIAN_POINT ( 'NONE',  ( 0.02707113032933483251, 0.004391296620508740138, 0.009461415852490384637 ) ) ;
#247 = DIRECTION ( 'NONE',  ( -1.000000000000000000, 0.000000000000000000, 0.000000000000000000 ) ) ;
#248 = ADVANCED_FACE ( 'NONE', ( #749 ), #441, .F. ) ;
#249 = DIRECTION ( 'NONE',  ( 1.000000000000000000, 0.000000000000000000, 0.000000000000000000 ) ) ;
#250 = CIRCLE ( 'NONE', #334, 0.001500000000000001332 ) ;
#251 = ORIENTED_EDGE ( 'NONE', *, *, #965, .T. ) ;
#252 = VECTOR ( 'NONE', #831, 1.000000000000000000 ) ;
#253 = CARTESIAN_POINT ( 'NONE',  ( 0.06518305740214018484, -0.003823790474457022370, 0.004301496540548012740 ) ) ;
#254 = AXIS2_PLACEMENT_3D ( 'NONE', #10, #854, #144 ) ;
#255 = FACE_OUTER_BOUND ( 'NONE', #31, .T. ) ;
#256 = CARTESIAN_POINT ( 'NONE',  ( 0.01444225281181803211, -4.898587196589412767E-18, 0.01349999999999999985 ) ) ;
#257 = ORIENTED_EDGE ( 'NONE', *, *, #495, .F. ) ;
#258 = DIRECTION ( 'NONE',  ( 0.3987490689252470299, -0.9170600743851237135, 0.000000000000000000 ) ) ;
#259 = PERSON_AND_ORGANIZATION_ROLE ( 'creator' ) ;
#260 = DIRECTION ( 'NONE',  ( -0.000000000000000000, -0.000000000000000000, -1.000000000000000000 ) ) ;
#261 = FACE_BOUND ( 'NONE', #141, .T. ) ;
#262 = VERTEX_POINT ( 'NONE', #46 ) ;
#263 = CARTESIAN_POINT ( 'NONE',  ( 0.06306477743191052365, -0.007032501258906561151, 0.0007232280670144045727 ) ) ;
#264 = DATE_AND_TIME ( #967, #118 ) ;
#265 = DIRECTION ( 'NONE',  ( -1.000000000000000000, 0.000000000000000000, 0.000000000000000000 ) ) ;
#266 = CARTESIAN_POINT ( 'NONE',  ( 0.03517496806779626950, -0.0006999906036197655517, 0.01349999999999999985 ) ) ;
#267 = ORIENTED_EDGE ( 'NONE', *, *, #135, .T. ) ;
#268 = VECTOR ( 'NONE', #260, 1.000000000000000000 ) ;
#269 = CARTESIAN_POINT ( 'NONE',  ( 0.06133298515388849181, -0.008425800929455705759, 6.011424723278767601E-05 ) ) ;
#270 = AXIS2_PLACEMENT_3D ( 'NONE', #708, #2, #317 ) ;
#271 = CC_DESIGN_APPROVAL ( #445, ( #121 ) ) ;
#272 = PERSON_AND_ORGANIZATION_ROLE ( 'creator' ) ;
#273 = CARTESIAN_POINT ( 'NONE',  ( 0.02873714769543241065, -0.004033611773045665989, 0.008590205332595813800 ) ) ;
#274 = CARTESIAN_POINT ( 'NONE',  ( 0.06541319064197059774, -0.003209569537708312995, 0.006984836317121601891 ) ) ;
#275 = ORIENTED_EDGE ( 'NONE', *, *, #122, .T. ) ;
#276 = DATE_AND_TIME ( #839, #318 ) ;
#277 = CARTESIAN_POINT ( 'NONE',  ( 0.02935336181839708763, -0.003924501670544685260, 0.006949237906797208104 ) ) ;
#278 = CARTESIAN_POINT ( 'NONE',  ( 0.05594225281181802734, 0.000000000000000000, 0.000000000000000000 ) ) ;
#279 = EDGE_CURVE ( 'NONE', #213, #1012, #110, .T. ) ;
#280 = ORIENTED_EDGE ( 'NONE', *, *, #868, .F. ) ;
#281 = CARTESIAN_POINT ( 'NONE',  ( 0.02861342770241454350, -0.004056955235063158284, 0.008741145734183108917 ) ) ;
#282 = PLANE ( 'NONE',  #201 ) ;
#283 = EDGE_CURVE ( 'NONE', #558, #293, #128, .T. ) ;
#284 = EDGE_LOOP ( 'NONE', ( #68, #458, #857, #335 ) ) ;
#285 = AXIS2_PLACEMENT_3D ( 'NONE', #836, #348, #432 ) ;
#286 = AXIS2_PLACEMENT_3D ( 'NONE', #550, #865, #618 ) ;
#287 = CARTESIAN_POINT ( 'NONE',  ( 0.02786658917286724893, -0.004209138436650435716, 0.004142832143021002098 ) ) ;
#288 = DIRECTION ( 'NONE',  ( 0.000000000000000000, 0.000000000000000000, 1.000000000000000000 ) ) ;
#289 = ORIENTED_EDGE ( 'NONE', *, *, #126, .F. ) ;
#290 = EDGE_CURVE ( 'NONE', #761, #649, #29, .T. ) ;
#291 = FACE_OUTER_BOUND ( 'NONE', #505, .T. ) ;
#292 = CYLINDRICAL_SURFACE ( 'NONE', #695, 0.008000000000000000167 ) ;
#293 = VERTEX_POINT ( 'NONE', #192 ) ;
#294 = B_SPLINE_CURVE_WITH_KNOTS ( 'NONE', 3,
 ( #347, #729, #19, #660, #85, #190, #253, #506, #178, #167, #960, #342, #568, #895, #409, #966, #263, #579, #723, #971, #184, #330, #269, #587, #501, #488 ),
 .UNSPECIFIED., .F., .F.,
 ( 4, 2, 2, 2, 2, 2, 2, 2, 2, 2, 2, 2, 4 ),
 ( 0.000000000000000000, 0.001386065889900573930, 0.002079098834850862196, 0.002772131779801150029, 0.004158197669701717454, 0.005544263559602284445, 0.006237296504552567941, 0.006930329449502850570, 0.008316395339403396744, 0.009009428284353682842, 0.009702461229303968940, 0.01039549417425425330, 0.01108852711920453940 ),
 .UNSPECIFIED. ) ;
#295 = CARTESIAN_POINT ( 'NONE',  ( 0.05594225281181802734, 0.000000000000000000, 0.01349999999999999985 ) ) ;
#296 = VERTEX_POINT ( 'NONE', #825 ) ;
#297 = B_SPLINE_CURVE_WITH_KNOTS ( 'NONE', 2,
 ( #82, #406, #485 ),
 .UNSPECIFIED., .F., .F.,
 ( 3, 3 ),
 ( 0.000000000000000000, 1.000000000000000000 ),
 .UNSPECIFIED. ) ;
#298 = CIRCLE ( 'NONE', #643, 0.003500000000000003109 ) ;
#299 = AXIS2_PLACEMENT_3D ( 'NONE', #619, #943, #307 ) ;
#300 = CARTESIAN_POINT ( 'NONE',  ( 0.04994801961728843193, -0.008004321858196321304, 0.000000000000000000 ) ) ;
#301 = AXIS2_PLACEMENT_3D ( 'NONE', #338, #354, #186 ) ;
#302 = ORIENTED_EDGE ( 'NONE', *, *, #598, .F. ) ;
#303 = CARTESIAN_POINT ( 'NONE',  ( 0.01885115397969692325, 0.007452401894390341293, 0.009749999999999999986 ) ) ;
#304 = VERTEX_POINT ( 'NONE', #39 ) ;
#305 = EDGE_CURVE ( 'NONE', #850, #476, #355, .T. ) ;
#306 = CARTESIAN_POINT ( 'NONE',  ( 0.01885115397969692325, -0.007452401894390351701, 0.003749999999999999861 ) ) ;
#307 = DIRECTION ( 'NONE',  ( 0.9170600743851236025, 0.3987490689252473075, 0.000000000000000000 ) ) ;
#308 = CARTESIAN_POINT ( 'NONE',  ( 0.05472838002530507756, -0.009927005143061619005, 0.003171180921438324519 ) ) ;
#309 = ORIENTED_EDGE ( 'NONE', *, *, #673, .T. ) ;
#310 = EDGE_CURVE ( 'NONE', #296, #603, #351, .T. ) ;
#311 = DIRECTION ( 'NONE',  ( 1.000000000000000000, 0.000000000000000000, 0.000000000000000000 ) ) ;
#312 = ORIENTED_EDGE ( 'NONE', *, *, #24, .F. ) ;
#313 = DIRECTION ( 'NONE',  ( -0.000000000000000000, -0.000000000000000000, -1.000000000000000000 ) ) ;
#314 = VECTOR ( 'NONE', #523, 1.000000000000000000 ) ;
#315 = CARTESIAN_POINT ( 'NONE',  ( 0.05351474032948810161, -0.009700885688849875815, 0.006525289850332178891 ) ) ;
#316 = FACE_BOUND ( 'NONE', #357, .T. ) ;
#317 = DIRECTION ( 'NONE',  ( 1.000000000000000000, 0.000000000000000000, 0.000000000000000000 ) ) ;
#318 = LOCAL_TIME ( 12, 44, 41.00000000000000000, #522 ) ;
#319 = CARTESIAN_POINT ( 'NONE',  ( 0.02773674710015832864, 0.004237560905759737637, 0.009037070564192671226 ) ) ;
#320 = EDGE_CURVE ( 'NONE', #786, #936, #229, .T. ) ;
#321 = CARTESIAN_POINT ( 'NONE',  ( 0.05244225281181802423, 0.000000000000000000, 0.01349999999999999985 ) ) ;
#322 = DIRECTION ( 'NONE',  ( -0.06916606670323111050, 0.9976051599790390911, -0.000000000000000000 ) ) ;
#323 = ORIENTED_EDGE ( 'NONE', *, *, #758, .T. ) ;
#324 = CARTESIAN_POINT ( 'NONE',  ( 0.02758093060397976901, 0.004272195679976896303, 0.009158910164004181037 ) ) ;
#325 = APPROVAL ( #375, 'UNSPECIFIED' ) ;
#326 = CARTESIAN_POINT ( 'NONE',  ( 0.06012123240401041901, -0.009096141087837831055, 0.01350000000000000332 ) ) ;
#327 = FACE_OUTER_BOUND ( 'NONE', #225, .T. ) ;
#328 = CARTESIAN_POINT ( 'NONE',  ( 0.01594225281181803344, -4.898587196589412767E-18, 0.009749999999999999986 ) ) ;
#329 = EDGE_LOOP ( 'NONE', ( #367, #45 ) ) ;
#330 = CARTESIAN_POINT ( 'NONE',  ( 0.06152503364928228746, -0.008299653208298373927, 9.560586656635066294E-05 ) ) ;
#331 = APPROVAL_DATE_TIME ( #15, #445 ) ;
#332 = CARTESIAN_POINT ( 'NONE',  ( 0.02574551488181226616, 0.004741183657989757674, 0.003749999999999999861 ) ) ;
#333 = DIRECTION ( 'NONE',  ( 0.3987490689252469744, -0.9170600743851237135, 0.000000000000000000 ) ) ;
#334 = AXIS2_PLACEMENT_3D ( 'NONE', #885, #576, #175 ) ;
#335 = ORIENTED_EDGE ( 'NONE', *, *, #646, .T. ) ;
#336 = DESIGN_CONTEXT ( 'detailed design', #81, 'design' ) ;
#337 = CARTESIAN_POINT ( 'NONE',  ( 0.01744225281181803477, -4.714890176717309422E-18, 0.003749999999999999861 ) ) ;
#338 = CARTESIAN_POINT ( 'NONE',  ( 0.06571471156328081986, -0.02083095939440205921, 0.006749999999999999924 ) ) ;
#339 = CARTESIAN_POINT ( 'NONE',  ( 0.01885115397969692325, 0.007452401894390341293, 0.01349999999999999985 ) ) ;
#340 = CARTESIAN_POINT ( 'NONE',  ( 0.06258611679667641647, -0.007477018811826180271, 0.01304134174365649546 ) ) ;
#341 = VERTEX_POINT ( 'NONE', #477 ) ;
#342 = CARTESIAN_POINT ( 'NONE',  ( 0.06417907851001176944, -0.005673312366328283479, 0.001839139996150330894 ) ) ;
#343 = COORDINATED_UNIVERSAL_TIME_OFFSET ( 3, 0, .AHEAD. ) ;
#344 = CARTESIAN_POINT ( 'NONE',  ( 0.05944225281181803044, 4.286263797015736364E-19, 0.01349999999999999985 ) ) ;
#345 = LINE ( 'NONE', #583, #647 ) ;
#346 = ORIENTED_EDGE ( 'NONE', *, *, #58, .F. ) ;
#347 = CARTESIAN_POINT ( 'NONE',  ( 0.06541319064197058386, -0.003209569537708311261, 0.006749999999999999924 ) ) ;
#348 = DIRECTION ( 'NONE',  ( 0.3987490689252469744, -0.9170600743851237135, 0.000000000000000000 ) ) ;
#349 = CARTESIAN_POINT ( 'NONE',  ( 0.06541319064197058386, -0.003209569537708311261, 0.006749999999999999924 ) ) ;
#350 = ORIENTED_EDGE ( 'NONE', *, *, #305, .T. ) ;
#351 = CIRCLE ( 'NONE', #896, 0.008000000000000000167 ) ;
#352 = AXIS2_PLACEMENT_3D ( 'NONE', #899, #188, #113 ) ;
#353 = ADVANCED_FACE ( 'NONE', ( #291 ), #877, .F. ) ;
#354 = DIRECTION ( 'NONE',  ( 0.3987490689252470299, -0.9170600743851237135, 0.000000000000000000 ) ) ;
#355 = LINE ( 'NONE', #667, #972 ) ;
#356 = CARTESIAN_POINT ( 'NONE',  ( 0.06093242255723087947, -0.008669051786989519226, 0.01348803591337408882 ) ) ;
#357 = EDGE_LOOP ( 'NONE', ( #585, #363 ) ) ;
#358 = MANIFOLD_SOLID_BREP ( 'Boss-Extrude5', #911 ) ;
#359 = EDGE_CURVE ( 'NONE', #134, #500, #528, .T. ) ;
#360 = PERSON_AND_ORGANIZATION_ROLE ( 'design_supplier' ) ;
#361 = CARTESIAN_POINT ( 'NONE',  ( 0.02818474893558342576, -0.004142018380225800413, 0.009143661049014099179 ) ) ;
#362 = CARTESIAN_POINT ( 'NONE',  ( 0.05362507513103553086, -0.009727989974384818744, 0.007873554248487965937 ) ) ;
#363 = ORIENTED_EDGE ( 'NONE', *, *, #1006, .F. ) ;
#364 = CALENDAR_DATE ( 2026, 12, 8 ) ;
#365 = CARTESIAN_POINT ( 'NONE',  ( 0.02786234350344245908, -0.004210054031801579999, 0.009359659393937713387 ) ) ;
#366 = CARTESIAN_POINT ( 'NONE',  ( 0.07289219480393527295, -0.03733804073333428508, 0.006749999999999999924 ) ) ;
#367 = ORIENTED_EDGE ( 'NONE', *, *, #86, .T. ) ;
#368 = EDGE_CURVE ( 'NONE', #205, #887, #73, .T. ) ;
#369 = AXIS2_PLACEMENT_3D ( 'NONE', #870, #640, #243 ) ;
#370 = CIRCLE ( 'NONE', #938, 0.001500000000000001332 ) ;
#371 = APPROVAL_ROLE ( '' ) ;
#372 = CARTESIAN_POINT ( 'NONE',  ( 0.01594225281181803344, -4.898587196589412767E-18, 0.003749999999999999861 ) ) ;
#373 = CARTESIAN_POINT ( 'NONE',  ( 0.007942252811818033276, -4.898587196589412767E-18, 0.003749999999999999861 ) ) ;
#374 = ORIENTED_EDGE ( 'NONE', *, *, #290, .T. ) ;
#375 = APPROVAL_STATUS ( 'not_yet_approved' ) ;
#376 = CARTESIAN_POINT ( 'NONE',  ( 0.03478727743314447007, 0.003514185636336783145, 0.01349999999999999985 ) ) ;
#377 = ORIENTED_EDGE ( 'NONE', *, *, #655, .F. ) ;
#378 = CARTESIAN_POINT ( 'NONE',  ( 0.05351474032948812243, -0.009700885688849875815, 0.006974624391390623485 ) ) ;
#379 = EDGE_CURVE ( 'NONE', #77, #958, #627, .T. ) ;
#380 = EDGE_CURVE ( 'NONE', #799, #979, #795, .T. ) ;
#381 = AXIS2_PLACEMENT_3D ( 'NONE', #846, #54, #998 ) ;
#382 = CARTESIAN_POINT ( 'NONE',  ( 0.07190486706538037898, -0.01813940317915663930, 0.006749999999999999924 ) ) ;
#383 = ORIENTED_EDGE ( 'NONE', *, *, #320, .F. ) ;
#384 = CARTESIAN_POINT ( 'NONE',  ( 0.05594225281181802734, 0.000000000000000000, 0.01349999999999999985 ) ) ;
#385 = CARTESIAN_POINT ( 'NONE',  ( 0.02670608049772618328, 0.004481835541946387058, 0.009605343975510528820 ) ) ;
#386 = EDGE_CURVE ( 'NONE', #49, #77, #155, .T. ) ;
#387 = CARTESIAN_POINT ( 'NONE',  ( 0.05723085187325199080, -0.009923910297835581915, 0.0009206904368896926590 ) ) ;
#388 = EDGE_LOOP ( 'NONE', ( #674, #882, #267, #527 ) ) ;
#389 = DIRECTION ( 'NONE',  ( 0.000000000000000000, 0.000000000000000000, 1.000000000000000000 ) ) ;
#390 = ORIENTED_EDGE ( 'NONE', *, *, #939, .T. ) ;
#391 = CARTESIAN_POINT ( 'NONE',  ( 0.02815592719088871876, 0.004148175187822710115, 0.008608100755786106048 ) ) ;
#392 = CARTESIAN_POINT ( 'NONE',  ( 0.05352845039059742072, -0.009704347712192062589, 0.006300460148596300110 ) ) ;
#393 = EDGE_LOOP ( 'NONE', ( #164, #412, #847, #641 ) ) ;
#394 = DIRECTION ( 'NONE',  ( 1.000000000000000000, 0.000000000000000000, 0.000000000000000000 ) ) ;
#395 = ADVANCED_FACE ( 'NONE', ( #1010 ), #705, .T. ) ;
#396 = CARTESIAN_POINT ( 'NONE',  ( 0.01885115397969692325, 0.007452401894390341293, 0.009749999999999999986 ) ) ;
#397 = CIRCLE ( 'NONE', #478, 0.003500000000000003109 ) ;
#398 = CARTESIAN_POINT ( 'NONE',  ( 0.01885115397969692325, 0.007452401894390341293, 0.003749999999999999861 ) ) ;
#399 = CARTESIAN_POINT ( 'NONE',  ( 0.01885115397969692325, 0.007452401894390341293, 0.01349999999999999985 ) ) ;
#400 = CIRCLE ( 'NONE', #529, 0.001500000000000001332 ) ;
#401 = DIRECTION ( 'NONE',  ( -1.000000000000000000, 0.000000000000000000, 0.000000000000000000 ) ) ;
#402 = APPROVAL_PERSON_ORGANIZATION ( #517, #325, #371 ) ;
#403 = ORIENTED_EDGE ( 'NONE', *, *, #767, .T. ) ;
#404 = CARTESIAN_POINT ( 'NONE',  ( 0.06571471156328080598, -0.02083095939440205574, 0.006749999999999999924 ) ) ;
#405 = PLANE ( 'NONE',  #254 ) ;
#406 = CARTESIAN_POINT ( 'NONE',  ( 0.03517496806779626950, 0.0006999906036197586128, 0.01349999999999999985 ) ) ;
#407 = DIRECTION ( 'NONE',  ( -0.000000000000000000, -0.000000000000000000, -1.000000000000000000 ) ) ;
#408 = ORIENTED_EDGE ( 'NONE', *, *, #489, .T. ) ;
#409 = CARTESIAN_POINT ( 'NONE',  ( 0.06372694242208437609, -0.006279926240918914937, 0.001293514472473736949 ) ) ;
#410 = CARTESIAN_POINT ( 'NONE',  ( 0.01594225281181803344, -4.898587196589412767E-18, 0.01349999999999999985 ) ) ;
#411 = CARTESIAN_POINT ( 'NONE',  ( 0.04994801961728843193, 0.008004321858196321304, 0.01349999999999999985 ) ) ;
#412 = ORIENTED_EDGE ( 'NONE', *, *, #279, .F. ) ;
#413 = CARTESIAN_POINT ( 'NONE',  ( 0.01594225281181803344, -4.898587196589412767E-18, 0.01349999999999999985 ) ) ;
#414 = APPROVAL ( #191, 'UNSPECIFIED' ) ;
#415 = CARTESIAN_POINT ( 'NONE',  ( 0.05351474032948810161, -0.009700885688849874081, 0.006750000000000000791 ) ) ;
#416 = DIRECTION ( 'NONE',  ( 1.000000000000000000, 0.000000000000000000, 0.000000000000000000 ) ) ;
#417 = EDGE_LOOP ( 'NONE', ( #1008, #611, #289, #900, #511, #964, #145, #130 ) ) ;
#418 = AXIS2_PLACEMENT_3D ( 'NONE', #634, #83, #935 ) ;
#419 = CARTESIAN_POINT ( 'NONE',  ( 0.06052239493597733055, -0.008889448696207283979, 0.01349999999999999985 ) ) ;
#420 = CARTESIAN_POINT ( 'NONE',  ( 0.03517496806779626950, 0.0006999906036197586128, 0.01349999999999999985 ) ) ;
#421 = DIRECTION ( 'NONE',  ( 0.000000000000000000, 0.000000000000000000, 1.000000000000000000 ) ) ;
#422 = ADVANCED_FACE ( 'NONE', ( #937 ), #234, .T. ) ;
#423 = CARTESIAN_POINT ( 'NONE',  ( 0.06536681815712462595, -0.003343967774969204033, 0.007907512610420528582 ) ) ;
#424 = ORIENTED_EDGE ( 'NONE', *, *, #604, .F. ) ;
#425 = CYLINDRICAL_SURFACE ( 'NONE', #953, 0.002499999999999998751 ) ;
#426 = APPROVAL_ROLE ( '' ) ;
#427 = DIRECTION ( 'NONE',  ( -1.000000000000000000, 0.000000000000000000, 0.000000000000000000 ) ) ;
#428 = CARTESIAN_POINT ( 'NONE',  ( 0.06385003877466087496, -0.006123933533601033825, 0.01207436862873011163 ) ) ;
#429 = ORIENTED_EDGE ( 'NONE', *, *, #687, .F. ) ;
#430 = EDGE_CURVE ( 'NONE', #238, #603, #654, .T. ) ;
#431 =( LENGTH_UNIT ( ) NAMED_UNIT ( * ) SI_UNIT ( $, .METRE. ) );
#432 = DIRECTION ( 'NONE',  ( 0.9170600743851236025, 0.3987490689252471965, 0.000000000000000000 ) ) ;
#433 = CARTESIAN_POINT ( 'NONE',  ( 0.01885115397969691978, 0.007452401894390343028, 0.000000000000000000 ) ) ;
#434 = VERTEX_POINT ( 'NONE', #419 ) ;
#435 = CC_DESIGN_DATE_AND_TIME_ASSIGNMENT ( #180, #38, ( #121 ) ) ;
#436 = CIRCLE ( 'NONE', #381, 0.002499999999999998751 ) ;
#437 = DIRECTION ( 'NONE',  ( 1.000000000000000000, 0.000000000000000000, 0.000000000000000000 ) ) ;
#438 = CARTESIAN_POINT ( 'NONE',  ( 0.04994801961728843193, 0.008004321858196324774, 0.000000000000000000 ) ) ;
#439 = EDGE_LOOP ( 'NONE', ( #855, #752 ) ) ;
#440 = PERSON ( 'UNSPECIFIED', 'UNSPECIFIED', 'UNSPECIFIED', ('UNSPECIFIED'), ('UNSPECIFIED'), ('UNSPECIFIED') ) ;
#441 = CYLINDRICAL_SURFACE ( 'NONE', #679, 0.003500000000000003109 ) ;
#442 = DIRECTION ( 'NONE',  ( 1.000000000000000000, 0.000000000000000000, 0.000000000000000000 ) ) ;
#443 = VERTEX_POINT ( 'NONE', #811 ) ;
#444 = CARTESIAN_POINT ( 'NONE',  ( 0.02651395396957638081, 0.004531175017764263284, 0.003839607137329457357 ) ) ;
#445 = APPROVAL ( #824, 'UNSPECIFIED' ) ;
#446 = DIRECTION ( 'NONE',  ( 1.000000000000000000, 0.000000000000000000, 0.000000000000000000 ) ) ;
#447 = ORIENTED_EDGE ( 'NONE', *, *, #609, .F. ) ;
#448 = CIRCLE ( 'NONE', #830, 0.008000000000000000167 ) ;
#449 = AXIS2_PLACEMENT_3D ( 'NONE', #1016, #313, #624 ) ;
#450 = DIRECTION ( 'NONE',  ( -0.000000000000000000, -0.000000000000000000, -1.000000000000000000 ) ) ;
#451 = EDGE_LOOP ( 'NONE', ( #678, #615 ) ) ;
#452 = CARTESIAN_POINT ( 'NONE',  ( 0.05853722832262635983, -0.004323878055469829867, 0.006749999999999999924 ) ) ;
#453 = DIRECTION ( 'NONE',  ( -0.000000000000000000, -0.000000000000000000, -1.000000000000000000 ) ) ;
#454 = ORIENTED_EDGE ( 'NONE', *, *, #702, .T. ) ;
#455 = EDGE_CURVE ( 'NONE', #936, #786, #116, .T. ) ;
#456 = CARTESIAN_POINT ( 'NONE',  ( 0.05763348347883885670, -0.009864776255922910048, 0.0007060812316756627082 ) ) ;
#457 = ORIENTED_EDGE ( 'NONE', *, *, #793, .F. ) ;
#458 = ORIENTED_EDGE ( 'NONE', *, *, #852, .F. ) ;
#459 = ADVANCED_FACE ( 'NONE', ( #484 ), #742, .T. ) ;
#460 = DIRECTION ( 'NONE',  ( 0.000000000000000000, -0.000000000000000000, -1.000000000000000000 ) ) ;
#461 = AXIS2_PLACEMENT_3D ( 'NONE', #218, #453, #549 ) ;
#462 = B_SPLINE_SURFACE_WITH_KNOTS ( 'NONE', 2, 1, ( 
 ( #411, #740 ),
 ( #266, #89 ),
 ( #648, #433 ) ),
 .UNSPECIFIED., .F., .F., .F.,
 ( 3, 3 ),
 ( 2, 2 ),
 ( 0.000000000000000000, 1.000000000000000000 ),
 ( 0.000000000000000000, 1.000000000000000000 ),
 .UNSPECIFIED. ) ;
#463 = CIRCLE ( 'NONE', #878, 0.001500000000000001332 ) ;
#464 = CARTESIAN_POINT ( 'NONE',  ( 0.06052239493597733055, -0.008889448696207285713, 0.000000000000000000 ) ) ;
#465 = ORIENTED_EDGE ( 'NONE', *, *, #320, .T. ) ;
#466 = CARTESIAN_POINT ( 'NONE',  ( 0.05594225281181802734, 0.000000000000000000, 0.000000000000000000 ) ) ;
#467 = CARTESIAN_POINT ( 'NONE',  ( 0.02863816980597247083, 0.004052431780298394910, 0.005757531160904856039 ) ) ;
#468 = CARTESIAN_POINT ( 'NONE',  ( 0.05358361258308197428, -0.009717902187159824581, 0.005850559573579795607 ) ) ;
#469 = ADVANCED_FACE ( 'NONE', ( #952 ), #425, .T. ) ;
#470 = ORIENTED_EDGE ( 'NONE', *, *, #573, .F. ) ;
#471 = DIRECTION ( 'NONE',  ( 1.000000000000000000, 0.000000000000000000, 0.000000000000000000 ) ) ;
#472 = CARTESIAN_POINT ( 'NONE',  ( 0.02838350152022911174, 0.004101988914117176040, 0.008281115252125182194 ) ) ;
#473 = CARTESIAN_POINT ( 'NONE',  ( 0.05611919816183038451, -0.01000399316569599087, 0.01181516283833214907 ) ) ;
#474 = DIRECTION ( 'NONE',  ( 0.9170600743851237135, 0.3987490689252470299, 0.000000000000000000 ) ) ;
#475 = DIRECTION ( 'NONE',  ( -0.9976051599790390911, -0.06916606670323104111, 0.000000000000000000 ) ) ;
#476 = VERTEX_POINT ( 'NONE', #738 ) ;
#477 = CARTESIAN_POINT ( 'NONE',  ( 0.01885115397969692325, -0.007452401894390351701, 0.009749999999999999986 ) ) ;
#478 = AXIS2_PLACEMENT_3D ( 'NONE', #553, #421, #645 ) ;
#479 = CARTESIAN_POINT ( 'NONE',  ( 0.05647513736931975004, -0.009993002235022469329, 0.01209006688087336905 ) ) ;
#480 = DIRECTION ( 'NONE',  ( 0.000000000000000000, 0.000000000000000000, 1.000000000000000000 ) ) ;
#481 = VECTOR ( 'NONE', #893, 1.000000000000000000 ) ;
#482 = DIRECTION ( 'NONE',  ( 0.000000000000000000, 0.000000000000000000, 1.000000000000000000 ) ) ;
#483 = ORIENTED_EDGE ( 'NONE', *, *, #784, .F. ) ;
#484 = FACE_OUTER_BOUND ( 'NONE', #388, .T. ) ;
#485 = CARTESIAN_POINT ( 'NONE',  ( 0.04994801961728843193, -0.008004321858196321304, 0.01349999999999999985 ) ) ;
#486 = CARTESIAN_POINT ( 'NONE',  ( 0.01594225281181803344, -4.898587196589412767E-18, 0.000000000000000000 ) ) ;
#487 = ORIENTED_EDGE ( 'NONE', *, *, #992, .T. ) ;
#488 = CARTESIAN_POINT ( 'NONE',  ( 0.06052239493597733055, -0.008889448696207285713, 0.000000000000000000 ) ) ;
#489 = EDGE_CURVE ( 'NONE', #134, #746, #901, .T. ) ;
#490 =( NAMED_UNIT ( * ) SI_UNIT ( $, .STERADIAN. ) SOLID_ANGLE_UNIT ( ) );
#491 = CARTESIAN_POINT ( 'NONE',  ( 0.01594225281181803344, -4.898587196589412767E-18, 0.01349999999999999985 ) ) ;
#492 = FACE_OUTER_BOUND ( 'NONE', #220, .T. ) ;
#493 = ORIENTED_EDGE ( 'NONE', *, *, #573, .T. ) ;
#494 = DIRECTION ( 'NONE',  ( 0.9170600743851237135, 0.3987490689252468079, 0.000000000000000000 ) ) ;
#495 = EDGE_CURVE ( 'NONE', #608, #443, #294, .T. ) ;
#496 = CARTESIAN_POINT ( 'NONE',  ( 0.01885115397969692325, -0.007452401894390351701, 0.000000000000000000 ) ) ;
#497 = CARTESIAN_POINT ( 'NONE',  ( 0.01444225281181803211, -4.898587196589412767E-18, 0.003749999999999999861 ) ) ;
#498 = CARTESIAN_POINT ( 'NONE',  ( 0.06522797446976213998, -0.003718943966170176144, 0.009004935317619222959 ) ) ;
#499 = CIRCLE ( 'NONE', #51, 0.003500000000000003109 ) ;
#500 = VERTEX_POINT ( 'NONE', #807 ) ;
#501 = CARTESIAN_POINT ( 'NONE',  ( 0.06072938749574128409, -0.008782799186798792568, 4.662916374634923367E-19 ) ) ;
#502 = CARTESIAN_POINT ( 'NONE',  ( 0.02874040745436068009, -0.004033004280771128325, 0.004914219810893372467 ) ) ;
#503 = DIRECTION ( 'NONE',  ( -1.000000000000000000, 0.000000000000000000, -0.000000000000000000 ) ) ;
#504 = EDGE_CURVE ( 'NONE', #572, #909, #820, .T. ) ;
#505 = EDGE_LOOP ( 'NONE', ( #114, #623, #280, #765 ) ) ;
#506 = CARTESIAN_POINT ( 'NONE',  ( 0.06504427075715751849, -0.004148329977109745624, 0.003699909056765102091 ) ) ;
#507 = PERSON_AND_ORGANIZATION ( #440, #586 ) ;
#508 = CARTESIAN_POINT ( 'NONE',  ( 0.02935368606911148773, -0.003924447462511295066, 0.006555751697741827276 ) ) ;
#509 = CARTESIAN_POINT ( 'NONE',  ( 0.06072827986058131067, -0.008783369877583767013, 0.01349999999999999985 ) ) ;
#510 = CC_DESIGN_DATE_AND_TIME_ASSIGNMENT ( #276, #136, ( #64 ) ) ;
#511 = ORIENTED_EDGE ( 'NONE', *, *, #368, .T. ) ;
#512 = CARTESIAN_POINT ( 'NONE',  ( 0.02715271796935080778, -0.004371619446948186126, 0.003844926061621062666 ) ) ;
#513 = CARTESIAN_POINT ( 'NONE',  ( 0.01885115397969692325, 0.007452401894390341293, 0.003749999999999999861 ) ) ;
#514 = VERTEX_POINT ( 'NONE', #337 ) ;
#515 = CIRCLE ( 'NONE', #203, 0.009999999999999995004 ) ;
#516 = PRODUCT_DEFINITION_FORMATION_WITH_SPECIFIED_SOURCE ( 'ANY', '', #918, .NOT_KNOWN. ) ;
#517 = PERSON_AND_ORGANIZATION ( #440, #586 ) ;
#518 = CARTESIAN_POINT ( 'NONE',  ( 0.02769344730091971574, -0.004246957931116682010, 0.004049683859047838175 ) ) ;
#519 = DIRECTION ( 'NONE',  ( -0.000000000000000000, -0.000000000000000000, -1.000000000000000000 ) ) ;
#520 = EDGE_LOOP ( 'NONE', ( #926, #90, #694, #323, #592 ) ) ;
#521 = ADVANCED_FACE ( 'NONE', ( #703 ), #856, .F. ) ;
#522 = COORDINATED_UNIVERSAL_TIME_OFFSET ( 3, 0, .AHEAD. ) ;
#523 = DIRECTION ( 'NONE',  ( -0.000000000000000000, -0.000000000000000000, -1.000000000000000000 ) ) ;
#524 = CARTESIAN_POINT ( 'NONE',  ( 0.05436041308692090429, -0.009874843663365138330, 0.009763595162513230216 ) ) ;
#525 = ORIENTED_EDGE ( 'NONE', *, *, #567, .T. ) ;
#526 = CARTESIAN_POINT ( 'NONE',  ( 0.02574551488181226616, 0.004741183657989757674, 0.003749999999999999861 ) ) ;
#527 = ORIENTED_EDGE ( 'NONE', *, *, #1000, .T. ) ;
#528 = CIRCLE ( 'NONE', #299, 0.002499999999999998751 ) ;
#529 = AXIS2_PLACEMENT_3D ( 'NONE', #981, #750, #197 ) ;
#530 = CARTESIAN_POINT ( 'NONE',  ( 0.01744225281181803477, -4.714890176717309422E-18, 0.01349999999999999985 ) ) ;
#531 = CARTESIAN_POINT ( 'NONE',  ( 0.03517496806779626950, -0.0006999906036197655517, 0.000000000000000000 ) ) ;
#532 = ADVANCED_FACE ( 'NONE', ( #232 ), #237, .F. ) ;
#533 = EDGE_LOOP ( 'NONE', ( #689, #951, #693, #621, #152 ) ) ;
#534 = CYLINDRICAL_SURFACE ( 'NONE', #40, 0.001500000000000001332 ) ;
#535 = ORIENTED_EDGE ( 'NONE', *, *, #200, .T. ) ;
#536 = B_SPLINE_SURFACE_WITH_KNOTS ( 'NONE', 2, 1, ( 
 ( #884, #496 ),
 ( #420, #174 ),
 ( #813, #101 ) ),
 .UNSPECIFIED., .F., .F., .F.,
 ( 3, 3 ),
 ( 2, 2 ),
 ( 0.000000000000000000, 1.000000000000000000 ),
 ( 0.000000000000000000, 1.000000000000000000 ),
 .UNSPECIFIED. ) ;
#537 = EDGE_CURVE ( 'NONE', #826, #53, #463, .T. ) ;
#538 = CARTESIAN_POINT ( 'NONE',  ( 0.02880231883353810002, 0.004021655225332808684, 0.006545492141028516099 ) ) ;
#539 = FACE_BOUND ( 'NONE', #329, .T. ) ;
#540 = DIRECTION ( 'NONE',  ( 0.000000000000000000, 0.000000000000000000, 1.000000000000000000 ) ) ;
#541 = ORIENTED_EDGE ( 'NONE', *, *, #638, .F. ) ;
#542 = CARTESIAN_POINT ( 'NONE',  ( 0.02837982500027214430, 0.004102719409209125249, 0.005212752296688462177 ) ) ;
#543 = AXIS2_PLACEMENT_3D ( 'NONE', #410, #726, #247 ) ;
#544 = EDGE_CURVE ( 'NONE', #558, #923, #499, .T. ) ;
#545 = VECTOR ( 'NONE', #956, 1.000000000000000000 ) ;
#546 = CIRCLE ( 'NONE', #286, 0.008000000000000000167 ) ;
#547 = CARTESIAN_POINT ( 'NONE',  ( 0.05435944193995437962, -0.009874687462013429298, 0.003738065824016634491 ) ) ;
#548 = CC_DESIGN_APPROVAL ( #414, ( #516 ) ) ;
#549 = DIRECTION ( 'NONE',  ( -1.000000000000000000, 0.000000000000000000, 0.000000000000000000 ) ) ;
#550 = CARTESIAN_POINT ( 'NONE',  ( 0.01594225281181803344, -4.898587196589412767E-18, 0.009749999999999999986 ) ) ;
#551 = DIRECTION ( 'NONE',  ( -0.000000000000000000, -0.000000000000000000, -1.000000000000000000 ) ) ;
#552 = CARTESIAN_POINT ( 'NONE',  ( 0.05970978535791488656, -0.009273918466719908299, 0.01345539327284603869 ) ) ;
#553 = CARTESIAN_POINT ( 'NONE',  ( 0.05594225281181802734, 0.000000000000000000, 0.000000000000000000 ) ) ;
#554 = CARTESIAN_POINT ( 'NONE',  ( 0.02724409769917952515, 0.004350001191235902155, 0.004126500708770707883 ) ) ;
#555 = DIRECTION ( 'NONE',  ( -1.000000000000000000, 0.000000000000000000, 0.000000000000000000 ) ) ;
#556 = LINE ( 'NONE', #94, #662 ) ;
#557 = CARTESIAN_POINT ( 'NONE',  ( 0.01885115397969692325, -0.007452401894390351701, 0.000000000000000000 ) ) ;
#558 = VERTEX_POINT ( 'NONE', #798 ) ;
#559 = CARTESIAN_POINT ( 'NONE',  ( 0.02651909973021138525, 0.004529831040946334653, 0.009659149913002903001 ) ) ;
#560 = VECTOR ( 'NONE', #102, 1.000000000000000000 ) ;
#561 = CARTESIAN_POINT ( 'NONE',  ( 0.02639066820830416812, -0.004564077117463519531, 0.003749999999999999861 ) ) ;
#562 = DIRECTION ( 'NONE',  ( 0.3987490689252470299, -0.9170600743851237135, 0.000000000000000000 ) ) ;
#563 = VECTOR ( 'NONE', #710, 1.000000000000000000 ) ;
#564 = DIRECTION ( 'NONE',  ( 0.9170600743851236025, 0.3987490689252473075, 0.000000000000000000 ) ) ;
#565 = VECTOR ( 'NONE', #137, 1.000000000000000000 ) ;
#566 = ORIENTED_EDGE ( 'NONE', *, *, #927, .T. ) ;
#567 = EDGE_CURVE ( 'NONE', #104, #514, #99, .T. ) ;
#568 = CARTESIAN_POINT ( 'NONE',  ( 0.06407259488430379346, -0.005825228177641578534, 0.001694400804918326855 ) ) ;
#569 = FACE_OUTER_BOUND ( 'NONE', #792, .T. ) ;
#570 = CARTESIAN_POINT ( 'NONE',  ( 0.01885115397969692325, 0.007452401894390341293, 0.01349999999999999985 ) ) ;
#571 = CARTESIAN_POINT ( 'NONE',  ( 0.06241870148181859201, -0.007622676469720137023, 0.01311999741296209637 ) ) ;
#572 = VERTEX_POINT ( 'NONE', #12 ) ;
#573 = EDGE_CURVE ( 'NONE', #649, #341, #546, .T. ) ;
#574 = DIRECTION ( 'NONE',  ( -0.3987490689252470855, 0.9170600743851238246, -0.000000000000000000 ) ) ;
#575 = DIRECTION ( 'NONE',  ( 1.000000000000000000, 0.000000000000000000, 0.000000000000000000 ) ) ;
#576 = DIRECTION ( 'NONE',  ( 0.000000000000000000, 0.000000000000000000, 1.000000000000000000 ) ) ;
#577 = CARTESIAN_POINT ( 'NONE',  ( 0.06372889564560721420, -0.006277560467668815737, 0.01220456683726351028 ) ) ;
#578 = ORIENTED_EDGE ( 'NONE', *, *, #814, .T. ) ;
#579 = CARTESIAN_POINT ( 'NONE',  ( 0.06259027388524453228, -0.007473314093316537655, 0.0004607352991114249045 ) ) ;
#580 = EDGE_CURVE ( 'NONE', #799, #296, #791, .T. ) ;
#581 = APPROVAL_DATE_TIME ( #264, #414 ) ;
#582 = CARTESIAN_POINT ( 'NONE',  ( 0.02933420907922585849, -0.003927684951185972731, 0.007145047098094765674 ) ) ;
#583 = CARTESIAN_POINT ( 'NONE',  ( 0.06472738382472593976, -0.001632321840224412995, 0.006749999999999999924 ) ) ;
#584 = VECTOR ( 'NONE', #170, 1.000000000000000000 ) ;
#585 = ORIENTED_EDGE ( 'NONE', *, *, #646, .F. ) ;
#586 = ORGANIZATION ( 'UNSPECIFIED', 'UNSPECIFIED', '' ) ;
#587 = CARTESIAN_POINT ( 'NONE',  ( 0.06093534781122665611, -0.008667359391045310196, 1.220609332098464046E-05 ) ) ;
#588 = APPLICATION_CONTEXT ( 'configuration controlled 3d designs of mechanical parts and assemblies' ) ;
#589 = APPROVAL_ROLE ( '' ) ;
#590 = CARTESIAN_POINT ( 'NONE',  ( 0.007942252811818033276, -4.898587196589412767E-18, 0.01349999999999999985 ) ) ;
#591 = CARTESIAN_POINT ( 'NONE',  ( 0.02266319620037712812, -0.005548602682132260100, 0.009750000000000001721 ) ) ;
#592 = ORIENTED_EDGE ( 'NONE', *, *, #368, .F. ) ;
#593 = CARTESIAN_POINT ( 'NONE',  ( 0.02919914909244600287, -0.003950585053403142533, 0.007724244790412431588 ) ) ;
#594 = CARTESIAN_POINT ( 'NONE',  ( 0.06306152017481990446, -0.007035835988772061456, 0.01277901106832896559 ) ) ;
#595 = ORIENTED_EDGE ( 'NONE', *, *, #430, .T. ) ;
#596 = CARTESIAN_POINT ( 'NONE',  ( 0.02905087950303899061, -0.003976494940720598330, 0.005416293204890224554 ) ) ;
#597 = VERTEX_POINT ( 'NONE', #224 ) ;
#598 = EDGE_CURVE ( 'NONE', #120, #761, #845, .T. ) ;
#599 = VECTOR ( 'NONE', #105, 1.000000000000000000 ) ;
#600 = AXIS2_PLACEMENT_3D ( 'NONE', #129, #288, #442 ) ;
#601 = CARTESIAN_POINT ( 'NONE',  ( 0.02895585725706083247, -0.003993378346431915825, 0.008262217171914521333 ) ) ;
#602 = DIRECTION ( 'NONE',  ( -0.9170600743851236025, -0.3987490689252473075, 0.000000000000000000 ) ) ;
#603 = VERTEX_POINT ( 'NONE', #946 ) ;
#604 = EDGE_CURVE ( 'NONE', #603, #909, #666, .T. ) ;
#605 = PERSON_AND_ORGANIZATION_ROLE ( 'classification_officer' ) ;
#606 = CARTESIAN_POINT ( 'NONE',  ( 0.02848257347107089124, 0.004082523365056698640, 0.008103187202788804389 ) ) ;
#607 = CARTESIAN_POINT ( 'NONE',  ( 0.01594225281181803344, -4.898587196589412767E-18, 0.01349999999999999985 ) ) ;
#608 = VERTEX_POINT ( 'NONE', #721 ) ;
#609 = EDGE_CURVE ( 'NONE', #958, #649, #974, .T. ) ;
#610 = FACE_OUTER_BOUND ( 'NONE', #533, .T. ) ;
#611 = ORIENTED_EDGE ( 'NONE', *, *, #379, .T. ) ;
#612 = AXIS2_PLACEMENT_3D ( 'NONE', #366, #44, #602 ) ;
#613 = CARTESIAN_POINT ( 'NONE',  ( 0.05358338374536070203, -0.009717846314852134418, 0.007647899729508130656 ) ) ;
#614 = FACE_OUTER_BOUND ( 'NONE', #244, .T. ) ;
#615 = ORIENTED_EDGE ( 'NONE', *, *, #537, .T. ) ;
#616 = FACE_OUTER_BOUND ( 'NONE', #942, .T. ) ;
#617 = ORIENTED_EDGE ( 'NONE', *, *, #544, .T. ) ;
#618 = DIRECTION ( 'NONE',  ( 1.000000000000000000, 0.000000000000000000, 0.000000000000000000 ) ) ;
#619 = CARTESIAN_POINT ( 'NONE',  ( 0.07289219480393527295, -0.03733804073333428508, 0.006749999999999999924 ) ) ;
#620 = CARTESIAN_POINT ( 'NONE',  ( 0.05459966941863951539, -0.009910207493332129358, 0.003355690015961315317 ) ) ;
#621 = ORIENTED_EDGE ( 'NONE', *, *, #702, .F. ) ;
#622 = CARTESIAN_POINT ( 'NONE',  ( 0.02695496179450733096, -0.01270307099367674365, 0.006750000000000000791 ) ) ;
#623 = ORIENTED_EDGE ( 'NONE', *, *, #905, .T. ) ;
#624 = DIRECTION ( 'NONE',  ( -1.000000000000000000, 0.000000000000000000, 0.000000000000000000 ) ) ;
#625 = VECTOR ( 'NONE', #407, 1.000000000000000000 ) ;
#626 =( GEOMETRIC_REPRESENTATION_CONTEXT ( 3 ) GLOBAL_UNCERTAINTY_ASSIGNED_CONTEXT ( ( #91 ) ) GLOBAL_UNIT_ASSIGNED_CONTEXT ( ( #431, #879, #490 ) ) REPRESENTATION_CONTEXT ( 'NONE', 'WORKASPACE' ) );
#627 = B_SPLINE_CURVE_WITH_KNOTS ( 'NONE', 2,
 ( #872, #631, #396 ),
 .UNSPECIFIED., .F., .F.,
 ( 3, 3 ),
 ( 0.7866632125219953364, 1.000000000000000000 ),
 .UNSPECIFIED. ) ;
#628 = CARTESIAN_POINT ( 'NONE',  ( 0.05378795773680782738, -0.009765827304153790189, 0.004965791344871767210 ) ) ;
#629 = DIRECTION ( 'NONE',  ( 0.3987490689252470299, -0.9170600743851237135, 0.000000000000000000 ) ) ;
#630 = CARTESIAN_POINT ( 'NONE',  ( 0.02695496179450733096, -0.01270307099367674365, 0.009749999999999999986 ) ) ;
#631 = CARTESIAN_POINT ( 'NONE',  ( 0.02233362403664022888, 0.005713196668605081269, 0.009749999999999999986 ) ) ;
#632 = DIRECTION ( 'NONE',  ( -1.000000000000000000, 0.000000000000000000, 0.000000000000000000 ) ) ;
#633 = LINE ( 'NONE', #570, #545 ) ;
#634 = CARTESIAN_POINT ( 'NONE',  ( 0.01594225281181803344, -4.898587196589412767E-18, 0.01349999999999999985 ) ) ;
#635 = ORIENTED_EDGE ( 'NONE', *, *, #758, .F. ) ;
#636 = DIRECTION ( 'NONE',  ( -1.000000000000000000, 0.000000000000000000, 0.000000000000000000 ) ) ;
#637 = DIRECTION ( 'NONE',  ( 1.000000000000000000, 0.000000000000000000, 0.000000000000000000 ) ) ;
#638 = EDGE_CURVE ( 'NONE', #909, #443, #215, .T. ) ;
#639 = CYLINDRICAL_SURFACE ( 'NONE', #543, 0.001500000000000001332 ) ;
#640 = DIRECTION ( 'NONE',  ( -0.000000000000000000, -0.000000000000000000, -1.000000000000000000 ) ) ;
#641 = ORIENTED_EDGE ( 'NONE', *, *, #386, .F. ) ;
#642 = DIRECTION ( 'NONE',  ( -0.000000000000000000, -0.000000000000000000, -1.000000000000000000 ) ) ;
#643 = AXIS2_PLACEMENT_3D ( 'NONE', #849, #815, #869 ) ;
#644 = COORDINATED_UNIVERSAL_TIME_OFFSET ( 3, 0, .AHEAD. ) ;
#645 = DIRECTION ( 'NONE',  ( 1.000000000000000000, 0.000000000000000000, 0.000000000000000000 ) ) ;
#646 = EDGE_CURVE ( 'NONE', #597, #746, #681, .T. ) ;
#647 = VECTOR ( 'NONE', #333, 1.000000000000000000 ) ;
#648 = CARTESIAN_POINT ( 'NONE',  ( 0.01885115397969691978, 0.007452401894390343028, 0.01349999999999999985 ) ) ;
#649 = VERTEX_POINT ( 'NONE', #787 ) ;
#650 = CARTESIAN_POINT ( 'NONE',  ( 0.01885115397969692325, -0.007452401894390351701, 0.01349999999999999985 ) ) ;
#651 = CARTESIAN_POINT ( 'NONE',  ( 0.02574551488181226616, 0.004741183657989757674, 0.009749999999999999986 ) ) ;
#652 = CARTESIAN_POINT ( 'NONE',  ( 0.06407554615585751845, -0.005821097846446148319, 0.01180173084143141052 ) ) ;
#653 = ORIENTED_EDGE ( 'NONE', *, *, #580, .T. ) ;
#654 = LINE ( 'NONE', #650, #778 ) ;
#655 = EDGE_CURVE ( 'NONE', #213, #77, #881, .T. ) ;
#656 = COORDINATED_UNIVERSAL_TIME_OFFSET ( 3, 0, .AHEAD. ) ;
#657 = DIRECTION ( 'NONE',  ( -0.000000000000000000, -0.000000000000000000, -1.000000000000000000 ) ) ;
#658 = FACE_OUTER_BOUND ( 'NONE', #1014, .T. ) ;
#659 = EDGE_LOOP ( 'NONE', ( #84, #465 ) ) ;
#660 = CARTESIAN_POINT ( 'NONE',  ( 0.06532174008251297181, -0.003468388910687761079, 0.005155666008831208055 ) ) ;
#661 = CARTESIAN_POINT ( 'NONE',  ( 0.02769233589094930933, -0.004247203937013112676, 0.009450871887301367374 ) ) ;
#662 = VECTOR ( 'NONE', #88, 1.000000000000000000 ) ;
#663 = CARTESIAN_POINT ( 'NONE',  ( 0.01885115397969692325, -0.007452401894390351701, 0.009749999999999999986 ) ) ;
#664 = CIRCLE ( 'NONE', #924, 0.001500000000000001332 ) ;
#665 = VERTEX_POINT ( 'NONE', #62 ) ;
#666 = B_SPLINE_CURVE_WITH_KNOTS ( 'NONE', 2,
 ( #557, #875, #163 ),
 .UNSPECIFIED., .F., .F.,
 ( 3, 3 ),
 ( 0.000000000000000000, 1.000000000000000000 ),
 .UNSPECIFIED. ) ;
#667 = CARTESIAN_POINT ( 'NONE',  ( 0.01744225281181803477, -4.714890176717309422E-18, 0.01349999999999999985 ) ) ;
#668 = PLANE ( 'NONE',  #352 ) ;
#669 = ORIENTED_EDGE ( 'NONE', *, *, #567, .F. ) ;
#670 = SECURITY_CLASSIFICATION_LEVEL ( 'unclassified' ) ;
#671 = CARTESIAN_POINT ( 'NONE',  ( 0.02920101140548199414, -0.003950263833861039978, 0.005781031242736191234 ) ) ;
#672 = CARTESIAN_POINT ( 'NONE',  ( 0.05394579156772980749, -0.009800829031548417142, 0.008955945028653499590 ) ) ;
#673 = EDGE_CURVE ( 'NONE', #923, #558, #132, .T. ) ;
#674 = ORIENTED_EDGE ( 'NONE', *, *, #580, .F. ) ;
#675 = CARTESIAN_POINT ( 'NONE',  ( 0.02833807324582185774, -0.004110973642093253104, 0.009017482499990819855 ) ) ;
#676 = FACE_BOUND ( 'NONE', #439, .T. ) ;
#677 = EDGE_CURVE ( 'NONE', #1012, #238, #245, .T. ) ;
#678 = ORIENTED_EDGE ( 'NONE', *, *, #868, .T. ) ;
#679 = AXIS2_PLACEMENT_3D ( 'NONE', #755, #968, #427 ) ;
#680 = B_SPLINE_CURVE_WITH_KNOTS ( 'NONE', 2,
 ( #513, #212, #526 ),
 .UNSPECIFIED., .F., .F.,
 ( 3, 3 ),
 ( 0.000000000000000000, 0.2133367874780001672 ),
 .UNSPECIFIED. ) ;
#681 = CIRCLE ( 'NONE', #3, 0.002499999999999998751 ) ;
#682 = AXIS2_PLACEMENT_3D ( 'NONE', #372, #460, #160 ) ;
#683 = CC_DESIGN_SECURITY_CLASSIFICATION ( #64, ( #516 ) ) ;
#684 = CARTESIAN_POINT ( 'NONE',  ( 0.02706958730213673489, 0.004391666766214972345, 0.004037820176033358154 ) ) ;
#685 = CARTESIAN_POINT ( 'NONE',  ( 0.01594225281181803344, -4.898587196589412767E-18, 0.009749999999999999986 ) ) ;
#686 = ORIENTED_EDGE ( 'NONE', *, *, #359, .F. ) ;
#687 = EDGE_CURVE ( 'NONE', #572, #434, #711, .T. ) ;
#688 = DIRECTION ( 'NONE',  ( -1.000000000000000000, 0.000000000000000000, 0.000000000000000000 ) ) ;
#689 = ORIENTED_EDGE ( 'NONE', *, *, #914, .F. ) ;
#690 = ORIENTED_EDGE ( 'NONE', *, *, #939, .F. ) ;
#691 = CC_DESIGN_PERSON_AND_ORGANIZATION_ASSIGNMENT ( #961, #259, ( #121 ) ) ;
#692 = CARTESIAN_POINT ( 'NONE',  ( 0.05352844016278687084, -0.009704344839665974068, 0.007199129320472001659 ) ) ;
#693 = ORIENTED_EDGE ( 'NONE', *, *, #455, .F. ) ;
#694 = ORIENTED_EDGE ( 'NONE', *, *, #495, .T. ) ;
#695 = AXIS2_PLACEMENT_3D ( 'NONE', #607, #450, #688 ) ;
#696 = DIRECTION ( 'NONE',  ( -0.3987490689252470855, 0.9170600743851238246, -0.000000000000000000 ) ) ;
#697 = ORIENTED_EDGE ( 'NONE', *, *, #992, .F. ) ;
#698 = CARTESIAN_POINT ( 'NONE',  ( 0.02639066820830416812, -0.004564077117463519531, 0.003749999999999999861 ) ) ;
#699 = CARTESIAN_POINT ( 'NONE',  ( 0.02574551488181226616, 0.004741183657989757674, 0.009749999999999999986 ) ) ;
#700 = FACE_OUTER_BOUND ( 'NONE', #138, .T. ) ;
#701 = ORIENTED_EDGE ( 'NONE', *, *, #638, .T. ) ;
#702 = EDGE_CURVE ( 'NONE', #608, #936, #345, .T. ) ;
#703 = FACE_OUTER_BOUND ( 'NONE', #393, .T. ) ;
#704 = ORIENTED_EDGE ( 'NONE', *, *, #86, .F. ) ;
#705 = CYLINDRICAL_SURFACE ( 'NONE', #449, 0.009999999999999995004 ) ;
#706 = CARTESIAN_POINT ( 'NONE',  ( 0.05844930271545430850, -0.009689604657667617513, 0.01313983471562026571 ) ) ;
#707 = ORIENTED_EDGE ( 'NONE', *, *, #544, .F. ) ;
#708 = CARTESIAN_POINT ( 'NONE',  ( 0.05594225281181802734, 0.000000000000000000, 0.01349999999999999985 ) ) ;
#709 = VERTEX_POINT ( 'NONE', #809 ) ;
#710 = DIRECTION ( 'NONE',  ( -0.000000000000000000, -0.000000000000000000, -1.000000000000000000 ) ) ;
#711 = CIRCLE ( 'NONE', #270, 0.009999999999999995004 ) ;
#712 = AXIS2_PLACEMENT_3D ( 'NONE', #111, #87, #575 ) ;
#713 = CARTESIAN_POINT ( 'NONE',  ( 0.07059954461797246505, -0.03833491340564740280, 0.006749999999999999924 ) ) ;
#714 = DIRECTION ( 'NONE',  ( -0.000000000000000000, -0.000000000000000000, -1.000000000000000000 ) ) ;
#715 = DIRECTION ( 'NONE',  ( 0.000000000000000000, 0.000000000000000000, 1.000000000000000000 ) ) ;
#716 = ORIENTED_EDGE ( 'NONE', *, *, #784, .T. ) ;
#717 = CARTESIAN_POINT ( 'NONE',  ( 0.02880288873146214998, 0.004021549562112800881, 0.006946102317383735618 ) ) ;
#718 = ADVANCED_FACE ( 'NONE', ( #822, #658 ), #668, .F. ) ;
#719 = CARTESIAN_POINT ( 'NONE',  ( 0.01594225281181803344, -4.898587196589412767E-18, 0.003749999999999999861 ) ) ;
#720 = FACE_OUTER_BOUND ( 'NONE', #970, .T. ) ;
#721 = CARTESIAN_POINT ( 'NONE',  ( 0.06541319064197058386, -0.003209569537708311261, 0.006749999999999999924 ) ) ;
#722 = ORIENTED_EDGE ( 'NONE', *, *, #767, .F. ) ;
#723 = CARTESIAN_POINT ( 'NONE',  ( 0.06242239582409014192, -0.007619554597447834865, 0.0003816133913069077684 ) ) ;
#724 = ADVANCED_FACE ( 'NONE', ( #978 ), #462, .F. ) ;
#725 = CARTESIAN_POINT ( 'NONE',  ( 0.000000000000000000, 0.000000000000000000, 0.000000000000000000 ) ) ;
#726 = DIRECTION ( 'NONE',  ( -0.000000000000000000, -0.000000000000000000, -1.000000000000000000 ) ) ;
#727 = PLANE ( 'NONE',  #37 ) ;
#728 = ORIENTED_EDGE ( 'NONE', *, *, #609, .T. ) ;
#729 = CARTESIAN_POINT ( 'NONE',  ( 0.06541319064197056998, -0.003209569537708310393, 0.006278559972954639995 ) ) ;
#730 = AXIS2_PLACEMENT_3D ( 'NONE', #945, #629, #474 ) ;
#731 = PERSON_AND_ORGANIZATION ( #440, #586 ) ;
#732 = DIRECTION ( 'NONE',  ( -1.000000000000000000, 0.000000000000000000, 0.000000000000000000 ) ) ;
#733 = AXIS2_PLACEMENT_3D ( 'NONE', #622, #931, #475 ) ;
#734 = CARTESIAN_POINT ( 'NONE',  ( 0.06189391144352107688, -0.008039238535848876321, 0.01331234656469262867 ) ) ;
#735 = ADVANCED_FACE ( 'NONE', ( #261, #492 ), #727, .F. ) ;
#736 = CIRCLE ( 'NONE', #301, 0.002499999999999998751 ) ;
#737 = ORIENTED_EDGE ( 'NONE', *, *, #67, .T. ) ;
#738 = CARTESIAN_POINT ( 'NONE',  ( 0.01744225281181803477, -4.714890176717309422E-18, 0.009749999999999999986 ) ) ;
#739 = CARTESIAN_POINT ( 'NONE',  ( 0.02733612768628872203, -0.004328303745320350934, 0.003900847523153418844 ) ) ;
#740 = CARTESIAN_POINT ( 'NONE',  ( 0.04994801961728843193, 0.008004321858196321304, 0.000000000000000000 ) ) ;
#741 = EDGE_LOOP ( 'NONE', ( #701, #487, #1004, #429, #223 ) ) ;
#742 = CYLINDRICAL_SURFACE ( 'NONE', #21, 0.008000000000000000167 ) ;
#743 = PERSON_AND_ORGANIZATION ( #440, #586 ) ;
#744 = CARTESIAN_POINT ( 'NONE',  ( 0.02714813400337777113, -0.004372721154018572622, 0.009656262101129339803 ) ) ;
#745 = CARTESIAN_POINT ( 'NONE',  ( 0.06152274010858214265, -0.008301190169804406604, 0.01340485798242360346 ) ) ;
#746 = VERTEX_POINT ( 'NONE', #904 ) ;
#747 = DIRECTION ( 'NONE',  ( 1.000000000000000000, 0.000000000000000000, 0.000000000000000000 ) ) ;
#748 = B_SPLINE_CURVE_WITH_KNOTS ( 'NONE', 2,
 ( #864, #531, #773 ),
 .UNSPECIFIED., .F., .F.,
 ( 3, 3 ),
 ( 0.000000000000000000, 1.000000000000000000 ),
 .UNSPECIFIED. ) ;
#749 = FACE_OUTER_BOUND ( 'NONE', #159, .T. ) ;
#750 = DIRECTION ( 'NONE',  ( 0.000000000000000000, 0.000000000000000000, 1.000000000000000000 ) ) ;
#751 = VECTOR ( 'NONE', #801, 1.000000000000000000 ) ;
#752 = ORIENTED_EDGE ( 'NONE', *, *, #754, .F. ) ;
#753 = ADVANCED_BREP_SHAPE_REPRESENTATION ( 'new steering arm', ( #358, #954 ), #626 ) ;
#754 = EDGE_CURVE ( 'NONE', #850, #665, #400, .T. ) ;
#755 = CARTESIAN_POINT ( 'NONE',  ( 0.05594225281181802734, 0.000000000000000000, 0.01349999999999999985 ) ) ;
#756 = DIRECTION ( 'NONE',  ( 0.9170600743851236025, 0.3987490689252471965, 0.000000000000000000 ) ) ;
#757 = ORIENTED_EDGE ( 'NONE', *, *, #841, .F. ) ;
#758 = EDGE_CURVE ( 'NONE', #443, #887, #78, .T. ) ;
#759 = CARTESIAN_POINT ( 'NONE',  ( 0.02677334515260027664, -0.004464798624577393134, 0.009731025949758926805 ) ) ;
#760 = CYLINDRICAL_SURFACE ( 'NONE', #612, 0.002499999999999998751 ) ;
#761 = VERTEX_POINT ( 'NONE', #907 ) ;
#762 = DATE_AND_TIME ( #364, #991 ) ;
#763 = CARTESIAN_POINT ( 'NONE',  ( 0.02870114174821205080, 0.004040556750338600116, 0.007543749255863677235 ) ) ;
#764 = FACE_OUTER_BOUND ( 'NONE', #189, .T. ) ;
#765 = ORIENTED_EDGE ( 'NONE', *, *, #814, .F. ) ;
#766 = AXIS2_PLACEMENT_3D ( 'NONE', #404, #948, #50 ) ;
#767 = EDGE_CURVE ( 'NONE', #665, #262, #41, .T. ) ;
#768 = APPROVAL_PERSON_ORGANIZATION ( #955, #414, #426 ) ;
#769 = COORDINATED_UNIVERSAL_TIME_OFFSET ( 3, 0, .AHEAD. ) ;
#770 = CARTESIAN_POINT ( 'NONE',  ( 0.05234707282052677296, -0.007015434270715246307, 0.006750000000000000791 ) ) ;
#771 = ORIENTED_EDGE ( 'NONE', *, *, #380, .F. ) ;
#772 = FACE_OUTER_BOUND ( 'NONE', #284, .T. ) ;
#773 = CARTESIAN_POINT ( 'NONE',  ( 0.01885115397969692325, 0.007452401894390341293, 0.000000000000000000 ) ) ;
#774 = CARTESIAN_POINT ( 'NONE',  ( 0.05424743928598059484, -0.009855864795408899107, 0.003937034170410973373 ) ) ;
#775 = ORIENTED_EDGE ( 'NONE', *, *, #1006, .T. ) ;
#776 = VECTOR ( 'NONE', #322, 1.000000000000000000 ) ;
#777 = CARTESIAN_POINT ( 'NONE',  ( 0.02869893419290498598, 0.004040972601442203646, 0.005948138541490994788 ) ) ;
#778 = VECTOR ( 'NONE', #642, 1.000000000000000000 ) ;
#779 = EDGE_CURVE ( 'NONE', #434, #608, #195, .T. ) ;
#780 = CARTESIAN_POINT ( 'NONE',  ( 0.05907953400045758141, -0.009497741081074390773, 0.0001801932945546708706 ) ) ;
#781 = ORIENTED_EDGE ( 'NONE', *, *, #927, .F. ) ;
#782 = DIRECTION ( 'NONE',  ( 0.000000000000000000, 0.000000000000000000, 1.000000000000000000 ) ) ;
#783 = CARTESIAN_POINT ( 'NONE',  ( 0.02878245786258560798, 0.004025317025078087654, 0.007149026935593553317 ) ) ;
#784 = EDGE_CURVE ( 'NONE', #341, #213, #802, .T. ) ;
#785 = CARTESIAN_POINT ( 'NONE',  ( 0.05472970337826922604, -0.009927174289889515585, 0.01033069572630289888 ) ) ;
#786 = VERTEX_POINT ( 'NONE', #52 ) ;
#787 = CARTESIAN_POINT ( 'NONE',  ( 0.007942252811818033276, -4.898587196589412767E-18, 0.009749999999999999986 ) ) ;
#788 = CARTESIAN_POINT ( 'NONE',  ( 0.01594225281181803344, -4.898587196589412767E-18, 0.01349999999999999985 ) ) ;
#789 = CARTESIAN_POINT ( 'NONE',  ( 0.05723108554409866988, -0.009923858614923423624, 0.01257939782601673502 ) ) ;
#790 = LINE ( 'NONE', #962, #560 ) ;
#791 = LINE ( 'NONE', #7, #625 ) ;
#792 = EDGE_LOOP ( 'NONE', ( #823, #716, #60, #894, #595, #999, #929, #18 ) ) ;
#793 = EDGE_CURVE ( 'NONE', #476, #262, #664, .T. ) ;
#794 = CARTESIAN_POINT ( 'NONE',  ( 0.02574551488181226616, 0.004741183657989757674, 0.003749999999999999861 ) ) ;
#795 = CIRCLE ( 'NONE', #682, 0.008000000000000000167 ) ;
#796 = CARTESIAN_POINT ( 'NONE',  ( 0.05970924659103472865, -0.009274062403619156778, 4.478876694491306005E-05 ) ) ;
#797 = DIRECTION ( 'NONE',  ( 0.9170600743851237135, 0.3987490689252470299, 0.000000000000000000 ) ) ;
#798 = CARTESIAN_POINT ( 'NONE',  ( 0.05944225281181803044, 4.286263797015732512E-19, 0.01349999999999999985 ) ) ;
#799 = VERTEX_POINT ( 'NONE', #373 ) ;
#800 = ADVANCED_FACE ( 'NONE', ( #995 ), #292, .T. ) ;
#801 = DIRECTION ( 'NONE',  ( -0.3987490689252470855, 0.9170600743851238246, -0.000000000000000000 ) ) ;
#802 = B_SPLINE_CURVE_WITH_KNOTS ( 'NONE', 2,
 ( #663, #591, #47 ),
 .UNSPECIFIED., .F., .F.,
 ( 3, 3 ),
 ( 0.000000000000000000, 0.2335264418050018720 ),
 .UNSPECIFIED. ) ;
#803 = DIRECTION ( 'NONE',  ( 0.000000000000000000, 0.000000000000000000, 1.000000000000000000 ) ) ;
#804 = CARTESIAN_POINT ( 'NONE',  ( 0.02639066820830416812, -0.004564077117463519531, 0.009749999999999999986 ) ) ;
#805 = CARTESIAN_POINT ( 'NONE',  ( 0.06492778167716949100, -0.004399310424801482211, 0.01017788902569822032 ) ) ;
#806 = ORIENTED_EDGE ( 'NONE', *, *, #206, .T. ) ;
#807 = CARTESIAN_POINT ( 'NONE',  ( 0.07059954461797246505, -0.03833491340564740280, 0.006749999999999999924 ) ) ;
#808 = PLANE ( 'NONE',  #730 ) ;
#809 = CARTESIAN_POINT ( 'NONE',  ( 0.01885115397969692325, 0.007452401894390341293, 0.000000000000000000 ) ) ;
#810 = ORIENTED_EDGE ( 'NONE', *, *, #283, .T. ) ;
#811 = CARTESIAN_POINT ( 'NONE',  ( 0.06052239493597733055, -0.008889448696207285713, 0.000000000000000000 ) ) ;
#812 = AXIS2_PLACEMENT_3D ( 'NONE', #14, #258, #494 ) ;
#813 = CARTESIAN_POINT ( 'NONE',  ( 0.04994801961728843193, -0.008004321858196321304, 0.01349999999999999985 ) ) ;
#814 = EDGE_CURVE ( 'NONE', #104, #53, #843, .T. ) ;
#815 = DIRECTION ( 'NONE',  ( 0.000000000000000000, 0.000000000000000000, 1.000000000000000000 ) ) ;
#816 = VECTOR ( 'NONE', #696, 1.000000000000000000 ) ;
#817 = CARTESIAN_POINT ( 'NONE',  ( 0.06207297520125983764, -0.007903406032893280087, 0.01325525021140753698 ) ) ;
#818 = ORIENTED_EDGE ( 'NONE', *, *, #859, .T. ) ;
#819 = B_SPLINE_CURVE_WITH_KNOTS ( 'NONE', 2,
 ( #848, #240, #928 ),
 .UNSPECIFIED., .F., .F.,
 ( 3, 3 ),
 ( 0.000000000000000000, 1.000000000000000000 ),
 .UNSPECIFIED. ) ;
#820 = LINE ( 'NONE', #92, #599 ) ;
#821 = CARTESIAN_POINT ( 'NONE',  ( 0.01594225281181803344, -4.898587196589412767E-18, 0.003749999999999999861 ) ) ;
#822 = FACE_BOUND ( 'NONE', #209, .T. ) ;
#823 = ORIENTED_EDGE ( 'NONE', *, *, #58, .T. ) ;
#824 = APPROVAL_STATUS ( 'not_yet_approved' ) ;
#825 = CARTESIAN_POINT ( 'NONE',  ( 0.007942252811818033276, -4.898587196589412767E-18, 0.000000000000000000 ) ) ;
#826 = VERTEX_POINT ( 'NONE', #920 ) ;
#827 = EDGE_CURVE ( 'NONE', #979, #49, #680, .T. ) ;
#828 = PRODUCT_DEFINITION_SHAPE ( 'NONE', 'NONE',  #121 ) ;
#829 = CARTESIAN_POINT ( 'NONE',  ( 0.01594225281181803344, -4.898587196589412767E-18, 0.000000000000000000 ) ) ;
#830 = AXIS2_PLACEMENT_3D ( 'NONE', #491, #480, #892 ) ;
#831 = DIRECTION ( 'NONE',  ( 0.3987490689252469744, -0.9170600743851237135, 0.000000000000000000 ) ) ;
#832 = VECTOR ( 'NONE', #519, 1.000000000000000000 ) ;
#833 = ORIENTED_EDGE ( 'NONE', *, *, #1000, .F. ) ;
#834 = CIRCLE ( 'NONE', #233, 0.008000000000000000167 ) ;
#835 = ADVANCED_FACE ( 'NONE', ( #764, #837, #676 ), #282, .T. ) ;
#836 = CARTESIAN_POINT ( 'NONE',  ( 0.05853722832262635983, -0.004323878055469829867, 0.006749999999999999924 ) ) ;
#837 = FACE_BOUND ( 'NONE', #171, .T. ) ;
#838 = EDGE_LOOP ( 'NONE', ( #686, #408, #775, #934 ) ) ;
#839 = CALENDAR_DATE ( 2026, 12, 8 ) ;
#840 = CARTESIAN_POINT ( 'NONE',  ( 0.02639066820830416812, -0.004564077117463519531, 0.003749999999999999861 ) ) ;
#841 = EDGE_CURVE ( 'NONE', #72, #786, #925, .T. ) ;
#842 = CARTESIAN_POINT ( 'NONE',  ( 0.05460073841442137504, -0.009910352839972082217, 0.01014589535912682229 ) ) ;
#843 = LINE ( 'NONE', #988, #832 ) ;
#844 = ORIENTED_EDGE ( 'NONE', *, *, #48, .F. ) ;
#845 = CIRCLE ( 'NONE', #418, 0.008000000000000000167 ) ;
#846 = CARTESIAN_POINT ( 'NONE',  ( 0.07289219480393527295, -0.03733804073333428508, 0.006749999999999999924 ) ) ;
#847 = ORIENTED_EDGE ( 'NONE', *, *, #655, .T. ) ;
#848 = CARTESIAN_POINT ( 'NONE',  ( 0.04994801961728843193, 0.008004321858196324774, 0.01349999999999999985 ) ) ;
#849 = CARTESIAN_POINT ( 'NONE',  ( 0.05594225281181802734, 0.000000000000000000, 0.000000000000000000 ) ) ;
#850 = VERTEX_POINT ( 'NONE', #133 ) ;
#851 = CC_DESIGN_PERSON_AND_ORGANIZATION_ASSIGNMENT ( #168, #902, ( #918 ) ) ;
#852 = EDGE_CURVE ( 'NONE', #500, #134, #436, .T. ) ;
#853 = CARTESIAN_POINT ( 'NONE',  ( 0.02613664613914680815, 0.004631622284778695586, 0.009731606789448668179 ) ) ;
#854 = DIRECTION ( 'NONE',  ( 0.000000000000000000, 0.000000000000000000, 1.000000000000000000 ) ) ;
#855 = ORIENTED_EDGE ( 'NONE', *, *, #179, .F. ) ;
#856 = CYLINDRICAL_SURFACE ( 'NONE', #733, 0.003000000000000000062 ) ;
#857 = ORIENTED_EDGE ( 'NONE', *, *, #930, .T. ) ;
#858 = VECTOR ( 'NONE', #657, 1.000000000000000000 ) ;
#859 = EDGE_CURVE ( 'NONE', #434, #205, #515, .T. ) ;
#860 = CARTESIAN_POINT ( 'NONE',  ( 0.02594065479022743259, 0.004685590282558335130, 0.003750000000000001596 ) ) ;
#861 = APPROVAL_PERSON_ORGANIZATION ( #731, #445, #589 ) ;
#862 = B_SPLINE_CURVE_WITH_KNOTS ( 'NONE', 3,
 ( #56, #378, #692, #613, #362, #208, #672, #916, #524, #842, #785, #222, #156, #473, #479, #789, #219, #706, #235, #552, #326, #1007 ),
 .UNSPECIFIED., .F., .F.,
 ( 4, 2, 2, 2, 2, 2, 2, 2, 2, 2, 4 ),
 ( 0.02185502012049510626, 0.02252766912561383547, 0.02320031813073256816, 0.02454561614097003353, 0.02521826514608875927, 0.02589091415120748502, 0.02723621216144493651, 0.02858151017168239147, 0.02992680818191984643, 0.03127210619215729792, 0.03261740420239474941 ),
 .UNSPECIFIED. ) ;
#863 = CARTESIAN_POINT ( 'NONE',  ( 0.05362545219480100572, -0.009728079330072390146, 0.005624711971792719332 ) ) ;
#864 = CARTESIAN_POINT ( 'NONE',  ( 0.04994801961728843193, 0.008004321858196324774, 0.000000000000000000 ) ) ;
#865 = DIRECTION ( 'NONE',  ( 0.000000000000000000, 0.000000000000000000, 1.000000000000000000 ) ) ;
#866 = CARTESIAN_POINT ( 'NONE',  ( 0.05594225281181802734, 0.000000000000000000, 0.01349999999999999985 ) ) ;
#867 = CARTESIAN_POINT ( 'NONE',  ( 0.05513861026642965374, -0.009971450830650293098, 0.002636133769909012117 ) ) ;
#868 = EDGE_CURVE ( 'NONE', #53, #826, #977, .T. ) ;
#869 = DIRECTION ( 'NONE',  ( 1.000000000000000000, 0.000000000000000000, 0.000000000000000000 ) ) ;
#870 = CARTESIAN_POINT ( 'NONE',  ( 0.01594225281181803344, -4.898587196589412767E-18, 0.01349999999999999985 ) ) ;
#871 = EDGE_LOOP ( 'NONE', ( #876, #996 ) ) ;
#872 = CARTESIAN_POINT ( 'NONE',  ( 0.02574551488181226616, 0.004741183657989757674, 0.009749999999999999986 ) ) ;
#873 = CARTESIAN_POINT ( 'NONE',  ( 0.06012043281385594934, -0.009096553063504004416, 4.878909776184803657E-19 ) ) ;
#874 = DIRECTION ( 'NONE',  ( -1.000000000000000000, 0.000000000000000000, 0.000000000000000000 ) ) ;
#875 = CARTESIAN_POINT ( 'NONE',  ( 0.03517496806779626950, 0.0006999906036197586128, 0.000000000000000000 ) ) ;
#876 = ORIENTED_EDGE ( 'NONE', *, *, #852, .T. ) ;
#877 = CYLINDRICAL_SURFACE ( 'NONE', #214, 0.001500000000000001332 ) ;
#878 = AXIS2_PLACEMENT_3D ( 'NONE', #486, #482, #471 ) ;
#879 =( NAMED_UNIT ( * ) PLANE_ANGLE_UNIT ( ) SI_UNIT ( $, .RADIAN. ) );
#880 = CARTESIAN_POINT ( 'NONE',  ( 0.07518484498989808085, -0.03634116806102116737, 0.006749999999999999924 ) ) ;
#881 = LINE ( 'NONE', #630, #584 ) ;
#882 = ORIENTED_EDGE ( 'NONE', *, *, #380, .T. ) ;
#883 = DIRECTION ( 'NONE',  ( -1.000000000000000000, 0.000000000000000000, 0.000000000000000000 ) ) ;
#884 = CARTESIAN_POINT ( 'NONE',  ( 0.01885115397969692325, -0.007452401894390351701, 0.01349999999999999985 ) ) ;
#885 = CARTESIAN_POINT ( 'NONE',  ( 0.01594225281181803344, -4.898587196589412767E-18, 0.01349999999999999985 ) ) ;
#886 = CARTESIAN_POINT ( 'NONE',  ( 0.06464194345699228461, -0.004940550969486989970, 0.01088464714424887229 ) ) ;
#887 = VERTEX_POINT ( 'NONE', #438 ) ;
#888 = DIRECTION ( 'NONE',  ( -0.9170600743851236025, -0.3987490689252473075, 0.000000000000000000 ) ) ;
#889 = CC_DESIGN_PERSON_AND_ORGANIZATION_ASSIGNMENT ( #127, #605, ( #64 ) ) ;
#890 = ADVANCED_FACE ( 'NONE', ( #610 ), #922, .T. ) ;
#891 = CALENDAR_DATE ( 2026, 12, 8 ) ;
#892 = DIRECTION ( 'NONE',  ( 1.000000000000000000, 0.000000000000000000, 0.000000000000000000 ) ) ;
#893 = DIRECTION ( 'NONE',  ( -0.000000000000000000, -0.000000000000000000, -1.000000000000000000 ) ) ;
#894 = ORIENTED_EDGE ( 'NONE', *, *, #677, .T. ) ;
#895 = CARTESIAN_POINT ( 'NONE',  ( 0.06384659396157349454, -0.006128387759068771277, 0.001421775501440727171 ) ) ;
#896 = AXIS2_PLACEMENT_3D ( 'NONE', #829, #117, #437 ) ;
#897 = AXIS2_PLACEMENT_3D ( 'NONE', #466, #782, #249 ) ;
#898 = CARTESIAN_POINT ( 'NONE',  ( 0.02933424270533017617, -0.003927679857242389813, 0.006355924725173489609 ) ) ;
#899 = CARTESIAN_POINT ( 'NONE',  ( 0.02695496179450733096, -0.01270307099367674365, 0.009749999999999999986 ) ) ;
#900 = ORIENTED_EDGE ( 'NONE', *, *, #965, .F. ) ;
#901 = LINE ( 'NONE', #27, #751 ) ;
#902 = PERSON_AND_ORGANIZATION_ROLE ( 'design_owner' ) ;
#903 = CARTESIAN_POINT ( 'NONE',  ( 0.02925677792960530363, -0.003940778851873823034, 0.007534739559424860102 ) ) ;
#904 = CARTESIAN_POINT ( 'NONE',  ( 0.06800736174924362776, -0.01983408672208893803, 0.006749999999999999924 ) ) ;
#905 = EDGE_CURVE ( 'NONE', #514, #826, #1001, .T. ) ;
#906 = CARTESIAN_POINT ( 'NONE',  ( 0.01885115397969692325, -0.007452401894390351701, 0.003749999999999999861 ) ) ;
#907 = CARTESIAN_POINT ( 'NONE',  ( 0.007942252811818033276, -4.898587196589412767E-18, 0.01349999999999999985 ) ) ;
#908 = ADVANCED_FACE ( 'NONE', ( #772 ), #760, .T. ) ;
#909 = VERTEX_POINT ( 'NONE', #300 ) ;
#910 = CARTESIAN_POINT ( 'NONE',  ( 0.02833848561279328493, -0.004110883937631848971, 0.004482676447947751483 ) ) ;
#911 = CLOSED_SHELL ( 'NONE', ( #469, #890, #353, #248, #93, #211, #800, #422, #16, #532, #835, #973, #724, #459, #1015, #395, #172, #959, #521, #718, #735, #241, #150, #908, #165 ) ) ;
#912 = DIRECTION ( 'NONE',  ( 1.000000000000000000, 0.000000000000000000, 0.000000000000000000 ) ) ;
#913 = ORIENTED_EDGE ( 'NONE', *, *, #122, .F. ) ;
#914 = EDGE_CURVE ( 'NONE', #72, #434, #862, .T. ) ;
#915 = CARTESIAN_POINT ( 'NONE',  ( 0.02677670109976150806, -0.004463950179030643992, 0.003769375481033509622 ) ) ;
#916 = CARTESIAN_POINT ( 'NONE',  ( 0.05424859515453272357, -0.009856066687128080261, 0.009565144137626145973 ) ) ;
#917 = VERTEX_POINT ( 'NONE', #161 ) ;
#918 = PRODUCT ( 'new steering arm', 'new steering arm', '', ( #28 ) ) ;
#919 = CARTESIAN_POINT ( 'NONE',  ( 0.02670337033570882243, 0.004482520410271409114, 0.003893744909894935637 ) ) ;
#920 = CARTESIAN_POINT ( 'NONE',  ( 0.01744225281181803477, -4.714890176717309422E-18, 0.000000000000000000 ) ) ;
#921 = ORIENTED_EDGE ( 'NONE', *, *, #305, .F. ) ;
#922 = CYLINDRICAL_SURFACE ( 'NONE', #217, 0.006749999999999995587 ) ;
#923 = VERTEX_POINT ( 'NONE', #321 ) ;
#924 = AXIS2_PLACEMENT_3D ( 'NONE', #685, #119, #446 ) ;
#925 = LINE ( 'NONE', #770, #252 ) ;
#926 = ORIENTED_EDGE ( 'NONE', *, *, #859, .F. ) ;
#927 = EDGE_CURVE ( 'NONE', #238, #799, #834, .T. ) ;
#928 = CARTESIAN_POINT ( 'NONE',  ( 0.01885115397969692325, 0.007452401894390341293, 0.01349999999999999985 ) ) ;
#929 = ORIENTED_EDGE ( 'NONE', *, *, #504, .F. ) ;
#930 = EDGE_CURVE ( 'NONE', #500, #597, #944, .T. ) ;
#931 = DIRECTION ( 'NONE',  ( -0.06916606670323111050, 0.9976051599790390911, -0.000000000000000000 ) ) ;
#932 = CARTESIAN_POINT ( 'NONE',  ( 0.04994801961728843193, 0.008004321858196324774, 0.01349999999999999985 ) ) ;
#933 = DIRECTION ( 'NONE',  ( 0.000000000000000000, -0.000000000000000000, -1.000000000000000000 ) ) ;
#934 = ORIENTED_EDGE ( 'NONE', *, *, #930, .F. ) ;
#935 = DIRECTION ( 'NONE',  ( 1.000000000000000000, 0.000000000000000000, 0.000000000000000000 ) ) ;
#936 = VERTEX_POINT ( 'NONE', #382 ) ;
#937 = FACE_OUTER_BOUND ( 'NONE', #741, .T. ) ;
#938 = AXIS2_PLACEMENT_3D ( 'NONE', #140, #151, #637 ) ;
#939 = EDGE_CURVE ( 'NONE', #262, #476, #370, .T. ) ;
#940 = FACE_BOUND ( 'NONE', #451, .T. ) ;
#941 = FACE_OUTER_BOUND ( 'NONE', #871, .T. ) ;
#942 = EDGE_LOOP ( 'NONE', ( #198, #669, #578, #982 ) ) ;
#943 = DIRECTION ( 'NONE',  ( 0.3987490689252470299, -0.9170600743851237135, 0.000000000000000000 ) ) ;
#944 = LINE ( 'NONE', #713, #816 ) ;
#945 = CARTESIAN_POINT ( 'NONE',  ( 0.06571471156328080598, -0.02083095939440205574, 0.006749999999999999924 ) ) ;
#946 = CARTESIAN_POINT ( 'NONE',  ( 0.01885115397969692325, -0.007452401894390351701, 0.000000000000000000 ) ) ;
#947 = ORIENTED_EDGE ( 'NONE', *, *, #283, .F. ) ;
#948 = DIRECTION ( 'NONE',  ( 0.3987490689252470299, -0.9170600743851237135, 0.000000000000000000 ) ) ;
#949 = DIRECTION ( 'NONE',  ( -0.000000000000000000, -0.000000000000000000, -1.000000000000000000 ) ) ;
#950 = DIRECTION ( 'NONE',  ( 1.000000000000000000, 0.000000000000000000, 0.000000000000000000 ) ) ;
#951 = ORIENTED_EDGE ( 'NONE', *, *, #841, .T. ) ;
#952 = FACE_OUTER_BOUND ( 'NONE', #838, .T. ) ;
#953 = AXIS2_PLACEMENT_3D ( 'NONE', #98, #574, #888 ) ;
#954 = AXIS2_PLACEMENT_3D ( 'NONE', #725, #803, #747 ) ;
#955 = PERSON_AND_ORGANIZATION ( #440, #586 ) ;
#956 = DIRECTION ( 'NONE',  ( -0.000000000000000000, -0.000000000000000000, -1.000000000000000000 ) ) ;
#957 = DIRECTION ( 'NONE',  ( 0.000000000000000000, 0.000000000000000000, 1.000000000000000000 ) ) ;
#958 = VERTEX_POINT ( 'NONE', #303 ) ;
#959 = ADVANCED_FACE ( 'NONE', ( #616 ), #534, .F. ) ;
#960 = CARTESIAN_POINT ( 'NONE',  ( 0.06447450345923841364, -0.005227598114146411040, 0.002290132612839775733 ) ) ;
#961 = PERSON_AND_ORGANIZATION ( #440, #586 ) ;
#962 = CARTESIAN_POINT ( 'NONE',  ( 0.05244225281181802423, 0.000000000000000000, 0.01349999999999999985 ) ) ;
#963 = CARTESIAN_POINT ( 'NONE',  ( 0.06418043969997014320, -0.005671300000873541469, 0.01165886641351040164 ) ) ;
#964 = ORIENTED_EDGE ( 'NONE', *, *, #24, .T. ) ;
#965 = EDGE_CURVE ( 'NONE', #205, #120, #819, .T. ) ;
#966 = CARTESIAN_POINT ( 'NONE',  ( 0.06334659776121966124, -0.006732840377474813044, 0.0009325171237722419161 ) ) ;
#967 = CALENDAR_DATE ( 2026, 12, 8 ) ;
#968 = DIRECTION ( 'NONE',  ( -0.000000000000000000, -0.000000000000000000, -1.000000000000000000 ) ) ;
#969 = CARTESIAN_POINT ( 'NONE',  ( 0.06540726077321858123, -0.003227210934645821996, 0.007220987232264023011 ) ) ;
#970 = EDGE_LOOP ( 'NONE', ( #566, #653, #57, #194 ) ) ;
#971 = CARTESIAN_POINT ( 'NONE',  ( 0.06207580693776870717, -0.007901226455875131824, 0.0002456951617253763480 ) ) ;
#972 = VECTOR ( 'NONE', #980, 1.000000000000000000 ) ;
#973 = ADVANCED_FACE ( 'NONE', ( #700, #539, #940 ), #405, .F. ) ;
#974 = CIRCLE ( 'NONE', #989, 0.008000000000000000167 ) ;
#975 = APPLICATION_PROTOCOL_DEFINITION ( 'international standard', 'config_control_design', 1994, #588 ) ;
#976 = CARTESIAN_POINT ( 'NONE',  ( 0.02861688818892349842, -0.004056285295368739635, 0.004762585556481473484 ) ) ;
#977 = CIRCLE ( 'NONE', #600, 0.001500000000000001332 ) ;
#978 = FACE_OUTER_BOUND ( 'NONE', #417, .T. ) ;
#979 = VERTEX_POINT ( 'NONE', #398 ) ;
#980 = DIRECTION ( 'NONE',  ( -0.000000000000000000, -0.000000000000000000, -1.000000000000000000 ) ) ;
#981 = CARTESIAN_POINT ( 'NONE',  ( 0.01594225281181803344, -4.898587196589412767E-18, 0.01349999999999999985 ) ) ;
#982 = ORIENTED_EDGE ( 'NONE', *, *, #537, .F. ) ;
#983 = CARTESIAN_POINT ( 'NONE',  ( 0.02733482497644298612, -0.004328607374854107764, 0.009599601668466023127 ) ) ;
#984 = DIRECTION ( 'NONE',  ( 1.000000000000000000, 0.000000000000000000, -0.000000000000000000 ) ) ;
#985 = ORIENTED_EDGE ( 'NONE', *, *, #687, .T. ) ;
#986 = AXIS2_PLACEMENT_3D ( 'NONE', #11, #714, #874 ) ;
#987 = CARTESIAN_POINT ( 'NONE',  ( 0.02904934386055869552, -0.003976767508890010835, 0.008086668651287383380 ) ) ;
#988 = CARTESIAN_POINT ( 'NONE',  ( 0.01444225281181803211, -4.898587196589412767E-18, 0.01349999999999999985 ) ) ;
#989 = AXIS2_PLACEMENT_3D ( 'NONE', #328, #540, #950 ) ;
#990 = ORIENTED_EDGE ( 'NONE', *, *, #598, .T. ) ;
#991 = LOCAL_TIME ( 12, 44, 41.00000000000000000, #769 ) ;
#992 = EDGE_CURVE ( 'NONE', #443, #72, #997, .T. ) ;
#993 = APPROVAL_DATE_TIME ( #762, #325 ) ;
#994 = CARTESIAN_POINT ( 'NONE',  ( 0.02878160364471998856, 0.004025475068435853919, 0.006344318144817117332 ) ) ;
#995 = FACE_OUTER_BOUND ( 'NONE', #55, .T. ) ;
#996 = ORIENTED_EDGE ( 'NONE', *, *, #359, .T. ) ;
#997 = B_SPLINE_CURVE_WITH_KNOTS ( 'NONE', 3,
 ( #464, #873, #796, #780, #5, #66, #230, #456, #387, #80, #1017, #1011, #867, #308, #620, #547, #774, #59, #628, #863, #468, #392, #315, #33 ),
 .UNSPECIFIED., .F., .F.,
 ( 4, 2, 2, 2, 2, 2, 2, 2, 2, 2, 2, 4 ),
 ( 0.01108852711920453940, 0.01243433874436586546, 0.01310724455694652762, 0.01378015036952719152, 0.01512596199468851758, 0.01647177361984984365, 0.01781758524501117144, 0.01849049105759182840, 0.01916339687017248883, 0.02050920849533379234, 0.02118211430791444930, 0.02185502012049510626 ),
 .UNSPECIFIED. ) ;
#998 = DIRECTION ( 'NONE',  ( 0.9170600743851236025, 0.3987490689252473075, 0.000000000000000000 ) ) ;
#999 = ORIENTED_EDGE ( 'NONE', *, *, #604, .T. ) ;
#1000 = EDGE_CURVE ( 'NONE', #709, #296, #148, .T. ) ;
#1001 = LINE ( 'NONE', #530, #565 ) ;
#1002 = ORIENTED_EDGE ( 'NONE', *, *, #677, .F. ) ;
#1003 = AXIS2_PLACEMENT_3D ( 'NONE', #158, #76, #401 ) ;
#1004 = ORIENTED_EDGE ( 'NONE', *, *, #914, .T. ) ;
#1005 = CC_DESIGN_APPROVAL ( #325, ( #64 ) ) ;
#1006 = EDGE_CURVE ( 'NONE', #746, #597, #736, .T. ) ;
#1007 = CARTESIAN_POINT ( 'NONE',  ( 0.06052239493597733055, -0.008889448696207283979, 0.01349999999999999985 ) ) ;
#1008 = ORIENTED_EDGE ( 'NONE', *, *, #386, .T. ) ;
#1009 = CARTESIAN_POINT ( 'NONE',  ( 0.02266319620037691648, -0.005548602682132363316, 0.003749999999999999861 ) ) ;
#1010 = FACE_OUTER_BOUND ( 'NONE', #520, .T. ) ;
#1011 = CARTESIAN_POINT ( 'NONE',  ( 0.05544482929686070372, -0.009993261861097101420, 0.002303012871625692310 ) ) ;
#1012 = VERTEX_POINT ( 'NONE', #561 ) ;
#1013 = CARTESIAN_POINT ( 'NONE',  ( 0.05594225281181802734, 0.000000000000000000, 0.01349999999999999985 ) ) ;
#1014 = EDGE_LOOP ( 'NONE', ( #377, #483, #470, #447, #96 ) ) ;
#1015 = ADVANCED_FACE ( 'NONE', ( #569 ), #536, .F. ) ;
#1016 = CARTESIAN_POINT ( 'NONE',  ( 0.05594225281181802734, 0.000000000000000000, 0.01349999999999999985 ) ) ;
#1017 = CARTESIAN_POINT ( 'NONE',  ( 0.05611619593931918559, -0.01000412197876882764, 0.001687040561744247583 ) ) ;
ENDSEC;
END-ISO-10303-21;
