ISO-10303-21;
HEADER;
FILE_DESCRIPTION (( 'STEP AP203' ),
    '1' );
FILE_NAME ('tie rod.STEP',
    '2026-08-13T07:54:14',
    ( '' ),
    ( '' ),
    'SwSTEP 2.0',
    'SolidWorks 2025',
    '' );
FILE_SCHEMA (( 'CONFIG_CONTROL_DESIGN' ));
ENDSEC;

DATA;
#1 = EDGE_LOOP ( 'NONE', ( #372, #826 ) ) ;
#2 = CARTESIAN_POINT ( 'NONE',  ( 0.06305930885087154825, 0.01152564524296944247, 0.005499999999999999681 ) ) ;
#3 = ORIENTED_EDGE ( 'NONE', *, *, #233, .F. ) ;
#4 = ORIENTED_EDGE ( 'NONE', *, *, #790, .F. ) ;
#5 = APPROVAL ( #400, 'UNSPECIFIED' ) ;
#6 = LINE ( 'NONE', #697, #426 ) ;
#7 = PERSON_AND_ORGANIZATION ( #567, #604 ) ;
#8 = LINE ( 'NONE', #652, #154 ) ;
#9 = VERTEX_POINT ( 'NONE', #277 ) ;
#10 = CIRCLE ( 'NONE', #719, 0.007979956632385373089 ) ;
#11 = AXIS2_PLACEMENT_3D ( 'NONE', #487, #34, #99 ) ;
#12 = FACE_BOUND ( 'NONE', #235, .T. ) ;
#13 = ADVANCED_FACE ( 'NONE', ( #156 ), #28, .F. ) ;
#14 = PERSON_AND_ORGANIZATION_ROLE ( 'design_supplier' ) ;
#15 = LINE ( 'NONE', #142, #490 ) ;
#16 = LINE ( 'NONE', #2, #403 ) ;
#17 = CARTESIAN_POINT ( 'NONE',  ( -0.006940691149128461884, 0.003545688610584075452, 0.005499999999999999681 ) ) ;
#18 = DIRECTION ( 'NONE',  ( -1.000000000000000000, 0.000000000000000000, 0.000000000000000000 ) ) ;
#19 = EDGE_CURVE ( 'NONE', #576, #498, #672, .T. ) ;
#20 = LINE ( 'NONE', #383, #721 ) ;
#21 = FACE_BOUND ( 'NONE', #503, .T. ) ;
#22 = PLANE ( 'NONE',  #750 ) ;
#23 = DIRECTION ( 'NONE',  ( -1.000000000000000000, -0.000000000000000000, -0.000000000000000000 ) ) ;
#24 = AXIS2_PLACEMENT_3D ( 'NONE', #512, #399, #18 ) ;
#25 = CARTESIAN_POINT ( 'NONE',  ( 0.03159495647058826323, -0.005392051271870114230, 0.005499999999999999681 ) ) ;
#26 = VECTOR ( 'NONE', #95, 1.000000000000000000 ) ;
#27 = CARTESIAN_POINT ( 'NONE',  ( 0.06305930885087154825, 0.003545688610584088463, 0.005499999999999999681 ) ) ;
#28 = PLANE ( 'NONE',  #736 ) ;
#29 = DIRECTION ( 'NONE',  ( 1.000000000000000000, 0.000000000000000000, 0.000000000000000000 ) ) ;
#30 = CARTESIAN_POINT ( 'NONE',  ( 0.06305930885087154825, 0.003545688610584088463, 0.000000000000000000 ) ) ;
#31 = CARTESIAN_POINT ( 'NONE',  ( 0.06305930885087154825, 0.003545688610584088463, 0.005499999999999999681 ) ) ;
#32 = DIRECTION ( 'NONE',  ( 0.000000000000000000, -0.000000000000000000, -1.000000000000000000 ) ) ;
#33 = MECHANICAL_CONTEXT ( 'NONE', #366, 'mechanical' ) ;
#34 = DIRECTION ( 'NONE',  ( 0.000000000000000000, 0.000000000000000000, 1.000000000000000000 ) ) ;
#35 = DIRECTION ( 'NONE',  ( 1.000000000000000000, -9.109888043174520855E-17, 0.000000000000000000 ) ) ;
#36 = VERTEX_POINT ( 'NONE', #226 ) ;
#37 = AXIS2_PLACEMENT_3D ( 'NONE', #17, #659, #82 ) ;
#38 = EDGE_CURVE ( 'NONE', #629, #302, #548, .T. ) ;
#39 = COORDINATED_UNIVERSAL_TIME_OFFSET ( 3, 0, .AHEAD. ) ;
#40 = LINE ( 'NONE', #25, #322 ) ;
#41 = FACE_OUTER_BOUND ( 'NONE', #115, .T. ) ;
#42 = EDGE_LOOP ( 'NONE', ( #639, #354, #499, #430 ) ) ;
#43 = CARTESIAN_POINT ( 'NONE',  ( 0.02329246476478255556, 0.003545688610584074585, 0.005499999999999999681 ) ) ;
#44 = EDGE_CURVE ( 'NONE', #36, #290, #558, .T. ) ;
#45 = AXIS2_PLACEMENT_3D ( 'NONE', #589, #601, #200 ) ;
#46 = ORIENTED_EDGE ( 'NONE', *, *, #630, .T. ) ;
#47 = ADVANCED_FACE ( 'NONE', ( #683 ), #406, .F. ) ;
#48 = ORIENTED_EDGE ( 'NONE', *, *, #436, .F. ) ;
#49 = EDGE_LOOP ( 'NONE', ( #176, #453, #704, #228 ) ) ;
#50 = CARTESIAN_POINT ( 'NONE',  ( 0.03069495647058826174, -0.005392051271870114230, 0.000000000000000000 ) ) ;
#51 = ORIENTED_EDGE ( 'NONE', *, *, #545, .F. ) ;
#52 = ORIENTED_EDGE ( 'NONE', *, *, #770, .F. ) ;
#53 = PLANE ( 'NONE',  #534 ) ;
#54 = EDGE_LOOP ( 'NONE', ( #781, #513, #364, #682 ) ) ;
#55 = EDGE_CURVE ( 'NONE', #511, #359, #732, .T. ) ;
#56 = ORIENTED_EDGE ( 'NONE', *, *, #254, .T. ) ;
#57 = ORIENTED_EDGE ( 'NONE', *, *, #630, .F. ) ;
#58 = ORIENTED_EDGE ( 'NONE', *, *, #685, .F. ) ;
#59 = VECTOR ( 'NONE', #714, 1.000000000000000000 ) ;
#60 = VECTOR ( 'NONE', #88, 1.000000000000000000 ) ;
#61 = CARTESIAN_POINT ( 'NONE',  ( 0.04401710473425203551, -0.004434268021801295034, 0.000000000000000000 ) ) ;
#62 = APPROVAL_DATE_TIME ( #588, #624 ) ;
#63 = ORIENTED_EDGE ( 'NONE', *, *, #598, .F. ) ;
#64 = ORIENTED_EDGE ( 'NONE', *, *, #233, .T. ) ;
#65 = ORIENTED_EDGE ( 'NONE', *, *, #155, .T. ) ;
#66 = CC_DESIGN_APPROVAL ( #475, ( #469 ) ) ;
#67 = CYLINDRICAL_SURFACE ( 'NONE', #24, 0.001999999999999994837 ) ;
#68 = DIRECTION ( 'NONE',  ( 1.000000000000000000, 0.000000000000000000, 0.000000000000000000 ) ) ;
#69 = EDGE_CURVE ( 'NONE', #710, #448, #775, .T. ) ;
#70 = DIRECTION ( 'NONE',  ( 1.000000000000000000, 0.000000000000000000, -0.000000000000000000 ) ) ;
#71 = PERSON_AND_ORGANIZATION ( #567, #604 ) ;
#72 = DIRECTION ( 'NONE',  ( 0.000000000000000000, 0.000000000000000000, 1.000000000000000000 ) ) ;
#73 = LINE ( 'NONE', #713, #77 ) ;
#74 = CIRCLE ( 'NONE', #402, 0.007979956632385376558 ) ;
#75 = ADVANCED_FACE ( 'NONE', ( #473 ), #344, .F. ) ;
#76 = LINE ( 'NONE', #318, #445 ) ;
#77 = VECTOR ( 'NONE', #23, 1.000000000000000000 ) ;
#78 = APPROVAL_DATE_TIME ( #715, #475 ) ;
#79 = DIRECTION ( 'NONE',  ( -1.000000000000000000, -0.000000000000000000, -0.000000000000000000 ) ) ;
#80 = ADVANCED_BREP_SHAPE_REPRESENTATION ( 'tie rod', ( #551, #627 ), #492 ) ;
#81 = FACE_OUTER_BOUND ( 'NONE', #762, .T. ) ;
#82 = DIRECTION ( 'NONE',  ( -1.000000000000000000, 0.000000000000000000, 0.000000000000000000 ) ) ;
#83 = PERSON_AND_ORGANIZATION_ROLE ( 'classification_officer' ) ;
#84 = DIRECTION ( 'NONE',  ( 1.000000000000000000, 0.000000000000000000, 0.000000000000000000 ) ) ;
#85 = CARTESIAN_POINT ( 'NONE',  ( 0.06105930885087155341, 0.003545688610584088463, 0.000000000000000000 ) ) ;
#86 = CARTESIAN_POINT ( 'NONE',  ( -0.008940691149128461926, 0.003545688610584075452, 0.005499999999999999681 ) ) ;
#87 = CARTESIAN_POINT ( 'NONE',  ( 0.01737280820692448102, -0.004434268021801308045, 0.005499999999999999681 ) ) ;
#88 = DIRECTION ( 'NONE',  ( -0.000000000000000000, -0.000000000000000000, -1.000000000000000000 ) ) ;
#89 = AXIS2_PLACEMENT_3D ( 'NONE', #523, #782, #199 ) ;
#90 = FACE_BOUND ( 'NONE', #439, .T. ) ;
#91 = VECTOR ( 'NONE', #381, 1.000000000000000000 ) ;
#92 = DIRECTION ( 'NONE',  ( -1.000000000000000000, 9.109888043174519623E-17, -0.000000000000000000 ) ) ;
#93 = CALENDAR_DATE ( 2026, 13, 8 ) ;
#94 = CC_DESIGN_PERSON_AND_ORGANIZATION_ASSIGNMENT ( #225, #485, ( #158 ) ) ;
#95 = DIRECTION ( 'NONE',  ( -0.000000000000000000, -0.000000000000000000, -1.000000000000000000 ) ) ;
#96 = PLANE ( 'NONE',  #722 ) ;
#97 = CARTESIAN_POINT ( 'NONE',  ( 0.04401710473425203551, -0.004434268021801295034, 0.000000000000000000 ) ) ;
#98 = ADVANCED_FACE ( 'NONE', ( #555 ), #214, .F. ) ;
#99 = DIRECTION ( 'NONE',  ( 1.000000000000000000, 0.000000000000000000, 0.000000000000000000 ) ) ;
#100 = CARTESIAN_POINT ( 'NONE',  ( 0.02329246476478255556, 0.003545688610584074585, 0.000000000000000000 ) ) ;
#101 = ORIENTED_EDGE ( 'NONE', *, *, #536, .F. ) ;
#102 = APPROVAL_ROLE ( '' ) ;
#103 = DIRECTION ( 'NONE',  ( -0.000000000000000000, -0.000000000000000000, -1.000000000000000000 ) ) ;
#104 = DIRECTION ( 'NONE',  ( 0.4135499607872099581, -0.9104814275606599727, -0.000000000000000000 ) ) ;
#105 = ORIENTED_EDGE ( 'NONE', *, *, #835, .T. ) ;
#106 = CIRCLE ( 'NONE', #282, 0.002000000000000001776 ) ;
#107 = CIRCLE ( 'NONE', #307, 0.002000000000000001776 ) ;
#108 = CIRCLE ( 'NONE', #207, 0.0009000000000000014932 ) ;
#109 = LINE ( 'NONE', #610, #590 ) ;
#110 = FACE_OUTER_BOUND ( 'NONE', #54, .T. ) ;
#111 = EDGE_CURVE ( 'NONE', #833, #511, #109, .T. ) ;
#112 = EDGE_LOOP ( 'NONE', ( #232, #690, #638, #133 ) ) ;
#113 = AXIS2_PLACEMENT_3D ( 'NONE', #801, #404, #217 ) ;
#114 = ORIENTED_EDGE ( 'NONE', *, *, #660, .F. ) ;
#115 = EDGE_LOOP ( 'NONE', ( #165, #484, #628, #295 ) ) ;
#116 = LINE ( 'NONE', #640, #735 ) ;
#117 = ORIENTED_EDGE ( 'NONE', *, *, #798, .F. ) ;
#118 = EDGE_LOOP ( 'NONE', ( #3, #504, #369, #759 ) ) ;
#119 = EDGE_CURVE ( 'NONE', #359, #648, #747, .T. ) ;
#120 = CARTESIAN_POINT ( 'NONE',  ( 0.04401710473425203551, -0.004434268021801295034, 0.005499999999999999681 ) ) ;
#121 = EDGE_LOOP ( 'NONE', ( #433, #575, #767, #632 ) ) ;
#122 = EDGE_LOOP ( 'NONE', ( #563, #429 ) ) ;
#123 = ORIENTED_EDGE ( 'NONE', *, *, #493, .F. ) ;
#124 = DIRECTION ( 'NONE',  ( 1.000000000000000000, 0.000000000000000000, 0.000000000000000000 ) ) ;
#125 = VERTEX_POINT ( 'NONE', #43 ) ;
#126 = VECTOR ( 'NONE', #646, 1.000000000000000000 ) ;
#127 = ORIENTED_EDGE ( 'NONE', *, *, #835, .F. ) ;
#128 = EDGE_LOOP ( 'NONE', ( #312, #424, #303, #642 ) ) ;
#129 = VECTOR ( 'NONE', #342, 1.000000000000000000 ) ;
#130 = CARTESIAN_POINT ( 'NONE',  ( 0.06305930885087154825, -0.004434268021801295034, 0.000000000000000000 ) ) ;
#131 = ADVANCED_FACE ( 'NONE', ( #814 ), #806, .T. ) ;
#132 = CARTESIAN_POINT ( 'NONE',  ( 0.03793416630483498198, 0.003545688610584074585, 0.000000000000000000 ) ) ;
#133 = ORIENTED_EDGE ( 'NONE', *, *, #196, .F. ) ;
#134 = DIRECTION ( 'NONE',  ( 1.000000000000000000, 0.000000000000000000, 0.000000000000000000 ) ) ;
#135 = DIRECTION ( 'NONE',  ( -0.8031440884113570933, -0.5957848380496859608, 0.000000000000000000 ) ) ;
#136 = CARTESIAN_POINT ( 'NONE',  ( 0.06305930885087154825, 0.003545688610584088463, 0.005499999999999999681 ) ) ;
#137 = PERSON_AND_ORGANIZATION ( #567, #604 ) ;
#138 = DIRECTION ( 'NONE',  ( 0.000000000000000000, 0.000000000000000000, 1.000000000000000000 ) ) ;
#139 = CARTESIAN_POINT ( 'NONE',  ( -0.006940691149128461884, 0.003545688610584075452, 0.005499999999999999681 ) ) ;
#140 = AXIS2_PLACEMENT_3D ( 'NONE', #182, #442, #377 ) ;
#141 = CARTESIAN_POINT ( 'NONE',  ( 0.06305930885087154825, 0.003545688610584088463, 0.000000000000000000 ) ) ;
#142 = CARTESIAN_POINT ( 'NONE',  ( -0.006940691149128461884, 0.01152564524296944420, 0.005499999999999999681 ) ) ;
#143 = CARTESIAN_POINT ( 'NONE',  ( 0.03069495647058826174, -0.005392051271870114230, 0.005499999999999999681 ) ) ;
#144 = CARTESIAN_POINT ( 'NONE',  ( 0.04401710473425203551, 0.01152564524296944420, 0.005499999999999999681 ) ) ;
#145 = EDGE_CURVE ( 'NONE', #302, #619, #742, .T. ) ;
#146 = FACE_BOUND ( 'NONE', #309, .T. ) ;
#147 = DIRECTION ( 'NONE',  ( 0.000000000000000000, 0.000000000000000000, 1.000000000000000000 ) ) ;
#148 = FACE_OUTER_BOUND ( 'NONE', #167, .T. ) ;
#149 = LINE ( 'NONE', #319, #476 ) ;
#150 = COORDINATED_UNIVERSAL_TIME_OFFSET ( 3, 0, .AHEAD. ) ;
#151 = AXIS2_PLACEMENT_3D ( 'NONE', #330, #467, #134 ) ;
#152 = CARTESIAN_POINT ( 'NONE',  ( 0.04401710473425203551, -0.004434268021801295034, 0.005499999999999999681 ) ) ;
#153 = CARTESIAN_POINT ( 'NONE',  ( 0.02979495647058826024, -0.005392051271870114230, 0.005499999999999999681 ) ) ;
#154 = VECTOR ( 'NONE', #647, 1.000000000000000000 ) ;
#155 = EDGE_CURVE ( 'NONE', #313, #305, #40, .T. ) ;
#156 = FACE_OUTER_BOUND ( 'NONE', #832, .T. ) ;
#157 = DIRECTION ( 'NONE',  ( 1.000000000000000000, 0.000000000000000000, 0.000000000000000000 ) ) ;
#158 = PRODUCT_DEFINITION ( 'UNKNOWN', '', #585, #292 ) ;
#159 = CARTESIAN_POINT ( 'NONE',  ( -0.004940691149128461843, 0.003545688610584075886, 0.005499999999999999681 ) ) ;
#160 = CARTESIAN_POINT ( 'NONE',  ( 0.02069495647058826326, -0.01174838863714611388, 0.005499999999999999681 ) ) ;
#161 = VERTEX_POINT ( 'NONE', #328 ) ;
#162 =( NAMED_UNIT ( * ) SI_UNIT ( $, .STERADIAN. ) SOLID_ANGLE_UNIT ( ) );
#163 = DIRECTION ( 'NONE',  ( -1.000000000000000000, 0.000000000000000000, 0.000000000000000000 ) ) ;
#164 = CARTESIAN_POINT ( 'NONE',  ( 0.06305930885087154825, 0.01152564524296944247, 0.005499999999999999681 ) ) ;
#165 = ORIENTED_EDGE ( 'NONE', *, *, #730, .T. ) ;
#166 = AXIS2_PLACEMENT_3D ( 'NONE', #546, #414, #805 ) ;
#167 = EDGE_LOOP ( 'NONE', ( #375, #170, #123, #497, #63, #51, #565, #360, #48, #181, #58, #435, #570 ) ) ;
#168 = APPLICATION_CONTEXT ( 'configuration controlled 3d designs of mechanical parts and assemblies' ) ;
#169 = ORIENTED_EDGE ( 'NONE', *, *, #188, .T. ) ;
#170 = ORIENTED_EDGE ( 'NONE', *, *, #810, .F. ) ;
#171 = DIRECTION ( 'NONE',  ( -0.000000000000000000, -0.000000000000000000, -1.000000000000000000 ) ) ;
#172 = CIRCLE ( 'NONE', #294, 0.0009000000000000014932 ) ;
#173 = VECTOR ( 'NONE', #273, 1.000000000000000000 ) ;
#174 = EDGE_LOOP ( 'NONE', ( #4, #764, #198, #286 ) ) ;
#175 = VECTOR ( 'NONE', #535, 1.000000000000000000 ) ;
#176 = ORIENTED_EDGE ( 'NONE', *, *, #436, .T. ) ;
#177 = EDGE_CURVE ( 'NONE', #408, #644, #333, .T. ) ;
#178 = CARTESIAN_POINT ( 'NONE',  ( 0.02069495647058826326, -0.01174838863714611388, 0.000000000000000000 ) ) ;
#179 = ORIENTED_EDGE ( 'NONE', *, *, #145, .T. ) ;
#180 = ORIENTED_EDGE ( 'NONE', *, *, #374, .F. ) ;
#181 = ORIENTED_EDGE ( 'NONE', *, *, #19, .F. ) ;
#182 = CARTESIAN_POINT ( 'NONE',  ( -0.006940691149128461884, 0.003545688610584075452, 0.000000000000000000 ) ) ;
#183 = VERTEX_POINT ( 'NONE', #528 ) ;
#184 = VERTEX_POINT ( 'NONE', #395 ) ;
#185 = ORIENTED_EDGE ( 'NONE', *, *, #69, .F. ) ;
#186 = LOCAL_TIME ( 10, 54, 14.00000000000000000, #150 ) ;
#187 = CARTESIAN_POINT ( 'NONE',  ( 0.03069495647058826174, -0.005392051271870114230, 0.005499999999999999681 ) ) ;
#188 = EDGE_CURVE ( 'NONE', #441, #184, #804, .T. ) ;
#189 = CALENDAR_DATE ( 2026, 13, 8 ) ;
#190 = VECTOR ( 'NONE', #326, 1.000000000000000000 ) ;
#191 = LINE ( 'NONE', #463, #657 ) ;
#192 = VERTEX_POINT ( 'NONE', #650 ) ;
#193 = AXIS2_PLACEMENT_3D ( 'NONE', #379, #662, #204 ) ;
#194 = DIRECTION ( 'NONE',  ( 0.000000000000000000, -0.000000000000000000, -1.000000000000000000 ) ) ;
#195 = CARTESIAN_POINT ( 'NONE',  ( 0.03069495647058826174, -0.008701674289295387513, 0.005499999999999999681 ) ) ;
#196 = EDGE_CURVE ( 'NONE', #710, #569, #795, .T. ) ;
#197 = DIRECTION ( 'NONE',  ( -0.000000000000000000, -0.000000000000000000, -1.000000000000000000 ) ) ;
#198 = ORIENTED_EDGE ( 'NONE', *, *, #777, .T. ) ;
#199 = DIRECTION ( 'NONE',  ( 1.000000000000000000, 0.000000000000000000, 0.000000000000000000 ) ) ;
#200 = DIRECTION ( 'NONE',  ( -1.000000000000000000, 0.000000000000000000, 0.000000000000000000 ) ) ;
#201 = LINE ( 'NONE', #457, #175 ) ;
#202 = DIRECTION ( 'NONE',  ( 1.000000000000000000, 0.000000000000000000, 0.000000000000000000 ) ) ;
#203 = FACE_BOUND ( 'NONE', #1, .T. ) ;
#204 = DIRECTION ( 'NONE',  ( -1.000000000000000000, 0.000000000000000000, 0.000000000000000000 ) ) ;
#205 = EDGE_CURVE ( 'NONE', #125, #633, #470, .T. ) ;
#206 = CARTESIAN_POINT ( 'NONE',  ( 0.04401710473425203551, 0.01152564524296944420, 0.000000000000000000 ) ) ;
#207 = AXIS2_PLACEMENT_3D ( 'NONE', #740, #345, #157 ) ;
#208 = DIRECTION ( 'NONE',  ( -1.000000000000000000, -0.000000000000000000, -0.000000000000000000 ) ) ;
#209 = CARTESIAN_POINT ( 'NONE',  ( 0.02979495647058826024, -0.008701674289295387513, 0.005499999999999999681 ) ) ;
#210 = ADVANCED_FACE ( 'NONE', ( #537 ), #532, .F. ) ;
#211 = DIRECTION ( 'NONE',  ( -0.000000000000000000, -0.000000000000000000, -1.000000000000000000 ) ) ;
#212 = FACE_BOUND ( 'NONE', #434, .T. ) ;
#213 = DIRECTION ( 'NONE',  ( 0.000000000000000000, 0.000000000000000000, 1.000000000000000000 ) ) ;
#214 = PLANE ( 'NONE',  #113 ) ;
#215 = CARTESIAN_POINT ( 'NONE',  ( -0.006940691149128461884, 0.003545688610584075452, 0.005499999999999999681 ) ) ;
#216 = ADVANCED_FACE ( 'NONE', ( #148, #90, #324, #21, #12 ), #338, .F. ) ;
#217 = DIRECTION ( 'NONE',  ( -0.4135499607872089589, -0.9104814275606604168, 0.000000000000000000 ) ) ;
#218 = AXIS2_PLACEMENT_3D ( 'NONE', #348, #222, #482 ) ;
#219 = CARTESIAN_POINT ( 'NONE',  ( 0.04401710473425203551, 0.01152564524296944420, 0.005499999999999999681 ) ) ;
#220 =( NAMED_UNIT ( * ) PLANE_ANGLE_UNIT ( ) SI_UNIT ( $, .RADIAN. ) );
#221 = EDGE_CURVE ( 'NONE', #448, #161, #76, .T. ) ;
#222 = DIRECTION ( 'NONE',  ( -0.000000000000000000, -0.000000000000000000, -1.000000000000000000 ) ) ;
#223 = LINE ( 'NONE', #807, #502 ) ;
#224 = ORIENTED_EDGE ( 'NONE', *, *, #355, .F. ) ;
#225 = PERSON_AND_ORGANIZATION ( #567, #604 ) ;
#226 = CARTESIAN_POINT ( 'NONE',  ( 0.06305930885087154825, -0.004434268021801295034, 0.005499999999999999681 ) ) ;
#227 = CYLINDRICAL_SURFACE ( 'NONE', #817, 0.007979956632385373089 ) ;
#228 = ORIENTED_EDGE ( 'NONE', *, *, #331, .T. ) ;
#229 = EDGE_CURVE ( 'NONE', #768, #250, #791, .T. ) ;
#230 = VECTOR ( 'NONE', #208, 1.000000000000000000 ) ;
#231 = VECTOR ( 'NONE', #724, 1.000000000000000000 ) ;
#232 = ORIENTED_EDGE ( 'NONE', *, *, #69, .T. ) ;
#233 = EDGE_CURVE ( 'NONE', #234, #833, #559, .T. ) ;
#234 = VERTEX_POINT ( 'NONE', #262 ) ;
#235 = EDGE_LOOP ( 'NONE', ( #245, #351 ) ) ;
#236 = EDGE_CURVE ( 'NONE', #376, #234, #373, .T. ) ;
#237 = ORIENTED_EDGE ( 'NONE', *, *, #687, .T. ) ;
#238 = ORIENTED_EDGE ( 'NONE', *, *, #254, .F. ) ;
#239 = FACE_OUTER_BOUND ( 'NONE', #121, .T. ) ;
#240 = AXIS2_PLACEMENT_3D ( 'NONE', #396, #269, #779 ) ;
#241 = AXIS2_PLACEMENT_3D ( 'NONE', #665, #135, #717 ) ;
#242 = EDGE_LOOP ( 'NONE', ( #237, #751, #52, #645 ) ) ;
#243 = VERTEX_POINT ( 'NONE', #454 ) ;
#244 = CARTESIAN_POINT ( 'NONE',  ( 0.03069495647058826174, -0.008701674289295387513, 0.005499999999999999681 ) ) ;
#245 = ORIENTED_EDGE ( 'NONE', *, *, #818, .T. ) ;
#246 = ORIENTED_EDGE ( 'NONE', *, *, #331, .F. ) ;
#247 = ORIENTED_EDGE ( 'NONE', *, *, #421, .T. ) ;
#248 = ORIENTED_EDGE ( 'NONE', *, *, #44, .F. ) ;
#249 = DIRECTION ( 'NONE',  ( -0.000000000000000000, -0.000000000000000000, -1.000000000000000000 ) ) ;
#250 = VERTEX_POINT ( 'NONE', #206 ) ;
#251 = DIRECTION ( 'NONE',  ( 0.000000000000000000, 0.000000000000000000, 1.000000000000000000 ) ) ;
#252 = VERTEX_POINT ( 'NONE', #663 ) ;
#253 = ORIENTED_EDGE ( 'NONE', *, *, #810, .T. ) ;
#254 = EDGE_CURVE ( 'NONE', #629, #510, #392, .T. ) ;
#255 = DIRECTION ( 'NONE',  ( 1.000000000000000000, 4.336808689942018229E-16, 0.000000000000000000 ) ) ;
#256 = COORDINATED_UNIVERSAL_TIME_OFFSET ( 3, 0, .AHEAD. ) ;
#257 = CARTESIAN_POINT ( 'NONE',  ( 0.01737280820692448102, 0.01152564524296944420, 0.005499999999999999681 ) ) ;
#258 = DIRECTION ( 'NONE',  ( 0.000000000000000000, 0.000000000000000000, 1.000000000000000000 ) ) ;
#259 = PERSON_AND_ORGANIZATION_ROLE ( 'creator' ) ;
#260 = DIRECTION ( 'NONE',  ( 0.000000000000000000, 0.000000000000000000, 1.000000000000000000 ) ) ;
#261 = DIRECTION ( 'NONE',  ( -0.000000000000000000, -0.000000000000000000, -1.000000000000000000 ) ) ;
#262 = CARTESIAN_POINT ( 'NONE',  ( -0.01492064778151383497, 0.003545688610584075452, 0.005499999999999999681 ) ) ;
#263 = DIRECTION ( 'NONE',  ( 0.9104814275606598617, 0.4135499607872099026, -0.000000000000000000 ) ) ;
#264 = ADVANCED_FACE ( 'NONE', ( #385 ), #653, .F. ) ;
#265 = DIRECTION ( 'NONE',  ( 1.000000000000000000, 0.000000000000000000, 0.000000000000000000 ) ) ;
#266 = DIRECTION ( 'NONE',  ( -0.000000000000000000, -0.000000000000000000, -1.000000000000000000 ) ) ;
#267 = CC_DESIGN_APPROVAL ( #5, ( #158 ) ) ;
#268 = APPROVAL_ROLE ( '' ) ;
#269 = DIRECTION ( 'NONE',  ( 0.000000000000000000, 0.000000000000000000, 1.000000000000000000 ) ) ;
#270 = DIRECTION ( 'NONE',  ( 0.000000000000000000, 0.000000000000000000, 1.000000000000000000 ) ) ;
#271 = CC_DESIGN_PERSON_AND_ORGANIZATION_ASSIGNMENT ( #480, #741, ( #432 ) ) ;
#272 = CIRCLE ( 'NONE', #388, 0.0009000000000000014932 ) ;
#273 = DIRECTION ( 'NONE',  ( -0.000000000000000000, -0.000000000000000000, -1.000000000000000000 ) ) ;
#274 = CARTESIAN_POINT ( 'NONE',  ( 0.02979495647058826024, -0.005392051271870114230, 0.005499999999999999681 ) ) ;
#275 = DIRECTION ( 'NONE',  ( 0.000000000000000000, 0.000000000000000000, 1.000000000000000000 ) ) ;
#276 = ADVANCED_FACE ( 'NONE', ( #797 ), #706, .F. ) ;
#277 = CARTESIAN_POINT ( 'NONE',  ( 0.04401710473425203551, -0.004434268021801295034, 0.005499999999999999681 ) ) ;
#278 = DIRECTION ( 'NONE',  ( -1.000000000000000000, 0.000000000000000000, 0.000000000000000000 ) ) ;
#279 =( LENGTH_UNIT ( ) NAMED_UNIT ( * ) SI_UNIT ( $, .METRE. ) );
#280 = DIRECTION ( 'NONE',  ( -0.000000000000000000, -0.000000000000000000, -1.000000000000000000 ) ) ;
#281 = CARTESIAN_POINT ( 'NONE',  ( 0.02069495647058826326, -0.01174838863714611388, 0.000000000000000000 ) ) ;
#282 = AXIS2_PLACEMENT_3D ( 'NONE', #339, #260, #525 ) ;
#283 = DIRECTION ( 'NONE',  ( 1.000000000000000000, -3.567408069429011603E-16, 0.000000000000000000 ) ) ;
#284 = CLOSED_SHELL ( 'NONE', ( #384, #746, #443, #670, #554, #391, #216, #131, #607, #210, #586, #691, #341, #568, #13, #481, #560, #98, #47, #276, #378, #264, #75 ) ) ;
#285 = CARTESIAN_POINT ( 'NONE',  ( 0.01737280820692448102, -0.004434268021801308045, 0.005499999999999999681 ) ) ;
#286 = ORIENTED_EDGE ( 'NONE', *, *, #643, .F. ) ;
#287 = CALENDAR_DATE ( 2026, 13, 8 ) ;
#288 = CARTESIAN_POINT ( 'NONE',  ( -0.006940691149128461884, 0.003545688610584075452, 0.005499999999999999681 ) ) ;
#289 = CARTESIAN_POINT ( 'NONE',  ( -0.004940691149128461843, 0.003545688610584075886, 0.000000000000000000 ) ) ;
#290 = VERTEX_POINT ( 'NONE', #130 ) ;
#291 = EDGE_CURVE ( 'NONE', #376, #574, #516, .T. ) ;
#292 = DESIGN_CONTEXT ( 'detailed design', #168, 'design' ) ;
#293 = ORIENTED_EDGE ( 'NONE', *, *, #44, .T. ) ;
#294 = AXIS2_PLACEMENT_3D ( 'NONE', #187, #501, #694 ) ;
#295 = ORIENTED_EDGE ( 'NONE', *, *, #660, .T. ) ;
#296 = ORIENTED_EDGE ( 'NONE', *, *, #458, .T. ) ;
#297 = EDGE_CURVE ( 'NONE', #422, #313, #172, .T. ) ;
#298 = ORIENTED_EDGE ( 'NONE', *, *, #317, .T. ) ;
#299 = ORIENTED_EDGE ( 'NONE', *, *, #297, .T. ) ;
#300 = CARTESIAN_POINT ( 'NONE',  ( 0.03159495647058826323, -0.005392051271870114230, 0.000000000000000000 ) ) ;
#301 = EDGE_CURVE ( 'NONE', #408, #125, #6, .T. ) ;
#302 = VERTEX_POINT ( 'NONE', #582 ) ;
#303 = ORIENTED_EDGE ( 'NONE', *, *, #55, .F. ) ;
#304 = DIRECTION ( 'NONE',  ( 0.4135499607872089589, 0.9104814275606603058, 0.000000000000000000 ) ) ;
#305 = VERTEX_POINT ( 'NONE', #300 ) ;
#306 = CIRCLE ( 'NONE', #356, 0.0009000000000000014932 ) ;
#307 = AXIS2_PLACEMENT_3D ( 'NONE', #30, #275, #541 ) ;
#308 = VERTEX_POINT ( 'NONE', #634 ) ;
#309 = EDGE_LOOP ( 'NONE', ( #816, #127 ) ) ;
#310 = ORIENTED_EDGE ( 'NONE', *, *, #55, .T. ) ;
#311 = CARTESIAN_POINT ( 'NONE',  ( 0.03069495647058826174, -0.005392051271870114230, 0.005499999999999999681 ) ) ;
#312 = ORIENTED_EDGE ( 'NONE', *, *, #598, .T. ) ;
#313 = VERTEX_POINT ( 'NONE', #701 ) ;
#314 = ORIENTED_EDGE ( 'NONE', *, *, #417, .T. ) ;
#315 = DIRECTION ( 'NONE',  ( -0.000000000000000000, -0.000000000000000000, -1.000000000000000000 ) ) ;
#316 = PLANE ( 'NONE',  #241 ) ;
#317 = EDGE_CURVE ( 'NONE', #290, #183, #74, .T. ) ;
#318 = CARTESIAN_POINT ( 'NONE',  ( 0.03159495647058826323, -0.008701674289295387513, 0.005499999999999999681 ) ) ;
#319 = CARTESIAN_POINT ( 'NONE',  ( 0.04401710473425203551, 0.01152564524296944420, 0.005499999999999999681 ) ) ;
#320 = AXIS2_PLACEMENT_3D ( 'NONE', #311, #315, #371 ) ;
#321 = FACE_OUTER_BOUND ( 'NONE', #763, .T. ) ;
#322 = VECTOR ( 'NONE', #266, 1.000000000000000000 ) ;
#323 = VECTOR ( 'NONE', #606, 1.000000000000000000 ) ;
#324 = FACE_BOUND ( 'NONE', #122, .T. ) ;
#325 = EDGE_CURVE ( 'NONE', #648, #192, #437, .T. ) ;
#326 = DIRECTION ( 'NONE',  ( -0.000000000000000000, -0.000000000000000000, -1.000000000000000000 ) ) ;
#327 = CARTESIAN_POINT ( 'NONE',  ( -0.006940691149128464486, -0.004434268021801299371, 0.000000000000000000 ) ) ;
#328 = CARTESIAN_POINT ( 'NONE',  ( 0.03159495647058826323, -0.008701674289295387513, 0.000000000000000000 ) ) ;
#329 = SHAPE_DEFINITION_REPRESENTATION ( #363, #80 ) ;
#330 = CARTESIAN_POINT ( 'NONE',  ( -0.006940691149128461884, 0.003545688610584075452, 0.000000000000000000 ) ) ;
#331 = EDGE_CURVE ( 'NONE', #633, #498, #116, .T. ) ;
#332 = DIRECTION ( 'NONE',  ( 1.000000000000000000, 0.000000000000000000, 0.000000000000000000 ) ) ;
#333 = LINE ( 'NONE', #718, #603 ) ;
#334 = CARTESIAN_POINT ( 'NONE',  ( 0.03069495647058826174, -0.005392051271870114230, 0.000000000000000000 ) ) ;
#335 = CARTESIAN_POINT ( 'NONE',  ( 0.03069495647058826174, -0.008701674289295387513, 0.000000000000000000 ) ) ;
#336 = VECTOR ( 'NONE', #255, 1.000000000000000000 ) ;
#337 = AXIS2_PLACEMENT_3D ( 'NONE', #459, #667, #728 ) ;
#338 = PLANE ( 'NONE',  #815 ) ;
#339 = CARTESIAN_POINT ( 'NONE',  ( 0.06305930885087154825, 0.003545688610584088463, 0.005499999999999999681 ) ) ;
#340 = DATE_AND_TIME ( #93, #186 ) ;
#341 = ADVANCED_FACE ( 'NONE', ( #756 ), #53, .F. ) ;
#342 = DIRECTION ( 'NONE',  ( -0.5957848380496858498, 0.8031440884113569822, -0.000000000000000000 ) ) ;
#343 = CARTESIAN_POINT ( 'NONE',  ( 0.02329246476478255556, 0.003545688610584074585, 0.005499999999999999681 ) ) ;
#344 = CYLINDRICAL_SURFACE ( 'NONE', #477, 0.001999999999999994837 ) ;
#345 = DIRECTION ( 'NONE',  ( 0.000000000000000000, 0.000000000000000000, 1.000000000000000000 ) ) ;
#346 = VERTEX_POINT ( 'NONE', #577 ) ;
#347 = CARTESIAN_POINT ( 'NONE',  ( -0.006940691149128464486, -0.004434268021801299371, 0.005499999999999999681 ) ) ;
#348 = CARTESIAN_POINT ( 'NONE',  ( 0.06305930885087154825, 0.003545688610584088463, 0.005499999999999999681 ) ) ;
#349 = AXIS2_PLACEMENT_3D ( 'NONE', #139, #261, #786 ) ;
#350 = DIRECTION ( 'NONE',  ( -0.000000000000000000, -0.000000000000000000, -1.000000000000000000 ) ) ;
#351 = ORIENTED_EDGE ( 'NONE', *, *, #643, .T. ) ;
#352 = EDGE_CURVE ( 'NONE', #619, #510, #774, .T. ) ;
#353 = CARTESIAN_POINT ( 'NONE',  ( -0.006940691149128464486, -0.004434268021801299371, 0.005499999999999999681 ) ) ;
#354 = ORIENTED_EDGE ( 'NONE', *, *, #675, .F. ) ;
#355 = EDGE_CURVE ( 'NONE', #252, #9, #572, .T. ) ;
#356 = AXIS2_PLACEMENT_3D ( 'NONE', #50, #711, #824 ) ;
#357 = VECTOR ( 'NONE', #811, 1.000000000000000000 ) ;
#358 = AXIS2_PLACEMENT_3D ( 'NONE', #335, #147, #68 ) ;
#359 = VERTEX_POINT ( 'NONE', #449 ) ;
#360 = ORIENTED_EDGE ( 'NONE', *, *, #506, .F. ) ;
#361 = EDGE_CURVE ( 'NONE', #9, #370, #631, .T. ) ;
#362 = CARTESIAN_POINT ( 'NONE',  ( 0.04069495647058826021, -0.01174838863714610521, 0.005499999999999999681 ) ) ;
#363 = PRODUCT_DEFINITION_SHAPE ( 'NONE', 'NONE',  #158 ) ;
#364 = ORIENTED_EDGE ( 'NONE', *, *, #291, .T. ) ;
#365 = ORIENTED_EDGE ( 'NONE', *, *, #798, .T. ) ;
#366 = APPLICATION_CONTEXT ( 'configuration controlled 3d designs of mechanical parts and assemblies' ) ;
#367 = DIRECTION ( 'NONE',  ( -0.000000000000000000, -0.000000000000000000, -1.000000000000000000 ) ) ;
#368 = EDGE_LOOP ( 'NONE', ( #185, #819 ) ) ;
#369 = ORIENTED_EDGE ( 'NONE', *, *, #757, .T. ) ;
#370 = VERTEX_POINT ( 'NONE', #61 ) ;
#371 = DIRECTION ( 'NONE',  ( -1.000000000000000000, 0.000000000000000000, 0.000000000000000000 ) ) ;
#372 = ORIENTED_EDGE ( 'NONE', *, *, #297, .F. ) ;
#373 = CIRCLE ( 'NONE', #89, 0.007979956632385373089 ) ;
#374 = EDGE_CURVE ( 'NONE', #753, #305, #306, .T. ) ;
#375 = ORIENTED_EDGE ( 'NONE', *, *, #317, .F. ) ;
#376 = VERTEX_POINT ( 'NONE', #836 ) ;
#377 = DIRECTION ( 'NONE',  ( 1.000000000000000000, 0.000000000000000000, 0.000000000000000000 ) ) ;
#378 = ADVANCED_FACE ( 'NONE', ( #239 ), #830, .F. ) ;
#379 = CARTESIAN_POINT ( 'NONE',  ( 0.03069495647058826174, -0.005392051271870114230, 0.005499999999999999681 ) ) ;
#380 = ORIENTED_EDGE ( 'NONE', *, *, #111, .F. ) ;
#381 = DIRECTION ( 'NONE',  ( -0.000000000000000000, -0.000000000000000000, -1.000000000000000000 ) ) ;
#382 = LINE ( 'NONE', #529, #625 ) ;
#383 = CARTESIAN_POINT ( 'NONE',  ( 0.04401710473425203551, 0.01152564524296944420, 0.000000000000000000 ) ) ;
#384 = ADVANCED_FACE ( 'NONE', ( #765 ), #67, .F. ) ;
#385 = FACE_OUTER_BOUND ( 'NONE', #564, .T. ) ;
#386 = SECURITY_CLASSIFICATION_LEVEL ( 'unclassified' ) ;
#387 = CARTESIAN_POINT ( 'NONE',  ( 0.03793416630483498198, 0.003545688610584074585, 0.005499999999999999681 ) ) ;
#388 = AXIS2_PLACEMENT_3D ( 'NONE', #195, #788, #29 ) ;
#389 = CARTESIAN_POINT ( 'NONE',  ( 0.02979495647058826024, -0.005392051271870114230, 0.000000000000000000 ) ) ;
#390 = CIRCLE ( 'NONE', #693, 0.007979956632385373089 ) ;
#391 = ADVANCED_FACE ( 'NONE', ( #146, #203, #784, #461, #212 ), #22, .T. ) ;
#392 = LINE ( 'NONE', #86, #59 ) ;
#393 = DIRECTION ( 'NONE',  ( 0.4135499607872089589, 0.9104814275606603058, 0.000000000000000000 ) ) ;
#394 = DIRECTION ( 'NONE',  ( 0.000000000000000000, 0.000000000000000000, 1.000000000000000000 ) ) ;
#395 = CARTESIAN_POINT ( 'NONE',  ( 0.06505930885087155002, 0.003545688610584088896, 0.005499999999999999681 ) ) ;
#396 = CARTESIAN_POINT ( 'NONE',  ( 0.06305930885087154825, 0.003545688610584088463, 0.005499999999999999681 ) ) ;
#397 = DIRECTION ( 'NONE',  ( -0.6062305691916825001, -0.7952889393028980125, -0.000000000000000000 ) ) ;
#398 = CARTESIAN_POINT ( 'NONE',  ( 0.02979495647058826024, -0.008701674289295387513, 0.005499999999999999681 ) ) ;
#399 = DIRECTION ( 'NONE',  ( -0.000000000000000000, -0.000000000000000000, -1.000000000000000000 ) ) ;
#400 = APPROVAL_STATUS ( 'not_yet_approved' ) ;
#401 = CC_DESIGN_DATE_AND_TIME_ASSIGNMENT ( #340, #593, ( #158 ) ) ;
#402 = AXIS2_PLACEMENT_3D ( 'NONE', #431, #427, #124 ) ;
#403 = VECTOR ( 'NONE', #197, 1.000000000000000000 ) ;
#404 = DIRECTION ( 'NONE',  ( -0.9104814275606604168, 0.4135499607872089589, 0.000000000000000000 ) ) ;
#405 = LINE ( 'NONE', #609, #571 ) ;
#406 = PLANE ( 'NONE',  #656 ) ;
#407 = PLANE ( 'NONE',  #561 ) ;
#408 = VERTEX_POINT ( 'NONE', #387 ) ;
#409 = PERSON_AND_ORGANIZATION ( #567, #604 ) ;
#410 = EDGE_CURVE ( 'NONE', #448, #710, #272, .T. ) ;
#411 = CARTESIAN_POINT ( 'NONE',  ( 0.01737280820692448102, 0.01152564524296944420, 0.000000000000000000 ) ) ;
#412 = CYLINDRICAL_SURFACE ( 'NONE', #616, 0.007979956632385373089 ) ;
#413 = ORIENTED_EDGE ( 'NONE', *, *, #301, .T. ) ;
#414 = DIRECTION ( 'NONE',  ( 0.000000000000000000, 0.000000000000000000, 1.000000000000000000 ) ) ;
#415 = AXIS2_PLACEMENT_3D ( 'NONE', #334, #72, #729 ) ;
#416 = CARTESIAN_POINT ( 'NONE',  ( 0.02069495647058826326, -0.01174838863714611388, 0.005499999999999999681 ) ) ;
#417 = EDGE_CURVE ( 'NONE', #633, #376, #15, .T. ) ;
#418 = FACE_OUTER_BOUND ( 'NONE', #118, .T. ) ;
#419 = VECTOR ( 'NONE', #552, 1.000000000000000000 ) ;
#420 = ORIENTED_EDGE ( 'NONE', *, *, #374, .T. ) ;
#421 = EDGE_CURVE ( 'NONE', #359, #252, #720, .T. ) ;
#422 = VERTEX_POINT ( 'NONE', #274 ) ;
#423 = PRODUCT_RELATED_PRODUCT_CATEGORY ( 'detail', '', ( #432 ) ) ;
#424 = ORIENTED_EDGE ( 'NONE', *, *, #119, .F. ) ;
#425 = ORIENTED_EDGE ( 'NONE', *, *, #493, .T. ) ;
#426 = VECTOR ( 'NONE', #761, 1.000000000000000000 ) ;
#427 = DIRECTION ( 'NONE',  ( 0.000000000000000000, 0.000000000000000000, 1.000000000000000000 ) ) ;
#428 = AXIS2_PLACEMENT_3D ( 'NONE', #136, #600, #202 ) ;
#429 = ORIENTED_EDGE ( 'NONE', *, *, #611, .T. ) ;
#430 = ORIENTED_EDGE ( 'NONE', *, *, #177, .T. ) ;
#431 = CARTESIAN_POINT ( 'NONE',  ( 0.06305930885087154825, 0.003545688610584088463, 0.000000000000000000 ) ) ;
#432 = PRODUCT ( 'tie rod', 'tie rod', '', ( #33 ) ) ;
#433 = ORIENTED_EDGE ( 'NONE', *, *, #221, .F. ) ;
#434 = EDGE_LOOP ( 'NONE', ( #695, #101 ) ) ;
#435 = ORIENTED_EDGE ( 'NONE', *, *, #687, .F. ) ;
#436 = EDGE_CURVE ( 'NONE', #498, #574, #456, .T. ) ;
#437 = LINE ( 'NONE', #178, #336 ) ;
#438 = APPROVAL_STATUS ( 'not_yet_approved' ) ;
#439 = EDGE_LOOP ( 'NONE', ( #420, #494 ) ) ;
#440 = ORIENTED_EDGE ( 'NONE', *, *, #622, .F. ) ;
#441 = VERTEX_POINT ( 'NONE', #538 ) ;
#442 = DIRECTION ( 'NONE',  ( 0.000000000000000000, 0.000000000000000000, 1.000000000000000000 ) ) ;
#443 = ADVANCED_FACE ( 'NONE', ( #655 ), #533, .F. ) ;
#444 = VECTOR ( 'NONE', #304, 1.000000000000000000 ) ;
#445 = VECTOR ( 'NONE', #596, 1.000000000000000000 ) ;
#446 = VECTOR ( 'NONE', #397, 1.000000000000000000 ) ;
#447 = CARTESIAN_POINT ( 'NONE',  ( 0.04401710473425203551, -0.004434268021801295034, 0.005499999999999999681 ) ) ;
#448 = VERTEX_POINT ( 'NONE', #796 ) ;
#449 = CARTESIAN_POINT ( 'NONE',  ( 0.02069495647058826326, -0.01174838863714611388, 0.005499999999999999681 ) ) ;
#450 = DIRECTION ( 'NONE',  ( 1.000000000000000000, 4.336808689942018229E-16, 0.000000000000000000 ) ) ;
#451 = EDGE_CURVE ( 'NONE', #36, #580, #615, .T. ) ;
#452 = DIRECTION ( 'NONE',  ( 1.000000000000000000, 0.000000000000000000, 0.000000000000000000 ) ) ;
#453 = ORIENTED_EDGE ( 'NONE', *, *, #291, .F. ) ;
#454 = CARTESIAN_POINT ( 'NONE',  ( 0.01737280820692448102, -0.004434268021801308045, 0.000000000000000000 ) ) ;
#455 = CALENDAR_DATE ( 2026, 13, 8 ) ;
#456 = LINE ( 'NONE', #725, #230 ) ;
#457 = CARTESIAN_POINT ( 'NONE',  ( -0.01492064778151383497, 0.003545688610584075452, 0.005499999999999999681 ) ) ;
#458 = EDGE_CURVE ( 'NONE', #833, #754, #605, .T. ) ;
#459 = CARTESIAN_POINT ( 'NONE',  ( 0.03793416630483498198, 0.003545688610584074585, 0.005499999999999999681 ) ) ;
#460 = PERSON_AND_ORGANIZATION ( #567, #604 ) ;
#461 = FACE_BOUND ( 'NONE', #368, .T. ) ;
#462 = CIRCLE ( 'NONE', #415, 0.0009000000000000014932 ) ;
#463 = CARTESIAN_POINT ( 'NONE',  ( 0.03793416630483498198, 0.003545688610584074585, 0.000000000000000000 ) ) ;
#464 = AXIS2_PLACEMENT_3D ( 'NONE', #143, #394, #332 ) ;
#465 = AXIS2_PLACEMENT_3D ( 'NONE', #219, #479, #35 ) ;
#466 = DIRECTION ( 'NONE',  ( 0.000000000000000000, 0.000000000000000000, 1.000000000000000000 ) ) ;
#467 = DIRECTION ( 'NONE',  ( 0.000000000000000000, 0.000000000000000000, 1.000000000000000000 ) ) ;
#468 = LINE ( 'NONE', #726, #60 ) ;
#469 = SECURITY_CLASSIFICATION ( '', '', #386 ) ;
#470 = LINE ( 'NONE', #787, #231 ) ;
#471 = CARTESIAN_POINT ( 'NONE',  ( -0.008940691149128461926, 0.003545688610584075452, 0.000000000000000000 ) ) ;
#472 = APPLICATION_PROTOCOL_DEFINITION ( 'international standard', 'config_control_design', 1994, #168 ) ;
#473 = FACE_OUTER_BOUND ( 'NONE', #174, .T. ) ;
#474 = DIRECTION ( 'NONE',  ( -0.000000000000000000, -0.000000000000000000, -1.000000000000000000 ) ) ;
#475 = APPROVAL ( #519, 'UNSPECIFIED' ) ;
#476 = VECTOR ( 'NONE', #92, 1.000000000000000000 ) ;
#477 = AXIS2_PLACEMENT_3D ( 'NONE', #31, #280, #163 ) ;
#478 = DIRECTION ( 'NONE',  ( 0.000000000000000000, 1.000000000000000000, 0.000000000000000000 ) ) ;
#479 = DIRECTION ( 'NONE',  ( -9.109888043174520855E-17, -1.000000000000000000, 0.000000000000000000 ) ) ;
#480 = PERSON_AND_ORGANIZATION ( #567, #604 ) ;
#481 = ADVANCED_FACE ( 'NONE', ( #594 ), #712, .F. ) ;
#482 = DIRECTION ( 'NONE',  ( -1.000000000000000000, 0.000000000000000000, 0.000000000000000000 ) ) ;
#483 = DIRECTION ( 'NONE',  ( -0.000000000000000000, -0.000000000000000000, -1.000000000000000000 ) ) ;
#484 = ORIENTED_EDGE ( 'NONE', *, *, #229, .F. ) ;
#485 = PERSON_AND_ORGANIZATION_ROLE ( 'creator' ) ;
#486 = EDGE_CURVE ( 'NONE', #510, #619, #547, .T. ) ;
#487 = CARTESIAN_POINT ( 'NONE',  ( 0.03069495647058826174, -0.008701674289295387513, 0.005499999999999999681 ) ) ;
#488 = DIRECTION ( 'NONE',  ( -1.000000000000000000, 0.000000000000000000, 0.000000000000000000 ) ) ;
#489 = ORIENTED_EDGE ( 'NONE', *, *, #205, .F. ) ;
#490 = VECTOR ( 'NONE', #79, 1.000000000000000000 ) ;
#491 = VECTOR ( 'NONE', #617, 1.000000000000000000 ) ;
#492 =( GEOMETRIC_REPRESENTATION_CONTEXT ( 3 ) GLOBAL_UNCERTAINTY_ASSIGNED_CONTEXT ( ( #620 ) ) GLOBAL_UNIT_ASSIGNED_CONTEXT ( ( #279, #220, #162 ) ) REPRESENTATION_CONTEXT ( 'NONE', 'WORKASPACE' ) );
#493 = EDGE_CURVE ( 'NONE', #192, #370, #382, .T. ) ;
#494 = ORIENTED_EDGE ( 'NONE', *, *, #518, .T. ) ;
#495 = APPROVAL_PERSON_ORGANIZATION ( #654, #475, #708 ) ;
#496 = CC_DESIGN_PERSON_AND_ORGANIZATION_ASSIGNMENT ( #460, #83, ( #469 ) ) ;
#497 = ORIENTED_EDGE ( 'NONE', *, *, #325, .F. ) ;
#498 = VERTEX_POINT ( 'NONE', #661 ) ;
#499 = ORIENTED_EDGE ( 'NONE', *, *, #301, .F. ) ;
#500 = ORIENTED_EDGE ( 'NONE', *, *, #38, .T. ) ;
#501 = DIRECTION ( 'NONE',  ( 0.000000000000000000, 0.000000000000000000, 1.000000000000000000 ) ) ;
#502 = VECTOR ( 'NONE', #483, 1.000000000000000000 ) ;
#503 = EDGE_LOOP ( 'NONE', ( #636, #515 ) ) ;
#504 = ORIENTED_EDGE ( 'NONE', *, *, #752, .T. ) ;
#505 = EDGE_LOOP ( 'NONE', ( #758, #813, #689, #820 ) ) ;
#506 = EDGE_CURVE ( 'NONE', #574, #308, #10, .T. ) ;
#507 = DIRECTION ( 'NONE',  ( -1.000000000000000000, 0.000000000000000000, 0.000000000000000000 ) ) ;
#508 = ORIENTED_EDGE ( 'NONE', *, *, #111, .T. ) ;
#509 = EDGE_LOOP ( 'NONE', ( #169, #822, #578, #744 ) ) ;
#510 = VERTEX_POINT ( 'NONE', #471 ) ;
#511 = VERTEX_POINT ( 'NONE', #87 ) ;
#512 = CARTESIAN_POINT ( 'NONE',  ( 0.06305930885087154825, 0.003545688610584088463, 0.005499999999999999681 ) ) ;
#513 = ORIENTED_EDGE ( 'NONE', *, *, #236, .F. ) ;
#514 = CARTESIAN_POINT ( 'NONE',  ( 0.06105930885087155341, 0.003545688610584088463, 0.005499999999999999681 ) ) ;
#515 = ORIENTED_EDGE ( 'NONE', *, *, #352, .T. ) ;
#516 = LINE ( 'NONE', #771, #803 ) ;
#517 = AXIS2_PLACEMENT_3D ( 'NONE', #520, #263, #792 ) ;
#518 = EDGE_CURVE ( 'NONE', #305, #753, #462, .T. ) ;
#519 = APPROVAL_STATUS ( 'not_yet_approved' ) ;
#520 = CARTESIAN_POINT ( 'NONE',  ( 0.02069495647058826326, -0.01174838863714611388, 0.005499999999999999681 ) ) ;
#521 = CIRCLE ( 'NONE', #549, 0.002000000000000001776 ) ;
#522 = CARTESIAN_POINT ( 'NONE',  ( 0.02069495647058826326, -0.01174838863714611388, 0.000000000000000000 ) ) ;
#523 = CARTESIAN_POINT ( 'NONE',  ( -0.006940691149128461884, 0.003545688610584075452, 0.005499999999999999681 ) ) ;
#524 = DATE_AND_TIME ( #583, #686 ) ;
#525 = DIRECTION ( 'NONE',  ( 1.000000000000000000, 0.000000000000000000, 0.000000000000000000 ) ) ;
#526 = EDGE_CURVE ( 'NONE', #580, #768, #149, .T. ) ;
#527 = CARTESIAN_POINT ( 'NONE',  ( 0.06305930885087154825, 0.003545688610584088463, 0.000000000000000000 ) ) ;
#528 = CARTESIAN_POINT ( 'NONE',  ( 0.06305930885087154825, 0.01152564524296944247, 0.000000000000000000 ) ) ;
#529 = CARTESIAN_POINT ( 'NONE',  ( 0.04069495647058826021, -0.01174838863714610521, 0.000000000000000000 ) ) ;
#530 = CARTESIAN_POINT ( 'NONE',  ( 0.03793416630483498198, 0.003545688610584074585, 0.005499999999999999681 ) ) ;
#531 = LOCAL_TIME ( 10, 54, 14.00000000000000000, #39 ) ;
#532 = PLANE ( 'NONE',  #337 ) ;
#533 = CYLINDRICAL_SURFACE ( 'NONE', #45, 0.0009000000000000014932 ) ;
#534 = AXIS2_PLACEMENT_3D ( 'NONE', #776, #566, #194 ) ;
#535 = DIRECTION ( 'NONE',  ( -0.000000000000000000, -0.000000000000000000, -1.000000000000000000 ) ) ;
#536 = EDGE_CURVE ( 'NONE', #184, #441, #106, .T. ) ;
#537 = FACE_OUTER_BOUND ( 'NONE', #242, .T. ) ;
#538 = CARTESIAN_POINT ( 'NONE',  ( 0.06105930885087155341, 0.003545688610584088463, 0.005499999999999999681 ) ) ;
#539 = DIRECTION ( 'NONE',  ( -1.000000000000000000, 3.567408069429012096E-16, 0.000000000000000000 ) ) ;
#540 = CARTESIAN_POINT ( 'NONE',  ( -0.006940691149128461884, 0.003545688610584075452, 0.005499999999999999681 ) ) ;
#541 = DIRECTION ( 'NONE',  ( 1.000000000000000000, 0.000000000000000000, 0.000000000000000000 ) ) ;
#542 = CARTESIAN_POINT ( 'NONE',  ( 0.02069495647058826326, -0.01174838863714611388, 0.005499999999999999681 ) ) ;
#543 = APPROVAL_PERSON_ORGANIZATION ( #7, #624, #268 ) ;
#544 = LINE ( 'NONE', #281, #829 ) ;
#545 = EDGE_CURVE ( 'NONE', #754, #243, #405, .T. ) ;
#546 = CARTESIAN_POINT ( 'NONE',  ( -0.006940691149128461884, 0.003545688610584075452, 0.005499999999999999681 ) ) ;
#547 = CIRCLE ( 'NONE', #151, 0.002000000000000000042 ) ;
#548 = CIRCLE ( 'NONE', #626, 0.002000000000000000042 ) ;
#549 = AXIS2_PLACEMENT_3D ( 'NONE', #527, #270, #452 ) ;
#550 = DIRECTION ( 'NONE',  ( 0.000000000000000000, 0.000000000000000000, 1.000000000000000000 ) ) ;
#551 = MANIFOLD_SOLID_BREP ( 'Boss-Extrude1', #284 ) ;
#552 = DIRECTION ( 'NONE',  ( -0.000000000000000000, -0.000000000000000000, -1.000000000000000000 ) ) ;
#553 = EDGE_LOOP ( 'NONE', ( #699, #700, #688, #413, #766, #314, #773, #64, #508, #310, #247, #808, #365 ) ) ;
#554 = ADVANCED_FACE ( 'NONE', ( #418 ), #227, .T. ) ;
#555 = FACE_OUTER_BOUND ( 'NONE', #769, .T. ) ;
#556 = CARTESIAN_POINT ( 'NONE',  ( -0.008940691149128461926, 0.003545688610584075452, 0.005499999999999999681 ) ) ;
#557 = ORIENTED_EDGE ( 'NONE', *, *, #119, .T. ) ;
#558 = LINE ( 'NONE', #608, #26 ) ;
#559 = CIRCLE ( 'NONE', #827, 0.007979956632385373089 ) ;
#560 = ADVANCED_FACE ( 'NONE', ( #684 ), #407, .F. ) ;
#561 = AXIS2_PLACEMENT_3D ( 'NONE', #160, #799, #748 ) ;
#562 = EDGE_LOOP ( 'NONE', ( #298, #114, #573, #293 ) ) ;
#563 = ORIENTED_EDGE ( 'NONE', *, *, #635, .T. ) ;
#564 = EDGE_LOOP ( 'NONE', ( #831, #105, #56, #696 ) ) ;
#565 = ORIENTED_EDGE ( 'NONE', *, *, #757, .F. ) ;
#566 = DIRECTION ( 'NONE',  ( 0.000000000000000000, -1.000000000000000000, 0.000000000000000000 ) ) ;
#567 = PERSON ( 'UNSPECIFIED', 'UNSPECIFIED', 'UNSPECIFIED', ('UNSPECIFIED'), ('UNSPECIFIED'), ('UNSPECIFIED') ) ;
#568 = ADVANCED_FACE ( 'NONE', ( #110 ), #412, .T. ) ;
#569 = VERTEX_POINT ( 'NONE', #733 ) ;
#570 = ORIENTED_EDGE ( 'NONE', *, *, #730, .F. ) ;
#571 = VECTOR ( 'NONE', #812, 1.000000000000000000 ) ;
#572 = LINE ( 'NONE', #362, #444 ) ;
#573 = ORIENTED_EDGE ( 'NONE', *, *, #451, .F. ) ;
#574 = VERTEX_POINT ( 'NONE', #677 ) ;
#575 = ORIENTED_EDGE ( 'NONE', *, *, #410, .T. ) ;
#576 = VERTEX_POINT ( 'NONE', #100 ) ;
#577 = CARTESIAN_POINT ( 'NONE',  ( 0.06505930885087155002, 0.003545688610584088896, 0.000000000000000000 ) ) ;
#578 = ORIENTED_EDGE ( 'NONE', *, *, #818, .F. ) ;
#579 = ORIENTED_EDGE ( 'NONE', *, *, #421, .F. ) ;
#580 = VERTEX_POINT ( 'NONE', #164 ) ;
#581 = EDGE_CURVE ( 'NONE', #422, #753, #618, .T. ) ;
#582 = CARTESIAN_POINT ( 'NONE',  ( -0.004940691149128461843, 0.003545688610584075886, 0.005499999999999999681 ) ) ;
#583 = CALENDAR_DATE ( 2026, 13, 8 ) ;
#584 = LINE ( 'NONE', #530, #446 ) ;
#585 = PRODUCT_DEFINITION_FORMATION_WITH_SPECIFIED_SOURCE ( 'ANY', '', #432, .NOT_KNOWN. ) ;
#586 = ADVANCED_FACE ( 'NONE', ( #673 ), #96, .F. ) ;
#587 = CARTESIAN_POINT ( 'NONE',  ( -0.006940691149128461884, 0.003545688610584075452, 0.005499999999999999681 ) ) ;
#588 = DATE_AND_TIME ( #189, #755 ) ;
#589 = CARTESIAN_POINT ( 'NONE',  ( 0.03069495647058826174, -0.008701674289295387513, 0.005499999999999999681 ) ) ;
#590 = VECTOR ( 'NONE', #283, 1.000000000000000000 ) ;
#591 = CYLINDRICAL_SURFACE ( 'NONE', #349, 0.002000000000000000042 ) ;
#592 = DIRECTION ( 'NONE',  ( 1.000000000000000000, 0.000000000000000000, 0.000000000000000000 ) ) ;
#593 = DATE_TIME_ROLE ( 'creation_date' ) ;
#594 = FACE_OUTER_BOUND ( 'NONE', #128, .T. ) ;
#595 = CARTESIAN_POINT ( 'NONE',  ( -0.006940691149128461884, 0.003545688610584075452, 0.000000000000000000 ) ) ;
#596 = DIRECTION ( 'NONE',  ( -0.000000000000000000, -0.000000000000000000, -1.000000000000000000 ) ) ;
#597 = DIRECTION ( 'NONE',  ( 1.000000000000000000, 0.000000000000000000, -0.000000000000000000 ) ) ;
#598 = EDGE_CURVE ( 'NONE', #243, #648, #544, .T. ) ;
#599 = CARTESIAN_POINT ( 'NONE',  ( 0.04401710473425203551, 0.01152564524296944420, 0.005499999999999999681 ) ) ;
#600 = DIRECTION ( 'NONE',  ( 0.000000000000000000, 0.000000000000000000, 1.000000000000000000 ) ) ;
#601 = DIRECTION ( 'NONE',  ( -0.000000000000000000, -0.000000000000000000, -1.000000000000000000 ) ) ;
#602 = VECTOR ( 'NONE', #450, 1.000000000000000000 ) ;
#603 = VECTOR ( 'NONE', #211, 1.000000000000000000 ) ;
#604 = ORGANIZATION ( 'UNSPECIFIED', 'UNSPECIFIED', '' ) ;
#605 = LINE ( 'NONE', #664, #190 ) ;
#606 = DIRECTION ( 'NONE',  ( 1.000000000000000000, 0.000000000000000000, 0.000000000000000000 ) ) ;
#607 = ADVANCED_FACE ( 'NONE', ( #41 ), #802, .F. ) ;
#608 = CARTESIAN_POINT ( 'NONE',  ( 0.06305930885087154825, -0.004434268021801295034, 0.005499999999999999681 ) ) ;
#609 = CARTESIAN_POINT ( 'NONE',  ( -0.006940691149128464486, -0.004434268021801299371, 0.000000000000000000 ) ) ;
#610 = CARTESIAN_POINT ( 'NONE',  ( -0.006940691149128464486, -0.004434268021801299371, 0.005499999999999999681 ) ) ;
#611 = EDGE_CURVE ( 'NONE', #161, #569, #108, .T. ) ;
#612 = LINE ( 'NONE', #285, #419 ) ;
#613 = EDGE_LOOP ( 'NONE', ( #834, #57, #579, #557 ) ) ;
#614 = APPLICATION_PROTOCOL_DEFINITION ( 'international standard', 'config_control_design', 1994, #366 ) ;
#615 = CIRCLE ( 'NONE', #240, 0.007979956632385376558 ) ;
#616 = AXIS2_PLACEMENT_3D ( 'NONE', #215, #474, #278 ) ;
#617 = DIRECTION ( 'NONE',  ( -0.000000000000000000, -0.000000000000000000, -1.000000000000000000 ) ) ;
#618 = LINE ( 'NONE', #153, #671 ) ;
#619 = VERTEX_POINT ( 'NONE', #289 ) ;
#620 = UNCERTAINTY_MEASURE_WITH_UNIT (LENGTH_MEASURE( 1.000000000000000082E-05 ), #279, 'distance_accuracy_value', 'NONE');
#621 = DIRECTION ( 'NONE',  ( 1.000000000000000000, 0.000000000000000000, 0.000000000000000000 ) ) ;
#622 = EDGE_CURVE ( 'NONE', #511, #243, #612, .T. ) ;
#623 = ORIENTED_EDGE ( 'NONE', *, *, #545, .T. ) ;
#624 = APPROVAL ( #438, 'UNSPECIFIED' ) ;
#625 = VECTOR ( 'NONE', #393, 1.000000000000000000 ) ;
#626 = AXIS2_PLACEMENT_3D ( 'NONE', #288, #550, #621 ) ;
#627 = AXIS2_PLACEMENT_3D ( 'NONE', #679, #213, #745 ) ;
#628 = ORIENTED_EDGE ( 'NONE', *, *, #526, .F. ) ;
#629 = VERTEX_POINT ( 'NONE', #556 ) ;
#630 = EDGE_CURVE ( 'NONE', #252, #192, #223, .T. ) ;
#631 = LINE ( 'NONE', #120, #126 ) ;
#632 = ORIENTED_EDGE ( 'NONE', *, *, #611, .F. ) ;
#633 = VERTEX_POINT ( 'NONE', #257 ) ;
#634 = CARTESIAN_POINT ( 'NONE',  ( -0.01492064778151383497, 0.003545688610584075452, 0.000000000000000000 ) ) ;
#635 = EDGE_CURVE ( 'NONE', #569, #161, #738, .T. ) ;
#636 = ORIENTED_EDGE ( 'NONE', *, *, #486, .T. ) ;
#637 = ORIENTED_EDGE ( 'NONE', *, *, #19, .T. ) ;
#638 = ORIENTED_EDGE ( 'NONE', *, *, #635, .F. ) ;
#639 = ORIENTED_EDGE ( 'NONE', *, *, #685, .T. ) ;
#640 = CARTESIAN_POINT ( 'NONE',  ( 0.01737280820692448102, 0.01152564524296944420, 0.005499999999999999681 ) ) ;
#641 = VECTOR ( 'NONE', #800, 1.000000000000000000 ) ;
#642 = ORIENTED_EDGE ( 'NONE', *, *, #622, .T. ) ;
#643 = EDGE_CURVE ( 'NONE', #346, #739, #521, .T. ) ;
#644 = VERTEX_POINT ( 'NONE', #132 ) ;
#645 = ORIENTED_EDGE ( 'NONE', *, *, #229, .T. ) ;
#646 = DIRECTION ( 'NONE',  ( -0.000000000000000000, -0.000000000000000000, -1.000000000000000000 ) ) ;
#647 = DIRECTION ( 'NONE',  ( -0.000000000000000000, -0.000000000000000000, -1.000000000000000000 ) ) ;
#648 = VERTEX_POINT ( 'NONE', #522 ) ;
#649 = CC_DESIGN_PERSON_AND_ORGANIZATION_ASSIGNMENT ( #71, #259, ( #585 ) ) ;
#650 = CARTESIAN_POINT ( 'NONE',  ( 0.04069495647058826021, -0.01174838863714610521, 0.000000000000000000 ) ) ;
#651 = CARTESIAN_POINT ( 'NONE',  ( -0.006940691149128461884, 0.003545688610584075452, 0.000000000000000000 ) ) ;
#652 = CARTESIAN_POINT ( 'NONE',  ( 0.02329246476478255556, 0.003545688610584074585, 0.005499999999999999681 ) ) ;
#653 = CYLINDRICAL_SURFACE ( 'NONE', #37, 0.002000000000000000042 ) ;
#654 = PERSON_AND_ORGANIZATION ( #567, #604 ) ;
#655 = FACE_OUTER_BOUND ( 'NONE', #112, .T. ) ;
#656 = AXIS2_PLACEMENT_3D ( 'NONE', #152, #478, #680 ) ;
#657 = VECTOR ( 'NONE', #794, 1.000000000000000000 ) ;
#658 = DIRECTION ( 'NONE',  ( -1.000000000000000000, 9.109888043174519623E-17, -0.000000000000000000 ) ) ;
#659 = DIRECTION ( 'NONE',  ( -0.000000000000000000, -0.000000000000000000, -1.000000000000000000 ) ) ;
#660 = EDGE_CURVE ( 'NONE', #580, #183, #16, .T. ) ;
#661 = CARTESIAN_POINT ( 'NONE',  ( 0.01737280820692448102, 0.01152564524296944420, 0.000000000000000000 ) ) ;
#662 = DIRECTION ( 'NONE',  ( -0.000000000000000000, -0.000000000000000000, -1.000000000000000000 ) ) ;
#663 = CARTESIAN_POINT ( 'NONE',  ( 0.04069495647058826021, -0.01174838863714610521, 0.005499999999999999681 ) ) ;
#664 = CARTESIAN_POINT ( 'NONE',  ( -0.006940691149128464486, -0.004434268021801299371, 0.005499999999999999681 ) ) ;
#665 = CARTESIAN_POINT ( 'NONE',  ( 0.01737280820692448102, 0.01152564524296944420, 0.005499999999999999681 ) ) ;
#666 = CC_DESIGN_APPROVAL ( #624, ( #585 ) ) ;
#667 = DIRECTION ( 'NONE',  ( 0.7952889393028981235, -0.6062305691916826111, 0.000000000000000000 ) ) ;
#668 = DIRECTION ( 'NONE',  ( 0.000000000000000000, 0.000000000000000000, 1.000000000000000000 ) ) ;
#669 = AXIS2_PLACEMENT_3D ( 'NONE', #244, #249, #507 ) ;
#670 = ADVANCED_FACE ( 'NONE', ( #780 ), #709, .F. ) ;
#671 = VECTOR ( 'NONE', #743, 1.000000000000000000 ) ;
#672 = LINE ( 'NONE', #411, #129 ) ;
#673 = FACE_OUTER_BOUND ( 'NONE', #42, .T. ) ;
#674 = LINE ( 'NONE', #97, #641 ) ;
#675 = EDGE_CURVE ( 'NONE', #125, #576, #8, .T. ) ;
#676 = DIRECTION ( 'NONE',  ( 3.567408069429012096E-16, 1.000000000000000000, -0.000000000000000000 ) ) ;
#677 = CARTESIAN_POINT ( 'NONE',  ( -0.006940691149128461017, 0.01152564524296944767, 0.000000000000000000 ) ) ;
#678 = EDGE_LOOP ( 'NONE', ( #253, #248, #117, #823 ) ) ;
#679 = CARTESIAN_POINT ( 'NONE',  ( 0.000000000000000000, 0.000000000000000000, 0.000000000000000000 ) ) ;
#680 = DIRECTION ( 'NONE',  ( 0.000000000000000000, -0.000000000000000000, 1.000000000000000000 ) ) ;
#681 = DIRECTION ( 'NONE',  ( 0.000000000000000000, -1.000000000000000000, 0.000000000000000000 ) ) ;
#682 = ORIENTED_EDGE ( 'NONE', *, *, #506, .T. ) ;
#683 = FACE_OUTER_BOUND ( 'NONE', #678, .T. ) ;
#684 = FACE_OUTER_BOUND ( 'NONE', #613, .T. ) ;
#685 = EDGE_CURVE ( 'NONE', #644, #576, #73, .T. ) ;
#686 = LOCAL_TIME ( 10, 54, 14.00000000000000000, #702 ) ;
#687 = EDGE_CURVE ( 'NONE', #250, #644, #191, .T. ) ;
#688 = ORIENTED_EDGE ( 'NONE', *, *, #770, .T. ) ;
#689 = ORIENTED_EDGE ( 'NONE', *, *, #581, .T. ) ;
#690 = ORIENTED_EDGE ( 'NONE', *, *, #221, .T. ) ;
#691 = ADVANCED_FACE ( 'NONE', ( #81 ), #316, .F. ) ;
#692 = VECTOR ( 'NONE', #103, 1.000000000000000000 ) ;
#693 = AXIS2_PLACEMENT_3D ( 'NONE', #595, #251, #265 ) ;
#694 = DIRECTION ( 'NONE',  ( 1.000000000000000000, 0.000000000000000000, 0.000000000000000000 ) ) ;
#695 = ORIENTED_EDGE ( 'NONE', *, *, #188, .F. ) ;
#696 = ORIENTED_EDGE ( 'NONE', *, *, #352, .F. ) ;
#697 = CARTESIAN_POINT ( 'NONE',  ( 0.02329246476478255556, 0.003545688610584074585, 0.005499999999999999681 ) ) ;
#698 = EDGE_LOOP ( 'NONE', ( #299, #65, #180, #703 ) ) ;
#699 = ORIENTED_EDGE ( 'NONE', *, *, #451, .T. ) ;
#700 = ORIENTED_EDGE ( 'NONE', *, *, #526, .T. ) ;
#701 = CARTESIAN_POINT ( 'NONE',  ( 0.03159495647058826323, -0.005392051271870114230, 0.005499999999999999681 ) ) ;
#702 = COORDINATED_UNIVERSAL_TIME_OFFSET ( 3, 0, .AHEAD. ) ;
#703 = ORIENTED_EDGE ( 'NONE', *, *, #581, .F. ) ;
#704 = ORIENTED_EDGE ( 'NONE', *, *, #417, .F. ) ;
#705 = ORIENTED_EDGE ( 'NONE', *, *, #361, .F. ) ;
#706 = CYLINDRICAL_SURFACE ( 'NONE', #320, 0.0009000000000000014932 ) ;
#707 = APPROVAL_PERSON_ORGANIZATION ( #409, #5, #102 ) ;
#708 = APPROVAL_ROLE ( '' ) ;
#709 = CYLINDRICAL_SURFACE ( 'NONE', #193, 0.0009000000000000014932 ) ;
#710 = VERTEX_POINT ( 'NONE', #209 ) ;
#711 = DIRECTION ( 'NONE',  ( 0.000000000000000000, 0.000000000000000000, 1.000000000000000000 ) ) ;
#712 = PLANE ( 'NONE',  #517 ) ;
#713 = CARTESIAN_POINT ( 'NONE',  ( 0.02329246476478255556, 0.003545688610584074585, 0.000000000000000000 ) ) ;
#714 = DIRECTION ( 'NONE',  ( -0.000000000000000000, -0.000000000000000000, -1.000000000000000000 ) ) ;
#715 = DATE_AND_TIME ( #455, #727 ) ;
#716 = CARTESIAN_POINT ( 'NONE',  ( 0.02069495647058826326, -0.01174838863714611388, 0.005499999999999999681 ) ) ;
#717 = DIRECTION ( 'NONE',  ( 0.5957848380496859608, -0.8031440884113570933, 0.000000000000000000 ) ) ;
#718 = CARTESIAN_POINT ( 'NONE',  ( 0.03793416630483498198, 0.003545688610584074585, 0.005499999999999999681 ) ) ;
#719 = AXIS2_PLACEMENT_3D ( 'NONE', #651, #668, #84 ) ;
#720 = LINE ( 'NONE', #716, #602 ) ;
#721 = VECTOR ( 'NONE', #658, 1.000000000000000000 ) ;
#722 = AXIS2_PLACEMENT_3D ( 'NONE', #343, #681, #32 ) ;
#723 = DIRECTION ( 'NONE',  ( -0.000000000000000000, -0.000000000000000000, -1.000000000000000000 ) ) ;
#724 = DIRECTION ( 'NONE',  ( -0.5957848380496858498, 0.8031440884113569822, -0.000000000000000000 ) ) ;
#725 = CARTESIAN_POINT ( 'NONE',  ( -0.006940691149128461884, 0.01152564524296944420, 0.000000000000000000 ) ) ;
#726 = CARTESIAN_POINT ( 'NONE',  ( 0.06505930885087155002, 0.003545688610584088896, 0.005499999999999999681 ) ) ;
#727 = LOCAL_TIME ( 10, 54, 14.00000000000000000, #778 ) ;
#728 = DIRECTION ( 'NONE',  ( 0.6062305691916826111, 0.7952889393028981235, 0.000000000000000000 ) ) ;
#729 = DIRECTION ( 'NONE',  ( 1.000000000000000000, 0.000000000000000000, 0.000000000000000000 ) ) ;
#730 = EDGE_CURVE ( 'NONE', #183, #250, #20, .T. ) ;
#731 = APPROVAL_DATE_TIME ( #809, #5 ) ;
#732 = LINE ( 'NONE', #542, #357 ) ;
#733 = CARTESIAN_POINT ( 'NONE',  ( 0.02979495647058826024, -0.008701674289295387513, 0.000000000000000000 ) ) ;
#734 = CC_DESIGN_SECURITY_CLASSIFICATION ( #469, ( #585 ) ) ;
#735 = VECTOR ( 'NONE', #367, 1.000000000000000000 ) ;
#736 = AXIS2_PLACEMENT_3D ( 'NONE', #353, #676, #539 ) ;
#737 = CC_DESIGN_DATE_AND_TIME_ASSIGNMENT ( #524, #783, ( #469 ) ) ;
#738 = CIRCLE ( 'NONE', #358, 0.0009000000000000014932 ) ;
#739 = VERTEX_POINT ( 'NONE', #85 ) ;
#740 = CARTESIAN_POINT ( 'NONE',  ( 0.03069495647058826174, -0.008701674289295387513, 0.000000000000000000 ) ) ;
#741 = PERSON_AND_ORGANIZATION_ROLE ( 'design_owner' ) ;
#742 = LINE ( 'NONE', #159, #491 ) ;
#743 = DIRECTION ( 'NONE',  ( -0.000000000000000000, -0.000000000000000000, -1.000000000000000000 ) ) ;
#744 = ORIENTED_EDGE ( 'NONE', *, *, #777, .F. ) ;
#745 = DIRECTION ( 'NONE',  ( 1.000000000000000000, 0.000000000000000000, 0.000000000000000000 ) ) ;
#746 = ADVANCED_FACE ( 'NONE', ( #321 ), #591, .F. ) ;
#747 = LINE ( 'NONE', #416, #692 ) ;
#748 = DIRECTION ( 'NONE',  ( -1.000000000000000000, -4.336808689942018229E-16, 0.000000000000000000 ) ) ;
#749 = ORIENTED_EDGE ( 'NONE', *, *, #486, .F. ) ;
#750 = AXIS2_PLACEMENT_3D ( 'NONE', #27, #138, #597 ) ;
#751 = ORIENTED_EDGE ( 'NONE', *, *, #177, .F. ) ;
#752 = EDGE_CURVE ( 'NONE', #234, #308, #201, .T. ) ;
#753 = VERTEX_POINT ( 'NONE', #389 ) ;
#754 = VERTEX_POINT ( 'NONE', #327 ) ;
#755 = LOCAL_TIME ( 10, 54, 14.00000000000000000, #256 ) ;
#756 = FACE_OUTER_BOUND ( 'NONE', #49, .T. ) ;
#757 = EDGE_CURVE ( 'NONE', #308, #754, #390, .T. ) ;
#758 = ORIENTED_EDGE ( 'NONE', *, *, #155, .F. ) ;
#759 = ORIENTED_EDGE ( 'NONE', *, *, #458, .F. ) ;
#760 = VECTOR ( 'NONE', #723, 1.000000000000000000 ) ;
#761 = DIRECTION ( 'NONE',  ( -1.000000000000000000, -0.000000000000000000, -0.000000000000000000 ) ) ;
#762 = EDGE_LOOP ( 'NONE', ( #637, #246, #489, #825 ) ) ;
#763 = EDGE_LOOP ( 'NONE', ( #500, #179, #749, #238 ) ) ;
#764 = ORIENTED_EDGE ( 'NONE', *, *, #536, .T. ) ;
#765 = FACE_OUTER_BOUND ( 'NONE', #509, .T. ) ;
#766 = ORIENTED_EDGE ( 'NONE', *, *, #205, .T. ) ;
#767 = ORIENTED_EDGE ( 'NONE', *, *, #196, .T. ) ;
#768 = VERTEX_POINT ( 'NONE', #599 ) ;
#769 = EDGE_LOOP ( 'NONE', ( #425, #705, #224, #46 ) ) ;
#770 = EDGE_CURVE ( 'NONE', #768, #408, #584, .T. ) ;
#771 = CARTESIAN_POINT ( 'NONE',  ( -0.006940691149128461017, 0.01152564524296944767, 0.005499999999999999681 ) ) ;
#772 = LINE ( 'NONE', #447, #323 ) ;
#773 = ORIENTED_EDGE ( 'NONE', *, *, #236, .T. ) ;
#774 = CIRCLE ( 'NONE', #140, 0.002000000000000000042 ) ;
#775 = CIRCLE ( 'NONE', #11, 0.0009000000000000014932 ) ;
#776 = CARTESIAN_POINT ( 'NONE',  ( -0.006940691149128461884, 0.01152564524296944420, 0.005499999999999999681 ) ) ;
#777 = EDGE_CURVE ( 'NONE', #441, #739, #789, .T. ) ;
#778 = COORDINATED_UNIVERSAL_TIME_OFFSET ( 3, 0, .AHEAD. ) ;
#779 = DIRECTION ( 'NONE',  ( 1.000000000000000000, 0.000000000000000000, 0.000000000000000000 ) ) ;
#780 = FACE_OUTER_BOUND ( 'NONE', #698, .T. ) ;
#781 = ORIENTED_EDGE ( 'NONE', *, *, #752, .F. ) ;
#782 = DIRECTION ( 'NONE',  ( 0.000000000000000000, 0.000000000000000000, 1.000000000000000000 ) ) ;
#783 = DATE_TIME_ROLE ( 'classification_date' ) ;
#784 = FACE_OUTER_BOUND ( 'NONE', #553, .T. ) ;
#785 = EDGE_CURVE ( 'NONE', #313, #422, #828, .T. ) ;
#786 = DIRECTION ( 'NONE',  ( -1.000000000000000000, 0.000000000000000000, 0.000000000000000000 ) ) ;
#787 = CARTESIAN_POINT ( 'NONE',  ( 0.01737280820692448102, 0.01152564524296944420, 0.005499999999999999681 ) ) ;
#788 = DIRECTION ( 'NONE',  ( 0.000000000000000000, 0.000000000000000000, 1.000000000000000000 ) ) ;
#789 = LINE ( 'NONE', #514, #760 ) ;
#790 = EDGE_CURVE ( 'NONE', #184, #346, #468, .T. ) ;
#791 = LINE ( 'NONE', #144, #91 ) ;
#792 = DIRECTION ( 'NONE',  ( -0.4135499607872099026, 0.9104814275606598617, 0.000000000000000000 ) ) ;
#793 = CIRCLE ( 'NONE', #166, 0.002000000000000000042 ) ;
#794 = DIRECTION ( 'NONE',  ( -0.6062305691916825001, -0.7952889393028980125, -0.000000000000000000 ) ) ;
#795 = LINE ( 'NONE', #398, #173 ) ;
#796 = CARTESIAN_POINT ( 'NONE',  ( 0.03159495647058826323, -0.008701674289295387513, 0.005499999999999999681 ) ) ;
#797 = FACE_OUTER_BOUND ( 'NONE', #505, .T. ) ;
#798 = EDGE_CURVE ( 'NONE', #9, #36, #772, .T. ) ;
#799 = DIRECTION ( 'NONE',  ( -4.336808689942018229E-16, 1.000000000000000000, 0.000000000000000000 ) ) ;
#800 = DIRECTION ( 'NONE',  ( 1.000000000000000000, 0.000000000000000000, 0.000000000000000000 ) ) ;
#801 = CARTESIAN_POINT ( 'NONE',  ( 0.04069495647058826021, -0.01174838863714610521, 0.005499999999999999681 ) ) ;
#802 = PLANE ( 'NONE',  #465 ) ;
#803 = VECTOR ( 'NONE', #171, 1.000000000000000000 ) ;
#804 = CIRCLE ( 'NONE', #428, 0.002000000000000001776 ) ;
#805 = DIRECTION ( 'NONE',  ( 1.000000000000000000, 0.000000000000000000, 0.000000000000000000 ) ) ;
#806 = CYLINDRICAL_SURFACE ( 'NONE', #218, 0.007979956632385369619 ) ;
#807 = CARTESIAN_POINT ( 'NONE',  ( 0.04069495647058826021, -0.01174838863714610521, 0.005499999999999999681 ) ) ;
#808 = ORIENTED_EDGE ( 'NONE', *, *, #355, .T. ) ;
#809 = DATE_AND_TIME ( #287, #531 ) ;
#810 = EDGE_CURVE ( 'NONE', #370, #290, #674, .T. ) ;
#811 = DIRECTION ( 'NONE',  ( 0.4135499607872099581, -0.9104814275606599727, -0.000000000000000000 ) ) ;
#812 = DIRECTION ( 'NONE',  ( 1.000000000000000000, -3.567408069429011603E-16, 0.000000000000000000 ) ) ;
#813 = ORIENTED_EDGE ( 'NONE', *, *, #785, .T. ) ;
#814 = FACE_OUTER_BOUND ( 'NONE', #562, .T. ) ;
#815 = AXIS2_PLACEMENT_3D ( 'NONE', #141, #466, #70 ) ;
#816 = ORIENTED_EDGE ( 'NONE', *, *, #38, .F. ) ;
#817 = AXIS2_PLACEMENT_3D ( 'NONE', #540, #350, #488 ) ;
#818 = EDGE_CURVE ( 'NONE', #739, #346, #107, .T. ) ;
#819 = ORIENTED_EDGE ( 'NONE', *, *, #410, .F. ) ;
#820 = ORIENTED_EDGE ( 'NONE', *, *, #518, .F. ) ;
#821 = CC_DESIGN_PERSON_AND_ORGANIZATION_ASSIGNMENT ( #137, #14, ( #585 ) ) ;
#822 = ORIENTED_EDGE ( 'NONE', *, *, #790, .T. ) ;
#823 = ORIENTED_EDGE ( 'NONE', *, *, #361, .T. ) ;
#824 = DIRECTION ( 'NONE',  ( 1.000000000000000000, 0.000000000000000000, 0.000000000000000000 ) ) ;
#825 = ORIENTED_EDGE ( 'NONE', *, *, #675, .T. ) ;
#826 = ORIENTED_EDGE ( 'NONE', *, *, #785, .F. ) ;
#827 = AXIS2_PLACEMENT_3D ( 'NONE', #587, #258, #592 ) ;
#828 = CIRCLE ( 'NONE', #464, 0.0009000000000000014932 ) ;
#829 = VECTOR ( 'NONE', #104, 1.000000000000000000 ) ;
#830 = CYLINDRICAL_SURFACE ( 'NONE', #669, 0.0009000000000000014932 ) ;
#831 = ORIENTED_EDGE ( 'NONE', *, *, #145, .F. ) ;
#832 = EDGE_LOOP ( 'NONE', ( #623, #440, #380, #296 ) ) ;
#833 = VERTEX_POINT ( 'NONE', #347 ) ;
#834 = ORIENTED_EDGE ( 'NONE', *, *, #325, .T. ) ;
#835 = EDGE_CURVE ( 'NONE', #302, #629, #793, .T. ) ;
#836 = CARTESIAN_POINT ( 'NONE',  ( -0.006940691149128461017, 0.01152564524296944767, 0.005499999999999999681 ) ) ;
ENDSEC;
END-ISO-10303-21;
